/* XPM */
static char * dor1_xpm[] = {
"28 28 292 2",
"  	c #3A4A6B",
". 	c #364869",
"+ 	c #223245",
"@ 	c #000000",
"# 	c #3C4C6C",
"$ 	c #3A4B6B",
"% 	c #3A576B",
"& 	c #3A566B",
"* 	c #38486A",
"= 	c #324667",
"- 	c #344768",
"; 	c #364F69",
"> 	c #3B506B",
", 	c #3E516D",
"' 	c #435870",
") 	c #3D506D",
"! 	c #111828",
"~ 	c #101826",
"{ 	c #354369",
"] 	c #324966",
"^ 	c #334268",
"/ 	c #334068",
"( 	c #344268",
"_ 	c #3B4C6A",
": 	c #394F66",
"< 	c #253744",
"[ 	c #B1ACA7",
"} 	c #232221",
"| 	c #354464",
"1 	c #303E62",
"2 	c #2F3B61",
"3 	c #2E3B61",
"4 	c #2E465F",
"5 	c #304660",
"6 	c #364564",
"7 	c #334263",
"8 	c #334264",
"9 	c #374E65",
"0 	c #395567",
"a 	c #394C66",
"b 	c #3B5167",
"c 	c #0F1724",
"d 	c #F8F0E9",
"e 	c #324062",
"f 	c #303D64",
"g 	c #324867",
"h 	c #324C66",
"i 	c #344368",
"j 	c #364469",
"k 	c #31415C",
"l 	c #190C00",
"m 	c #926D49",
"n 	c #1D160F",
"o 	c #3A1D00",
"p 	c #080400",
"q 	c #CC9966",
"r 	c #2A1500",
"s 	c #202C44",
"t 	c #334567",
"u 	c #344D67",
"v 	c #384B6A",
"w 	c #354769",
"x 	c #3B4E6B",
"y 	c #32455C",
"z 	c #4E2200",
"A 	c #742F00",
"B 	c #95542A",
"C 	c #522208",
"D 	c #B65000",
"E 	c #521E00",
"F 	c #B66D3A",
"G 	c #823900",
"H 	c #222E46",
"I 	c #384B6B",
"J 	c #3B536C",
"K 	c #365069",
"L 	c #374D6A",
"M 	c #632700",
"N 	c #421600",
"O 	c #273948",
"P 	c #3D586E",
"Q 	c #3B4F6C",
"R 	c #384E6B",
"S 	c #37456A",
"T 	c #344365",
"U 	c #262530",
"V 	c #863100",
"W 	c #692D00",
"X 	c #5F3C1A",
"Y 	c #6D4924",
"Z 	c #4A2200",
"` 	c #A84200",
" .	c #973900",
"..	c #3D2225",
"+.	c #31415B",
"@.	c #394A6B",
"#.	c #344369",
"$.	c #3A526B",
"%.	c #314661",
"&.	c #381B00",
"*.	c #7A3900",
"=.	c #543519",
"-.	c #936231",
";.	c #291B0E",
">.	c #996633",
",.	c #744C25",
"'.	c #482000",
").	c #C55F00",
"!.	c #703600",
"~.	c #293C50",
"{.	c #364C68",
"].	c #344968",
"^.	c #344569",
"/.	c #160700",
"(.	c #993300",
"_.	c #571D00",
":.	c #573A1D",
"<.	c #2C1D0F",
"[.	c #DBDBDB",
"}.	c #83572C",
"|.	c #2C0F00",
"1.	c #2F4059",
"2.	c #AF5700",
"3.	c #834302",
"4.	c #51371D",
"5.	c #B98653",
"6.	c #544637",
"7.	c #E0E0E0",
"8.	c #242424",
"9.	c #C69360",
"0.	c #79522C",
"a.	c #572E04",
"b.	c #321900",
"c.	c #2F3C61",
"d.	c #192138",
"e.	c #080604",
"f.	c #553C23",
"g.	c #AF7C49",
"h.	c #BCAE9F",
"i.	c #F5F5F5",
"j.	c #B6B6B6",
"k.	c #C28F5C",
"l.	c #724F2C",
"m.	c #4F361D",
"n.	c #B78451",
"o.	c #BD8A57",
"p.	c #704D2A",
"q.	c #19130C",
"r.	c #131D2E",
"s.	c #2F3D63",
"t.	c #3C4E6C",
"u.	c #201C18",
"v.	c #DABC9F",
"w.	c #BE9871",
"x.	c #C3905D",
"y.	c #3A2C1D",
"z.	c #C08D5A",
"A.	c #C99663",
"B.	c #BA8E61",
"C.	c #D1B497",
"D.	c #615448",
"E.	c #2A3659",
"F.	c #334667",
"G.	c #374F69",
"H.	c #EEE6DE",
"I.	c #8E6A47",
"J.	c #D2B598",
"K.	c #75573A",
"L.	c #DECDBC",
"M.	c #6D6D6D",
"N.	c #313F5B",
"O.	c #3A526A",
"P.	c #3B4C6C",
"Q.	c #E2D3C5",
"R.	c #C5A88A",
"S.	c #2F4559",
"T.	c #38496A",
"U.	c #37466A",
"V.	c #FBF9F7",
"W.	c #CEB49A",
"X.	c #AD7A47",
"Y.	c #302215",
"Z.	c #A06D3A",
"`.	c #684828",
" +	c #8E6134",
".+	c #432F1B",
"++	c #B3804D",
"@+	c #B7916A",
"#+	c #F7F3EE",
"$+	c #2A3E58",
"%+	c #354569",
"&+	c #364B6A",
"*+	c #57422C",
"=+	c #2D4159",
"-+	c #394F6B",
";+	c #354D69",
">+	c #E6DACD",
",+	c #B48556",
"'+	c #9C7853",
")+	c #828282",
"!+	c #444444",
"~+	c #C1C1C1",
"{+	c #6C5641",
"]+	c #CB9865",
"^+	c #BC8B5B",
"/+	c #CDB49B",
"(+	c #30445A",
"_+	c #3E5B6F",
":+	c #324168",
"<+	c #C9AB8D",
"[+	c #BC8956",
"}+	c #C6A17D",
"|+	c #D5D5D5",
"1+	c #EAEAEA",
"2+	c #C0AA94",
"3+	c #C79461",
"4+	c #B89067",
"5+	c #31415A",
"6+	c #384C6C",
"7+	c #323F68",
"8+	c #2C3959",
"9+	c #39496B",
"0+	c #F3ECE6",
"a+	c #C4A17F",
"b+	c #B3865A",
"c+	c #A38669",
"d+	c #84674A",
"e+	c #C3A588",
"f+	c #9A744D",
"g+	c #C89562",
"h+	c #B98F64",
"i+	c #31495B",
"j+	c #354E67",
"k+	c #EAE0D5",
"l+	c #CA9764",
"m+	c #BB8D5E",
"n+	c #D5C1AC",
"o+	c #2B3C59",
"p+	c #3D546C",
"q+	c #A77441",
"r+	c #2A3D59",
"s+	c #324B66",
"t+	c #394E6C",
"u+	c #FFFFFF",
"v+	c #D3BDA8",
"w+	c #B68350",
"x+	c #422C16",
"y+	c #924900",
"z+	c #A03A00",
"A+	c #CC6600",
"B+	c #160F07",
"C+	c #A87542",
"D+	c #C5925F",
"E+	c #B6926D",
"F+	c #31485B",
"G+	c #354C68",
"H+	c #39566C",
"I+	c #753A00",
"J+	c #D1761A",
"K+	c #A13D05",
"L+	c #D37C24",
"M+	c #E6B482",
"N+	c #A54A1A",
"O+	c #F0D3B6",
"P+	c #2E3C59",
"Q+	c #36456A",
"R+	c #374969",
"S+	c #2B3C58",
"T+	c #354469",
"U+	c #AB8055",
"V+	c #322519",
"W+	c #572C00",
"X+	c #451900",
"Y+	c #4B2500",
"Z+	c #896745",
"`+	c #374C69",
" @	c #393939",
".@	c #868686",
"+@	c #5F5F5F",
"@@	c #2B4058",
"#@	c #050505",
"$@	c #1E1B18",
"%@	c #1A130B",
"&@	c #15100A",
"*@	c #0B0B0B",
"=@	c #1B1B1B",
"-@	c #131313",
";@	c #0C0906",
">@	c #1C150E",
",@	c #1A1510",
"'@	c #101010",
")@	c #2A3B58",
"      . + @ @ # $ % &   * = - ; > , ' ) ! @ ~     { ] ^ ",
"/ ( _ : < [ } | 1 2 3 4 5 6 7 8 9 0 a b c d c e f g h i ",
"/ j k l l m n o o o o o o o o o o o o o p q p r s t u v ",
"w x y z A B C D D D D D D D D D D D D D E F E G H I J K ",
"L v y z D M N N D D D D D D D D D D D M N N D G O P Q R ",
"S T U V W X Y Y Z ` ` ` ` ` ` ` ` ` W X Y Y Z  ...+.@.#.",
"$.%.&.*.=.-.;.>.,.'.).).).).).).).*.=.-.;.>.,.'.!.~.{.].",
"^./.(._.:.<.[.@ }.|.(.(.(.(.(.(.(._.:.<.[.@ }.|.(.N 1.v ",
"@ 2.3.4.5.6.7.8.9.0.a.2.2.2.2.2.3.4.5.6.7.8.9.0.a.2.b.c.",
"d.e.f.g.q h.i.j.q k.l.<.<.<.<.<.m.n.q h.i.j.q o.p.q.r.s.",
"t.u.v.w.x.y.[.@ q q z.g.g.g.g.g.n.q q y.[.@ A.B.C.D.E.F.",
"G.8.H.w.x.I.J.K.q q q q q q q q q q q I.J.K.A.B.L.M.N.O.",
"P.8.Q.g.q q q q q q q q q q q q q q q q q q q o.R.M.S.T.",
"U.8.V.W.5.X.Y.Z.q z.`.`.z.q q  +.+++q X.Y.Z.9.@+#+M.$+%+",
"&+8.Q.g.q y.[.@ q m M.M.m q q 8.j.*+q y.[.@ q o.R.M.=+-+",
";+8.>+,+A.6.7.8.q '+)+)+'+q q !+~+{+q 6.7.8.]+^+/+M.(+_+",
":+8.#+<+[+h.i.j.q }+|+|+}+q q ~+1+2+q h.i.j.3+4+H.M.5+6+",
"7+8.Q.g.q y.[.@ q m M.M.m q q 8.j.*+q y.[.@ q o.R.M.8+^ ",
"9+8.0+a+z.I.J.K.q b+c+c+b+q q d+e+f+q I.J.K.g+h+>+M.i+$ ",
"j+8.k+h+9.q q q q q q q q q q q q q q q q q l+m+n+M.o+= ",
"p+8.Q.g.q X.Y.Z.q q q ++.+n n q+q q q X.Y.Z.q o.R.M.r+s+",
"t+8.u+v+w+y.[.@ q q w+x+y+z+A+B+C+q q y.[.@ D+E+u+M.F+G+",
"H+8.Q.g.q 6.7.8.q q K.I+J+K+L+2.y.q q 6.7.8.q o.R.M.(+$.",
"F.8.k+h+9.h.i.j.q q K.I+M+N+O+2.y.q q h.i.j.l+m+n+M.P+Q+",
"R+8.0+a+z.y.[.@ q q K.I+A+z+A+2.y.q q y.[.@ g+h+>+M.S+= ",
"T+8.Q.g.q I.J.K.q U+V+b.W+X+W+Y+q.Z+q I.J.K.q o.R.M.S.`+",
"7+8.#+<+[+q q q q m  @.@.@.@.@.@+@*+q q q q 3+4+H.M.@@@.",
"7+#@8.$@%@n n n n &@*@=@=@=@=@=@-@;@n n n n >@,@8.'@)@9+"};
