/* XPM */
static char * dor2_xpm[] = {
"28 28 647 2",
"  	c #394969",
". 	c #344361",
"+ 	c #2B364F",
"@ 	c #393B45",
"# 	c #9A8E85",
"$ 	c #5E5751",
"% 	c #272F42",
"& 	c #343C54",
"* 	c #323B52",
"= 	c #324452",
"- 	c #324352",
"; 	c #323A52",
"> 	c #313851",
", 	c #2D374F",
"' 	c #2E3850",
") 	c #2F3E50",
"! 	c #333E52",
"~ 	c #353F53",
"{ 	c #384556",
"] 	c #343E53",
"^ 	c #2D354D",
"/ 	c #454143",
"( 	c #D6C5B8",
"_ 	c #877D75",
": 	c #222D43",
"< 	c #2D3757",
"[ 	c #2E435F",
"} 	c #334268",
"| 	c #313D64",
"1 	c #2B324E",
"2 	c #2F170F",
"3 	c #472610",
"4 	c #885F3E",
"5 	c #583B25",
"6 	c #592704",
"7 	c #6A2F04",
"8 	c #692F02",
"9 	c #6A2F02",
"0 	c #642C02",
"a 	c #4B2B15",
"b 	c #B58356",
"c 	c #755233",
"d 	c #391200",
"e 	c #3A282F",
"f 	c #283E54",
"g 	c #344368",
"h 	c #36354F",
"i 	c #55270D",
"j 	c #7D3606",
"k 	c #8B4C24",
"l 	c #643214",
"m 	c #903D01",
"n 	c #AF4D00",
"o 	c #B34F00",
"p 	c #B24E00",
"q 	c #A24600",
"r 	c #662D08",
"s 	c #9E5E32",
"t 	c #80431C",
"u 	c #773200",
"v 	c #5F322E",
"w 	c #2A3F55",
"x 	c #384B6A",
"y 	c #324364",
"z 	c #393B4E",
"A 	c #672D0D",
"B 	c #A34701",
"C 	c #763408",
"D 	c #502306",
"E 	c #502205",
"F 	c #903F02",
"G 	c #B44F00",
"H 	c #B54F00",
"I 	c #A64901",
"J 	c #6F2F03",
"K 	c #4E2105",
"L 	c #592B0E",
"M 	c #994405",
"N 	c #964100",
"O 	c #61332F",
"P 	c #2E4257",
"Q 	c #364F68",
"R 	c #2E415A",
"S 	c #482B31",
"T 	c #7B3006",
"U 	c #783503",
"V 	c #663A16",
"W 	c #65411E",
"X 	c #684421",
"Y 	c #663A15",
"Z 	c #883800",
"` 	c #AA4400",
" .	c #AB4600",
"..	c #AB4500",
"+.	c #9D4000",
"@.	c #753607",
"#.	c #633C19",
"$.	c #66421F",
"%.	c #694420",
"&.	c #68360F",
"*.	c #853500",
"=.	c #72311B",
"-.	c #353445",
";.	c #324761",
">.	c #313752",
",.	c #4E2511",
"'.	c #773603",
").	c #613716",
"!.	c #805429",
"~.	c #5C3D1F",
"{.	c #7B5229",
"].	c #7F5329",
"^.	c #673915",
"/.	c #8C3E00",
"(.	c #BD5800",
"_.	c #BE5900",
":.	c #BF5900",
"<.	c #AB4E00",
"[.	c #7A3807",
"}.	c #663E1B",
"|.	c #80552A",
"1.	c #55391E",
"2.	c #85592C",
"3.	c #774D25",
"4.	c #653410",
"5.	c #662C00",
"6.	c #553536",
"7.	c #2B395A",
"8.	c #512B2F",
"9.	c #7B2B00",
"0.	c #642B05",
"a.	c #563619",
"b.	c #64472F",
"c.	c #A6A2A0",
"d.	c #877B74",
"e.	c #6F4617",
"f.	c #63401D",
"g.	c #6C2A00",
"h.	c #AA4600",
"i.	c #AC4700",
"j.	c #933C00",
"k.	c #5E2D0A",
"l.	c #563616",
"m.	c #705A4B",
"n.	c #ABA8A7",
"o.	c #766357",
"p.	c #754B1F",
"q.	c #573616",
"r.	c #6D2700",
"s.	c #762F18",
"t.	c #332E41",
"u.	c #8B4000",
"v.	c #843803",
"w.	c #613A1D",
"x.	c #8C643C",
"y.	c #5D4C3C",
"z.	c #C6C5C5",
"A.	c #8B8D8E",
"B.	c #7E572D",
"C.	c #92683F",
"D.	c #643615",
"E.	c #843501",
"F.	c #A44800",
"G.	c #A64900",
"H.	c #9B4300",
"I.	c #773204",
"J.	c #6C4626",
"K.	c #876037",
"L.	c #6B635D",
"M.	c #CECECE",
"N.	c #696968",
"O.	c #92683C",
"P.	c #835C36",
"Q.	c #6B330F",
"R.	c #843900",
"S.	c #7B3D1B",
"T.	c #824000",
"U.	c #734316",
"V.	c #8E643B",
"W.	c #BB8B5C",
"X.	c #9D8A78",
"Y.	c #D7D6D4",
"Z.	c #B0B1B1",
"`.	c #AC8B6F",
" +	c #BB8958",
".+	c #8D643B",
"++	c #6B3F17",
"@+	c #884304",
"#+	c #894403",
"$+	c #7B3F06",
"%+	c #774C25",
"&+	c #9E7246",
"*+	c #B88B60",
"=+	c #A1958A",
"-+	c #DDDDDC",
";+	c #9E9C9B",
">+	c #B88F6A",
",+	c #B18150",
"'+	c #7E572F",
")+	c #723C07",
"!+	c #783B05",
"~+	c #554739",
"{+	c #997B5E",
"]+	c #B7885A",
"^+	c #C59566",
"/+	c #AC9988",
"(+	c #DDDCDA",
"_+	c #BDBEBF",
":+	c #B5977E",
"<+	c #CB9762",
"[+	c #B78757",
"}+	c #8A633C",
"|+	c #6D4C2C",
"1+	c #6B4B2A",
"2+	c #72502E",
"3+	c #9C7145",
"4+	c #C4905D",
"5+	c #C4976C",
"6+	c #B0A498",
"7+	c #E3E2E1",
"8+	c #AEAEAD",
"9+	c #BE9775",
"0+	c #C4915D",
"a+	c #AC845D",
"b+	c #7C644E",
"c+	c #302D2F",
"d+	c #8A7B6D",
"e+	c #D6BCA3",
"f+	c #C09972",
"g+	c #BD8D5C",
"h+	c #775D45",
"i+	c #C2BCB7",
"j+	c #8E8985",
"k+	c #9C7348",
"l+	c #CE9A67",
"m+	c #C99663",
"n+	c #BF8D5A",
"o+	c #B68351",
"p+	c #B58350",
"q+	c #B58250",
"r+	c #B88553",
"s+	c #C2905D",
"t+	c #CD9A66",
"u+	c #7A6A5C",
"v+	c #CAC4BF",
"w+	c #746B65",
"x+	c #AF8153",
"y+	c #C19161",
"z+	c #C9A787",
"A+	c #B29D88",
"B+	c #565152",
"C+	c #938D88",
"D+	c #E1D2C5",
"E+	c #BF9872",
"F+	c #C08F5E",
"G+	c #A17952",
"H+	c #C5A688",
"I+	c #A4866A",
"J+	c #AE8155",
"K+	c #CD9A67",
"L+	c #CC9966",
"M+	c #CB9865",
"N+	c #CD9966",
"O+	c #C29161",
"P+	c #A27E5A",
"Q+	c #C8AA8D",
"R+	c #98785A",
"S+	c #B98A5A",
"T+	c #C1915F",
"U+	c #CDAF94",
"V+	c #B9AB9E",
"W+	c #5E6166",
"X+	c #8F8880",
"Y+	c #DAC8B8",
"Z+	c #B98B61",
"`+	c #C89563",
" @	c #C69462",
".@	c #C69667",
"+@	c #C49463",
"@@	c #C89663",
"#@	c #CA9765",
"$@	c #C79563",
"%@	c #CA9764",
"&@	c #C69463",
"*@	c #C69668",
"=@	c #C49362",
"-@	c #C99664",
";@	c #C5A280",
">@	c #AE9C8B",
",@	c #5F6268",
"'@	c #9A9795",
")@	c #ECE3DC",
"!@	c #C9AA8E",
"~@	c #BD8C5D",
"{@	c #B17F4E",
"]@	c #816042",
"^@	c #946941",
"/@	c #BD8B58",
"(@	c #B08153",
"_@	c #815E3B",
":@	c #8B6641",
"<@	c #BD8B5A",
"[@	c #AF7F50",
"}@	c #825E3C",
"|@	c #906A45",
"1@	c #BE8B59",
"2@	c #C79461",
"3@	c #AC7C4D",
"4@	c #795B40",
"5@	c #9F7043",
"6@	c #C08D5A",
"7@	c #BE9061",
"8@	c #D8C4B3",
"9@	c #C8C3BD",
"0@	c #5E6067",
"a@	c #928B86",
"b@	c #DECEC1",
"c@	c #BD936E",
"d@	c #C08F5F",
"e@	c #816143",
"f@	c #AEABA9",
"g@	c #877F7B",
"h@	c #A27649",
"i@	c #BD8D5D",
"j@	c #917054",
"k@	c #6A6460",
"l@	c #73675E",
"m@	c #9F7852",
"n@	c #C59462",
"o@	c #8D6843",
"p@	c #807C7A",
"q@	c #918882",
"r@	c #997148",
"s@	c #BB8C5C",
"t@	c #7F6856",
"u@	c #B4B2B1",
"v@	c #76675D",
"w@	c #B38455",
"x@	c #C2915E",
"y@	c #CAAA8E",
"z@	c #B4A699",
"A@	c #8E877F",
"B@	c #D9C6B5",
"C@	c #B8885B",
"D@	c #C29160",
"E@	c #715C47",
"F@	c #C6C6C5",
"G@	c #8C8D8E",
"H@	c #987045",
"I@	c #BA8C5D",
"J@	c #8D745F",
"K@	c #797979",
"L@	c #7D7875",
"M@	c #997756",
"N@	c #856547",
"O@	c #909293",
"P@	c #A09D9A",
"Q@	c #8E6B48",
"R@	c #B88A5B",
"S@	c #736961",
"T@	c #CFCECE",
"U@	c #6C6B6A",
"V@	c #AF8254",
"W@	c #C4915E",
"X@	c #C49E7A",
"Y@	c #AC9885",
"Z@	c #5F6569",
"`@	c #95928D",
" #	c #E5D9CD",
".#	c #C39E7B",
"+#	c #BF9062",
"@#	c #A3917F",
"##	c #DBD9D7",
"$#	c #B6B7B8",
"%#	c #B19176",
"&#	c #C49566",
"*#	c #B59E8A",
"=#	c #B6B6B6",
"-#	c #B6B1AE",
";#	c #B79576",
">#	c #C89767",
",#	c #AD9888",
"'#	c #BEBFC0",
")#	c #C5BFBA",
"!#	c #B09071",
"~#	c #C2956A",
"{#	c #A99D91",
"]#	c #E0DFDF",
"^#	c #A5A4A3",
"/#	c #BA926E",
"(#	c #C0905F",
"_#	c #D0B69F",
":#	c #BDB3A9",
"<#	c #5F6167",
"[#	c #95908C",
"}#	c #E4D7CC",
"|#	c #C29D7A",
"1#	c #C09163",
"2#	c #A49181",
"3#	c #DAD9D8",
"4#	c #B8B9BA",
"5#	c #B29379",
"6#	c #C39465",
"7#	c #B39C89",
"8#	c #B4B5B5",
"9#	c #B4B0AE",
"0#	c #B59475",
"a#	c #AE9989",
"b#	c #BEBFC1",
"c#	c #C3BEBA",
"d#	c #AF9071",
"e#	c #C2966B",
"f#	c #A99D92",
"g#	c #A8A7A6",
"h#	c #BB9370",
"i#	c #C0905E",
"j#	c #CFB59D",
"k#	c #BCB2A7",
"l#	c #5E6066",
"m#	c #908983",
"n#	c #DCCBBC",
"o#	c #BB8F66",
"p#	c #C1905F",
"q#	c #7B5F44",
"r#	c #C2B9B2",
"s#	c #8E8781",
"t#	c #9D7348",
"u#	c #BC8C5D",
"v#	c #937458",
"w#	c #7F746A",
"x#	c #837467",
"y#	c #9E7753",
"z#	c #8C6946",
"A#	c #928A83",
"B#	c #A0948A",
"C#	c #946F48",
"D#	c #BA8B5B",
"E#	c #7C6959",
"F#	c #C9C1BA",
"G#	c #756961",
"H#	c #B18354",
"I#	c #C3915E",
"J#	c #C7A686",
"K#	c #B1A191",
"L#	c #5F6168",
"M#	c #96928E",
"N#	c #E6DACF",
"O#	c #C49F7C",
"P#	c #BF8E5E",
"Q#	c #A57C54",
"R#	c #C6A484",
"S#	c #A98869",
"T#	c #B28457",
"U#	c #B48A60",
"V#	c #AC8A68",
"W#	c #AE8A67",
"X#	c #B98B5F",
"Y#	c #C99765",
"Z#	c #AC8258",
"`#	c #B08F6F",
" $	c #B99573",
".$	c #B38659",
"+$	c #C39261",
"@$	c #A7815C",
"#$	c #C9A888",
"$$	c #9E7B5B",
"%$	c #BA8A5B",
"&$	c #C09060",
"*$	c #D1B8A1",
"=$	c #BFB5AB",
"-$	c #928C85",
";$	c #DECFC0",
">$	c #BD936A",
",$	c #C59361",
"'$	c #C69461",
")$	c #C29263",
"!$	c #CB9866",
"~$	c #CA9866",
"{$	c #C69563",
"]$	c #C19060",
"^$	c #CB9967",
"/$	c #C1905E",
"($	c #CAAA8C",
"_$	c #B4A697",
":$	c #5E6167",
"<$	c #8F8780",
"[$	c #DAC7B8",
"}$	c #C69361",
"|$	c #B07F4E",
"1$	c #7C6048",
"2$	c #8E6642",
"3$	c #BB8856",
"4$	c #C69360",
"5$	c #AB7B4C",
"6$	c #6E4D2E",
"7$	c #593C25",
"8$	c #5C3D24",
"9$	c #91653A",
"0$	c #BB8957",
"a$	c #A7794B",
"b$	c #755C48",
"c$	c #996C42",
"d$	c #C18F5D",
"e$	c #C3905D",
"f$	c #C5A180",
"g$	c #5E6267",
"h$	c #9B9A99",
"i$	c #EFE9E3",
"j$	c #CCB098",
"k$	c #B7895C",
"l$	c #785A3F",
"m$	c #B5B3B1",
"n$	c #888380",
"o$	c #9E7447",
"p$	c #CE9B67",
"q$	c #AB7C4D",
"r$	c #704A27",
"s$	c #87450B",
"t$	c #923902",
"u$	c #B15502",
"v$	c #854713",
"w$	c #896138",
"x$	c #BC8957",
"y$	c #7A6758",
"z$	c #BCBAB9",
"A$	c #736760",
"B$	c #AE8050",
"C$	c #BE9062",
"D$	c #DBCBBE",
"E$	c #CDCBC8",
"F$	c #E0D1C5",
"G$	c #BE9774",
"H$	c #BF8F5F",
"I$	c #735D49",
"J$	c #C7C6C6",
"K$	c #8D8F90",
"L$	c #987046",
"M$	c #CF9B67",
"N$	c #845E3A",
"O$	c #7B420E",
"P$	c #BA6511",
"Q$	c #AA4A08",
"R$	c #C76B17",
"S$	c #B15E0D",
"T$	c #7C4519",
"U$	c #9A724A",
"V$	c #BA8B5C",
"W$	c #766C63",
"X$	c #CFCFCF",
"Y$	c #6E6D6C",
"Z$	c #AE8153",
"`$	c #C2915F",
" %	c #CCAE95",
".%	c #B7AB9F",
"+%	c #5F6067",
"@%	c #908982",
"#%	c #DBCABA",
"$%	c #BA8D62",
"%%	c #C49465",
"&%	c #AB9886",
"*%	c #BCBCBD",
"=%	c #B4957C",
"-%	c #CE9A65",
";%	c #B6885B",
">%	c #745132",
",%	c #8A5428",
"'%	c #D49762",
")%	c #B26338",
"!%	c #D7A583",
"~%	c #C88960",
"{%	c #7E3B00",
"]%	c #8C6A46",
"^%	c #AFA397",
"/%	c #ACABAA",
"(%	c #BD9673",
"_%	c #C2905C",
":%	c #C6A483",
"<%	c #AF9E8D",
"[%	c #95918C",
"}%	c #C29C78",
"|%	c #BF9061",
"1%	c #9C8A79",
"2%	c #D6D6D5",
"3%	c #B1B3B4",
"4%	c #AE8E72",
"5%	c #CF9A66",
"6%	c #B7895B",
"7%	c #765333",
"8%	c #8A5024",
"9%	c #D18B57",
"0%	c #B15C31",
"a%	c #D29775",
"b%	c #C68055",
"c%	c #7F3D00",
"d%	c #8E6B47",
"e%	c #CE9A66",
"f%	c #C19468",
"g%	c #A1968B",
"h%	c #DDDCDC",
"i%	c #A09F9F",
"j%	c #B8906C",
"k%	c #CFB59C",
"l%	c #BDB2A6",
"m%	c #938E89",
"n%	c #E1D3C6",
"o%	c #C09772",
"p%	c #7D5F43",
"q%	c #C1B6AD",
"r%	c #8F857D",
"s%	c #A97F54",
"t%	c #624429",
"u%	c #6E3400",
"v%	c #A14B00",
"w%	c #8D3500",
"x%	c #A04700",
"y%	c #9C4A00",
"z%	c #683200",
"A%	c #7C5D3D",
"B%	c #7F6A58",
"C%	c #C8BEB5",
"D%	c #76695E",
"E%	c #B08253",
"F%	c #CCAF94",
"G%	c #B8AC9F",
"H%	c #928B85",
"I%	c #DFCEC0",
"J%	c #BD926B",
"K%	c #AD8258",
"L%	c #C7A380",
"M%	c #AE8B68",
"N%	c #B6885A",
"O%	c #8C6947",
"P%	c #3F3731",
"Q%	c #584F4A",
"R%	c #65534C",
"S%	c #60504C",
"T%	c #64534C",
"U%	c #4D4541",
"V%	c #594838",
"W%	c #9C754E",
"X%	c #AE855D",
"Y%	c #CAA684",
"Z%	c #A5805C",
"`%	c #BE8E5E",
" &	c #CAA98C",
".&	c #B4A596",
"+&	c #606268",
"  . + @ # $ % & * = - ; > , ' ) ! ~ { ] ^ / ( _ : < [ } ",
"| 1 2 3 4 5 6 7 8 8 8 8 8 8 8 8 8 8 8 9 0 a b c d e f g ",
"| h i j k l m n o o o o o o o o o o o p q r s t u v w x ",
"y z A B C D E F G H H H H H H H H H H I J K L M N O P Q ",
"R S T U V W X Y Z `  . . . . . . ...+.@.#.$.%.&.*.=.-.;.",
">.,.'.).!.~.{.].^./.(._._._._._.:.<.[.}.|.1.2.3.4.5.6.7.",
"8.9.0.a.b.c.d.e.f.g.h.h.h.h.h.h.i.j.k.l.m.n.o.p.q.r.s.t.",
"u.v.w.x.y.z.A.B.C.D.E.F.G.G.G.G.H.I.J.K.L.M.N.O.P.Q.R.S.",
"T.U.V.W.X.Y.Z.`. +.+++@+#+#+#+#+$+%+&+*+=+-+;+>+,+'+)+!+",
"~+{+]+^+/+(+_+:+<+[+}+|+1+1+1+1+2+3+4+5+6+7+8+9+0+a+b+c+",
"d+e+f+g+h+i+j+k+l+m+n+o+p+p+p+q+r+s+t+W.u+v+w+x+y+z+A+B+",
"C+D+E+F+G+H+I+J+K+L+M+M+M+M+M+M+M+L+N+O+P+Q+R+S+T+U+V+W+",
"X+Y+Z+`+ @.@+@@@L+#@$@`+M+L+L+%@$@@@M+M+&@*@=@-@s+;@>@,@",
"'@)@!@~@{@]@^@/@m+(@_@:@<@%@L+[@}@|@1@2@3@4@5@6@7@8@9@0@",
"a@b@c@d@e@f@g@h@i@j@k@l@m@n@L+o@p@q@r@s@t@u@v@w@x@y@z@,@",
"A@B@C@D@E@F@G@H@I@J@K@L@M@=@L+N@O@P@Q@R@S@T@U@V@W@X@Y@Z@",
"`@ #.#+#@###$#%#&#*#=#-#;#>#L+,#'#)#!#~#{#]#^#/#(#_#:#<#",
"[#}#|#1#2#3#4#5#6#7#8#9#0#>#L+a#b#c#d#e#f#]#g#h#i#j#k#l#",
"m#n#o#p#q#r#s#t#u#v#w#x#y#n@L+z#A#B#C#D#E#F#G#H#I#J#K#L#",
"M#N#O#P#Q#R#S#T#n@U#V#W#X#Y#t+Z#`# $.$+$@$#$$$%$&$*$=$W+",
"-$;$>$,$'$)$+$@@L+!$~${$]$&$&$+$Y#^$M+M+ @)$+$m+/$($_$:$",
"<$[$Z+}$|$1$2$3$K+L+4$5$6$7$8$9$0$M+L+'$a$b$c$d$e$f$>@g$",
"h$i$j$k$l$m$n$o$p$2@q$r$s$t$u$v$w$x$K+s@y$z$A$B$C$D$E$:$",
"C+F$G$H$I$J$K$L$M$W.N$O$P$Q$R$S$T$U$l+V$W$X$Y$Z$`$ %.%+%",
"@%#%$%%%&%(+*%=%-%;%>%,%'%)%!%~%{%]%t+5+^%7+/%(%_%:%<%:$",
"[%}#}%|%1%2%3%4%5%6%7%8%9%0%a%b%c%d%e%f%g%h%i%j%(#k%l%<#",
"m%n%o%P#p%q%r%t##@s%t%u%v%w%x%y%z%A%H$s@B%C%D%E%`$F%G%<#",
"H%I%J%,$K%L%M%N%H$O%P%Q%R%S%R%T%U%V%W%=@X%Y%Z%`%I# &.&+&"};
