/* XPM */
static char * dor3_xpm[] = {
"28 28 696 2",
"  	c #3A4A6B",
". 	c #39496A",
"+ 	c #324361",
"@ 	c #3E4653",
"# 	c #636162",
"$ 	c #3D4047",
"% 	c #33415D",
"& 	c #394A69",
"* 	c #395568",
"= 	c #395468",
"- 	c #394868",
"; 	c #374667",
"> 	c #314464",
", 	c #334565",
"' 	c #354D66",
") 	c #3A4E68",
"! 	c #3C4F6A",
"~ 	c #41566D",
"{ 	c #3B4E6A",
"] 	c #344362",
"^ 	c #474851",
"/ 	c #8C8986",
"( 	c #59595F",
"_ 	c #32405C",
": 	c #344268",
"< 	c #324965",
"[ 	c #334268",
"} 	c #334068",
"| 	c #334166",
"1 	c #364662",
"2 	c #314052",
"3 	c #515053",
"4 	c #8B8078",
"5 	c #534E4B",
"6 	c #2F3248",
"7 	c #343652",
"8 	c #333450",
"9 	c #333C4F",
"0 	c #343C50",
"a 	c #383B53",
"b 	c #363952",
"c 	c #363953",
"d 	c #384354",
"e 	c #3A4856",
"f 	c #3A4155",
"g 	c #3B4556",
"h 	c #35384D",
"i 	c #615B58",
"j 	c #C2B2A6",
"k 	c #79706C",
"l 	c #252C47",
"m 	c #2D3E59",
"n 	c #304962",
"o 	c #344368",
"p 	c #344164",
"q 	c #323B52",
"r 	c #362221",
"s 	c #583724",
"t 	c #825C41",
"u 	c #5B3A26",
"v 	c #622D13",
"w 	c #6F3315",
"x 	c #6E3314",
"y 	c #6E3415",
"z 	c #6E3315",
"A 	c #6E3416",
"B 	c #6E3516",
"C 	c #6F3516",
"D 	c #673014",
"E 	c #63402A",
"F 	c #AC805B",
"G 	c #725037",
"H 	c #3F1E1B",
"I 	c #382E3F",
"J 	c #2E455C",
"K 	c #384B6A",
"L 	c #354769",
"M 	c #394A66",
"N 	c #3C3E50",
"O 	c #5A2A17",
"P 	c #803A0D",
"Q 	c #824721",
"R 	c #6C3311",
"S 	c #923F01",
"T 	c #AB4B00",
"U 	c #B04E00",
"V 	c #B04D00",
"W 	c #AD4C00",
"X 	c #984201",
"Y 	c #6E3512",
"Z 	c #95582F",
"` 	c #814219",
" .	c #733212",
"..	c #53363E",
"+.	c #344960",
"@.	c #365069",
"#.	c #374D6A",
"$.	c #354663",
"%.	c #413C4B",
"&.	c #6F3114",
"*.	c #964103",
"=.	c #70340C",
"-.	c #552A0C",
";.	c #69310A",
">.	c #994403",
",.	c #B14D00",
"'.	c #B44E00",
").	c #B34E00",
"!.	c #A04702",
"~.	c #733407",
"{.	c #572A0C",
"].	c #683512",
"^.	c #924107",
"/.	c #8A3C12",
"(.	c #593B3C",
"_.	c #32435D",
":.	c #364468",
"<.	c #313C59",
"[.	c #4C2E31",
"}.	c #77310B",
"|.	c #74370B",
"1.	c #6A3F1A",
"2.	c #65411D",
"3.	c #6B4420",
"4.	c #743D14",
"5.	c #923D02",
"6.	c #AA4700",
"7.	c #AF4A00",
"8.	c #AC4800",
"9.	c #9A4002",
"0.	c #783A0C",
"a.	c #6A401B",
"b.	c #64401C",
"c.	c #6E4620",
"d.	c #713B13",
"e.	c #7C3309",
"f.	c #643029",
"g.	c #38384E",
"h.	c #313F63",
"i.	c #374E66",
"j.	c #3B394C",
"k.	c #5B2A18",
"l.	c #703306",
"m.	c #643B19",
"n.	c #785435",
"o.	c #756051",
"p.	c #7D5A3D",
"q.	c #744921",
"r.	c #72390F",
"s.	c #9F4700",
"t.	c #BA5500",
"u.	c #B95500",
"v.	c #A94C00",
"w.	c #7D3907",
"x.	c #663D1A",
"y.	c #795536",
"z.	c #736054",
"A.	c #7F5A38",
"B.	c #734921",
"C.	c #63320E",
"D.	c #652E15",
"E.	c #51373E",
"F.	c #2D405C",
"G.	c #403A53",
"H.	c #642F2C",
"I.	c #7A2F07",
"J.	c #653211",
"K.	c #664526",
"L.	c #76655B",
"M.	c #A7A4A2",
"N.	c #82746B",
"O.	c #724B1F",
"P.	c #6D4320",
"Q.	c #853602",
"R.	c #A54400",
"S.	c #A94700",
"T.	c #A84600",
"U.	c #913C01",
"V.	c #693613",
"W.	c #664425",
"X.	c #75655B",
"Y.	c #ACA9A8",
"Z.	c #77665B",
"`.	c #795129",
" +	c #673E1D",
".+	c #712D07",
"++	c #6F3323",
"@+	c #463949",
"#+	c #5D3633",
"$+	c #843E08",
"%+	c #7E3D0A",
"&+	c #784F2D",
"*+	c #977049",
"=+	c #8D8278",
"-+	c #C1C1C1",
";+	c #958F8A",
">+	c #966F49",
",+	c #92663E",
"'+	c #75401B",
")+	c #8D3F03",
"!+	c #9D4700",
"~+	c #944301",
"{+	c #7C3D11",
"]+	c #7F5530",
"^+	c #8C8179",
"/+	c #C8C8C7",
"(+	c #88817B",
"_+	c #9E754E",
":+	c #8D623A",
"<+	c #753E16",
"[+	c #7E3A05",
"}+	c #663629",
"|+	c #4B2B2D",
"1+	c #704122",
"2+	c #835C3B",
"3+	c #A2764B",
"4+	c #BB8F65",
"5+	c #B1A396",
"6+	c #D2D2D0",
"7+	c #B4AEA9",
"8+	c #B7906E",
"9+	c #B68655",
"0+	c #8E643C",
"a+	c #784921",
"b+	c #7C4517",
"c+	c #77451A",
"d+	c #845931",
"e+	c #AA7B4D",
"f+	c #BB8F67",
"g+	c #B0A397",
"h+	c #D8D7D5",
"i+	c #ACA5A0",
"j+	c #BB926D",
"k+	c #B18252",
"l+	c #8A633F",
"m+	c #6F4528",
"n+	c #512F28",
"o+	c #2B374C",
"p+	c #6F6256",
"q+	c #B3977D",
"r+	c #BC9167",
"s+	c #BC8F64",
"t+	c #A59688",
"u+	c #C9C7C5",
"v+	c #AAA19B",
"w+	c #B78E68",
"x+	c #C99562",
"y+	c #B48556",
"z+	c #9B7045",
"A+	c #91683E",
"B+	c #91673E",
"C+	c #956A40",
"D+	c #AB7D4E",
"E+	c #C5925F",
"F+	c #BF9267",
"G+	c #A49689",
"H+	c #CFCCCA",
"I+	c #A09791",
"J+	c #B98F67",
"K+	c #C19264",
"L+	c #B19071",
"M+	c #827060",
"N+	c #363A46",
"O+	c #334356",
"P+	c #8E847D",
"Q+	c #D5C1AE",
"R+	c #C29B76",
"S+	c #B8895B",
"T+	c #9A7C63",
"U+	c #B9A899",
"V+	c #9A826C",
"W+	c #CD9A67",
"X+	c #C99663",
"Y+	c #C4915E",
"Z+	c #C28F5C",
"`+	c #C18F5C",
" @	c #C18E5C",
".@	c #C38F5D",
"+@	c #C79461",
"@@	c #CC9965",
"#@	c #BE8E5F",
"$@	c #987C63",
"%@	c #BFAE9E",
"&@	c #907660",
"*@	c #B58757",
"=@	c #C4986D",
"-@	c #C7AB91",
";@	c #9F9286",
">@	c #4B535C",
",@	c #364158",
"'@	c #8F8983",
")@	c #D5C4B4",
"!@	c #BF956F",
"~@	c #C39160",
"{@	c #BB8E62",
"]@	c #C39A73",
"^@	c #B98E64",
"/@	c #C39261",
"(@	c #CC9966",
"_@	c #CB9865",
":@	c #CA9765",
"<@	c #CC9865",
"[@	c #CA9865",
"}@	c #C79563",
"|@	c #C59C75",
"1@	c #B78B60",
"2@	c #C2915F",
"3@	c #C3966A",
"4@	c #C3A68C",
"5@	c #9D9186",
"6@	c #4E5563",
"7@	c #343D58",
"8@	c #95918D",
"9@	c #DDD0C5",
"0@	c #C5A283",
"a@	c #C18F60",
"b@	c #B68656",
"c@	c #A2784F",
"d@	c #B18253",
"e@	c #C69360",
"f@	c #C59361",
"g@	c #B08255",
"h@	c #A3784E",
"i@	c #B78758",
"j@	c #C89563",
"k@	c #C08E5D",
"l@	c #A87B50",
"m@	c #A87C50",
"n@	c #C08E5C",
"o@	c #C79462",
"p@	c #B78757",
"q@	c #A0774F",
"r@	c #B38253",
"s@	c #C3905E",
"t@	c #C49B73",
"u@	c #CDB8A6",
"v@	c #A69F9A",
"w@	c #4C5361",
"x@	c #334157",
"y@	c #948E8B",
"z@	c #DBCDC2",
"A@	c #C39F7F",
"B@	c #B98A5C",
"C@	c #97765B",
"D@	c #9A8F88",
"E@	c #947963",
"F@	c #B48554",
"G@	c #B5875B",
"H@	c #8A6C54",
"I@	c #736255",
"J@	c #967454",
"K@	c #BD8D5D",
"L@	c #AA7E51",
"M@	c #857162",
"N@	c #8D7C6F",
"O@	c #A47C55",
"P@	c #BA8B5B",
"Q@	c #96765C",
"R@	c #9E948D",
"S@	c #8F7158",
"T@	c #B88858",
"U@	c #C49A71",
"V@	c #CAB4A1",
"W@	c #A49D96",
"X@	c #4E5663",
"Y@	c #314156",
"Z@	c #8E8781",
"`@	c #D3BFAF",
" #	c #BC9068",
".#	c #B88A5C",
"+#	c #89796C",
"@#	c #B5B4B3",
"##	c #8E827A",
"$#	c #A77B4D",
"%#	c #AC835C",
"&#	c #827267",
"*#	c #767372",
"=#	c #8C7561",
"-#	c #B6895C",
";#	c #9F7750",
">#	c #8A8480",
",#	c #999592",
"'#	c #947559",
")#	c #B28659",
"!#	c #86776C",
"~#	c #BDBBBB",
"{#	c #7F736A",
"]#	c #B38556",
"^#	c #C49567",
"/#	c #C0A083",
"(#	c #998C80",
"_#	c #505C66",
":#	c #303A56",
"<#	c #928E89",
"[#	c #DACCBE",
"}#	c #C39C79",
"|#	c #A89A8D",
"1#	c #CDCDCB",
"2#	c #B48D68",
"3#	c #BA946F",
"4#	c #AB9F96",
"5#	c #AAA9A8",
"6#	c #AD9989",
"7#	c #BF9368",
"8#	c #B19176",
"9#	c #B1ADAB",
"0#	c #BBB7B3",
"a#	c #AD9178",
"b#	c #BB9169",
"c#	c #A89A8F",
"d#	c #D3D2D1",
"e#	c #A29B95",
"f#	c #B98F68",
"g#	c #C4996F",
"h#	c #C8B09B",
"i#	c #A29991",
"j#	c #303856",
"k#	c #948F8C",
"l#	c #DCCEC2",
"m#	c #C4A07F",
"n#	c #BC9168",
"o#	c #B0A296",
"p#	c #D2D1D1",
"q#	c #B5AEAA",
"r#	c #B89270",
"s#	c #BD9773",
"t#	c #B3A89F",
"u#	c #B4B3B3",
"v#	c #B4A192",
"w#	c #C1956B",
"x#	c #CB9866",
"y#	c #B7987F",
"z#	c #BAB6B5",
"A#	c #C2BDBA",
"B#	c #B3987F",
"C#	c #BE956E",
"D#	c #D7D6D5",
"E#	c #ADA6A1",
"F#	c #CBB5A1",
"G#	c #A49C96",
"H#	c #4C5161",
"I#	c #343F58",
"J#	c #908985",
"K#	c #D6C5B6",
"L#	c #BF9671",
"M#	c #B98B5E",
"N#	c #95806F",
"O#	c #BCB4AE",
"P#	c #998A7E",
"Q#	c #AC8056",
"R#	c #B1875F",
"S#	c #927E6D",
"T#	c #8B8178",
"U#	c #997E67",
"V#	c #B98C5F",
"W#	c #A67F5A",
"X#	c #998D83",
"Y#	c #A49990",
"Z#	c #9D7D5F",
"`#	c #B5895D",
" $	c #937F6F",
".$	c #C2BAB4",
"+$	c #8D7C70",
"@$	c #B5885A",
"#$	c #C4976B",
"$$	c #C3A88F",
"%$	c #9D9388",
"&$	c #324355",
"*$	c #94908C",
"=$	c #DCCFC2",
"-$	c #C49F7D",
";$	c #BC8C5E",
">$	c #AB8561",
",$	c #BF9F82",
"'$	c #AA8766",
")$	c #B8895A",
"!$	c #BE9061",
"~$	c #AE8863",
"{$	c #AA8868",
"]$	c #B18962",
"^$	c #C29162",
"/$	c #CB9966",
"($	c #B5885B",
"_$	c #AD8B6B",
":$	c #B69474",
"<$	c #B3885D",
"[$	c #BF8F5F",
"}$	c #AB8562",
"|$	c #C2A386",
"1$	c #A37F5E",
"2$	c #BB8B5B",
"3$	c #C49A72",
"4$	c #A59C96",
"5$	c #4C5260",
"6$	c #374759",
"7$	c #918B86",
"8$	c #D7C7B7",
"9$	c #C09871",
"0$	c #C49261",
"a$	c #C19160",
"b$	c #BE9063",
"c$	c #BF9060",
"d$	c #C99766",
"e$	c #C59464",
"f$	c #BB8C5D",
"g$	c #BD8D5E",
"h$	c #C49463",
"i$	c #C99867",
"j$	c #C99765",
"k$	c #C99764",
"l$	c #C29161",
"m$	c #BE9064",
"n$	c #C69361",
"o$	c #C5AA91",
"p$	c #9E948A",
"q$	c #4C5561",
"r$	c #344258",
"s$	c #8F8884",
"t$	c #D5C3B5",
"u$	c #BF9570",
"v$	c #C18F5E",
"w$	c #A77B52",
"x$	c #8B705A",
"y$	c #9D7550",
"z$	c #C89663",
"A$	c #B78655",
"B$	c #8F653D",
"C$	c #6F492B",
"D$	c #6F4628",
"E$	c #8B5E36",
"F$	c #B08050",
"G$	c #C69461",
"H$	c #C49360",
"I$	c #A67B51",
"J$	c #8A705C",
"K$	c #9E744D",
"L$	c #BF8E5C",
"M$	c #C4966A",
"N$	c #C3A68D",
"O$	c #9C9187",
"P$	c #4D5662",
"Q$	c #35495A",
"R$	c #989796",
"S$	c #E4DBD3",
"T$	c #CAAC93",
"U$	c #B2865C",
"V$	c #8A7565",
"W$	c #ACAAA8",
"X$	c #8E7F73",
"Y$	c #B18353",
"Z$	c #B98958",
"`$	c #8F653C",
" %	c #834A1A",
".%	c #924207",
"+%	c #A95005",
"@%	c #995011",
"#%	c #8A5B31",
"$%	c #B18151",
"%%	c #CA9764",
"&%	c #897566",
"*%	c #B3B0AE",
"=%	c #827064",
"-%	c #B18354",
";%	c #C59F7C",
">%	c #D5C6BB",
",%	c #AFACAA",
"'%	c #4D5661",
")%	c #313D55",
"!%	c #D8C7BA",
"~%	c #C09977",
"{%	c #B88B5F",
"]%	c #94867A",
"^%	c #C0C0C0",
"/%	c #98908A",
"(%	c #B1855A",
"_%	c #A4794F",
":%	c #7D502A",
"<%	c #A66125",
"[%	c #B45E22",
"}%	c #C06D36",
"|%	c #BC6D33",
"1%	c #8D4E1E",
"2%	c #946B44",
"3%	c #C69463",
"4%	c #BC8E61",
"5%	c #92857A",
"6%	c #C8C7C6",
"7%	c #8B827C",
"8%	c #B4875B",
"9%	c #C4986E",
"0%	c #C6AC96",
"a%	c #9F968E",
"b%	c #4D5362",
"c%	c #333F56",
"d%	c #908A84",
"e%	c #D6C4B5",
"f%	c #BF966F",
"g%	c #BF9369",
"h%	c #B4A598",
"i%	c #D4D4D2",
"j%	c #B7B0AC",
"k%	c #BD9572",
"l%	c #9D744C",
"m%	c #7C4F2A",
"n%	c #B87E4D",
"o%	c #C17949",
"p%	c #CB906E",
"q%	c #CD906A",
"r%	c #94552D",
"s%	c #8B6440",
"t%	c #C59462",
"u%	c #C3976D",
"v%	c #B3A69A",
"w%	c #D9D8D7",
"x%	c #AFA8A4",
"y%	c #BD946F",
"z%	c #C3A78D",
"A%	c #9D9287",
"B%	c #323C57",
"C%	c #938F8B",
"D%	c #DBCDC1",
"E%	c #C39E7B",
"F%	c #B98D63",
"G%	c #A29386",
"H%	c #C7C5C3",
"I%	c #A79F98",
"J%	c #B78D66",
"K%	c #C59362",
"L%	c #9A724A",
"M%	c #774925",
"N%	c #AD6A3A",
"O%	c #B56637",
"P%	c #BC7755",
"Q%	c #BF7A52",
"R%	c #8D4D20",
"S%	c #88623E",
"T%	c #C29160",
"U%	c #BF9266",
"V%	c #A29387",
"W%	c #CECBC8",
"X%	c #9D948E",
"Y%	c #B78D65",
"Z%	c #C49A70",
"`%	c #CAB39E",
" &	c #A49C94",
".&	c #4E5461",
"+&	c #918C87",
"@&	c #D9C8BA",
"#&	c #C29975",
"$&	c #BB8B5D",
"%&	c #9C7D62",
"&&	c #BAA797",
"*&	c #9D836C",
"=&	c #B28455",
"-&	c #BA8C5D",
";&	c #856342",
">&	c #5C3C28",
",&	c #804628",
"'&	c #864429",
")&	c #894528",
"!&	c #8D4B28",
"~&	c #6C3E24",
"{&	c #705338",
"]&	c #AD8156",
"^&	c #9A7D63",
"/&	c #C0AD9D",
"(&	c #92775F",
"_&	c #B78858",
":&	c #C5986D",
"<&	c #C6AC95",
"[&	c #A0978D",
"}&	c #4E5463",
"|&	c #8F8A86",
"1&	c #D5C7BB",
"2&	c #BE9978",
"3&	c #B68A5F",
"4&	c #BF9770",
"5&	c #B58B61",
"6&	c #A57C52",
"7&	c #6A533F",
"8&	c #555250",
"9&	c #6A6461",
"0&	c #6C6462",
"a&	c #6D6562",
"b&	c #5E5A58",
"c&	c #574C43",
"d&	c #8C6A48",
"e&	c #BB8D5E",
"f&	c #B68B60",
"g&	c #C19972",
"h&	c #B2875E",
"i&	c #BC8C5C",
"j&	c #BF956D",
"k&	c #C4AD99",
"l&	c #9F978F",
"m&	c #4C5261",
"    . + @ # $ % & * = - ; > , ' ) ! ~ { ] ^ / ( _ : < [ ",
"} | 1 2 3 4 5 6 7 8 8 9 0 a b c d e f g h i j k l m n o ",
"} p q r s t u v w x x x x y z z y A B C D E F G H I J K ",
"L M N O P Q R S T U U U U U U U U U V W X Y Z `  ...+.@.",
"#.$.%.&.*.=.-.;.>.,.'.).).).).).).).,.!.~.{.].^./.(._.#.",
":.<.[.}.|.1.2.3.4.5.6.7.7.7.7.7.7.8.9.0.a.b.c.d.e.f.g.h.",
"i.j.k.l.m.n.o.p.q.r.s.t.u.u.u.u.t.v.w.x.y.z.A.B.C.D.E.F.",
"G.H.I.J.K.L.M.N.O.P.Q.R.S.S.S.S.T.U.V.W.X.Y.Z.`. +.+++@+",
"#+$+%+&+*+=+-+;+>+,+'+)+!+!+!+!+~+{+]+>+^+/+(+_+:+<+[+}+",
"|+1+2+3+4+5+6+7+8+9+0+a+b+b+b+b+c+d+e+f+g+h+i+j+k+l+m+n+",
"o+p+q+r+s+t+u+v+w+x+y+z+A+A+A+B+C+D+E+F+G+H+I+J+K+L+M+N+",
"O+P+Q+R+S+T+U+V+y+W+X+Y+Z+`+`+ @.@+@@@#@$@%@&@*@=@-@;@>@",
",@'@)@!@~@{@]@^@/@(@_@:@_@(@(@<@[@_@<@}@{@|@1@2@3@4@5@6@",
"7@8@9@0@a@b@c@d@e@f@g@h@i@j@(@k@l@m@n@o@p@q@r@s@t@u@v@w@",
"x@y@z@A@B@C@D@E@F@G@H@I@J@K@_@L@M@N@O@P@Q@R@S@T@U@V@W@X@",
"Y@Z@`@ #.#+#@###$#%#&#*#=#-#_@;#>#,#'#)#!#~#{#]#^#/#(#_#",
":#<#[#}#4+|#1#i+2#3#4#5#6#7#_@8#9#0#a#b#c#d#e#f#g#h#i#6@",
"j#k#l#m#n#o#p#q#r#s#t#u#v#w#x#y#z#A#B#C#g+D#E#j+U@F#G#H#",
"I#J#K#L#M#N#O#P#Q#R#S#T#U#V#_@W#X#Y#Z#`# $.$+$@$#$$$%$6@",
"&$*$=$-$;$>$,$'$)$!$~${$]$^$/$($_$:$<$[$}$|$1$2$3$F#4$5$",
"6$7$8$9$0$a$b$c$}@x#d$e$#@f$f$g$h$i$j$k$l$m$[$n$#$o$p$q$",
"r$s$t$u$v$w$x$y$n@W+z$A$B$C$D$E$F$G$/$H$I$J$K$L$M$N$O$P$",
"Q$R$S$T$U$V$W$X$Y$@@Z$`$ %.%+%@%#%$%%%f$&%*%=%-%;%>%,%'%",
")%7$!%~%{%]%^%/%(%X+_%:%<%[%}%|%1%2%3%4%5%6%7%8%9%0%a%b%",
"c%d%e%f%g%h%i%j%k%o@l%m%n%o%p%q%r%s%t%u%v%w%x%y%3@z%A%w@",
"B%C%D%E%F%G%H%I%J%K%L%M%N%O%P%Q%R%S%T%U%V%W%X%Y%Z%`% &.&",
"j#+&@&#&$&%&&&*&=&-&;&>&,&'&)&!&~&{&]&f$^&/&(&_&:&<&[&}&",
"j#|&1&2&;$3&4&5&B@6&7&8&9&0&0&a&b&c&d&e&f&g&h&i&j&k&l&m&"};
