/* XPM */
static char * enm_l1_xpm[] = {
"28 28 442 2",
"  	c #3A4A6B",
". 	c #364869",
"+ 	c #374D68",
"@ 	c #374769",
"# 	c #3B4C6B",
"$ 	c #3C4C6C",
"% 	c #3A4B6B",
"& 	c #3A576B",
"* 	c #3A566B",
"= 	c #38486A",
"- 	c #324667",
"; 	c #344768",
"> 	c #364F69",
", 	c #3B506B",
"' 	c #3E516D",
") 	c #435870",
"! 	c #3D506D",
"~ 	c #38496B",
"{ 	c #344468",
"] 	c #364768",
"^ 	c #354369",
"/ 	c #324966",
"( 	c #334268",
"_ 	c #334068",
": 	c #344268",
"< 	c #3C4E6C",
"[ 	c #3E556E",
"} 	c #405A6F",
"| 	c #40546E",
"1 	c #3F536D",
"2 	c #39496B",
"3 	c #344369",
"4 	c #324068",
"5 	c #324B66",
"6 	c #344B67",
"7 	c #37476A",
"8 	c #344365",
"9 	c #364D63",
"0 	c #385365",
"a 	c #3A4C66",
"b 	c #40576F",
"c 	c #384A6A",
"d 	c #364E69",
"e 	c #394A6A",
"f 	c #364569",
"g 	c #324867",
"h 	c #324C66",
"i 	c #344368",
"j 	c #364469",
"k 	c #3B4D6C",
"l 	c #394E6B",
"m 	c #3C556C",
"n 	c #3D586E",
"o 	c #3B556C",
"p 	c #3D536D",
"q 	c #364769",
"r 	c #334468",
"s 	c #2A3855",
"t 	c #2B3B55",
"u 	c #2F3F57",
"v 	c #2F3C57",
"w 	c #313641",
"x 	c #3C3C3C",
"y 	c #363B40",
"z 	c #32475A",
"A 	c #354962",
"B 	c #37506A",
"C 	c #344C67",
"D 	c #334867",
"E 	c #334567",
"F 	c #344D67",
"G 	c #384B6A",
"H 	c #354769",
"I 	c #3B4E6B",
"J 	c #3C516C",
"K 	c #39506B",
"L 	c #3B4C6C",
"M 	c #3D556D",
"N 	c #385269",
"O 	c #2D4057",
"P 	c #2A354B",
"Q 	c #3F3F40",
"R 	c #414141",
"S 	c #464646",
"T 	c #494850",
"U 	c #535162",
"V 	c #565465",
"W 	c #53515E",
"X 	c #444444",
"Y 	c #2E3243",
"Z 	c #303D62",
"` 	c #38476A",
" .	c #37466A",
"..	c #37486A",
"+.	c #384B6B",
"@.	c #3B536C",
"#.	c #365069",
"$.	c #374D6A",
"%.	c #3C526C",
"&.	c #3A4C6B",
"*.	c #3A4C6C",
"=.	c #30455A",
"-.	c #383A40",
";.	c #4A4A4A",
">.	c #515151",
",.	c #5B576E",
"'.	c #5D5A71",
").	c #5F5B76",
"!.	c #615C7C",
"~.	c #58565F",
"{.	c #55545B",
"].	c #2A3149",
"^.	c #323F64",
"/.	c #37496A",
"(.	c #3D576D",
"_.	c #3B4F6C",
":.	c #384E6B",
"<.	c #37456A",
"[.	c #384F6A",
"}.	c #3C536C",
"|.	c #3A4E6B",
"1.	c #3A4D6C",
"2.	c #30415D",
"3.	c #3A3B3E",
"4.	c #4F4F4F",
"5.	c #545454",
"6.	c #595764",
"7.	c #555558",
"8.	c #4B4B4B",
"9.	c #474747",
"0.	c #2A3045",
"a.	c #364568",
"b.	c #3A516C",
"c.	c #3A4F6C",
"d.	c #3B4E6C",
"e.	c #394A6B",
"f.	c #3A526B",
"g.	c #354B68",
"h.	c #344C68",
"i.	c #374B69",
"j.	c #364C66",
"k.	c #565456",
"l.	c #575657",
"m.	c #5E5A73",
"n.	c #5B5869",
"o.	c #4F4E51",
"p.	c #3F3D3E",
"q.	c #3D3B3C",
"r.	c #2C3A4A",
"s.	c #3E546D",
"t.	c #3C536D",
"u.	c #3B506C",
"v.	c #394E6A",
"w.	c #364D69",
"x.	c #384F69",
"y.	c #364C68",
"z.	c #344968",
"A.	c #344569",
"B.	c #324268",
"C.	c #324467",
"D.	c #334966",
"E.	c #334768",
"F.	c #30405D",
"G.	c #31415B",
"H.	c #575056",
"I.	c #C2A2BC",
"J.	c #998294",
"K.	c #82708F",
"L.	c #887898",
"M.	c #857496",
"N.	c #7C6C7B",
"O.	c #C9A4C2",
"P.	c #A0899C",
"Q.	c #2C3443",
"R.	c #34445F",
"S.	c #384A69",
"T.	c #384C69",
"U.	c #39486B",
"V.	c #39496A",
"W.	c #32415E",
"X.	c #2E3E53",
"Y.	c #3A3C3E",
"Z.	c #3E3E3E",
"`.	c #524E52",
" +	c #9C8497",
".+	c #D3A2C8",
"++	c #F3BBE4",
"@+	c #FFCCEC",
"#+	c #FFCDEC",
"$+	c #F8C3E7",
"%+	c #EEB4E1",
"&+	c #AA89A3",
"*+	c #7E717C",
"=+	c #2C344A",
"-+	c #2B3552",
";+	c #364C6A",
">+	c #39546A",
",+	c #334168",
"'+	c #2C385D",
")+	c #323540",
"!+	c #424242",
"~+	c #585568",
"{+	c #595669",
"]+	c #5C596C",
"^+	c #806F8E",
"/+	c #9E86A7",
"(+	c #9F88A8",
"_+	c #997FA4",
":+	c #595766",
"<+	c #505050",
"[+	c #4D4D4D",
"}+	c #2B374B",
"|+	c #354669",
"1+	c #303D64",
"2+	c #2A3146",
"3+	c #454545",
"4+	c #4C4C4C",
"5+	c #605C7A",
"6+	c #5A5867",
"7+	c #535353",
"8+	c #525252",
"9+	c #434344",
"0+	c #2C3E4C",
"a+	c #334667",
"b+	c #374F69",
"c+	c #394D6A",
"d+	c #324A66",
"e+	c #2A3340",
"f+	c #363636",
"g+	c #545455",
"h+	c #5A5866",
"i+	c #615C7B",
"j+	c #4E4E4E",
"k+	c #373737",
"l+	c #313339",
"m+	c #384C6A",
"n+	c #3A526A",
"o+	c #344169",
"p+	c #344A68",
"q+	c #818285",
"r+	c #494949",
"s+	c #484848",
"t+	c #34363C",
"u+	c #374567",
"v+	c #384D69",
"w+	c #38496A",
"x+	c #374E69",
"y+	c #ECECEE",
"z+	c #DDDDDD",
"A+	c #767676",
"B+	c #6F6F6F",
"C+	c #3F3A3C",
"D+	c #747373",
"E+	c #939393",
"F+	c #F7F7F8",
"G+	c #BBBBBD",
"H+	c #303E5C",
"I+	c #354869",
"J+	c #364B69",
"K+	c #324767",
"L+	c #334A67",
"M+	c #354569",
"N+	c #364B6A",
"O+	c #36456A",
"P+	c #323F68",
"Q+	c #FFFFFF",
"R+	c #D2D0D2",
"S+	c #4B3E41",
"T+	c #F8F7F7",
"U+	c #30435B",
"V+	c #354968",
"W+	c #36446A",
"X+	c #364D68",
"Y+	c #394F6B",
"Z+	c #354D69",
"`+	c #324267",
" @	c #948B8E",
".@	c #352529",
"+@	c #303E5D",
"@@	c #364969",
"#@	c #39506A",
"$@	c #3E5B6F",
"%@	c #324168",
"&@	c #334B67",
"*@	c #384B69",
"=@	c #987F67",
"-@	c #552C05",
";@	c #F9F7F6",
">@	c #34495F",
",@	c #3A536B",
"'@	c #364A6A",
")@	c #3A4D6A",
"!@	c #384C6C",
"~@	c #3A556B",
"{@	c #848588",
"]@	c #EBEBED",
"^@	c #FEFEFF",
"/@	c #FEFEFE",
"(@	c #303D5E",
"_@	c #334369",
":@	c #364A69",
"<@	c #354469",
"[@	c #334668",
"}@	c #344269",
"|@	c #61656D",
"1@	c #D2D2D6",
"2@	c #C1C1C3",
"3@	c #F0F0F2",
"4@	c #F1F1F2",
"5@	c #EEEEEF",
"6@	c #FBFBFB",
"7@	c #E9E9EC",
"8@	c #B9B9BC",
"9@	c #303B5D",
"0@	c #334767",
"a@	c #38536A",
"b@	c #354E67",
"c@	c #365068",
"d@	c #365067",
"e@	c #344E68",
"f@	c #60656C",
"g@	c #CCCCCF",
"h@	c #9D9D9F",
"i@	c #EDEDEE",
"j@	c #C9C9CA",
"k@	c #DADADB",
"l@	c #F5F5F6",
"m@	c #E1E1E4",
"n@	c #B1B1B3",
"o@	c #31445C",
"p@	c #374669",
"q@	c #3A496B",
"r@	c #3D546C",
"s@	c #40546F",
"t@	c #374869",
"u@	c #36465C",
"v@	c #9D9DA0",
"w@	c #9C9C9E",
"x@	c #E5E5E8",
"y@	c #CCCCCD",
"z@	c #D6D6D7",
"A@	c #F6F6F7",
"B@	c #B6B6B8",
"C@	c #F4F4F5",
"D@	c #F3F3F4",
"E@	c #E9E9EB",
"F@	c #62656F",
"G@	c #395067",
"H@	c #3C576C",
"I@	c #3B526B",
"J@	c #3A4F6B",
"K@	c #334868",
"L@	c #394E6C",
"M@	c #40536E",
"N@	c #3A4D6B",
"O@	c #354560",
"P@	c #9B9B9D",
"Q@	c #D1D1D4",
"R@	c #DADADD",
"S@	c #C0C0C1",
"T@	c #ADADAF",
"U@	c #D4D4D6",
"V@	c #B8B8BA",
"W@	c #3D475B",
"X@	c #39526A",
"Y@	c #394F6A",
"Z@	c #354C68",
"`@	c #39566C",
" #	c #3D516C",
".#	c #354868",
"+#	c #304460",
"@#	c #A6A6A9",
"##	c #E5E5E7",
"$#	c #DADADE",
"%#	c #C0C0C2",
"&#	c #99999B",
"*#	c #8F8F92",
"=#	c #88898C",
"-#	c #3A4C69",
";#	c #394B6B",
">#	c #36486A",
",#	c #344668",
"'#	c #384D6A",
")#	c #39536A",
"!#	c #323F66",
"~#	c #919295",
"{#	c #C6C6C8",
"]#	c #D2D2D5",
"^#	c #E4E4E6",
"/#	c #E8E8EA",
"(#	c #C9C9CB",
"_#	c #A0A0A2",
":#	c #354961",
"<#	c #686B73",
"[#	c #374C66",
"}#	c #374969",
"|#	c #374A69",
"1#	c #354F68",
"2#	c #374A6A",
"3#	c #39486A",
"4#	c #394964",
"5#	c #858689",
"6#	c #C3C3C5",
"7#	c #D4D4D7",
"8#	c #D4D4D8",
"9#	c #CDCDCF",
"0#	c #C8C8CA",
"a#	c #A9A9AB",
"b#	c #474E5E",
"c#	c #344767",
"d#	c #344568",
"e#	c #3F526E",
"f#	c #384862",
"g#	c #828488",
"h#	c #B2B2B4",
"i#	c #C4C4C6",
"j#	c #6D6F78",
"k#	c #495260",
"l#	c #8E8F93",
"m#	c #35425D",
"n#	c #385169",
"o#	c #374C69",
"p#	c #38526A",
"q#	c #384E6A",
"r#	c #3A4B6A",
"s#	c #3B546C",
"t#	c #364A61",
"u#	c #38465D",
"v#	c #A3A4A6",
"w#	c #88888D",
"x#	c #34415A",
"y#	c #334862",
"z#	c #3B536B",
"A#	c #34465A",
"B#	c #31415D",
"C#	c #344868",
"D#	c #375069",
"E#	c #354E68",
"F#	c #364C69",
"G#	c #36466A",
"H#	c #3B4D6B",
"I#	c #334B66",
"      . + @ # $ % & *   = - ; > , ' ) ! ~ { ]     ^ / ( ",
"_ : < [ } | 1 2 3 _ 4 5 6   7 8 9 0 a b c d e f 4 g h i ",
"_ j k l m n o p q r ( s t u v w x x y z A B C D E E F G ",
"H I J K < ! L M N O P Q R S T U V V W X Y Z `  ...+.@.#.",
"$.G %.&.% *.k % =.-.;.>.,.'.).!.!.~.{.S ].^._ /.(.n _.:.",
"<.7 [.}.|.1.  2.3.4.5.).!.!.!.6.7.8.9.0.a.b.l :.c.d.e.3 ",
"f.g.h.. @ i.j.x k.l.m.!.!.!.n.o.8.p.q.r.s.t.u.v.w.x.y.z.",
"A.B.C.D.E.F.G.H.I.J.K.L.L.L.L.M.N.O.P.Q.R.S.e.&.. 6 T.G ",
"U.U.V.W.X.Y.Z.`. +.+++@+#+#+#+$+%+&+*+Z.Z.=+-+: ;+>+A.,+",
",+2 '+)+!+4.~+{+]+^+/+(+(+(+(+(+_+]+:+<+[+X !+}+|+C.- 4 ",
"< 2 1+2+3+4+~.!.!.!.!.!.!.!.!.!.!.!.5+6+7+8+8.9+0+H _ a+",
"b+c+i.d+e+f+8.g+h+!.!.!.!.!.!.!.!.i+g+g+j+;.k+l+- m+% n+",
"L _ o+= p+q+4.4.9.4+<+<+<+<+<+<+<+9.r+>.s+t+u+e G v+N w+",
" .^ j ..x+q+y+z+A+B+C+D+A+A+A+A+A+A+E+F+G+H+I+J+K+B.L+M+",
"N+O+= P+4 q+y+Q+Q+R+S+T+Q+Q+Q+Q+Q+Q+Q+F+G+U+V+G W+O+X+Y+",
"Z+r = P+`+q+y+Q+Q+ @.@T+Q+Q+Q+Q+Q+Q+Q+F+G++@` ` ^ @@#@$@",
"%@&@f.*@. q+y+Q+Q+=@-@;@Q+Q+Q+Q+Q+Q+Q+F+G+>@,@'@C.D )@!@",
"P+e |.~@#@{@]@^@Q+Q+/@Q+Q+Q+Q+Q+Q+Q+Q+F+G+(@_@:@v.e <@( ",
"2 l [@}@|@1@2@3@Q+4@5@/@Q+Q+Q+Q+Q+Q+6@7@8@9@_ ,+0@a@* % ",
"b@c@d@e@f@g@h@3@i@j@4@4@k@l@Q+Q+Q+Q+l@m@n@o@p@# % q@; - ",
"r@s@' t@u@v@w@x@y@z@A@B@z@C@Q+Q+Q+D@E@g@F@G@H@I@J@@@K@5 ",
"L@! M@< N@O@P@Q@R@S@T@U@3@3@3@3@3@]@R@V@W@X@Y@` W+/.~@Z@",
"`@s. #|..#a++#@#Q@m@##]@]@]@]@]@]@$#%#&#*#=#-#;#>#,##@f.",
"a+'#~@)#,#P+!#~#{#]#^#E@E@E@E@/#R@(#(#(#(#(#_#:#<#[#@ O+",
"}#|#1#2#3# .  4#5#6#(#7#8#8#8#9#(#(#(#(#2@G+0#a#G+b#c#- ",
"<@d#- _ ^ 3#' e#f#g#h#0#(#(#(#(#(#(#i#h#j#k#a#h#l#m#n#o#",
"P+_ G p#q#  r#% s#t#u#v#a#a#a#a#a#a#w#x#y#z#A#A#B#^ C e.",
"P+_ V.C#p+n#D#E#F#G#<@,+4 4 f e.&.X+b@b@H#e ( 0@I#K+- 2 "};
