/* XPM */
static char * enm_l3_xpm[] = {
"28 28 404 2",
"  	c #3A4A6B",
". 	c #364869",
"+ 	c #374D68",
"@ 	c #374769",
"# 	c #3B4C6B",
"$ 	c #3C4C6C",
"% 	c #3A4B6B",
"& 	c #3A576B",
"* 	c #3A566B",
"= 	c #38486A",
"- 	c #324667",
"; 	c #344768",
"> 	c #364F69",
", 	c #3B506B",
"' 	c #3E516D",
") 	c #435870",
"! 	c #3D506D",
"~ 	c #38496B",
"{ 	c #344468",
"] 	c #364768",
"^ 	c #354369",
"/ 	c #324966",
"( 	c #334268",
"_ 	c #334068",
": 	c #344268",
"< 	c #3C4E6C",
"[ 	c #3E556E",
"} 	c #405A6F",
"| 	c #40546E",
"1 	c #3F536D",
"2 	c #39496B",
"3 	c #344369",
"4 	c #324068",
"5 	c #324B66",
"6 	c #314762",
"7 	c #364564",
"8 	c #334263",
"9 	c #334264",
"0 	c #304458",
"a 	c #383838",
"b 	c #31405C",
"c 	c #324962",
"d 	c #394A6A",
"e 	c #364569",
"f 	c #324867",
"g 	c #324C66",
"h 	c #344368",
"i 	c #364469",
"j 	c #3B4D6C",
"k 	c #394E6B",
"l 	c #3C556C",
"m 	c #3D586E",
"n 	c #3B556C",
"o 	c #3D536D",
"p 	c #364769",
"q 	c #334468",
"r 	c #303E62",
"s 	c #2B3A58",
"t 	c #2F343F",
"u 	c #3B3B3B",
"v 	c #3E3E3E",
"w 	c #3E3E3F",
"x 	c #46444E",
"y 	c #514F58",
"z 	c #414042",
"A 	c #2E435B",
"B 	c #334867",
"C 	c #334567",
"D 	c #344D67",
"E 	c #384B6A",
"F 	c #354769",
"G 	c #3B4E6B",
"H 	c #3C516C",
"I 	c #39506B",
"J 	c #3B4C6C",
"K 	c #3D556D",
"L 	c #385269",
"M 	c #324762",
"N 	c #2D3445",
"O 	c #404040",
"P 	c #4B4B4B",
"Q 	c #53515D",
"R 	c #5A5765",
"S 	c #5B5868",
"T 	c #615C7C",
"U 	c #5E5A72",
"V 	c #5B596B",
"W 	c #515154",
"X 	c #414141",
"Y 	c #2C364F",
"Z 	c #37466A",
"` 	c #37486A",
" .	c #384B6B",
"..	c #3B536C",
"+.	c #365069",
"@.	c #374D6A",
"#.	c #3C526C",
"$.	c #3A4C6B",
"%.	c #3A4C6C",
"&.	c #364F66",
"*.	c #2D3345",
"=.	c #474747",
"-.	c #525252",
";.	c #595764",
">.	c #605C7A",
",.	c #5F5B75",
"'.	c #535258",
").	c #4E4E4E",
"!.	c #2A3451",
"~.	c #37496A",
"{.	c #3D576D",
"].	c #3B4F6C",
"^.	c #384E6B",
"/.	c #37456A",
"(.	c #37476A",
"_.	c #384F6A",
":.	c #3C536C",
"<.	c #3A4E6B",
"[.	c #3A4D6C",
"}.	c #364969",
"|.	c #2C3540",
"1.	c #484848",
"2.	c #605B79",
"3.	c #605B78",
"4.	c #55545A",
"5.	c #4D4D4D",
"6.	c #434343",
"7.	c #363636",
"8.	c #3A516C",
"9.	c #3A4F6C",
"0.	c #3B4E6C",
"a.	c #394A6B",
"b.	c #3A526B",
"c.	c #354B68",
"d.	c #344C68",
"e.	c #374B69",
"f.	c #354868",
"g.	c #464345",
"h.	c #AD94A9",
"i.	c #877985",
"j.	c #615C7B",
"k.	c #5F5A76",
"l.	c #595666",
"m.	c #847682",
"n.	c #AA91A5",
"o.	c #464245",
"p.	c #3C536D",
"q.	c #3B506C",
"r.	c #394E6A",
"s.	c #364D69",
"t.	c #384F69",
"u.	c #364C68",
"v.	c #344968",
"w.	c #344569",
"x.	c #324268",
"y.	c #324467",
"z.	c #334966",
"A.	c #334768",
"B.	c #2F333B",
"C.	c #353535",
"D.	c #484448",
"E.	c #CBA5C3",
"F.	c #EDB2E0",
"G.	c #FAC5E9",
"H.	c #FFCDEC",
"I.	c #2F323B",
"J.	c #344B67",
"K.	c #384C69",
"L.	c #39486B",
"M.	c #39496A",
"N.	c #374867",
"O.	c #2C3847",
"P.	c #494949",
"Q.	c #4D4D51",
"R.	c #4F4E52",
"S.	c #56555A",
"T.	c #8E788D",
"U.	c #E2B3D8",
"V.	c #E8BDDC",
"W.	c #2B3647",
"X.	c #375167",
"Y.	c #334168",
"Z.	c #323F68",
"`.	c #2B3558",
" +	c #36383F",
".+	c #505050",
"++	c #5D5A71",
"@+	c #545454",
"#+	c #4C4C4C",
"$+	c #444444",
"%+	c #293348",
"&+	c #304363",
"*+	c #2A3D56",
"=+	c #363A3F",
"-+	c #5D5A70",
";+	c #2F3542",
">+	c #2F3B60",
",+	c #334667",
"'+	c #374F69",
")+	c #394D6A",
"!+	c #334B67",
"~+	c #324967",
"{+	c #2B3B57",
"]+	c #5E5F63",
"^+	c #504F53",
"/+	c #565462",
"(+	c #424242",
"_+	c #343740",
":+	c #293851",
"<+	c #334560",
"[+	c #3A526A",
"}+	c #344169",
"|+	c #344A68",
"1+	c #344868",
"2+	c #7A7A81",
"3+	c #B7B7B8",
"4+	c #B2B2B2",
"5+	c #3C3C3C",
"6+	c #68696D",
"7+	c #33425F",
"8+	c #384D69",
"9+	c #38496A",
"0+	c #374E69",
"a+	c #7A7B81",
"b+	c #EBEBED",
"c+	c #FBFBFB",
"d+	c #E2E2E2",
"e+	c #D4D4D6",
"f+	c #6E6669",
"g+	c #AFABAC",
"h+	c #364B69",
"i+	c #324767",
"j+	c #334A67",
"k+	c #354569",
"l+	c #364B6A",
"m+	c #36456A",
"n+	c #7A7B80",
"o+	c #FFFFFF",
"p+	c #D0CDCE",
"q+	c #594C4F",
"r+	c #C3BFC0",
"s+	c #36446A",
"t+	c #364D68",
"u+	c #394F6B",
"v+	c #354D69",
"w+	c #324267",
"x+	c #334767",
"y+	c #A8A09E",
"z+	c #35201D",
"A+	c #C5BFBE",
"B+	c #38476A",
"C+	c #39506A",
"D+	c #3E5B6F",
"E+	c #324168",
"F+	c #384B69",
"G+	c #334368",
"H+	c #CDBFB1",
"I+	c #8B6A49",
"J+	c #DED4CB",
"K+	c #7A7C81",
"L+	c #364A6A",
"M+	c #3A4D6A",
"N+	c #384C6C",
"O+	c #3A556B",
"P+	c #3A516B",
"Q+	c #35415D",
"R+	c #9D9EA1",
"S+	c #DCDCDE",
"T+	c #F8F8F8",
"U+	c #FAFAFB",
"V+	c #FDFDFD",
"W+	c #364A69",
"X+	c #354469",
"Y+	c #334668",
"Z+	c #344269",
"`+	c #384E6C",
" @	c #62686E",
".@	c #D0D0D3",
"+@	c #ACACAE",
"@@	c #EEEEF0",
"#@	c #E6E6E6",
"$@	c #E1E1E2",
"%@	c #E1E1E4",
"&@	c #38536A",
"*@	c #354E67",
"=@	c #365068",
"-@	c #365067",
";@	c #344E68",
">@	c #365168",
",@	c #61656C",
"'@	c #C6C6C8",
")@	c #979799",
"!@	c #EAEAEA",
"~@	c #C8C8C9",
"{@	c #F2F2F3",
"]@	c #ECECEE",
"^@	c #BBBBBD",
"/@	c #E4E4E7",
"(@	c #F5F5F6",
"_@	c #CECED0",
":@	c #3A496B",
"<@	c #3D546C",
"[@	c #40546F",
"}@	c #374869",
"|@	c #394E69",
"1@	c #3B4C68",
"2@	c #848589",
"3@	c #DEDEE2",
"4@	c #D5D5D7",
"5@	c #C4C4C5",
"6@	c #B7B7B9",
"7@	c #E5E5E5",
"8@	c #FAFAFA",
"9@	c #DEDEE1",
"0@	c #9E9EA0",
"a@	c #395266",
"b@	c #3B526B",
"c@	c #3A4F6B",
"d@	c #334868",
"e@	c #394E6C",
"f@	c #40536E",
"g@	c #3A4D6B",
"h@	c #394C6A",
"i@	c #CBCBCE",
"j@	c #C7C7C9",
"k@	c #D3D3D5",
"l@	c #394F6A",
"m@	c #354C68",
"n@	c #39566C",
"o@	c #3E546D",
"p@	c #3D516C",
"q@	c #334866",
"r@	c #CDCDCF",
"s@	c #EAEAEC",
"t@	c #A4A4A6",
"u@	c #6C6E77",
"v@	c #334363",
"w@	c #334465",
"x@	c #384D6A",
"y@	c #39536A",
"z@	c #344668",
"A@	c #334169",
"B@	c #394D6B",
"C@	c #6C6F77",
"D@	c #BFBFC1",
"E@	c #CECED1",
"F@	c #E5E5E7",
"G@	c #E6E6E8",
"H@	c #C9C9CB",
"I@	c #A5A5A7",
"J@	c #525964",
"K@	c #354465",
"L@	c #374969",
"M@	c #374A69",
"N@	c #354F68",
"O@	c #374A6A",
"P@	c #39486A",
"Q@	c #3D4F6D",
"R@	c #3C4F69",
"S@	c #646971",
"T@	c #BDBDBF",
"U@	c #D0D0D2",
"V@	c #D2D2D5",
"W@	c #B4B4B6",
"X@	c #B9B9BB",
"Y@	c #515663",
"Z@	c #344568",
"`@	c #3F526E",
" #	c #3A4D67",
".#	c #626970",
"+#	c #C1C1C3",
"@#	c #B1B1B3",
"##	c #3E4D5D",
"$#	c #3D4A5C",
"%#	c #62656F",
"&#	c #374C69",
"*#	c #38526A",
"=#	c #384E6A",
"-#	c #3A4B6A",
";#	c #3B546C",
">#	c #3B516B",
",#	c #364966",
"'#	c #32405D",
")#	c #76787F",
"!#	c #39485B",
"~#	c #374A5E",
"{#	c #314362",
"]#	c #424D5D",
"^#	c #385169",
"/#	c #375069",
"(#	c #354E68",
"_#	c #364C69",
":#	c #36466A",
"<#	c #303D63",
"[#	c #2F3C61",
"}#	c #334162",
"|#	c #354564",
"1#	c #364764",
"2#	c #334861",
"3#	c #324960",
"4#	c #3A4C6A",
"5#	c #334B66",
"6#	c #304463",
"7#	c #314565",
"      . + @ # $ % & *   = - ; > , ' ) ! ~ { ]     ^ / ( ",
"_ : < [ } | 1 2 3 _ 4 5 6 7 8 9 0 a a a b c d e 4 f g h ",
"_ i j k l m n o p q r s t u v w x y y y z u A B C C D E ",
"F G H I < ! J K L M N O P Q R S T T U V W X Y Z `  ...+.",
"@.E #.$.% %.j % &.*.=.-.;.>.T T ,.R '.).O !._ ~.{.m ].^.",
"/.(._.:.<.[.  }.|.1.-.;.2.T T 3.4.5.6.u 7.8.k ^.9.0.a.3 ",
"b.c.d.. @ e._.f.g.h.i.V T T T j.k.l.m.n.o.p.q.r.s.t.u.v.",
"w.x.y.z.A.. B.C.D.E.F.F.G.H.H.H.G.F.F.E.D.C.I.$.. J.K.E ",
"L.L.M.N.O.a P.Q.R.S.T.U.V.V.V.V.V.U.T.S.5.P =.a W.X.w.Y.",
"Y.2 Z.`. +1..+++T T T T T T T T T T T T ;.@+5.#+$+%+&+4 ",
"< 2 4 x.*+=+X .+V -+T T T T T T T T T -+V @+.+#+X ;+>+,+",
"'+)+e.!+~+{+]+v $+^+/+R R R R R R R /+^+$+(+v _+:+<+% [+",
"J _ }+= |+1+2+3+4+u 5+v v v v v v v 5+u 4+3+6+7+E 8+L 9+",
"Z ^ i ` 0+e.a+b+c+d+e+f+g+d+d+d+d+d+d+d+c+b+a+h+i+x.j+k+",
"l+m+= Z.4 - n+b+o+o+p+q+r+o+o+o+o+o+o+o+o+b+a+E s+m+t+u+",
"v+q = Z.w+x+n+b+o+o+y+z+A+o+o+o+o+o+o+o+o+b+a+B+^ }.C+D+",
"E+!+b.F+. G+a+b+o+o+H+I+J+o+o+o+o+o+o+o+o+b+K+L+y.B M+N+",
"Z.d <.O+P+Q+R+S+T+o+o+U+V+o+o+o+o+o+o+o+T+b+a+W+r.d X+( ",
"2 k Y+Z+`+ @.@+@@@o+#@$@V+o+o+o+o+o+o+o+@@%@2+Y.x+&@* % ",
"*@=@-@;@>@,@'@)@@@!@~@{@]@^@/@o+o+o+o+(@]@_@a+# % :@; - ",
"<@[@' }@|@1@2@)@3@4@5@(@6@7@8@o+o+o+(@]@9@0@a@b@c@}.d@5 ",
"e@! f@< g@h@h@)@i@3@j@)@k@b+b+b+b+b+b+3@i@)@l@B+s+~.O+m@",
"n@o@p@<.f.,+q@)+0@r@9@s@b+b+b+b+b+s@9@r@t@0@0@u@v@w@C+b.",
",+x@O+y@z@Z.A@B@C@D@E@S+F@G@G@G@F@S+E@H@H@H@H@D@I@J@K@m+",
"L@M@N@O@P@Z   Q@R@S@T@H@U@V@V@V@U@H@H@H@H@H@W@W@T@X@Y@- ",
"X+Z@- _ ^ P@' `@!  #.#+@+#H@H@H@H@H@H@H@@#+@##$#%#T@I@&#",
"Z._ E *#=#  -#% ;#>#,#'#)#I@I@I@I@I@I@I@!#~#*@D {#%#]#a.",
"Z._ M.1+|+^#/#(#_#:#X+Y.<#[#}#|#1#2#3#3#4#d ( x+5#6#7#2 "};
