/* XPM */
static char * enm_h3_xpm[] = {
"28 28 433 2",
"  	c #3A4A6B",
". 	c #364869",
"+ 	c #374D68",
"@ 	c #374769",
"# 	c #3B4C6B",
"$ 	c #3C4C6C",
"% 	c #3A4B6B",
"& 	c #3A576B",
"* 	c #3A566B",
"= 	c #38486A",
"- 	c #324667",
"; 	c #344768",
"> 	c #364F69",
", 	c #3B506B",
"' 	c #30353E",
") 	c #353535",
"! 	c #2F323B",
"~ 	c #344468",
"{ 	c #364768",
"] 	c #354369",
"^ 	c #324966",
"/ 	c #334268",
"( 	c #334068",
"_ 	c #344268",
": 	c #3C4E6C",
"< 	c #3E556E",
"[ 	c #405A6F",
"} 	c #40546E",
"| 	c #3F536D",
"1 	c #39496B",
"2 	c #344369",
"3 	c #324068",
"4 	c #2F4761",
"5 	c #2B3D54",
"6 	c #373737",
"7 	c #383838",
"8 	c #484848",
"9 	c #4B4B4B",
"0 	c #474747",
"a 	c #2D3545",
"b 	c #344366",
"c 	c #324867",
"d 	c #324C66",
"e 	c #344368",
"f 	c #364469",
"g 	c #3B4D6C",
"h 	c #394E6B",
"i 	c #3C556C",
"j 	c #3D586E",
"k 	c #3B556C",
"l 	c #3D536D",
"m 	c #364769",
"n 	c #334468",
"o 	c #2C395A",
"p 	c #3A3A3A",
"q 	c #404040",
"r 	c #4D4D50",
"s 	c #535259",
"t 	c #57565D",
"u 	c #555456",
"v 	c #525252",
"w 	c #4E4E4E",
"x 	c #4D4D4D",
"y 	c #4A4A4A",
"z 	c #494949",
"A 	c #3B3D41",
"B 	c #293951",
"C 	c #334567",
"D 	c #344D67",
"E 	c #384B6A",
"F 	c #354769",
"G 	c #3B4E6B",
"H 	c #3C516C",
"I 	c #39506B",
"J 	c #3D506D",
"K 	c #3B4C6C",
"L 	c #3D556D",
"M 	c #385269",
"N 	c #2D4058",
"O 	c #3D3D3D",
"P 	c #555558",
"Q 	c #5C596C",
"R 	c #615C7C",
"S 	c #5B5869",
"T 	c #4F4F51",
"U 	c #3C3C3C",
"V 	c #434343",
"W 	c #3A3B40",
"X 	c #2D3852",
"Y 	c #37466A",
"Z 	c #37486A",
"` 	c #384B6B",
" .	c #3B536C",
"..	c #365069",
"+.	c #374D6A",
"@.	c #3C526C",
"#.	c #3A4C6B",
"$.	c #3A4C6C",
"%.	c #2E4356",
"&.	c #3D3D3E",
"*.	c #4F4F4F",
"=.	c #555557",
"-.	c #545455",
";.	c #2B3040",
">.	c #37496A",
",.	c #3D576D",
"'.	c #3B4F6C",
").	c #384E6B",
"!.	c #37456A",
"~.	c #37476A",
"{.	c #384F6A",
"].	c #3C536C",
"^.	c #3A4E6B",
"/.	c #3A4D6C",
"(.	c #364969",
"_.	c #2E333A",
":.	c #857682",
"<.	c #887A86",
"[.	c #56555B",
"}.	c #8C7D89",
"|.	c #7C6E7A",
"1.	c #2D3641",
"2.	c #3A4F6C",
"3.	c #3B4E6C",
"4.	c #394A6B",
"5.	c #3A526B",
"6.	c #354B68",
"7.	c #344C68",
"8.	c #374B69",
"9.	c #2D3F54",
"0.	c #2A3345",
"a.	c #323336",
"b.	c #B89CB3",
"c.	c #D9AACF",
"d.	c #B791B1",
"e.	c #BE98BE",
"f.	c #C7A5C4",
"g.	c #BD96BE",
"h.	c #B791AF",
"i.	c #DBABD1",
"j.	c #AA91A5",
"k.	c #313439",
"l.	c #2D3847",
"m.	c #2F4057",
"n.	c #364D69",
"o.	c #384F69",
"p.	c #364C68",
"q.	c #344968",
"r.	c #344569",
"s.	c #324268",
"t.	c #324467",
"u.	c #334966",
"v.	c #2B3B57",
"w.	c #2C3240",
"x.	c #3A3C40",
"y.	c #454545",
"z.	c #6D666C",
"A.	c #82717E",
"B.	c #EFB6E2",
"C.	c #FCC8EA",
"D.	c #FFCDEC",
"E.	c #FBC7EA",
"F.	c #EEB3E1",
"G.	c #7A6B77",
"H.	c #686267",
"I.	c #383B41",
"J.	c #2E425B",
"K.	c #384C69",
"L.	c #39486B",
"M.	c #39496A",
"N.	c #31405C",
"O.	c #383A3E",
"P.	c #505050",
"Q.	c #535353",
"R.	c #5F5B75",
"S.	c #615C78",
"T.	c #75698B",
"U.	c #786C8C",
"V.	c #75698A",
"W.	c #5F5B76",
"X.	c #5D5A71",
"Y.	c #363A3D",
"Z.	c #2F3F60",
"`.	c #334168",
" +	c #2D385D",
".+	c #3A3A3C",
"++	c #545454",
"@+	c #5C596D",
"#+	c #38383A",
"$+	c #2F3D63",
"%+	c #2B3859",
"&+	c #313337",
"*+	c #3E3E40",
"=+	c #515151",
"-+	c #3B3C3E",
";+	c #2E3A5E",
">+	c #334667",
",+	c #374F69",
"'+	c #394D6A",
")+	c #334B67",
"!+	c #324967",
"~+	c #283750",
"{+	c #3C3D41",
"]+	c #595959",
"^+	c #565656",
"/+	c #514F4F",
"(+	c #E4E2E3",
"_+	c #FFFFFF",
":+	c #E0DEDF",
"<+	c #403D3D",
"[+	c #585858",
"}+	c #505051",
"|+	c #2B3B56",
"1+	c #384C6A",
"2+	c #3A526A",
"3+	c #344169",
"4+	c #344A68",
"5+	c #344868",
"6+	c #535765",
"7+	c #D6D6D8",
"8+	c #FCFCFC",
"9+	c #F4F3F3",
"0+	c #564A4E",
"a+	c #6A5E61",
"b+	c #7B7275",
"c+	c #312226",
"d+	c #FAFAFA",
"e+	c #CDCDCF",
"f+	c #484E5E",
"g+	c #384D69",
"h+	c #38496A",
"i+	c #374E69",
"j+	c #545865",
"k+	c #A49EA1",
"l+	c #C9C6C9",
"m+	c #38292D",
"n+	c #474F5E",
"o+	c #324767",
"p+	c #334A67",
"q+	c #354569",
"r+	c #364B6A",
"s+	c #36456A",
"t+	c #323F68",
"u+	c #535864",
"v+	c #574A4E",
"w+	c #7C7375",
"x+	c #322226",
"y+	c #36446A",
"z+	c #364D68",
"A+	c #394F6B",
"B+	c #354D69",
"C+	c #324267",
"D+	c #334767",
"E+	c #535964",
"F+	c #F2F0EE",
"G+	c #4A280D",
"H+	c #7E6552",
"I+	c #6A4E39",
"J+	c #474D5E",
"K+	c #39506A",
"L+	c #3E5B6F",
"M+	c #324168",
"N+	c #384B69",
"O+	c #334368",
"P+	c #535764",
"Q+	c #FCFBFA",
"R+	c #D0C3B6",
"S+	c #DED4CB",
"T+	c #D9CEC3",
"U+	c #FAFAFB",
"V+	c #474E5E",
"W+	c #334867",
"X+	c #3A4D6A",
"Y+	c #384C6C",
"Z+	c #394A6A",
"`+	c #3A556B",
" @	c #3A516B",
".@	c #EEEEF0",
"+@	c #FEFEFE",
"@@	c #FDFDFD",
"#@	c #EEEEEF",
"$@	c #394E6A",
"%@	c #354469",
"&@	c #334668",
"*@	c #344269",
"=@	c #384E6C",
"-@	c #3F5E71",
";@	c #565E67",
">@	c #C9C9CD",
",@	c #E9E9EB",
"'@	c #A1A1A3",
")@	c #F6F6F6",
"!@	c #DBDBDD",
"~@	c #D6D6D7",
"{@	c #FBFBFC",
"]@	c #A9A9AB",
"^@	c #E7E7E9",
"/@	c #C2C2C5",
"(@	c #464B5D",
"_@	c #38536A",
":@	c #354E67",
"<@	c #365068",
"[@	c #365067",
"}@	c #344E68",
"|@	c #365168",
"1@	c #545A65",
"2@	c #B9B9BC",
"3@	c #E5E5E7",
"4@	c #9A9A9C",
"5@	c #ECECEC",
"6@	c #B5B5B6",
"7@	c #AAAAAB",
"8@	c #F7F7F7",
"9@	c #FBFBFB",
"0@	c #A3A3A5",
"a@	c #E2E2E4",
"b@	c #B3B3B5",
"c@	c #454D5E",
"d@	c #3A496B",
"e@	c #3D546C",
"f@	c #40546F",
"g@	c #3E516D",
"h@	c #374869",
"i@	c #394E69",
"j@	c #3E506D",
"k@	c #666871",
"l@	c #CECED1",
"m@	c #A2A2A5",
"n@	c #DFDFE1",
"o@	c #D4D4D6",
"p@	c #BCBCBE",
"q@	c #DDDDDF",
"r@	c #A8A8AB",
"s@	c #C7C7CA",
"t@	c #555D66",
"u@	c #3B526B",
"v@	c #3A4F6B",
"w@	c #334868",
"x@	c #324B66",
"y@	c #394E6C",
"z@	c #40536E",
"A@	c #3A4D6B",
"B@	c #394C6A",
"C@	c #4B5160",
"D@	c #AFB0B2",
"E@	c #D4D4D8",
"F@	c #A8A8AA",
"G@	c #B7B7B9",
"H@	c #EBEBED",
"I@	c #B0B0B2",
"J@	c #A9A9AC",
"K@	c #D2D2D5",
"L@	c #63676E",
"M@	c #354363",
"N@	c #354C68",
"O@	c #39566C",
"P@	c #3E546D",
"Q@	c #3D516C",
"R@	c #354868",
"S@	c #334866",
"T@	c #7A7B81",
"U@	c #C7C7C9",
"V@	c #D5D5D8",
"W@	c #E6E6E8",
"X@	c #E5E5E8",
"Y@	c #D3D3D6",
"Z@	c #C4C4C6",
"`@	c #666972",
" #	c #36425C",
".#	c #314262",
"+#	c #384D6A",
"@#	c #39536A",
"##	c #344668",
"$#	c #334169",
"%#	c #394D6B",
"&#	c #404D5C",
"*#	c #ADADAF",
"=#	c #CACACC",
"-#	c #DDDDE0",
";#	c #E3E3E6",
">#	c #C9C9CB",
",#	c #BDBDBF",
"'#	c #AEAEB0",
")#	c #5A6069",
"!#	c #344464",
"~#	c #374969",
"{#	c #374A69",
"]#	c #354F68",
"^#	c #374A6A",
"/#	c #39486A",
"(#	c #3D4F6D",
"_#	c #3E526D",
":#	c #404E5E",
"<#	c #CBCBCD",
"[#	c #D0D0D3",
"}#	c #BFBFC1",
"|#	c #ACACAE",
"1#	c #BABABC",
"2#	c #5C606B",
"3#	c #314464",
"4#	c #344568",
"5#	c #3F526E",
"6#	c #3B505F",
"7#	c #A7A7A9",
"8#	c #B1B1B3",
"9#	c #72757A",
"0#	c #37475D",
"a#	c #676A73",
"b#	c #BEBEC0",
"c#	c #A2A2A4",
"d#	c #344864",
"e#	c #38526A",
"f#	c #384E6A",
"g#	c #3A4B6A",
"h#	c #3B546C",
"i#	c #3B516B",
"j#	c #394C6B",
"k#	c #31415F",
"l#	c #3B475B",
"m#	c #88898E",
"n#	c #364B61",
"o#	c #324960",
"p#	c #314362",
"q#	c #6C6E75",
"r#	c #374659",
"s#	c #385169",
"t#	c #375069",
"u#	c #354E68",
"v#	c #364C69",
"w#	c #36466A",
"x#	c #364569",
"y#	c #3B4D6B",
"z#	c #334B66",
"      . + @ # $ % & *   = - ; > , ' ) ) ! ~ {     ] ^ / ",
"( _ : < [ } | 1 2 ( 3 4 5 6 7 7 7 8 9 9 0 6 a b 3 c d e ",
"( f g h i j k l m n o p q r s t u v w x y z A B C C D E ",
"F G H I : J K L M N O w P Q R R S T q U V W X Y Z `  ...",
"+.E @.#.% $.g % %.&.*.=.Q R R R R S -.w O ;.( >.,.j '.).",
"!.~.{.].^./.  (._.:.<.[.R R R R R R =.}.|.1.h ).2.3.4.2 ",
"5.6.7.. @ 8.9.0.a.b.c.d.e.f.f.f.f.g.h.i.j.k.l.m.n.o.p.q.",
"r.s.t.u.v.w.x.y.y.z.A.B.C.D.D.D.D.E.F.G.H.y.y.I.w.J.K.E ",
"L.L.M.N.O.0 z P.Q.R.S.T.U.U.U.U.U.U.V.W.X.Q.P.z 0 Y.Z.`.",
"`.1  +.+y *.++++R.R R R R @+-.-.X.R R R R X.++++w z #+$+",
": 1 3 %+&+*+8 *.v v =+8 V V V V V V 8 v v v w z -+&+;+>+",
",+'+8.)+!+~+{+v ]+]+^+/+(+_+_+_+_+:+<+]+]+[+}+W |+1+% 2+",
"K ( 3+= 4+5+6+7+8+_+9+0+a+_+_+_+_+b+c+_+_+d+e+f+E g+M h+",
"Y ] f Z i+8.j+7+8+_+d+k+a+_+_+_+_+l+m+_+_+d+e+n+o+s.p+q+",
"r+s+= t+3 - u+7+8+_+9+v+a+_+_+_+_+w+x+_+_+d+e+n+y+s+z+A+",
"B+n = t+C+D+E+7+8+_+F+G+H+_+_+_+_+I+G+_+_+d+e+J+] (.K+L+",
"M+)+5.N+. O+P+7+8+_+Q+R+S+_+_+_+_+T+R+_+_+U+e+V+t.W+X+Y+",
"t+Z+^.`+ @= j+7+.@+@_+_+_+_+_+_+_+_+_+_+@@#@e+V+$@Z+%@/ ",
"1 h &@*@=@-@;@>@,@'@_+)@!@_+_+_+_+~@{@8+]@^@/@(@D+_@* % ",
":@<@[@}@|@5.1@2@3@4@+@5@6@_+_+_+_+7@8@9@0@a@b@c@% d@; - ",
"e@f@g@h@i@j@# k@l@m@n@o@p@8+8+8+8+b@!@q@r@s@t@u@v@(.w@x@",
"y@J z@: A@B@B@C@D@E@F@G@H@H@H@H@H@H@I@J@K@b@L@M@y+>.`+N@",
"O@P@Q@^.R@>+S@'+T@U@V@W@H@H@H@H@H@H@X@Y@Z@]@]@`@ #.#K+5.",
">++#`+@###t+$#%#&#*#=#Y@-#;#;#;#;#q@K@>#>#>#>#,#'#)#!#s+",
"~#{#]#^#/#Y   (#_#:#'#>#<#[#[#[#[#=#>#>#>#>#}#|#,#1#2#3#",
"%@4#- ( ] /#g@5#J _#6#7#8#>#>#>#>#>#>#>#Z@7#9#0#a#b#c#d#",
"t+( E e#f#  g#% h#i#j#k#l#c#c#c#c#c#c#c#m#n#o#D p#q#r#h+",
"t+( M.5+4+s#t#u#v#w#%@`.3 3 x#4.#.z+:@:@y#Z+/ D+z#o+- 1 "};
