/* XPM */
static char * enm_r3_xpm[] = {
"28 28 432 2",
"  	c #3A4A6B",
". 	c #364869",
"+ 	c #374D68",
"@ 	c #374769",
"# 	c #3B4C6B",
"$ 	c #3C4C6C",
"% 	c #3A4B6B",
"& 	c #3A576B",
"* 	c #3A566B",
"= 	c #38486A",
"- 	c #324667",
"; 	c #344768",
"> 	c #364F69",
", 	c #3B506B",
"' 	c #3E516D",
") 	c #435870",
"! 	c #3D506D",
"~ 	c #38496B",
"{ 	c #344468",
"] 	c #364768",
"^ 	c #354369",
"/ 	c #324966",
"( 	c #334268",
"_ 	c #334068",
": 	c #344268",
"< 	c #3C4E6C",
"[ 	c #3E556E",
"} 	c #405A6F",
"| 	c #40546E",
"1 	c #3F536D",
"2 	c #39496B",
"3 	c #2F3B61",
"4 	c #28314D",
"5 	c #383838",
"6 	c #334263",
"7 	c #334264",
"8 	c #374E66",
"9 	c #3A5567",
"0 	c #3C4F6B",
"a 	c #40576F",
"b 	c #384A6A",
"c 	c #364E69",
"d 	c #394A6A",
"e 	c #364569",
"f 	c #324068",
"g 	c #324867",
"h 	c #324C66",
"i 	c #344368",
"j 	c #364469",
"k 	c #3B4D6C",
"l 	c #394E6B",
"m 	c #3C556C",
"n 	c #3D586E",
"o 	c #3B556C",
"p 	c #3D536D",
"q 	c #2C3954",
"r 	c #3C3C3C",
"s 	c #464549",
"t 	c #514F58",
"u 	c #424049",
"v 	c #3E3E3E",
"w 	c #3D3D3D",
"x 	c #3B3B3B",
"y 	c #30414E",
"z 	c #334A5E",
"A 	c #394D68",
"B 	c #37506A",
"C 	c #344C67",
"D 	c #334867",
"E 	c #334567",
"F 	c #344D67",
"G 	c #384B6A",
"H 	c #354769",
"I 	c #3B4E6B",
"J 	c #3C516C",
"K 	c #39506B",
"L 	c #3B4C6C",
"M 	c #3D556D",
"N 	c #2C3A47",
"O 	c #454545",
"P 	c #55545B",
"Q 	c #5B596B",
"R 	c #5F5B77",
"S 	c #615C7C",
"T 	c #5A5765",
"U 	c #585664",
"V 	c #515058",
"W 	c #474747",
"X 	c #3F3F3F",
"Y 	c #29314D",
"Z 	c #344169",
"` 	c #38476A",
" .	c #37466A",
"..	c #37486A",
"+.	c #384B6B",
"@.	c #3B536C",
"#.	c #365069",
"$.	c #374D6A",
"%.	c #3C526C",
"&.	c #3A4C6B",
"*.	c #3A4C6C",
"=.	c #364F67",
"-.	c #2C344A",
";.	c #4E4E4E",
">.	c #56555F",
",.	c #5F5B75",
"'.	c #57565E",
").	c #515151",
"!.	c #434343",
"~.	c #293049",
"{.	c #37496A",
"].	c #3D576D",
"^.	c #3B4F6C",
"/.	c #384E6B",
"(.	c #37456A",
"_.	c #37476A",
":.	c #384F6A",
"<.	c #3C536C",
"[.	c #3A4E6B",
"}.	c #3A4D6C",
"|.	c #364969",
"1.	c #334C67",
"2.	c #2C3A58",
"3.	c #484848",
"4.	c #4D4D4D",
"5.	c #58565F",
"6.	c #57565C",
"7.	c #525252",
"8.	c #444444",
"9.	c #2C3849",
"0.	c #3A4F6C",
"a.	c #3B4E6C",
"b.	c #394A6B",
"c.	c #344369",
"d.	c #3A526B",
"e.	c #354B68",
"f.	c #344C68",
"g.	c #374B69",
"h.	c #354868",
"i.	c #334468",
"j.	c #2B3859",
"k.	c #675C65",
"l.	c #AA91A5",
"m.	c #6B646A",
"n.	c #5C5870",
"o.	c #5F5B76",
"p.	c #A18C9D",
"q.	c #AD94A8",
"r.	c #2F343B",
"s.	c #394E6A",
"t.	c #364D69",
"u.	c #384F69",
"v.	c #364C68",
"w.	c #344968",
"x.	c #344569",
"y.	c #324268",
"z.	c #324467",
"A.	c #334966",
"B.	c #334768",
"C.	c #394C6B",
"D.	c #39496A",
"E.	c #353535",
"F.	c #6F636D",
"G.	c #D8AACF",
"H.	c #EDB2E0",
"I.	c #FFCDEC",
"J.	c #F5BEE5",
"K.	c #BDA0B8",
"L.	c #2A354A",
"M.	c #344B67",
"N.	c #384C69",
"O.	c #39486B",
"P.	c #394F6A",
"Q.	c #375166",
"R.	c #32343B",
"S.	c #4A4A4A",
"T.	c #4B4B4B",
"U.	c #505052",
"V.	c #56555A",
"W.	c #B48FAF",
"X.	c #E6BADB",
"Y.	c #E8BDDC",
"Z.	c #DDACD5",
"`.	c #69616B",
" +	c #4D4D51",
".+	c #4D4C50",
"++	c #2B3854",
"@+	c #324067",
"#+	c #334168",
"$+	c #323F68",
"%+	c #2E3B60",
"&+	c #2F343F",
"*+	c #555557",
"=+	c #5C596C",
"-+	c #605C7A",
";+	c #5A5768",
">+	c #2F3D63",
",+	c #2A3D56",
"'+	c #363A3F",
")+	c #414141",
"!+	c #505050",
"~+	c #56555B",
"{+	c #5A5767",
"]+	c #4C4C4C",
"^+	c #2F3542",
"/+	c #2F3B60",
"(+	c #334667",
"_+	c #374F69",
":+	c #394D6A",
"<+	c #334B67",
"[+	c #324967",
"}+	c #2B3B57",
"|+	c #293451",
"1+	c #424242",
"2+	c #555360",
"3+	c #4B4B4C",
"4+	c #434752",
"5+	c #334560",
"6+	c #3A526A",
"7+	c #344A68",
"8+	c #344868",
"9+	c #344269",
"0+	c #313E5B",
"a+	c #848485",
"b+	c #BBBBBC",
"c+	c #8A8A8A",
"d+	c #C3C3C3",
"e+	c #AEAEAF",
"f+	c #4B5260",
"g+	c #384D69",
"h+	c #385269",
"i+	c #38496A",
"j+	c #374E69",
"k+	c #A3A3A5",
"l+	c #F1F1F2",
"m+	c #F3F3F3",
"n+	c #E2E2E2",
"o+	c #7C7476",
"p+	c #989497",
"q+	c #DDDDDE",
"r+	c #FCFCFC",
"s+	c #D3D3D5",
"t+	c #49505E",
"u+	c #334A67",
"v+	c #354569",
"w+	c #364B6A",
"x+	c #36456A",
"y+	c #334767",
"z+	c #FFFFFF",
"A+	c #887E81",
"B+	c #756B6E",
"C+	c #EFEEEF",
"D+	c #4A4F60",
"E+	c #364D68",
"F+	c #394F6B",
"G+	c #354D69",
"H+	c #324267",
"I+	c #334967",
"J+	c #8B807E",
"K+	c #35201D",
"L+	c #E2DFDF",
"M+	c #4A4F5F",
"N+	c #39506A",
"O+	c #3E5B6F",
"P+	c #324168",
"Q+	c #384B69",
"R+	c #334368",
"S+	c #364769",
"T+	c #BCAA97",
"U+	c #8B6A49",
"V+	c #EEEAE5",
"W+	c #494F5E",
"X+	c #3A4D6A",
"Y+	c #384C6C",
"Z+	c #3A556B",
"`+	c #3A516B",
" @	c #374569",
".@	c #374669",
"+@	c #EEEEF0",
"@@	c #FAFAFB",
"#@	c #FDFDFD",
"$@	c #F3F3F4",
"%@	c #D1D1D3",
"&@	c #74777E",
"*@	c #354461",
"=@	c #354469",
"-@	c #334668",
";@	c #384E6C",
">@	c #3F5E71",
",@	c #40596F",
"'@	c #3E556C",
")@	c #A2A2A4",
"!@	c #E4E4E6",
"~@	c #F4F4F5",
"{@	c #D2D2D3",
"]@	c #F7F7F7",
"^@	c #E2E2E4",
"/@	c #B9B9BC",
"(@	c #BDBDC0",
"_@	c #3D4C5B",
":@	c #354E67",
"<@	c #365068",
"[@	c #365067",
"}@	c #344E68",
"|@	c #365168",
"1@	c #3F536E",
"2@	c #3E526D",
"3@	c #9F9FA1",
"4@	c #D6D6D8",
"5@	c #EDEDEF",
"6@	c #F9F9F9",
"7@	c #FBFBFC",
"8@	c #D6D6D9",
"9@	c #C9C9CB",
"0@	c #F3F3F5",
"a@	c #EAEAEA",
"b@	c #DFDFE1",
"c@	c #A7A7A9",
"d@	c #B6B6B9",
"e@	c #3E465C",
"f@	c #3D546C",
"g@	c #40546F",
"h@	c #374869",
"i@	c #394E69",
"j@	c #3E506D",
"k@	c #36445F",
"l@	c #B0B0B2",
"m@	c #E2E2E5",
"n@	c #EDEDEE",
"o@	c #FEFEFE",
"p@	c #CECECF",
"q@	c #CDCDCF",
"r@	c #A6A6A8",
"s@	c #D2D2D5",
"t@	c #99999B",
"u@	c #575D67",
"v@	c #344766",
"w@	c #334868",
"x@	c #324B66",
"y@	c #394E6C",
"z@	c #40536E",
"A@	c #3A4D6B",
"B@	c #394C6A",
"C@	c #354363",
"D@	c #A5A5A7",
"E@	c #D0D0D3",
"F@	c #E3E3E6",
"G@	c #EBEBED",
"H@	c #BBBBBD",
"I@	c #979799",
"J@	c #D9D9DD",
"K@	c #C2C2C4",
"L@	c #61636C",
"M@	c #36446A",
"N@	c #354C68",
"O@	c #39566C",
"P@	c #3E546D",
"Q@	c #3D516C",
"R@	c #314362",
"S@	c #30435F",
"T@	c #9E9EA0",
"U@	c #B1B1B3",
"V@	c #D1D1D4",
"W@	c #E9E9EB",
"X@	c #7A7B81",
"Y@	c #394B6B",
"Z@	c #36486A",
"`@	c #344668",
" #	c #384D6A",
".#	c #39536A",
"+#	c #314160",
"@#	c #76777F",
"##	c #DFDFE2",
"$#	c #E6E6E8",
"%#	c #E3E3E5",
"&#	c #D8D8DB",
"*#	c #CBCBCD",
"=#	c #525965",
"-#	c #3A506B",
";#	c #384E69",
">#	c #374969",
",#	c #374A69",
"'#	c #354F68",
")#	c #334461",
"!#	c #72747B",
"~#	c #C1C1C3",
"{#	c #B7B7B9",
"]#	c #B4B4B6",
"^#	c #4D5762",
"/#	c #3E5D70",
"(#	c #3C4F6C",
"_#	c #344767",
":#	c #344568",
"<#	c #3A415A",
"[#	c #B5B5B7",
"}#	c #485060",
"|#	c #404C5E",
"1#	c #475060",
"2#	c #ACACAE",
"3#	c #B9B9BB",
"4#	c #464D5E",
"5#	c #3D516D",
"6#	c #3A546C",
"7#	c #385169",
"8#	c #374C69",
"9#	c #354D64",
"0#	c #636770",
"a#	c #454C5F",
"b#	c #394A68",
"c#	c #37485E",
"d#	c #525865",
"e#	c #515463",
"f#	c #31405C",
"g#	c #354B67",
"h#	c #3B536B",
"i#	c #324764",
"j#	c #374F67",
"k#	c #375069",
"l#	c #354E68",
"m#	c #364C69",
"n#	c #36466A",
"o#	c #334266",
"p#	c #303D61",
"q#	c #2F3C61",
"r#	c #334162",
"s#	c #354564",
"t#	c #364764",
"u#	c #334861",
"v#	c #334C64",
"w#	c #3B4D6B",
"x#	c #334B66",
"y#	c #324767",
"      . + @ # $ % & *   = - ; > , ' ) ! ~ { ]     ^ / ( ",
"_ : < [ } | 1 2 ( 3 4 5 5 5 6 7 8 9 0 a b c d e f g h i ",
"_ j k l m n o p q r s t t t u v w x y z A B C D E E F G ",
"H I J K < ! L M N O P Q R S S T U V W X Y Z `  ...+.@.#.",
"$.G %.&.% *.k % =.-.O ;.>.T S S S ,.'.).!.~._ {.].n ^./.",
"(._.:.<.[.}.  |.1.2.5 x 3.4.5.S S S ,.6.7.8.9./.0.a.b.c.",
"d.e.f.. @ g.:.h.i.j.k.l.m.n.o.S S S S 5.p.q.r.s.t.u.v.w.",
"x.y.z.A.B.. C.D.E.E.F.G.H.H.I.I.I.I.J.H.H.K.E.E.L.M.N.G ",
"O.O.D.d P.Q.R.5 S.T.U.V.W.X.Y.Y.Y.Y.Y.Z.`.V. +.+!.5 ++@+",
"#+2 $+$+%+&+3.4.;.*+=+S S S S S S S S S S S -+;+;.W &+>+",
"< 2 f y.,+'+)+!+!+~+Q ,.S S S S S S S S S Q {+]+)+^+/+(+",
"_+:+g.<+[+}+|+v X 1+W V U T T T T T T T 2+;.1+3+4+5+% 6+",
"L _ Z = 7+8+9+0+a+b+c+x w v v v v v v v x x d+e+f+g+h+i+",
" .^ j ..j+g._.` k+l+m+n+n+n+n+n+n+n+o+p+q+n+r+s+t+y.u+v+",
"w+x+= $+f - y+@ k+l+z+z+z+z+z+z+z+z+A+B+C+z+r+s+D+x+E+F+",
"G+i.= $+H+y+I+j+k+l+z+z+z+z+z+z+z+z+J+K+L+z+r+s+M+|.N+O+",
"P+<+d.Q+. R+{ S+k+l+z+z+z+z+z+z+z+z+T+U+V+z+r+s+W+D X+Y+",
"$+d [.Z+`+=  @.@k++@@@z+z+z+z+z+z+z+@@#@z+z+$@%@&@*@=@( ",
"2 l -@9+;@>@,@'@)@!@~@z+z+z+z+z+z+z+@@{@]@z+^@/@(@_@* % ",
":@<@[@}@|@d.1@2@3@4@5@6@z+z+z+7@8@9@0@a@b+z+b@c@d@e@; - ",
"f@g@' h@i@j@# x+k@l@m@n@@@z+z+o@]@p@q@@@r@+@s@t@u@v@w@x@",
"y@! z@< A@B@B@% C@D@E@F@G@G@G@G@G@G@H@I@b@J@K@L@M@{.Z+N@",
"O@P@Q@[.h.R@S@T@T@T@U@V@F@G@G@G@G@G@G@W@J@9@X@Y@Z@`@N+d.",
"(+ #Z+.#+#@#D@9@9@9@9@9@V@##$#$#$#$#%#&#*#H@=#-#:.;#@ x+",
">#,#'#)#!#~#{#]#{#9@9@9@9@9@s@s@s@s@q@9@{#^#/#].(#= _#- ",
"=@:#- <#]#[#}#|#1#2#3#9@9@9@9@9@9@9@3#2#4#5#6#F+  D.7#8#",
"$+_ G 9#0#a#b#% 6+c#d#D@D@D@D@D@D@D@e#f#g#h#:@F ; ^ C b.",
"$+_ D.8+i#j#k#l#m#n#o#p#q#q#r#s#t#u#v#:@w#d ( y+x#y#- 2 "};
