/* XPM */
static char * enm_h1_xpm[] = {
"28 28 439 2",
"  	c #3A4A6B",
". 	c #364869",
"+ 	c #374D68",
"@ 	c #374769",
"# 	c #3B4C6B",
"$ 	c #3C4C6C",
"% 	c #3A4B6B",
"& 	c #3A576B",
"* 	c #3A566B",
"= 	c #38486A",
"- 	c #324667",
"; 	c #344768",
"> 	c #364F69",
", 	c #2D3643",
"' 	c #353535",
") 	c #333436",
"! 	c #38496B",
"~ 	c #344468",
"{ 	c #364768",
"] 	c #354369",
"^ 	c #324966",
"/ 	c #334268",
"( 	c #334068",
"_ 	c #344268",
": 	c #3C4E6C",
"< 	c #3E556E",
"[ 	c #405A6F",
"} 	c #40546E",
"| 	c #3F536D",
"1 	c #39496B",
"2 	c #344369",
"3 	c #2F3D63",
"4 	c #2B4158",
"5 	c #373737",
"6 	c #383838",
"7 	c #464646",
"8 	c #4B4B4B",
"9 	c #494949",
"0 	c #2D353F",
"a 	c #374766",
"b 	c #364569",
"c 	c #324068",
"d 	c #324867",
"e 	c #324C66",
"f 	c #344368",
"g 	c #364469",
"h 	c #3B4D6C",
"i 	c #394E6B",
"j 	c #3C556C",
"k 	c #3D586E",
"l 	c #3B556C",
"m 	c #3D536D",
"n 	c #364769",
"o 	c #2E3D5D",
"p 	c #3A3A3A",
"q 	c #3F3F3F",
"r 	c #4D4D4F",
"s 	c #525158",
"t 	c #57565D",
"u 	c #555557",
"v 	c #525252",
"w 	c #4E4E4E",
"x 	c #4D4D4D",
"y 	c #4A4A4A",
"z 	c #3F4042",
"A 	c #2A394C",
"B 	c #334867",
"C 	c #334567",
"D 	c #344D67",
"E 	c #384B6A",
"F 	c #354769",
"G 	c #3B4E6B",
"H 	c #3C516C",
"I 	c #39506B",
"J 	c #3D506D",
"K 	c #3B4C6C",
"L 	c #3D556D",
"M 	c #30475B",
"N 	c #3A3A3C",
"O 	c #555456",
"P 	c #5B5869",
"Q 	c #615C7C",
"R 	c #5C596C",
"S 	c #505053",
"T 	c #424242",
"U 	c #3C3C3C",
"V 	c #434343",
"W 	c #3E3F42",
"X 	c #29324D",
"Y 	c #38476A",
"Z 	c #37466A",
"` 	c #37486A",
" .	c #384B6B",
"..	c #3B536C",
"+.	c #365069",
"@.	c #374D6A",
"#.	c #3C526C",
"$.	c #3A4C6B",
"%.	c #3A4C6C",
"&.	c #313F5A",
"*.	c #383B3E",
"=.	c #545455",
"-.	c #4F4F4F",
";.	c #3E3E3E",
">.	c #2E303A",
",.	c #344168",
"'.	c #37496A",
").	c #3D576D",
"!.	c #3B4F6C",
"~.	c #384E6B",
"{.	c #37456A",
"].	c #37476A",
"^.	c #384F6A",
"/.	c #3C536C",
"(.	c #3A4E6B",
"_.	c #3A4D6C",
":.	c #2C3340",
"<.	c #7C6E7A",
"[.	c #8C7D89",
"}.	c #56555B",
"|.	c #887A86",
"1.	c #857682",
"2.	c #2F323A",
"3.	c #3A516C",
"4.	c #3A4F6C",
"5.	c #3B4E6C",
"6.	c #394A6B",
"7.	c #3A526B",
"8.	c #354B68",
"9.	c #344C68",
"0.	c #2E3E57",
"a.	c #2B3746",
"b.	c #303338",
"c.	c #AA91A5",
"d.	c #DBABD1",
"e.	c #B791AF",
"f.	c #BD96BE",
"g.	c #C7A5C4",
"h.	c #BE98BE",
"i.	c #B791B1",
"j.	c #D9AACF",
"k.	c #B89CB3",
"l.	c #333437",
"m.	c #2D3948",
"n.	c #304055",
"o.	c #394E6A",
"p.	c #364D69",
"q.	c #384F69",
"r.	c #364C68",
"s.	c #344968",
"t.	c #344569",
"u.	c #324268",
"v.	c #324467",
"w.	c #2D405A",
"x.	c #2B3240",
"y.	c #383A40",
"z.	c #454545",
"A.	c #686267",
"B.	c #7A6B77",
"C.	c #EEB3E1",
"D.	c #FBC7EA",
"E.	c #FFCDEC",
"F.	c #FCC8EA",
"G.	c #EFB6E2",
"H.	c #82717E",
"I.	c #6D666C",
"J.	c #3A3C40",
"K.	c #2D3441",
"L.	c #2D3C58",
"M.	c #344B67",
"N.	c #384C69",
"O.	c #39486B",
"P.	c #344260",
"Q.	c #36383D",
"R.	c #474747",
"S.	c #505050",
"T.	c #535353",
"U.	c #5D5A71",
"V.	c #5F5B76",
"W.	c #75698A",
"X.	c #786C8C",
"Y.	c #75698B",
"Z.	c #615C78",
"`.	c #5F5B75",
" +	c #383A3E",
".+	c #31485C",
"++	c #334168",
"@+	c #364566",
"#+	c #38383A",
"$+	c #545454",
"%+	c #5C596D",
"&+	c #2D3F5C",
"*+	c #2D3A5E",
"=+	c #313237",
"-+	c #3B3C3D",
";+	c #484848",
">+	c #515151",
",+	c #3E3F40",
"'+	c #323538",
")+	c #2D3C59",
"!+	c #334667",
"~+	c #374F69",
"{+	c #394D6A",
"]+	c #374B69",
"^+	c #334B67",
"/+	c #2A3C55",
"(+	c #393B3F",
"_+	c #505051",
":+	c #585858",
"<+	c #595959",
"[+	c #403D3D",
"}+	c #E0DEDF",
"|+	c #FFFFFF",
"1+	c #E4E2E3",
"2+	c #514F4F",
"3+	c #565656",
"4+	c #3D3D41",
"5+	c #2C3752",
"6+	c #334768",
"7+	c #384C6A",
"8+	c #3A526A",
"9+	c #344169",
"0+	c #344A68",
"a+	c #464E5D",
"b+	c #CDCDCF",
"c+	c #FAFAFA",
"d+	c #5B5054",
"e+	c #534649",
"f+	c #8D8487",
"g+	c #37282C",
"h+	c #F0EFEF",
"i+	c #FCFCFC",
"j+	c #D6D6D8",
"k+	c #555865",
"l+	c #394A6A",
"m+	c #384D69",
"n+	c #385269",
"o+	c #38496A",
"p+	c #374E69",
"q+	c #474F5E",
"r+	c #B3AFB2",
"s+	c #D0CED0",
"t+	c #483A3E",
"u+	c #545865",
"v+	c #364B69",
"w+	c #324767",
"x+	c #334A67",
"y+	c #354569",
"z+	c #364B6A",
"A+	c #36456A",
"B+	c #323F68",
"C+	c #454D5C",
"D+	c #5C5053",
"E+	c #8D8587",
"F+	c #37282B",
"G+	c #545964",
"H+	c #36446A",
"I+	c #364D68",
"J+	c #394F6B",
"K+	c #354D69",
"L+	c #334468",
"M+	c #324267",
"N+	c #464D5C",
"O+	c #4A280D",
"P+	c #6A4E39",
"Q+	c #7E6552",
"R+	c #F2F0EE",
"S+	c #364969",
"T+	c #39506A",
"U+	c #3E5B6F",
"V+	c #324168",
"W+	c #384B69",
"X+	c #464B5D",
"Y+	c #D0C3B6",
"Z+	c #D9CEC3",
"`+	c #DED4CB",
" @	c #FCFBFA",
".@	c #555C65",
"+@	c #364A6A",
"@@	c #3A4D6A",
"#@	c #384C6C",
"$@	c #3A556B",
"%@	c #3A516B",
"&@	c #474E5E",
"*@	c #EEEEEF",
"=@	c #FDFDFD",
"-@	c #FEFEFE",
";@	c #EEEEF0",
">@	c #535765",
",@	c #364A69",
"'@	c #354469",
")@	c #334668",
"!@	c #344269",
"~@	c #384E6C",
"{@	c #4A5862",
"]@	c #C2C2C5",
"^@	c #E7E7E9",
"/@	c #A9A9AB",
"(@	c #FBFBFC",
"_@	c #D6D6D7",
":@	c #DBDBDD",
"<@	c #F6F6F6",
"[@	c #A1A1A3",
"}@	c #E9E9EB",
"|@	c #C9C9CD",
"1@	c #535664",
"2@	c #334767",
"3@	c #38536A",
"4@	c #354E67",
"5@	c #365068",
"6@	c #365067",
"7@	c #344E68",
"8@	c #365168",
"9@	c #454F5E",
"0@	c #B3B3B5",
"a@	c #E2E2E4",
"b@	c #A3A3A5",
"c@	c #FBFBFB",
"d@	c #F7F7F7",
"e@	c #AAAAAB",
"f@	c #B5B5B6",
"g@	c #ECECEC",
"h@	c #9A9A9C",
"i@	c #E5E5E7",
"j@	c #B9B9BC",
"k@	c #525663",
"l@	c #3A496B",
"m@	c #3D546C",
"n@	c #40546F",
"o@	c #3E516D",
"p@	c #374869",
"q@	c #394E69",
"r@	c #3E506D",
"s@	c #555965",
"t@	c #C7C7CA",
"u@	c #A8A8AB",
"v@	c #DDDDDF",
"w@	c #BCBCBE",
"x@	c #D4D4D6",
"y@	c #DFDFE1",
"z@	c #A2A2A5",
"A@	c #CECED1",
"B@	c #676B71",
"C@	c #3C576C",
"D@	c #3B526B",
"E@	c #3A4F6B",
"F@	c #334868",
"G@	c #324B66",
"H@	c #394E6C",
"I@	c #40536E",
"J@	c #3A4D6B",
"K@	c #394C6A",
"L@	c #414B5D",
"M@	c #A6A6A9",
"N@	c #D2D2D5",
"O@	c #A9A9AC",
"P@	c #B0B0B2",
"Q@	c #EBEBED",
"R@	c #B7B7B9",
"S@	c #A8A8AA",
"T@	c #D4D4D8",
"U@	c #727579",
"V@	c #354962",
"W@	c #354C68",
"X@	c #39566C",
"Y@	c #3E546D",
"Z@	c #3D516C",
"`@	c #354868",
" #	c #334866",
".#	c #666971",
"+#	c #C2C2C4",
"@#	c #D3D3D6",
"##	c #E5E5E8",
"$#	c #E6E6E8",
"%#	c #D5D5D8",
"&#	c #C8C8CA",
"*#	c #75777D",
"=#	c #354562",
"-#	c #324260",
";#	c #314262",
">#	c #384D6A",
",#	c #39536A",
"'#	c #344668",
")#	c #334169",
"!#	c #3A475C",
"~#	c #A0A0A3",
"{#	c #E3E3E6",
"]#	c #DDDDE0",
"^#	c #CACACC",
"/#	c #C9C9CB",
"(#	c #BFBFC1",
"_#	c #72757B",
":#	c #76797E",
"<#	c #5A6069",
"[#	c #344464",
"}#	c #374969",
"|#	c #374A69",
"1#	c #354F68",
"2#	c #374A6A",
"3#	c #39486A",
"4#	c #3D4F6D",
"5#	c #3B495E",
"6#	c #D0D0D3",
"7#	c #CBCBCD",
"8#	c #C0C0C2",
"9#	c #A7A7A9",
"0#	c #30415D",
"a#	c #344568",
"b#	c #3F526E",
"c#	c #3A495F",
"d#	c #ADADAF",
"e#	c #4B5161",
"f#	c #364E66",
"g#	c #374C69",
"h#	c #38526A",
"i#	c #384E6A",
"j#	c #3A4B6A",
"k#	c #3B546C",
"l#	c #3B516B",
"m#	c #354661",
"n#	c #35425C",
"o#	c #A2A2A4",
"p#	c #9B9B9E",
"q#	c #32465F",
"r#	c #364B61",
"s#	c #31475D",
"t#	c #30465D",
"u#	c #30415E",
"v#	c #334166",
"w#	c #344C67",
"x#	c #39496A",
"y#	c #344868",
"z#	c #385169",
"A#	c #375069",
"B#	c #354E68",
"C#	c #364C69",
"D#	c #36466A",
"E#	c #3B4D6B",
"F#	c #334B66",
"      . + @ # $ % & *   = - ; > , ' ' ) ! ~ {     ] ^ / ",
"( _ : < [ } | 1 2 ( 3 4 5 6 6 6 7 8 8 9 5 0 a b c d e f ",
"( g h i j k l m n o p q r s t u v w x y 9 z A B C C D E ",
"F G H I : J K L M N w O P Q Q R S T U V W X Y Z `  ...+.",
"@.E #.$.% %.h &.*.w =.P Q Q Q Q R u -.;.>.,.( '.).k !.~.",
"{.].^./.(._.  :.<.[.u Q Q Q Q Q Q }.|.1.2.3.i ~.4.5.6.2 ",
"7.8.9.. @ 0.a.b.c.d.e.f.g.g.g.g.h.i.j.k.l.m.n.o.p.q.r.s.",
"t.u.v.w.x.y.z.z.A.B.C.D.E.E.E.E.F.G.H.I.z.z.J.K.L.M.N.E ",
"O.O.P.Q.R.9 S.T.U.V.W.X.X.X.X.X.X.Y.Z.`.T.S.9 R. +.+t.++",
"++@+#+9 w $+$+U.Q Q Q Q U.=.=.%+Q Q Q Q `.$+$+-.y N &+c ",
": 1 *+=+-+9 w v v v ;+V V V V V V ;+>+v v -.;+,+'+)+( !+",
"~+{+]+^+/+(+_+:+<+<+[+}+|+|+|+|+1+2+3+<+<+v 4+5+6+7+% 8+",
"K ( 9+= 0+a+b+c+|+|+d+e+|+|+|+|+f+g+h+|+i+j+k+l+E m+n+o+",
"Z ] g ` p+q+b+c+|+|+r+e+|+|+|+|+s+t+h+|+i+j+u+v+w+u.x+y+",
"z+A+= B+c C+b+c+|+|+D+e+|+|+|+|+E+F+h+|+i+j+G+E H+A+I+J+",
"K+L+= B+M+N+b+c+|+|+O+P+|+|+|+|+Q+O+R+|+i+j+u+Y ] S+T+U+",
"V+^+7.W+. X+b+c+|+|+Y+Z+|+|+|+|+`+Y+ @|+i+j+.@+@v.B @@#@",
"B+l+(.$@%@&@b+*@=@|+|+|+|+|+|+|+|+|+|+-@;@j+>@,@o.l+'@/ ",
"1 i )@!@~@{@]@^@/@i+(@_@|+|+|+|+:@<@|+[@}@|@1@++2@3@* % ",
"4@5@6@7@8@9@0@a@b@c@d@e@|+|+|+|+f@g@-@h@i@j@k@# % l@; - ",
"m@n@o@p@q@r@s@t@u@v@:@0@i+i+i+i+w@x@y@z@A@B@C@D@E@S+F@G@",
"H@J I@: J@K@L@M@N@O@P@Q@Q@Q@Q@Q@Q@R@S@T@R@U@V@Y H+'.$@W@",
"X@Y@Z@(.`@!+ #.#+#@###Q@Q@Q@Q@Q@Q@$#%#&#/@/@*#=#-#;#T+7.",
"!+>#$@,#'#B+)#!#~#&#N@v@{#{#{#{#]#@#^#/#/#/#(#_#:#<#[#A+",
"}#|#1#2#3#Z   4#5#S@/#^#6#6#6#6#7#/#/#/#/#/#/#(#8#9#0#- ",
"'@a#- ( ] 3#o@b#J c#9#d#/#/#/#/#/#/#/#&#9#9#9#9#9#e#f#g#",
"B+( E h#i#  j#% k#l#m#n#o#o#o#o#o#o#o#p#q#r#s#t#u#v#w#6.",
"B+( x#y#0+z#A#B#C#D#'@++c c b 6.$.I+4@4@E#l+/ 2@F#w+- 1 "};
