/* XPM */
static char * enm_r1_xpm[] = {
"28 28 442 2",
"  	c #3A4A6B",
". 	c #364869",
"+ 	c #374D68",
"@ 	c #374769",
"# 	c #3B4C6B",
"$ 	c #3C4C6C",
"% 	c #3A4B6B",
"& 	c #3A576B",
"* 	c #3A566B",
"= 	c #38486A",
"- 	c #324667",
"; 	c #344768",
"> 	c #364F69",
", 	c #3B506B",
"' 	c #3E516D",
") 	c #435870",
"! 	c #3D506D",
"~ 	c #38496B",
"{ 	c #344468",
"] 	c #364768",
"^ 	c #354369",
"/ 	c #324966",
"( 	c #334268",
"_ 	c #334068",
": 	c #344268",
"< 	c #3C4E6C",
"[ 	c #3E556E",
"} 	c #405A6F",
"| 	c #40546E",
"1 	c #3F536D",
"2 	c #374667",
"3 	c #313F64",
"4 	c #353537",
"5 	c #373737",
"6 	c #2D3540",
"7 	c #374666",
"8 	c #344365",
"9 	c #344366",
"0 	c #385067",
"a 	c #3D5A6E",
"b 	c #3E526E",
"c 	c #40576F",
"d 	c #384A6A",
"e 	c #364E69",
"f 	c #394A6A",
"g 	c #364569",
"h 	c #324068",
"i 	c #324867",
"j 	c #324C66",
"k 	c #344368",
"l 	c #364469",
"m 	c #3B4D6C",
"n 	c #394E6B",
"o 	c #3C556C",
"p 	c #3D586E",
"q 	c #374F65",
"r 	c #313840",
"s 	c #3B3B3B",
"t 	c #4E4D54",
"u 	c #4F4E55",
"v 	c #4A4950",
"w 	c #3D3D41",
"x 	c #3C3C3C",
"y 	c #3A3A3A",
"z 	c #34445A",
"A 	c #385264",
"B 	c #3C566E",
"C 	c #3A4F6A",
"D 	c #37506A",
"E 	c #344C67",
"F 	c #334867",
"G 	c #334567",
"H 	c #344D67",
"I 	c #384B6A",
"J 	c #354769",
"K 	c #3B4E6B",
"L 	c #3C516C",
"M 	c #39506B",
"N 	c #2F3C54",
"O 	c #3B3E41",
"P 	c #4F4F4F",
"Q 	c #5C596E",
"R 	c #5D5A70",
"S 	c #615C7C",
"T 	c #5E5A71",
"U 	c #585761",
"V 	c #54525D",
"W 	c #4E4E51",
"X 	c #424242",
"Y 	c #2C3759",
"Z 	c #344169",
"` 	c #38476A",
" .	c #37466A",
"..	c #37486A",
"+.	c #384B6B",
"@.	c #3B536C",
"#.	c #365069",
"$.	c #374D6A",
"%.	c #3C526C",
"&.	c #3A4C6B",
"*.	c #3A4C6C",
"=.	c #2F3B54",
"-.	c #3C3E40",
";.	c #515052",
">.	c #5B596B",
",.	c #5C596C",
"'.	c #555557",
").	c #3D3D3E",
"!.	c #2A3555",
"~.	c #344168",
"{.	c #37496A",
"].	c #3D576D",
"^.	c #3B4F6C",
"/.	c #384E6B",
"(.	c #37456A",
"_.	c #37476A",
":.	c #384F6A",
"<.	c #3C536C",
"[.	c #3A4E6B",
"}.	c #3A4D6C",
"|.	c #364969",
"1.	c #2E333A",
"2.	c #3E3E3E",
"3.	c #404040",
"4.	c #525155",
"5.	c #5D596F",
"6.	c #5C596D",
"7.	c #545456",
"8.	c #3B3C3F",
"9.	c #2F4156",
"0.	c #3A4F6C",
"a.	c #3B4E6C",
"b.	c #394A6B",
"c.	c #344369",
"d.	c #3A526B",
"e.	c #354B68",
"f.	c #344C68",
"g.	c #374B69",
"h.	c #354868",
"i.	c #2E313A",
"j.	c #897786",
"k.	c #887785",
"l.	c #5A576B",
"m.	c #5E5A73",
"n.	c #978594",
"o.	c #867684",
"p.	c #2E3742",
"q.	c #3B506C",
"r.	c #394E6A",
"s.	c #364D69",
"t.	c #384F69",
"u.	c #364C68",
"v.	c #344968",
"w.	c #344569",
"x.	c #324268",
"y.	c #324467",
"z.	c #334966",
"A.	c #334768",
"B.	c #2D3A51",
"C.	c #2D3341",
"D.	c #333436",
"E.	c #B89CB3",
"F.	c #DFACD4",
"G.	c #C79BBF",
"H.	c #CEA2CA",
"I.	c #D8B1D0",
"J.	c #CCA0C9",
"K.	c #C79BBE",
"L.	c #E0ADD5",
"M.	c #AA91A5",
"N.	c #333438",
"O.	c #2F3D55",
"P.	c #344B67",
"Q.	c #384C69",
"R.	c #39486B",
"S.	c #39496A",
"T.	c #2F4056",
"U.	c #2F353B",
"V.	c #3E3F41",
"W.	c #474747",
"X.	c #625E61",
"Y.	c #736771",
"Z.	c #F0B6E2",
"`.	c #FDCAEB",
" +	c #FFCDEC",
".+	c #EEB4E1",
"++	c #6A6168",
"@+	c #5F5B5E",
"#+	c #3B3B3F",
"$+	c #31485C",
"%+	c #334168",
"&+	c #39496B",
"*+	c #323F68",
"=+	c #2A3558",
"-+	c #494949",
";+	c #4A4A4A",
">+	c #515151",
",+	c #545454",
"'+	c #605B79",
")+	c #615C7B",
"!+	c #665F80",
"~+	c #676080",
"{+	c #605C7B",
"]+	c #605B7A",
"^+	c #3A3A3C",
"/+	c #2D3F5C",
"(+	c #2D3A5E",
"_+	c #39393C",
":+	c #484848",
"<+	c #4E4E4E",
"[+	c #535353",
"}+	c #5E5A74",
"|+	c #5D5970",
"1+	c #3B3C3E",
"2+	c #2D3C59",
"3+	c #334667",
"4+	c #374F69",
"5+	c #394D6A",
"6+	c #2C415A",
"7+	c #2D333C",
"8+	c #393B3F",
"9+	c #464646",
"0+	c #4C4C4C",
"a+	c #525252",
"b+	c #5D5973",
"c+	c #5F5B75",
"d+	c #5D5972",
"e+	c #3A3B40",
"f+	c #2B3B56",
"g+	c #384C6A",
"h+	c #3A526A",
"i+	c #3B4C6C",
"j+	c #344A68",
"k+	c #2B3A54",
"l+	c #414247",
"m+	c #636364",
"n+	c #6E6E6E",
"o+	c #454545",
"p+	c #4B4B4B",
"q+	c #444444",
"r+	c #6D6D6D",
"s+	c #79797B",
"t+	c #484E5E",
"u+	c #384D69",
"v+	c #385269",
"w+	c #38496A",
"x+	c #374E69",
"y+	c #545865",
"z+	c #D6D6D8",
"A+	c #FCFCFC",
"B+	c #898989",
"C+	c #848484",
"D+	c #413C3D",
"E+	c #717072",
"F+	c #969696",
"G+	c #FAFAFA",
"H+	c #CDCDCF",
"I+	c #474F5E",
"J+	c #324767",
"K+	c #334A67",
"L+	c #354569",
"M+	c #364B6A",
"N+	c #36456A",
"O+	c #535864",
"P+	c #FFFFFF",
"Q+	c #534649",
"R+	c #ACA7AA",
"S+	c #36446A",
"T+	c #364D68",
"U+	c #394F6B",
"V+	c #354D69",
"W+	c #334468",
"X+	c #324267",
"Y+	c #334767",
"Z+	c #535964",
"`+	c #524549",
" @	c #474D5E",
".@	c #39506A",
"+@	c #3E5B6F",
"@@	c #324168",
"#@	c #334B67",
"$@	c #384B69",
"%@	c #334368",
"&@	c #535764",
"*@	c #6E5036",
"=@	c #4F290A",
"-@	c #FAFAFB",
";@	c #474E5E",
">@	c #3A4D6A",
",@	c #384C6C",
"'@	c #3A556B",
")@	c #3A516B",
"!@	c #E7E0DA",
"~@	c #E2DAD1",
"{@	c #354469",
"]@	c #334668",
"^@	c #344269",
"/@	c #384E6C",
"(@	c #3F5E71",
"_@	c #565E67",
":@	c #ECECEE",
"<@	c #FEFEFE",
"[@	c #F0F0F1",
"}@	c #FCFCFD",
"|@	c #E4E4E6",
"1@	c #CFCFD1",
"2@	c #B1B1B4",
"3@	c #374359",
"4@	c #38536A",
"5@	c #354E67",
"6@	c #365068",
"7@	c #365067",
"8@	c #344E68",
"9@	c #365168",
"0@	c #565C66",
"a@	c #C8C8CC",
"b@	c #E8E8EB",
"c@	c #FDFDFD",
"d@	c #A2A2A4",
"e@	c #FBFBFB",
"f@	c #AEAEB1",
"g@	c #BABABD",
"h@	c #3E475C",
"i@	c #3A496B",
"j@	c #3D546C",
"k@	c #40546F",
"l@	c #374869",
"m@	c #394E69",
"n@	c #3E506D",
"o@	c #49505F",
"p@	c #AFB0B2",
"q@	c #E3E3E5",
"r@	c #EBEBED",
"s@	c #EFEFF0",
"t@	c #BCBCBE",
"u@	c #C4C4C7",
"v@	c #F4F4F5",
"w@	c #9B9B9D",
"x@	c #F9F9FA",
"y@	c #D4D4D6",
"z@	c #A6A6A8",
"A@	c #A0A0A3",
"B@	c #39475C",
"C@	c #334868",
"D@	c #324B66",
"E@	c #394E6C",
"F@	c #40536E",
"G@	c #3A4D6B",
"H@	c #394C6A",
"I@	c #676971",
"J@	c #CCCCCF",
"K@	c #E6E6E8",
"L@	c #C2C2C4",
"M@	c #E4E4E5",
"N@	c #AEAEB0",
"O@	c #E4E4E7",
"P@	c #C6C6C9",
"Q@	c #858687",
"R@	c #3A435B",
"S@	c #354C68",
"T@	c #39566C",
"U@	c #3E546D",
"V@	c #3D516C",
"W@	c #30415E",
"X@	c #344259",
"Y@	c #787A7D",
"Z@	c #B3B3B5",
"`@	c #D2D2D6",
" #	c #E5E5E8",
".#	c #BFBFC1",
"+#	c #B5B5B7",
"@#	c #CFCFD2",
"##	c #9C9D9F",
"$#	c #3D485D",
"%#	c #394B6B",
"&#	c #36486A",
"*#	c #344668",
"=#	c #384D6A",
"-#	c #375166",
";#	c #364A5C",
">#	c #30405F",
",#	c #71727B",
"'#	c #C8C8CA",
")#	c #D3D3D6",
"!#	c #E3E3E6",
"~#	c #D1D1D4",
"{#	c #676B72",
"]#	c #3D546D",
"^#	c #3A506B",
"/#	c #384E69",
"(#	c #374969",
"_#	c #354866",
":#	c #5C626B",
"<#	c #8D8E92",
"[#	c #72747B",
"}#	c #C9C9CB",
"|#	c #C9C9CC",
"1#	c #DADADD",
"2#	c #E1E1E4",
"3#	c #D9D9DB",
"4#	c #D0D0D3",
"5#	c #98999C",
"6#	c #3A4E60",
"7#	c #3E5D70",
"8#	c #3C4F6C",
"9#	c #344767",
"0#	c #324263",
"a#	c #C4C4C6",
"b#	c #C0C0C2",
"c#	c #B7B7B9",
"d#	c #A7A7A9",
"e#	c #C1C1C3",
"f#	c #CACACD",
"g#	c #CECED1",
"h#	c #CACACC",
"i#	c #A1A2A4",
"j#	c #37435F",
"k#	c #3D516D",
"l#	c #3A546C",
"m#	c #385169",
"n#	c #374C69",
"o#	c #323F67",
"p#	c #3A465C",
"q#	c #4F5464",
"r#	c #364460",
"s#	c #77797F",
"t#	c #A9A9AB",
"u#	c #2F415E",
"v#	c #3B536B",
"w#	c #384869",
"x#	c #324463",
"y#	c #324663",
"z#	c #364F66",
"A#	c #375069",
"B#	c #334B64",
"C#	c #334864",
"D#	c #959598",
"E#	c #9C9C9E",
"F#	c #33455C",
"G#	c #334A62",
"H#	c #3B4D6B",
"I#	c #334B66",
"      . + @ # $ % & *   = - ; > , ' ) ! ~ { ]     ^ / ( ",
"_ : < [ } | 1 2 3 4 5 5 6 7 8 9 0 a b c d e f g h i j k ",
"_ l m n o p q r s t u u v w x y y z A B C D E F G G H I ",
"J K L M < ! N O P Q R S S T U V W X x Y _ Z `  ...+.@.#.",
"$.I %.&.% *.m =.-.P ;.>.R S S S ,.'.P ).!.~._ {.].p ^./.",
"(._.:.<.[.}.  |.1.2.3.P 4.5.S S S 6.7.P 8.9.n /.0.a.b.c.",
"d.e.f.. @ g.:.h.i.j.k.4.l.m.S S S S '.n.o.p.q.r.s.t.u.v.",
"w.x.y.z.A.. B.C.D.E.F.G.H.I.I.I.I.J.K.L.M.N.C.O.. P.Q.I ",
"R.R.S.f T.U.V.W.W.X.Y.Z.`. + + + +`..+++@+W.W.#+1.$+w.%+",
"%+&+*+=+).-+;+>+,+'+)+!+~+~+~+~+~+~+!+)+{+]+,.P -+^+/+h ",
"< &+(+_+:+<+[+,+}+'+S S S S S S S S S S '+|+P -+1+2+_ 3+",
"4+5+g.6+7+8+9+0+<+a+b+c+c+c+c+c+c+c+c+d+a+0+9+e+f+g+% h+",
"i+_ Z = j+k+l+m+n+9+o+p+p+p+p+p+p+p+p+q+;+r+s+t+I u+v+w+",
" .^ l ..x+g.y+z+A+B+C+C+C+C+C+C+C+D+E+C+F+G+H+I+J+x.K+L+",
"M+N+= *+h - O+z+A+P+P+P+P+P+P+P+P+Q+R+P+P+G+H+I+S+N+T+U+",
"V+W+= *+X+Y+Z+z+A+P+P+P+P+P+P+P+P+Q+`+P+P+G+H+ @^ |..@+@",
"@@#@d.$@. %@&@z+A+P+P+P+P+P+P+P+P+*@=@P+P+-@H+;@y.F >@,@",
"*+f [.'@)@= y+z+A+P+P+P+P+P+P+P+P+!@~@P+P+G+H+;@r.f {@( ",
"&+n ]@^@/@(@_@z+:@<@P+P+P+P+P+P+P+[@<@P+}@|@1@2@3@4@* % ",
"5@6@7@8@9@d.0@a@b@<@P+P+P+P+<@A+c@P+d@e@A+z+f@g@h@i@; - ",
"j@k@' l@m@n@o@p@q@r@}@P+P+P+s@t@u@v@P+w@x@y@z@A@B@|.C@D@",
"E@! F@< G@H@H@I@J@K@:@G+G+G+G+G+L@1@M@N@O@P@Q@R@S+{.'@S@",
"T@U@V@[.h.W@X@Y@Z@`@ #r@r@r@r@r@r@.#+#O@@###$#%#&#*#.@d.",
"3+=#-#;#>#,#N@N@N@'#)#O@r@r@r@r@r@r@!#~#L@{#]#^#:./#@ N+",
"(#_#:#<#[#.#}#}#}#}#|#~#1#2#2#2#2#3#4#'#5#6#7#].8#= 9#- ",
"{@0#d@a#b#c#d#e#}#}#}#}#f#g#g#g#g#h#}#i#j#k#l#U+  S.m#n#",
"*+o#p#d@d@q#r#s#d@'#}#}#}#}#}#}#}#t#d@u#s.v#5@H ; ^ E b.",
"*+_ w#x#y#z#A#B#C#D#E#E#E#E#E#E#E#F#G#5@H#f ( Y+I#J+- &+"};
