/* XPM */
static char * enm_r2_xpm[] = {
"28 28 441 2",
"  	c #3A4A6B",
". 	c #364869",
"+ 	c #374D68",
"@ 	c #374769",
"# 	c #3B4C6B",
"$ 	c #3C4C6C",
"% 	c #3A4B6B",
"& 	c #3A576B",
"* 	c #3A566B",
"= 	c #38486A",
"- 	c #324667",
"; 	c #344768",
"> 	c #364F69",
", 	c #3B506B",
"' 	c #3E516D",
") 	c #435870",
"! 	c #3D506D",
"~ 	c #38496B",
"{ 	c #344468",
"] 	c #364768",
"^ 	c #354369",
"/ 	c #324966",
"( 	c #334268",
"_ 	c #334068",
": 	c #344268",
"< 	c #3C4E6C",
"[ 	c #3E556E",
"} 	c #405A6F",
"| 	c #40546E",
"1 	c #3F536D",
"2 	c #39496B",
"3 	c #344369",
"4 	c #2F3D63",
"5 	c #2F4761",
"6 	c #314762",
"7 	c #374666",
"8 	c #344365",
"9 	c #344366",
"0 	c #385067",
"a 	c #3B5669",
"b 	c #3E526E",
"c 	c #40576F",
"d 	c #384A6A",
"e 	c #364E69",
"f 	c #394A6A",
"g 	c #364569",
"h 	c #324068",
"i 	c #324867",
"j 	c #324C66",
"k 	c #344368",
"l 	c #364469",
"m 	c #3B4D6C",
"n 	c #394E6B",
"o 	c #3C556C",
"p 	c #3D586E",
"q 	c #3B556C",
"r 	c #3D536D",
"s 	c #314060",
"t 	c #2D3D5D",
"u 	c #3A3A3A",
"v 	c #3C3C3C",
"w 	c #393939",
"x 	c #375061",
"y 	c #364D63",
"z 	c #3A4F6A",
"A 	c #37506A",
"B 	c #344C67",
"C 	c #334867",
"D 	c #334567",
"E 	c #344D67",
"F 	c #384B6A",
"G 	c #354769",
"H 	c #3B4E6B",
"I 	c #3C516C",
"J 	c #39506B",
"K 	c #3B4C6C",
"L 	c #364B60",
"M 	c #36393D",
"N 	c #3F3F3F",
"O 	c #4E4D4E",
"P 	c #53515B",
"Q 	c #585761",
"R 	c #53525C",
"S 	c #4E4E50",
"T 	c #404040",
"U 	c #3A3A3C",
"V 	c #2C375A",
"W 	c #344169",
"X 	c #38476A",
"Y 	c #37466A",
"Z 	c #37486A",
"` 	c #384B6B",
" .	c #3B536C",
"..	c #365069",
"+.	c #374D6A",
"@.	c #3C526C",
"#.	c #3A4C6B",
"$.	c #3A4C6C",
"%.	c #2F3B54",
"&.	c #3C3E40",
"*.	c #474747",
"=.	c #515052",
"-.	c #5B596B",
";.	c #5E5A72",
">.	c #615C7C",
",.	c #5B5869",
"'.	c #545455",
").	c #4E4E4E",
"!.	c #38393E",
"~.	c #2C3657",
"{.	c #37496A",
"].	c #3D576D",
"^.	c #3B4F6C",
"/.	c #384E6B",
"(.	c #37456A",
"_.	c #37476A",
":.	c #384F6A",
"<.	c #3C536C",
"[.	c #3A4E6B",
"}.	c #3A4D6C",
"|.	c #364969",
"1.	c #2A3D52",
"2.	c #343436",
"3.	c #454545",
"4.	c #4F4F4F",
"5.	c #535258",
"6.	c #5E5A71",
"7.	c #545454",
"8.	c #4D4D4D",
"9.	c #383C41",
"0.	c #2F4058",
"a.	c #3A4F6C",
"b.	c #3B4E6C",
"c.	c #394A6B",
"d.	c #3A526B",
"e.	c #354B68",
"f.	c #344C68",
"g.	c #374B69",
"h.	c #354868",
"i.	c #334468",
"j.	c #333436",
"k.	c #8C7A89",
"l.	c #82727F",
"m.	c #5A576C",
"n.	c #5F5B75",
"o.	c #565656",
"p.	c #978494",
"q.	c #7C6E7A",
"r.	c #2D3847",
"s.	c #394E6A",
"t.	c #364D69",
"u.	c #384F69",
"v.	c #364C68",
"w.	c #344968",
"x.	c #344569",
"y.	c #324268",
"z.	c #324467",
"A.	c #334966",
"B.	c #334768",
"C.	c #394C6B",
"D.	c #2C364B",
"E.	c #2D3241",
"F.	c #353536",
"G.	c #C0A1BA",
"H.	c #DCAAD2",
"I.	c #C89BC0",
"J.	c #CFA4CB",
"K.	c #D8B1D0",
"L.	c #CB9EC8",
"M.	c #C89BBE",
"N.	c #DCACD2",
"O.	c #9B8597",
"P.	c #313338",
"Q.	c #2D3441",
"R.	c #2D3C58",
"S.	c #344B67",
"T.	c #384C69",
"U.	c #39486B",
"V.	c #39496A",
"W.	c #394F6A",
"X.	c #2E4152",
"Y.	c #2E323A",
"Z.	c #414143",
"`.	c #635F63",
" +	c #81707D",
".+	c #F1B9E3",
"++	c #FDCBEB",
"@+	c #FFCDEC",
"#+	c #FDC9EA",
"$+	c #E8AFDC",
"%+	c #696167",
"&+	c #5C595B",
"*+	c #383A3E",
"=+	c #2F353A",
"-+	c #2F3F60",
";+	c #334168",
">+	c #323F68",
",+	c #293352",
"'+	c #3F3F40",
")+	c #494949",
"!+	c #4A4A4A",
"~+	c #525252",
"{+	c #615C7B",
"]+	c #625C7B",
"^+	c #665F80",
"/+	c #676080",
"(+	c #665F7F",
"_+	c #605C7A",
":+	c #605B7A",
"<+	c #5A5868",
"[+	c #38383A",
"}+	c #2B3859",
"|+	c #3B3C3D",
"1+	c #535353",
"2+	c #605B78",
"3+	c #605B79",
"4+	c #5C596C",
"5+	c #484848",
"6+	c #393A3C",
"7+	c #2E3A5E",
"8+	c #334667",
"9+	c #374F69",
"0+	c #394D6A",
"a+	c #334B67",
"b+	c #2A3C55",
"c+	c #2D323C",
"d+	c #3C3D41",
"e+	c #464646",
"f+	c #535355",
"g+	c #5D5973",
"h+	c #5B586E",
"i+	c #515151",
"j+	c #4C4C4C",
"k+	c #464647",
"l+	c #37393E",
"m+	c #31425C",
"n+	c #3A526A",
"o+	c #344A68",
"p+	c #344868",
"q+	c #2A3350",
"r+	c #45464A",
"s+	c #666666",
"t+	c #6F6F6F",
"u+	c #444444",
"v+	c #4B4B4B",
"w+	c #6D6D6D",
"x+	c #7E7E80",
"y+	c #3D475B",
"z+	c #384D69",
"A+	c #385269",
"B+	c #38496A",
"C+	c #374E69",
"D+	c #666871",
"E+	c #DFDFE1",
"F+	c #FEFEFE",
"G+	c #848484",
"H+	c #383234",
"I+	c #767677",
"J+	c #A3A3A3",
"K+	c #F8F8F9",
"L+	c #C4C4C6",
"M+	c #394559",
"N+	c #334A67",
"O+	c #354569",
"P+	c #364B6A",
"Q+	c #36456A",
"R+	c #334767",
"S+	c #FFFFFF",
"T+	c #3D2E32",
"U+	c #B8B4B7",
"V+	c #3B435B",
"W+	c #364D68",
"X+	c #394F6B",
"Y+	c #354D69",
"Z+	c #324267",
"`+	c #334967",
" @	c #666A71",
".@	c #5B4F52",
"+@	c #39506A",
"@@	c #3E5B6F",
"#@	c #324168",
"$@	c #384B69",
"%@	c #334368",
"&@	c #5B391B",
"*@	c #553112",
"=@	c #394359",
"-@	c #3A4D6A",
";@	c #384C6C",
">@	c #3A556B",
",@	c #3A516B",
"'@	c #374569",
")@	c #E4DCD5",
"!@	c #E3DBD3",
"~@	c #3D495B",
"{@	c #354469",
"]@	c #334668",
"^@	c #344269",
"/@	c #384E6C",
"(@	c #3F5E71",
"_@	c #40596F",
":@	c #676B71",
"<@	c #ECECEE",
"[@	c #EEEEEF",
"}@	c #FAFAFB",
"|@	c #E1E1E3",
"1@	c #D0D0D2",
"2@	c #A8A8AC",
"3@	c #354A5D",
"4@	c #354E67",
"5@	c #365068",
"6@	c #365067",
"7@	c #344E68",
"8@	c #365168",
"9@	c #3F536E",
"0@	c #676A72",
"a@	c #CFCFD3",
"b@	c #EAEAEC",
"c@	c #FCFCFC",
"d@	c #FDFDFD",
"e@	c #9E9EA0",
"f@	c #FAFAFA",
"g@	c #CDCDCF",
"h@	c #B5B5B8",
"i@	c #B3B3B6",
"j@	c #38435D",
"k@	c #3D546C",
"l@	c #40546F",
"m@	c #374869",
"n@	c #394E69",
"o@	c #3E506D",
"p@	c #545865",
"q@	c #B8B8BA",
"r@	c #E7E7E9",
"s@	c #EBEBED",
"t@	c #B6B6B8",
"u@	c #C8C8CB",
"v@	c #F9F9F9",
"w@	c #FBFBFB",
"x@	c #A5A5A7",
"y@	c #F7F7F8",
"z@	c #CBCBCE",
"A@	c #ABABAD",
"B@	c #98989C",
"C@	c #33425D",
"D@	c #334868",
"E@	c #324B66",
"F@	c #394E6C",
"G@	c #40536E",
"H@	c #3A4B68",
"I@	c #36465F",
"J@	c #35455F",
"K@	c #384968",
"L@	c #7A7B81",
"M@	c #D3D3D6",
"N@	c #BABABC",
"O@	c #D3D3D5",
"P@	c #E3E3E4",
"Q@	c #B4B4B6",
"R@	c #E2E2E5",
"S@	c #BFBFC2",
"T@	c #7F8084",
"U@	c #353F5C",
"V@	c #354C68",
"W@	c #39566C",
"X@	c #3E546D",
"Y@	c #3B4E68",
"Z@	c #4E5563",
"`@	c #A9A9AB",
" #	c #48505F",
".#	c #848587",
"+#	c #D5D5D8",
"@#	c #E6E6E8",
"##	c #B9B9BB",
"$#	c #B7B7B9",
"%#	c #CCCCCF",
"&#	c #909195",
"*#	c #37445C",
"=#	c #36486A",
"-#	c #344668",
";#	c #364B67",
">#	c #4C5662",
",#	c #A0A0A2",
"'#	c #B2B2B4",
")#	c #BEBEC0",
"!#	c #C9C9CB",
"~#	c #B5B5B7",
"{#	c #AEAEB0",
"]#	c #CACACC",
"^#	c #E5E5E8",
"/#	c #D0D0D3",
"(#	c #BCBCBE",
"_#	c #555C66",
":#	c #3A506B",
"<#	c #384E69",
"[#	c #374969",
"}#	c #364867",
"|#	c #3B4A5A",
"1#	c #3C475B",
"2#	c #3D465B",
"3#	c #6C6E78",
"4#	c #BFBFC1",
"5#	c #D2D2D5",
"6#	c #DBDBDE",
"7#	c #E1E1E4",
"8#	c #D8D8DA",
"9#	c #C5C5C7",
"0#	c #8A8C8F",
"a#	c #3A5363",
"b#	c #3C4F6C",
"c#	c #344767",
"d#	c #344568",
"e#	c #354261",
"f#	c #72757A",
"g#	c #A7A7A9",
"h#	c #CBCBCD",
"i#	c #CECED1",
"j#	c #C8C8CA",
"k#	c #909194",
"l#	c #384962",
"m#	c #3A546C",
"n#	c #385169",
"o#	c #374C69",
"p#	c #38526A",
"q#	c #384E6A",
"r#	c #374663",
"s#	c #364461",
"t#	c #898A8E",
"u#	c #A2A2A4",
"v#	c #9B9B9E",
"w#	c #324760",
"x#	c #3B536B",
"y#	c #375069",
"z#	c #354E68",
"A#	c #344965",
"B#	c #334365",
"C#	c #9C9C9E",
"D#	c #31485F",
"E#	c #334A62",
"F#	c #3B4D6B",
"G#	c #334B66",
"H#	c #324767",
"      . + @ # $ % & *   = - ; > , ' ) ! ~ { ]     ^ / ( ",
"_ : < [ } | 1 2 3 _ 4 5 6 7 8 9 0 a b c d e f g h i j k ",
"_ l m n o p q r s t u u v v v v u w x y z A B C D D E F ",
"G H I J < ! K L M N O P Q Q Q Q R S T U V W X Y Z `  ...",
"+.F @.#.% $.m %.&.*.=.-.-.;.>.>.>.,.'.).!.~._ {.].p ^./.",
"(._.:.<.[.}.  |.1.2.N 3.4.5.6.>.>.>.-.7.8.9.0./.a.b.c.3 ",
"d.e.f.. @ g.:.h.i.j.k.l.5.m.n.>.>.>.>.o.p.q.r.s.t.u.v.w.",
"x.y.z.A.B.. C.D.E.F.G.H.I.J.K.K.K.K.L.M.N.O.P.Q.R.S.T.F ",
"U.U.V.f W.X.Y.Z.*.*.`. +.+++@+@+@+@+#+$+%+&+*.*.*+=+-+;+",
";+2 >+>+,+'+)+!+~+7.{+]+^+/+/+/+/+/+/+(+{+_+:+<+).)+[+4 ",
"< 2 h }+|+)+4.1+7.2+3+>.>.>.>.>.>.>.>.>.>.3+4+).5+6+7+8+",
"9+0+g.a+b+c+d+e+8.).f+g+n.n.n.n.n.n.n.n.h+i+j+k+l+m+% n+",
"K _ W = o+p+q+r+s+t+u+3.v+v+v+v+v+v+v+v+u+4.w+x+y+z+A+B+",
"Y ^ l Z C+g._.D+E+F+G+G+G+G+G+G+G+G+H+I+G+J+K+L+M+y.N+O+",
"P+Q+= >+h - R+D+E+F+S+S+S+S+S+S+S+S+T+U+S+S+K+L+V+Q+W+X+",
"Y+i.= >+Z+R+`+ @E+F+S+S+S+S+S+S+S+S+T+.@S+S+K+L+V+|.+@@@",
"#@a+d.$@. %@{ D+E+F+S+S+S+S+S+S+S+S+&@*@S+S+K+L+=@C -@;@",
">+f [.>@,@= '@D+E+F+S+S+S+S+S+S+S+S+)@!@S+S+K+L+~@f {@( ",
"2 n ]@^@/@(@_@:@E+<@S+S+S+S+S+S+S+S+[@S+S+}@|@1@2@3@* % ",
"4@5@6@7@8@d.9@0@a@b@F+S+S+S+S+F+c@d@S+e@c@f@g@h@i@j@; - ",
"k@l@' m@n@o@# p@q@r@<@d@S+S+S+s@t@u@v@w@x@y@z@A@B@C@D@E@",
"F@! G@H@I@J@J@K@L@M@r@[@f@f@f@f@f@N@O@P@Q@R@S@T@U@{.>@V@",
"W@X@Y@Z@`@`@`@ #.#t@+#@#s@s@s@s@s@s@##$#R@%#&#*#=#-#+@d.",
"8+;#>#,#'#)#!#~#{#{#]#+#^#s@s@s@s@s@s@R@/#(#_#:#:.<#@ Q+",
"[#}#|#1#2#3#4#!#!#!#!#]#5#6#7#7#7#7#8#1@9#0#a#].b#= c#- ",
"{@d#- _ ^ e#f#g#L+!#!#!#!#h#i#i#i#i#!#j#k#l#m#X+  V.n#o#",
">+_ F p#q#  r#s#t#u#!#!#!#!#!#!#!#!#x@v#w#x#4@E ; ^ B c.",
">+_ V.p+o+n#y#z#A#B#C#C#C#C#C#C#C#C#D#E#F#f ( R+G#H#- 2 "};
