/* XPM */
static char * enm_b3_xpm[] = {
"28 28 410 2",
"  	c #3A4A6B",
". 	c #364869",
"+ 	c #374D68",
"@ 	c #374769",
"# 	c #3B4C6B",
"$ 	c #3C4C6C",
"% 	c #3A4B6B",
"& 	c #3A576B",
"* 	c #3A566B",
"= 	c #38486A",
"- 	c #324667",
"; 	c #344768",
"> 	c #364F69",
", 	c #3B506B",
"' 	c #3E516D",
") 	c #435870",
"! 	c #3D506D",
"~ 	c #38496B",
"{ 	c #344468",
"] 	c #364768",
"^ 	c #354369",
"/ 	c #324966",
"( 	c #334268",
"_ 	c #334068",
": 	c #344268",
"< 	c #3C4E6C",
"[ 	c #3E556E",
"} 	c #405A6F",
"| 	c #40546E",
"1 	c #3F536D",
"2 	c #39496B",
"3 	c #303E62",
"4 	c #2A3454",
"5 	c #383838",
"6 	c #32405D",
"7 	c #334263",
"8 	c #334264",
"9 	c #374E66",
"0 	c #3B576B",
"a 	c #3E526E",
"b 	c #40576F",
"c 	c #384A6A",
"d 	c #364E69",
"e 	c #394A6A",
"f 	c #364569",
"g 	c #324068",
"h 	c #324867",
"i 	c #324C66",
"j 	c #344368",
"k 	c #364469",
"l 	c #3B4D6C",
"m 	c #394E6B",
"n 	c #3C556C",
"o 	c #3D586E",
"p 	c #3B556C",
"q 	c #34475D",
"r 	c #3B3B3B",
"s 	c #434345",
"t 	c #514F58",
"u 	c #414042",
"v 	c #3E3E3E",
"w 	c #3D3D3D",
"x 	c #303946",
"y 	c #364F60",
"z 	c #39526A",
"A 	c #3A4F6A",
"B 	c #37506A",
"C 	c #344C67",
"D 	c #334867",
"E 	c #334567",
"F 	c #344D67",
"G 	c #384B6A",
"H 	c #354769",
"I 	c #3B4E6B",
"J 	c #3C516C",
"K 	c #39506B",
"L 	c #3B4C6C",
"M 	c #2E3D4C",
"N 	c #444444",
"O 	c #56555B",
"P 	c #5E5A72",
"Q 	c #615C7C",
"R 	c #5B5868",
"S 	c #5A5765",
"T 	c #595764",
"U 	c #52515B",
"V 	c #494949",
"W 	c #404040",
"X 	c #2A3149",
"Y 	c #313E65",
"Z 	c #344169",
"` 	c #38476A",
" .	c #37466A",
"..	c #37486A",
"+.	c #384B6B",
"@.	c #3B536C",
"#.	c #365069",
"$.	c #374D6A",
"%.	c #3C526C",
"&.	c #3A4C6B",
"*.	c #3A4C6C",
"=.	c #2C3E4E",
"-.	c #464646",
";.	c #535258",
">.	c #605B79",
",.	c #5F5B77",
"'.	c #585761",
").	c #525252",
"!.	c #454545",
"~.	c #2A3046",
"{.	c #344168",
"].	c #37496A",
"^.	c #3D576D",
"/.	c #3B4F6C",
"(.	c #384E6B",
"_.	c #37456A",
":.	c #37476A",
"<.	c #384F6A",
"[.	c #3C536C",
"}.	c #3A4E6B",
"|.	c #3A4D6C",
"1.	c #364969",
"2.	c #2F4760",
"3.	c #373737",
"4.	c #3C3C3C",
"5.	c #4D4D4D",
"6.	c #56555D",
"7.	c #585660",
"8.	c #2D3643",
"9.	c #3A4F6C",
"0.	c #3B4E6C",
"a.	c #394A6B",
"b.	c #344369",
"c.	c #3A526B",
"d.	c #354B68",
"e.	c #344C68",
"f.	c #374B69",
"g.	c #354868",
"h.	c #2F3F61",
"i.	c #564F55",
"j.	c #AA91A5",
"k.	c #786D76",
"l.	c #5B576B",
"m.	c #5F5B76",
"n.	c #948391",
"o.	c #AD94A8",
"p.	c #353535",
"q.	c #3B506C",
"r.	c #394E6A",
"s.	c #364D69",
"t.	c #384F69",
"u.	c #364C68",
"v.	c #344968",
"w.	c #344569",
"x.	c #324268",
"y.	c #324467",
"z.	c #334966",
"A.	c #334768",
"B.	c #394C6B",
"C.	c #5C545A",
"D.	c #D2A8C9",
"E.	c #EDB2E0",
"F.	c #FCC9EA",
"G.	c #FFCDEC",
"H.	c #F7C1E7",
"I.	c #C4A3BE",
"J.	c #2D3443",
"K.	c #344B67",
"L.	c #384C69",
"M.	c #39486B",
"N.	c #39496A",
"O.	c #374C66",
"P.	c #2E3841",
"Q.	c #4A4A4A",
"R.	c #4B4B4B",
"S.	c #4E4E50",
"T.	c #56555A",
"U.	c #A1839E",
"V.	c #E4B6D9",
"W.	c #E8BDDC",
"X.	c #E0B0D6",
"Y.	c #7B6C7C",
"Z.	c #2C3F4E",
"`.	c #334467",
" +	c #334168",
".+	c #323F68",
"++	c #2F3B62",
"@+	c #2B3144",
"#+	c #4C4C4C",
"$+	c #555456",
"%+	c #5A5868",
"&+	c #58565F",
"*+	c #535353",
"=+	c #414141",
"-+	c #29364D",
";+	c #2C3A5B",
">+	c #323740",
",+	c #4E4E4E",
"'+	c #505050",
")+	c #555557",
"!+	c #5B596B",
"~+	c #5C596D",
"{+	c #2C3144",
"]+	c #334667",
"^+	c #374F69",
"/+	c #394D6A",
"(+	c #334B67",
"_+	c #2C405B",
":+	c #293751",
"<+	c #38393E",
"[+	c #424242",
"}+	c #515056",
"|+	c #575563",
"1+	c #555361",
"2+	c #4F4F51",
"3+	c #2F3541",
"4+	c #2D3C53",
"5+	c #364665",
"6+	c #3A526A",
"7+	c #344A68",
"8+	c #344868",
"9+	c #2E3A5C",
"0+	c #7B7B7C",
"a+	c #B9B9BA",
"b+	c #9E9E9E",
"c+	c #C5C5C5",
"d+	c #AEAEB0",
"e+	c #565960",
"f+	c #334561",
"g+	c #384D69",
"h+	c #385269",
"i+	c #38496A",
"j+	c #374E69",
"k+	c #979799",
"l+	c #EEEEF0",
"m+	c #F7F7F7",
"n+	c #E2E2E2",
"o+	c #FFFFFF",
"p+	c #DFDFE1",
"q+	c #60646C",
"r+	c #324767",
"s+	c #334A67",
"t+	c #354569",
"u+	c #364B6A",
"v+	c #36456A",
"w+	c #334767",
"x+	c #61646C",
"y+	c #36446A",
"z+	c #364D68",
"A+	c #394F6B",
"B+	c #354D69",
"C+	c #334468",
"D+	c #324267",
"E+	c #334967",
"F+	c #61636C",
"G+	c #39506A",
"H+	c #3E5B6F",
"I+	c #324168",
"J+	c #384B69",
"K+	c #334368",
"L+	c #3A4D6A",
"M+	c #384C6C",
"N+	c #3A556B",
"O+	c #3A516B",
"P+	c #374569",
"Q+	c #EDEDEE",
"R+	c #F9F9F9",
"S+	c #F6F6F7",
"T+	c #354469",
"U+	c #334668",
"V+	c #344269",
"W+	c #384E6C",
"X+	c #3F5E71",
"Y+	c #40596F",
"Z+	c #E2E2E5",
"`+	c #F1F1F2",
" @	c #EBEBED",
".@	c #D6D6D9",
"+@	c #60626C",
"@@	c #38536A",
"#@	c #354E67",
"$@	c #365068",
"%@	c #365067",
"&@	c #344E68",
"*@	c #365168",
"=@	c #3F536E",
"-@	c #D2D2D4",
";@	c #F7F7F8",
">@	c #F3F3F4",
",@	c #C6C6C8",
"'@	c #3A496B",
")@	c #3D546C",
"!@	c #40546F",
"~@	c #374869",
"{@	c #394E69",
"]@	c #3E506D",
"^@	c #334163",
"/@	c #A7A7A9",
"(@	c #E0E0E3",
"_@	c #F4F4F5",
":@	c #DCDCDF",
"<@	c #848689",
"[@	c #384E66",
"}@	c #3A4F6B",
"|@	c #334868",
"1@	c #324B66",
"2@	c #394E6C",
"3@	c #40536E",
"4@	c #3A4D6B",
"5@	c #394C6A",
"6@	c #9E9EA0",
"7@	c #CECED0",
"8@	c #E1E1E4",
"9@	c #C9C9CB",
"0@	c #7A7B81",
"a@	c #354C68",
"b@	c #39566C",
"c@	c #3E546D",
"d@	c #3D516C",
"e@	c #314362",
"f@	c #30435F",
"g@	c #A3A3A5",
"h@	c #A6A6A8",
"i@	c #B2B2B4",
"j@	c #D7D7D9",
"k@	c #E7E7EA",
"l@	c #FAFAFB",
"m@	c #FEFEFE",
"n@	c #CBCBCD",
"o@	c #394B6B",
"p@	c #36486A",
"q@	c #344668",
"r@	c #384D6A",
"s@	c #39536A",
"t@	c #314160",
"u@	c #7D7E85",
"v@	c #B4B4B5",
"w@	c #F9F9FA",
"x@	c #F8F8F9",
"y@	c #CCCCCF",
"z@	c #BDBDBF",
"A@	c #61666D",
"B@	c #3D546D",
"C@	c #3A506B",
"D@	c #384E69",
"E@	c #374969",
"F@	c #374A69",
"G@	c #354F68",
"H@	c #334461",
"I@	c #7A7B82",
"J@	c #D8D8DA",
"K@	c #D5D5D6",
"L@	c #D2D2D3",
"M@	c #E9E9EA",
"N@	c #EFEFF0",
"O@	c #F2F2F3",
"P@	c #E3E3E6",
"Q@	c #DEDEE1",
"R@	c #D2D2D5",
"S@	c #CDCDCF",
"T@	c #BABABC",
"U@	c #585E68",
"V@	c #3E586F",
"W@	c #3E5D70",
"X@	c #3C4F6C",
"Y@	c #344767",
"Z@	c #344568",
"`@	c #3A415A",
" #	c #C1C1C4",
".#	c #C0C0C3",
"+#	c #485060",
"@#	c #404C5E",
"##	c #ADADB0",
"$#	c #BBBBBE",
"%#	c #D3D3D6",
"&#	c #D0D0D3",
"*#	c #CECED1",
"=#	c #ACACAE",
"-#	c #515564",
";#	c #384868",
">#	c #3D516D",
",#	c #3A546C",
"'#	c #385169",
")#	c #374C69",
"!#	c #354D64",
"~#	c #676B72",
"{#	c #464D5F",
"]#	c #394A68",
"^#	c #374B5F",
"/#	c #45505F",
"(#	c #A5A5A7",
"_#	c #62656F",
":#	c #313B5C",
"<#	c #314464",
"[#	c #3B536B",
"}#	c #324764",
"|#	c #374F67",
"1#	c #375069",
"2#	c #354E68",
"3#	c #364C69",
"4#	c #354568",
"5#	c #324062",
"6#	c #303D61",
"7#	c #2F3C61",
"8#	c #334162",
"9#	c #354564",
"0#	c #364764",
"a#	c #344A64",
"b#	c #3B4D6B",
"c#	c #334B66",
"      . + @ # $ % & *   = - ; > , ' ) ! ~ { ]     ^ / ( ",
"_ : < [ } | 1 2 3 4 5 5 5 6 7 8 9 0 a b c d e f g h i j ",
"_ k l m n o p q r s t t t u v w r x y z A B C D E E F G ",
"H I J K < ! L M N O P Q Q R S T U V W X Y Z `  ...+.@.#.",
"$.G %.&.% *.l % =.-.;.S S >.Q Q ,.'.).!.~.{._ ].^.o /.(.",
"_.:.<.[.}.|.  1.2.3.4.-.5.6.Q Q Q ,.7.).-.8.m (.9.0.a.b.",
"c.d.e.. @ f.<.g.h.i.j.k.l.m.Q Q Q Q S n.o.p.q.r.s.t.u.v.",
"w.x.y.z.A.. B.p.p.C.D.E.E.F.G.G.G.H.E.E.I.p.p.J.. K.L.G ",
"M.M.N.e O.P.5 Q.R.S.T.U.V.W.W.W.W.W.X.Y.T.R.R.!.5 Z.`. +",
" +2 .+++@+-.#+5.$+%+Q Q Q Q Q Q Q Q Q Q Q &+*+5.#+=+-+g ",
"< 2 g ;+>+=+,+'+)+!+P Q Q Q Q Q Q Q Q Q ~+!+*+'+V =+{+]+",
"^+/+f.(+_+:+<+v [+-.}+|+S S S S S S S 1+2+[+[+v 3+4+5+6+",
"L _ Z = 7+8+9+0+a+b+r w v v v v v v v 4.r c+d+e+f+g+h+i+",
" .^ k ..j+f.:.k+l+m+n+n+n+n+n+n+n+n+n+n+n+o+p+q+r+x.s+t+",
"u+v+= .+g - w+k+l+o+o+o+o+o+o+o+o+o+o+o+o+o+p+x+y+v+z+A+",
"B+C+= .+D+w+E+k+l+o+o+o+o+o+o+o+o+o+o+o+o+o+p+F+^ 1.G+H+",
"I+(+c.J+. K+{ k+l+o+o+o+o+o+o+o+o+o+o+o+o+o+p+q+y.D L+M+",
".+e }.N+O+= P+k+Q+R+o+o+o+o+o+o+o+o+o+o+o+S+p+q+r.e T+( ",
"2 m U+V+W+X+Y+k+Z+`+o+o+o+o+o+o+o+o+o+o+o+ @.@+@w+@@* % ",
"#@$@%@&@*@c.=@k+-@Q+;@o+o+o+o+o+o+o+o+o+>@ @,@x+% '@; - ",
")@!@' ~@{@]@# ^@/@(@_@o+o+o+o+o+o+o+o+o+l+:@<@[@}@1.|@1@",
"2@! 3@< 4@5@5@% 6@7@8@S+o+o+o+o+o+o+o+`+:@9@0@` y+].N+a@",
"b@c@d@}.g.e@f@g@h@i@j@k@l@o+o+o+o+m@`+:@n@k+< o@p@q@G+c.",
"]+r@N+s@t@u@v@`+o+o+o+o+o+o+o+w@x@l+:@y@z@A@B@C@<.D@@ v+",
"E@F@G@H@I@J@K@L@M@N@O@S+S+S+S+P@Q@R@S@T@U@V@W@^.X@= Y@- ",
"T+Z@- `@ #.#+#@###$#%#J@J@J@J@&#*#z@=#-#;#>#,#A+  N.'#)#",
".+_ G !#~#{#]#% ^#/#(#(#(#(#(#(#(#_#:#<#s.[##@F ; ^ C a.",
".+_ N.8+}#|#1#2#3#4#5#6#7#7#8#9#0#a##@#@b#e ( w+c#r+- 2 "};
