/* XPM */
static char * enm_b1_xpm[] = {
"28 28 381 2",
"  	c #3A4A6B",
". 	c #364869",
"+ 	c #374D68",
"@ 	c #374769",
"# 	c #3B4C6B",
"$ 	c #3C4C6C",
"% 	c #3A4B6B",
"& 	c #3A576B",
"* 	c #3A566B",
"= 	c #38486A",
"- 	c #324667",
"; 	c #344768",
"> 	c #364F69",
", 	c #3B506B",
"' 	c #3E516D",
") 	c #435870",
"! 	c #3D506D",
"~ 	c #38496B",
"{ 	c #344468",
"] 	c #364768",
"^ 	c #354369",
"/ 	c #324966",
"( 	c #334268",
"_ 	c #334068",
": 	c #344268",
"< 	c #3C4E6C",
"[ 	c #3E556E",
"} 	c #405A6F",
"| 	c #40546E",
"1 	c #3F536D",
"2 	c #354464",
"3 	c #2D3A5B",
"4 	c #383838",
"5 	c #2B3D53",
"6 	c #364564",
"7 	c #334263",
"8 	c #334264",
"9 	c #385068",
"0 	c #3E5B6F",
"a 	c #3E526E",
"b 	c #40576F",
"c 	c #384A6A",
"d 	c #364E69",
"e 	c #394A6A",
"f 	c #364569",
"g 	c #324068",
"h 	c #324867",
"i 	c #324C66",
"j 	c #344368",
"k 	c #364469",
"l 	c #3B4D6C",
"m 	c #394E6B",
"n 	c #3C556C",
"o 	c #3D586E",
"p 	c #344B5F",
"q 	c #3B3B3B",
"r 	c #414042",
"s 	c #514F58",
"t 	c #434345",
"u 	c #3E3E3E",
"v 	c #313540",
"w 	c #36465D",
"x 	c #3B5769",
"y 	c #3C566E",
"z 	c #3A4F6A",
"A 	c #37506A",
"B 	c #344C67",
"C 	c #334867",
"D 	c #334567",
"E 	c #344D67",
"F 	c #384B6A",
"G 	c #354769",
"H 	c #3B4E6B",
"I 	c #3C516C",
"J 	c #39506B",
"K 	c #2E3A51",
"L 	c #414141",
"M 	c #555557",
"N 	c #5D5A70",
"O 	c #615C7C",
"P 	c #5C596C",
"Q 	c #5A5765",
"R 	c #53515D",
"S 	c #4B4B4B",
"T 	c #404040",
"U 	c #2D3645",
"V 	c #313D63",
"W 	c #344169",
"X 	c #38476A",
"Y 	c #37466A",
"Z 	c #37486A",
"` 	c #384B6B",
" .	c #3B536C",
"..	c #365069",
"+.	c #374D6A",
"@.	c #3C526C",
"#.	c #3A4C6B",
"$.	c #3A4C6C",
"%.	c #2F3B54",
"&.	c #444444",
"*.	c #525155",
"=.	c #5F5B75",
"-.	c #605C7A",
";.	c #595764",
">.	c #525252",
",.	c #474747",
"'.	c #2C3144",
").	c #313E64",
"!.	c #344168",
"~.	c #37496A",
"{.	c #3D576D",
"].	c #3B4F6C",
"^.	c #384E6B",
"/.	c #37456A",
"(.	c #37476A",
"_.	c #384F6A",
":.	c #3C536C",
"<.	c #3A4E6B",
"[.	c #3A4D6C",
"}.	c #364969",
"|.	c #363636",
"1.	c #3C3C3C",
"2.	c #4D4D4D",
"3.	c #55545A",
"4.	c #605B78",
"5.	c #605B79",
"6.	c #484848",
"7.	c #2E3341",
"8.	c #3A516C",
"9.	c #3A4F6C",
"0.	c #3B4E6C",
"a.	c #394A6B",
"b.	c #344369",
"c.	c #3A526B",
"d.	c #354B68",
"e.	c #344C68",
"f.	c #374B69",
"g.	c #354868",
"h.	c #464245",
"i.	c #AA91A5",
"j.	c #847682",
"k.	c #595666",
"l.	c #5F5A76",
"m.	c #615C7B",
"n.	c #5B596B",
"o.	c #877985",
"p.	c #AD94A9",
"q.	c #464345",
"r.	c #3C536D",
"s.	c #3B506C",
"t.	c #394E6A",
"u.	c #364D69",
"v.	c #384F69",
"w.	c #364C68",
"x.	c #344968",
"y.	c #344569",
"z.	c #324268",
"A.	c #324467",
"B.	c #334966",
"C.	c #334768",
"D.	c #2F333B",
"E.	c #353535",
"F.	c #484448",
"G.	c #CBA5C3",
"H.	c #EDB2E0",
"I.	c #FAC5E9",
"J.	c #FFCDEC",
"K.	c #2F323B",
"L.	c #344B67",
"M.	c #384C69",
"N.	c #39486B",
"O.	c #39496A",
"P.	c #374867",
"Q.	c #2C3847",
"R.	c #56555A",
"S.	c #8E788D",
"T.	c #E2B3D8",
"U.	c #E8BDDC",
"V.	c #2B3647",
"W.	c #375167",
"X.	c #334168",
"Y.	c #39496B",
"Z.	c #303C64",
"`.	c #293049",
" +	c #4C4C4C",
".+	c #545454",
"++	c #293348",
"@+	c #304363",
"#+	c #2E3B60",
"$+	c #505050",
"%+	c #2F3542",
"&+	c #2F3B60",
"*+	c #334667",
"=+	c #374F69",
"-+	c #394D6A",
";+	c #2E445E",
">+	c #293A51",
",+	c #33373F",
"'+	c #424242",
")+	c #504F53",
"!+	c #565462",
"~+	c #343740",
"{+	c #293851",
"]+	c #334560",
"^+	c #3A526A",
"/+	c #3B4C6C",
"(+	c #344A68",
"_+	c #2F415E",
":+	c #68696D",
"<+	c #B7B7B8",
"[+	c #B2B2B2",
"}+	c #33425F",
"|+	c #384D69",
"1+	c #385269",
"2+	c #38496A",
"3+	c #374E69",
"4+	c #7A7B81",
"5+	c #EBEBED",
"6+	c #FBFBFB",
"7+	c #E2E2E2",
"8+	c #364B69",
"9+	c #324767",
"0+	c #334A67",
"a+	c #354569",
"b+	c #364B6A",
"c+	c #36456A",
"d+	c #323F68",
"e+	c #7A7B80",
"f+	c #FFFFFF",
"g+	c #36446A",
"h+	c #364D68",
"i+	c #394F6B",
"j+	c #354D69",
"k+	c #334468",
"l+	c #324267",
"m+	c #334767",
"n+	c #39506A",
"o+	c #324168",
"p+	c #334B67",
"q+	c #384B69",
"r+	c #334368",
"s+	c #7A7C81",
"t+	c #364A6A",
"u+	c #3A4D6A",
"v+	c #384C6C",
"w+	c #3A556B",
"x+	c #3A516B",
"y+	c #F8F8F8",
"z+	c #364A69",
"A+	c #354469",
"B+	c #334668",
"C+	c #344269",
"D+	c #384E6C",
"E+	c #3F5E71",
"F+	c #E1E1E4",
"G+	c #EEEEF0",
"H+	c #7A7A81",
"I+	c #38536A",
"J+	c #354E67",
"K+	c #365068",
"L+	c #365067",
"M+	c #344E68",
"N+	c #365168",
"O+	c #CECED0",
"P+	c #ECECEE",
"Q+	c #F5F5F6",
"R+	c #3A496B",
"S+	c #3D546C",
"T+	c #40546F",
"U+	c #374869",
"V+	c #394E69",
"W+	c #3E506D",
"X+	c #384865",
"Y+	c #9E9EA0",
"Z+	c #DEDEE1",
"`+	c #F1F1F2",
" @	c #395266",
".@	c #3B526B",
"+@	c #3A4F6B",
"@@	c #334868",
"#@	c #324B66",
"$@	c #394E6C",
"%@	c #40536E",
"&@	c #3A4D6B",
"*@	c #394C6A",
"=@	c #979799",
"-@	c #CBCBCE",
";@	c #DEDEE2",
">@	c #F4F4F5",
",@	c #394F6A",
"'@	c #354C68",
")@	c #39566C",
"!@	c #3E546D",
"~@	c #3D516C",
"{@	c #384C68",
"]@	c #334665",
"^@	c #314362",
"/@	c #88898D",
"(@	c #A6A6A8",
"_@	c #ACACAE",
":@	c #D5D5D7",
"<@	c #E5E5E8",
"[@	c #FEFEFE",
"}@	c #CDCDCF",
"|@	c #3C4F6C",
"1@	c #394B6B",
"2@	c #36486A",
"3@	c #344668",
"4@	c #384D6A",
"5@	c #385267",
"6@	c #565E67",
"7@	c #545966",
"8@	c #7D7E85",
"9@	c #E2E2E4",
"0@	c #F9F9FA",
"a@	c #FAFAFB",
"b@	c #F9F9F9",
"c@	c #F0F0F2",
"d@	c #CECED1",
"e@	c #BFBFC1",
"f@	c #6C6F77",
"g@	c #3D556D",
"h@	c #3D546D",
"i@	c #3A506B",
"j@	c #384E69",
"k@	c #374969",
"l@	c #374A69",
"m@	c #32475C",
"n@	c #B5B5B7",
"o@	c #C9C9CB",
"p@	c #D8D8DA",
"q@	c #DDDDE0",
"r@	c #DCDCDE",
"s@	c #EFEFF0",
"t@	c #F2F2F3",
"u@	c #F6F6F7",
"v@	c #E3E3E6",
"w@	c #D2D2D5",
"x@	c #BDBDBF",
"y@	c #636770",
"z@	c #3B4F68",
"A@	c #3E586F",
"B@	c #3E5D70",
"C@	c #344767",
"D@	c #344568",
"E@	c #2F4261",
"F@	c #60636E",
"G@	c #B5B5B8",
"H@	c #ADADB0",
"I@	c #B7B7BA",
"J@	c #D0D0D3",
"K@	c #D3D3D6",
"L@	c #CFCFD2",
"M@	c #C1C1C3",
"N@	c #324063",
"O@	c #3D516D",
"P@	c #3A546C",
"Q@	c #385169",
"R@	c #374C69",
"S@	c #354D64",
"T@	c #34465D",
"U@	c #36435E",
"V@	c #36435D",
"W@	c #3C4C5D",
"X@	c #A5A5A7",
"Y@	c #76787F",
"Z@	c #313C5C",
"`@	c #303D62",
" #	c #3B536B",
".#	c #344868",
"+#	c #375069",
"@#	c #354E68",
"##	c #334163",
"$#	c #324062",
"%#	c #303D61",
"&#	c #2F3C61",
"*#	c #334162",
"=#	c #354564",
"-#	c #374866",
";#	c #3B4D6B",
">#	c #334B66",
"      . + @ # $ % & *   = - ; > , ' ) ! ~ { ]     ^ / ( ",
"_ : < [ } | 1 2 3 4 4 4 5 6 7 8 9 0 a b c d e f g h i j ",
"_ k l m n o p q r s s s t u u q v w x y z A B C D D E F ",
"G H I J < ! K L M N O O P Q Q R S T U V _ W X Y Z `  ...",
"+.F @.#.% $.l %.&.*.Q Q =.O O -.;.>.,.'.).!._ ~.{.o ].^.",
"/.(._.:.<.[.  }.|.1.&.2.3.4.O O 5.;.>.6.7.8.m ^.9.0.a.b.",
"c.d.e.. @ f._.g.h.i.j.k.l.m.O O O n.o.p.q.r.s.t.u.v.w.x.",
"y.z.A.B.C.. D.E.F.G.H.H.I.J.J.J.I.H.H.G.F.E.K.#.. L.M.F ",
"N.N.O.P.Q.4 ,.S 2.R.S.T.U.U.U.U.U.T.S.R.2.S ,.4 V.W.y.X.",
"X.Y.Z.`.&. +2..+;.O O O O O O O O O O O ;..+2. +&.++@+g ",
"< Y.#+7.L  +$+.+n.N O O O O O O O O O N n..+$+ +L %+&+*+",
"=+-+f.;+>+,+u '+&.)+!+Q Q Q Q Q Q Q !+)+&.'+u ~+{+]+% ^+",
"/+_ W = (+_+:+<+[+q 1.u u u u u u u 1.q [+<+:+}+F |+1+2+",
"Y ^ k Z 3+f.4+5+6+7+7+7+7+7+7+7+7+7+7+7+6+5+4+8+9+z.0+a+",
"b+c+= d+g - e+5+f+f+f+f+f+f+f+f+f+f+f+f+f+5+4+F g+c+h+i+",
"j+k+= d+l+m+e+5+f+f+f+f+f+f+f+f+f+f+f+f+f+5+4+X ^ }.n+0 ",
"o+p+c.q+. r+4+5+f+f+f+f+f+f+f+f+f+f+f+f+f+5+s+t+A.C u+v+",
"d+e <.w+x+= 4+5+y+f+f+f+f+f+f+f+f+f+f+f+y+5+4+z+t.e A+( ",
"Y.m B+C+D+E+s+F+G+f+f+f+f+f+f+f+f+f+f+f+G+F+H+X.m+I+* % ",
"J+K+L+M+N+c.s+O+P+Q+f+f+f+f+f+f+f+f+f+Q+P+O+4+# % R+; - ",
"S+T+' U+V+W+X+Y+Z+`+f+f+f+f+f+f+f+f+f+`+Z+Y+ @.@+@}.@@#@",
"$@! %@< &@*@*@=@-@;@>@f+f+f+f+f+f+f+>@;@-@=@,@X g+~.w+'@",
")@!@~@{@]@^@/@(@_@:@<@y+f+f+f+f+[@>@Z+}@Y+|@< 1@2@3@n+c.",
"*+4@5@6@7@8@9@0@a@f+f+f+f+f+0@b@c@Z+d@e@f@g@h@i@_.j@@ c+",
"k@l@m@n@o@p@q@r@<@s@t@u@u@u@v@F+w@d@x@y@z@A@B@{.|@= C@- ",
"A+D@E@F@n@G@H@_@I@J@K@p@p@p@J@L@M@_@F@N@  O@P@i+  O.Q@R@",
"d+_ F S@T@U@V@U@W@X@X@X@X@X@X@X@Y@Z@`@C.u. #J+E ; ^ B a.",
"d+_ O..#(+Q@+#@#d.##$#%#&#&#*#=#-#h+J+J+;#e ( m+>#9+- Y."};
