/* XPM */
static char * enm_h2_xpm[] = {
"28 28 465 2",
"  	c #3A4A6B",
". 	c #364869",
"+ 	c #374D68",
"@ 	c #374769",
"# 	c #3B4C6B",
"$ 	c #3C4C6C",
"% 	c #3A4B6B",
"& 	c #3A576B",
"* 	c #3A566B",
"= 	c #2E333F",
"- 	c #353535",
"; 	c #2E3848",
"> 	c #38496B",
", 	c #344468",
"' 	c #364768",
") 	c #354369",
"! 	c #324966",
"~ 	c #334268",
"{ 	c #334068",
"] 	c #344268",
"^ 	c #3C4E6C",
"/ 	c #3E556E",
"( 	c #405A6F",
"_ 	c #40546E",
": 	c #3F536D",
"< 	c #39496B",
"[ 	c #334267",
"} 	c #2A2F44",
"| 	c #373737",
"1 	c #474747",
"2 	c #4C4B4D",
"3 	c #545456",
"4 	c #555557",
"5 	c #4B4B4B",
"6 	c #4A4A4A",
"7 	c #484848",
"8 	c #494949",
"9 	c #434343",
"0 	c #363636",
"a 	c #2B3A4C",
"b 	c #384968",
"c 	c #364569",
"d 	c #324068",
"e 	c #324867",
"f 	c #324C66",
"g 	c #344368",
"h 	c #364469",
"i 	c #3B4D6C",
"j 	c #394E6B",
"k 	c #3C556C",
"l 	c #3D586E",
"m 	c #3B556C",
"n 	c #3B5069",
"o 	c #2B3447",
"p 	c #444444",
"q 	c #525252",
"r 	c #555558",
"s 	c #5F5B77",
"t 	c #615C7C",
"u 	c #555459",
"v 	c #393939",
"w 	c #3C3C3C",
"x 	c #3A3C3F",
"y 	c #2B3E54",
"z 	c #334867",
"A 	c #334567",
"B 	c #344D67",
"C 	c #384B6A",
"D 	c #354769",
"E 	c #3B4E6B",
"F 	c #3C516C",
"G 	c #39506B",
"H 	c #3D506D",
"I 	c #384967",
"J 	c #2F3C4B",
"K 	c #515151",
"L 	c #56555A",
"M 	c #5F5B75",
"N 	c #605C7A",
"O 	c #56555B",
"P 	c #383838",
"Q 	c #303238",
"R 	c #2A3454",
"S 	c #38476A",
"T 	c #37466A",
"U 	c #37486A",
"V 	c #384B6B",
"W 	c #3B536C",
"X 	c #365069",
"Y 	c #374D6A",
"Z 	c #3C526C",
"` 	c #3A4C6B",
" .	c #3A4C6C",
"..	c #2F3D54",
"+.	c #504C4F",
"@.	c #6F676E",
"#.	c #5F5C5E",
"$.	c #5D5A71",
"%.	c #5F5B76",
"&.	c #5A595A",
"*.	c #70686F",
"=.	c #585257",
"-.	c #283049",
";.	c #344168",
">.	c #37496A",
",.	c #3D576D",
"'.	c #3B4F6C",
").	c #384E6B",
"!.	c #37456A",
"~.	c #37476A",
"{.	c #384F6A",
"].	c #3C536C",
"^.	c #374A66",
"/.	c #303F59",
"(.	c #2C3447",
"_.	c #796A76",
":.	c #C7A4C0",
"<.	c #A3879D",
"[.	c #917998",
"}.	c #9882A3",
"|.	c #9984A4",
"1.	c #927A9C",
"2.	c #998094",
"3.	c #C9A5C2",
"4.	c #8C7A89",
"5.	c #2C3242",
"6.	c #304359",
"7.	c #354863",
"8.	c #3A4F6C",
"9.	c #3B4E6C",
"0.	c #394A6B",
"a.	c #344369",
"b.	c #3A526B",
"c.	c #354B68",
"d.	c #324A65",
"e.	c #2C3952",
"f.	c #2C3549",
"g.	c #3E3E3E",
"h.	c #675F66",
"i.	c #A0859A",
"j.	c #D6A4CB",
"k.	c #F3BAE4",
"l.	c #FDCAEB",
"m.	c #FFCDEC",
"n.	c #FECCEC",
"o.	c #F4BCE4",
"p.	c #DFA9D3",
"q.	c #A4879D",
"r.	c #736871",
"s.	c #2F3947",
"t.	c #2E3D53",
"u.	c #334863",
"v.	c #384F69",
"w.	c #364C68",
"x.	c #344968",
"y.	c #344569",
"z.	c #314166",
"A.	c #283349",
"B.	c #404040",
"C.	c #424242",
"D.	c #4C4C4C",
"E.	c #4F4F4F",
"F.	c #55545C",
"G.	c #5A5868",
"H.	c #8C7695",
"I.	c #AD91B2",
"J.	c #B094B4",
"K.	c #AF93B3",
"L.	c #977D9F",
"M.	c #56555F",
"N.	c #2C3547",
"O.	c #314762",
"P.	c #384C69",
"Q.	c #39486B",
"R.	c #2C3449",
"S.	c #505050",
"T.	c #57565E",
"U.	c #5E5A73",
"V.	c #5B5868",
"W.	c #5A5765",
"X.	c #585761",
"Y.	c #2D3A46",
"Z.	c #324265",
"`.	c #334168",
" +	c #2E3A55",
".+	c #3D3D3D",
"++	c #4E4E4E",
"@+	c #595762",
"#+	c #55535E",
"$+	c #494752",
"%+	c #45434E",
"&+	c #414042",
"*+	c #474550",
"=+	c #54525D",
"-+	c #57565C",
";+	c #29354D",
">+	c #314464",
",+	c #38486A",
"'+	c #2B3759",
")+	c #293451",
"!+	c #3B3B3B",
"~+	c #9E9E9E",
"{+	c #C5C5C5",
"]+	c #B2B2B2",
"^+	c #2B3B4B",
"/+	c #314A5C",
"(+	c #334566",
"_+	c #334667",
":+	c #374F69",
"<+	c #394D6A",
"[+	c #374B69",
"}+	c #324965",
"|+	c #303F54",
"1+	c #9A9A9B",
"2+	c #CBCBCC",
"3+	c #D4D4D4",
"4+	c #6A6264",
"5+	c #4E4245",
"6+	c #DCD9DA",
"7+	c #FFFFFF",
"8+	c #F3F2F3",
"9+	c #55484B",
"0+	c #53494B",
"a+	c #CDCDCE",
"b+	c #A3A3A5",
"c+	c #3A4055",
"d+	c #354366",
"e+	c #334768",
"f+	c #384C6A",
"g+	c #3A526A",
"h+	c #3B4C6C",
"i+	c #344169",
"j+	c #31435C",
"k+	c #B5B5B7",
"l+	c #F4F4F5",
"m+	c #D7D5D8",
"n+	c #584C50",
"o+	c #D2CFD0",
"p+	c #FBFAFB",
"q+	c #ACA7AB",
"r+	c #5B4E51",
"s+	c #F6F6F7",
"t+	c #C1C1C3",
"u+	c #3D455B",
"v+	c #394A6A",
"w+	c #384D69",
"x+	c #385269",
"y+	c #38496A",
"z+	c #34465D",
"A+	c #BCB7B9",
"B+	c #4C3E42",
"C+	c #F8F7F7",
"D+	c #887F82",
"E+	c #3B465B",
"F+	c #364B69",
"G+	c #324767",
"H+	c #324268",
"I+	c #334A67",
"J+	c #354569",
"K+	c #364B6A",
"L+	c #36456A",
"M+	c #323F68",
"N+	c #303B5C",
"O+	c #796E71",
"P+	c #2E1E22",
"Q+	c #F0EFEF",
"R+	c #3B465A",
"S+	c #36446A",
"T+	c #364D68",
"U+	c #394F6B",
"V+	c #354D69",
"W+	c #334468",
"X+	c #303C5B",
"Y+	c #9E8267",
"Z+	c #683D12",
"`+	c #DFD5CC",
" @	c #F4F1EE",
".@	c #886745",
"+@	c #364969",
"@@	c #39506A",
"#@	c #3E5B6F",
"$@	c #324168",
"%@	c #334B67",
"&@	c #384B69",
"*@	c #33415D",
"=@	c #F2F2F4",
"-@	c #FEFEFE",
";@	c #F5F5F6",
">@	c #3E4C5C",
",@	c #364A6A",
"'@	c #324467",
")@	c #3A4D6A",
"!@	c #384C6C",
"~@	c #3A4E6B",
"{@	c #3A556B",
"]@	c #36485E",
"^@	c #B4B4B6",
"/@	c #E9E9EB",
"(@	c #EAEAEB",
"_@	c #F7F7F7",
":@	c #FDFDFD",
"<@	c #F5F5F5",
"[@	c #F9F9F9",
"}@	c #E9E9EC",
"|@	c #BFBFC1",
"1@	c #3A435B",
"2@	c #364A69",
"3@	c #394E6A",
"4@	c #354469",
"5@	c #334668",
"6@	c #344269",
"7@	c #34465F",
"8@	c #ADADAF",
"9@	c #DEDEE1",
"0@	c #D2D2D3",
"a@	c #CECED0",
"b@	c #F0F0F1",
"c@	c #FAFAFA",
"d@	c #C4C4C6",
"e@	c #E1E1E2",
"f@	c #E1E1E4",
"g@	c #B6B6B8",
"h@	c #3A415A",
"i@	c #334767",
"j@	c #38536A",
"k@	c #354E67",
"l@	c #365068",
"m@	c #365067",
"n@	c #344E68",
"o@	c #324A5F",
"p@	c #74777C",
"q@	c #CBCBCD",
"r@	c #BEBEC0",
"s@	c #F8F8F9",
"t@	c #B3B3B4",
"u@	c #E9E9E9",
"v@	c #F8F8F8",
"w@	c #A5A5A7",
"x@	c #DCDCDD",
"y@	c #B3B3B5",
"z@	c #D1D1D4",
"A@	c #818388",
"B@	c #34405D",
"C@	c #3A496B",
"D@	c #344768",
"E@	c #324667",
"F@	c #3D546C",
"G@	c #40546F",
"H@	c #3E516D",
"I@	c #374869",
"J@	c #394E69",
"K@	c #3B485E",
"L@	c #B0B0B3",
"M@	c #C3C3C6",
"N@	c #C7C7C9",
"O@	c #F2F2F3",
"P@	c #BDBDBF",
"Q@	c #C1C1C4",
"R@	c #BEBEC1",
"S@	c #B9B9BB",
"T@	c #45505E",
"U@	c #374E60",
"V@	c #3E4A5C",
"W@	c #344665",
"X@	c #334868",
"Y@	c #324B66",
"Z@	c #394E6C",
"`@	c #40536E",
" #	c #3A4D6B",
".#	c #354661",
"+#	c #6A6D74",
"@#	c #C0C0C3",
"##	c #DFDFE1",
"$#	c #EBEBED",
"%#	c #E5E5E7",
"&#	c #BFBFC2",
"*#	c #C5C5C8",
"=#	c #666A71",
"-#	c #797C81",
";#	c #B0B0B2",
">#	c #545966",
",#	c #385267",
"'#	c #354C68",
")#	c #39566C",
"!#	c #3E546D",
"~#	c #3D516C",
"{#	c #354868",
"]#	c #3A4659",
"^#	c #CDCDCF",
"/#	c #DBDBDE",
"(#	c #E8E8EA",
"_#	c #EAEAEC",
":#	c #DDDDE0",
"<#	c #CECED1",
"[#	c #C0C0C2",
"}#	c #B7B7B9",
"|#	c #ACACAE",
"1#	c #9C9C9E",
"2#	c #555B64",
"3#	c #395069",
"4#	c #384D6A",
"5#	c #39536A",
"6#	c #344668",
"7#	c #303D62",
"8#	c #62666F",
"9#	c #BBBBBD",
"0#	c #D3D3D6",
"a#	c #DFDFE3",
"b#	c #DFDFE2",
"c#	c #D4D4D6",
"d#	c #CDCDD0",
"e#	c #C9C9CB",
"f#	c #525964",
"g#	c #37475C",
"h#	c #37465B",
"i#	c #36415B",
"j#	c #374969",
"k#	c #374A69",
"l#	c #354F68",
"m#	c #374A6A",
"n#	c #39486A",
"o#	c #394A66",
"p#	c #646871",
"q#	c #BCBCBE",
"r#	c #535E67",
"s#	c #3A5368",
"t#	c #3C4F6C",
"u#	c #344767",
"v#	c #344568",
"w#	c #3F526E",
"x#	c #3A4B67",
"y#	c #686C73",
"z#	c #A2A2A4",
"A#	c #555B67",
"B#	c #375067",
"C#	c #39496A",
"D#	c #385169",
"E#	c #374C69",
"F#	c #38526A",
"G#	c #384E6A",
"H#	c #3A4B6A",
"I#	c #3B546C",
"J#	c #384D66",
"K#	c #354865",
"L#	c #77797F",
"M#	c #9E9EA0",
"N#	c #60636D",
"O#	c #334862",
"P#	c #395067",
"Q#	c #344C67",
"R#	c #344868",
"S#	c #344A68",
"T#	c #375069",
"U#	c #354E68",
"V#	c #364C69",
"W#	c #36466A",
"X#	c #313F65",
"Y#	c #303E65",
"Z#	c #344366",
"`#	c #374867",
" $	c #344A65",
".$	c #334B64",
"+$	c #344C65",
"@$	c #3B4D6B",
"#$	c #334B66",
"      . + @ # $ % & * = - - - - - - - ; > , '     ) ! ~ ",
"{ ] ^ / ( _ : < [ } | 1 2 3 4 5 6 7 8 9 0 a b c d e f g ",
"{ h i j k l m n o p q r s t t u 8 v w 1 1 x y z A A B C ",
"D E F G ^ H I J p K L M t t t N O q 1 P Q R S T U V W X ",
"Y C Z ` %  ...+.@.#.$.t t t t t %.&.*.=.-.;.{ >.,.l '.).",
"!.~.{.].^./.(._.:.<.[.}.|.|.|.|.1.2.3.4.5.6.7.).8.9.0.a.",
"b.c.d.e.f.g.g.h.i.j.k.l.m.m.m.n.o.p.q.r.g.g.s.t.u.v.w.x.",
"y.z.A.B.C.D.E.F.G.H.I.J.J.J.J.J.K.L.G.M.E.D.p B.N.O.P.C ",
"Q.R.C.5 S.K T.U.t t t t V.W.W.t t t t %.X.q S.D.p Y.Z.`.",
"`. +.+B.++S.L @+@+#+$+%+&+B.B.%+*+=+@+@+-+K ++9 .+;+>+d ",
"^ ,+'+)+!+w g.g.g.w ~+{+{+{+{+{+]+w g.g.g.w !+^+/+(+{ _+",
":+<+[+}+|+1+2+3+3+4+5+6+7+7+7+8+9+0+3+3+a+b+c+d+e+f+% g+",
"h+{ i+,+j+k+l+7+7+m+n+o+7+7+7+p+q+r+7+7+s+t+u+v+C w+x+y+",
"T ) h U z+k+l+7+7+A+B+o+7+7+7+C+D+r+7+7+s+t+E+F+G+H+I+J+",
"K+L+,+M+N+k+l+7+7+O+P+o+7+7+7+Q+P+r+7+7+s+t+R+C S+L+T+U+",
"V+W+,+M+X+k+l+7+7+Y+Z+`+7+7+7+ @Z+.@7+7+s+t+u+S ) +@@@#@",
"$@%@b.&@*@k+=@-@7+7+7+7+7+7+7+7+7+7+7+-@;@t+>@,@'@z )@!@",
"M+v+~@{@]@^@/@(@;@7+_@:@7+7+7+-@<@7+[@(@}@|@1@2@3@v+4@~ ",
"< j 5@6@7@8@9@t+0@7+a@b@7+7+7+c@d@7+e@k+f@g@h@`.i@j@* % ",
"k@l@m@n@o@p@q@r@a@s@t@u@7+7+7+v@w@s@x@y@z@A@B@# % C@D@E@",
"F@G@H@I@J@K@L@M@|@N@r@(@s+s+s+O@P@N@Q@R@S@T@U@>@V@W@X@Y@",
"Z@H `@^  #.#+#@#M@r@##$#$#$#$#$#%#|@&#*#w@=#-#;#;#>#,#'#",
")#!#~#~@{#_+]#;#^#/#(#$#$#$#$#$#_#:#<#t+^@^@[#}#|#1#2#3#",
"_+4#{@5#6#M+7#8#9#^#0#:#a#a#a#b#c#d#e#e#e#e#}#f#g#h#i#4@",
"j#k#l#m#n#T   o#p#q#e#^#a@a@a@d#e#e#e#e#e#}#r#s#t#,+u#E@",
"4@v#E@{ ) n#H@w#x#y#z#t+e#e#e#e#e#e#e#9#z#A#B#U+  C#D#E#",
"M+{ C F#G#  H#% I#J#K#L#M#M#M#M#M#M#M#N#O#P#k@B D@) Q#0.",
"M+{ C#R#S#D#T#U#V#W#4@X#Y#Y#Z#`#I  $.$+$@$v+~ i@#$G+E@< "};
