/* XPM */
static char * enm_l2_xpm[] = {
"28 28 437 2",
"  	c #3A4A6B",
". 	c #364869",
"+ 	c #374D68",
"@ 	c #374769",
"# 	c #3B4C6B",
"$ 	c #3C4C6C",
"% 	c #3A4B6B",
"& 	c #3A576B",
"* 	c #3A566B",
"= 	c #38486A",
"- 	c #324667",
"; 	c #344768",
"> 	c #364F69",
", 	c #3B506B",
"' 	c #3E516D",
") 	c #435870",
"! 	c #3D506D",
"~ 	c #38496B",
"{ 	c #344468",
"] 	c #364768",
"^ 	c #354369",
"/ 	c #324966",
"( 	c #334268",
"_ 	c #334068",
": 	c #344268",
"< 	c #3C4E6C",
"[ 	c #3E556E",
"} 	c #405A6F",
"| 	c #40546E",
"1 	c #3F536D",
"2 	c #39496B",
"3 	c #344369",
"4 	c #324068",
"5 	c #314A65",
"6 	c #314762",
"7 	c #374666",
"8 	c #344365",
"9 	c #344366",
"0 	c #385067",
"a 	c #3B5669",
"b 	c #3B4E68",
"c 	c #3D536A",
"d 	c #384A6A",
"e 	c #364E69",
"f 	c #394A6A",
"g 	c #364569",
"h 	c #324867",
"i 	c #324C66",
"j 	c #344368",
"k 	c #364469",
"l 	c #3B4D6C",
"m 	c #394E6B",
"n 	c #3C556C",
"o 	c #3D586E",
"p 	c #3B556C",
"q 	c #3D536D",
"r 	c #364769",
"s 	c #334468",
"t 	c #2D3B5D",
"u 	c #2A3855",
"v 	c #3A3A3A",
"w 	c #3C3C3C",
"x 	c #38393A",
"y 	c #34465F",
"z 	c #324A62",
"A 	c #344C67",
"B 	c #334867",
"C 	c #334567",
"D 	c #344D67",
"E 	c #384B6A",
"F 	c #354769",
"G 	c #3B4E6B",
"H 	c #3C516C",
"I 	c #39506B",
"J 	c #3B4C6C",
"K 	c #3D556D",
"L 	c #385269",
"M 	c #2D4058",
"N 	c #424242",
"O 	c #4E4E51",
"P 	c #54525D",
"Q 	c #585761",
"R 	c #52505B",
"S 	c #4D4D4D",
"T 	c #3F3F3F",
"U 	c #32343F",
"V 	c #32405F",
"W 	c #37466A",
"X 	c #37486A",
"Y 	c #384B6B",
"Z 	c #3B536C",
"` 	c #365069",
" .	c #374D6A",
"..	c #3C526C",
"+.	c #3A4C6B",
"@.	c #3A4C6C",
"#.	c #2E4356",
"$.	c #3D3D3E",
"%.	c #4F4F4F",
"&.	c #555557",
"*.	c #5C596C",
"=.	c #615C7C",
"-.	c #5D5A70",
";.	c #5B596B",
">.	c #464646",
",.	c #38393F",
"'.	c #2A3455",
").	c #37496A",
"!.	c #3D576D",
"~.	c #3B4F6C",
"{.	c #384E6B",
"].	c #37456A",
"^.	c #37476A",
"/.	c #384F6A",
"(.	c #3C536C",
"_.	c #3A4E6B",
":.	c #3A4D6C",
"<.	c #2C3A53",
"[.	c #3B3C3F",
"}.	c #545456",
"|.	c #5C596D",
"1.	c #5D596F",
"2.	c #525155",
"3.	c #444444",
"4.	c #3E3E3E",
"5.	c #313338",
"6.	c #304359",
"7.	c #3A4F6C",
"8.	c #3B4E6C",
"9.	c #394A6B",
"0.	c #3A526B",
"a.	c #354B68",
"b.	c #344C68",
"c.	c #374B69",
"d.	c #2C3240",
"e.	c #867684",
"f.	c #978594",
"g.	c #5E5A73",
"h.	c #5A576B",
"i.	c #887785",
"j.	c #897786",
"k.	c #30353B",
"l.	c #3C536D",
"m.	c #3B506C",
"n.	c #394E6A",
"o.	c #364D69",
"p.	c #384F69",
"q.	c #364C68",
"r.	c #344968",
"s.	c #344569",
"t.	c #324268",
"u.	c #324467",
"v.	c #334966",
"w.	c #334768",
"x.	c #2D3441",
"y.	c #323438",
"z.	c #AA91A5",
"A.	c #E0ADD5",
"B.	c #C79BBE",
"C.	c #CCA0C9",
"D.	c #D8B1D0",
"E.	c #CEA2CA",
"F.	c #C79BBF",
"G.	c #DFACD4",
"H.	c #B89CB3",
"I.	c #333436",
"J.	c #2D3951",
"K.	c #344B67",
"L.	c #384C69",
"M.	c #39486B",
"N.	c #39496A",
"O.	c #31405C",
"P.	c #2F333A",
"Q.	c #3B3D40",
"R.	c #474747",
"S.	c #5F5B5E",
"T.	c #6A6168",
"U.	c #EEB4E1",
"V.	c #FDCAEB",
"W.	c #FFCDEC",
"X.	c #F0B6E2",
"Y.	c #736771",
"Z.	c #625E61",
"`.	c #3E3E41",
" +	c #2E313A",
".+	c #2C3E56",
"++	c #39546A",
"@+	c #334168",
"#+	c #2D385D",
"$+	c #3A3A3C",
"%+	c #494949",
"&+	c #605B7A",
"*+	c #605C7B",
"=+	c #615C7B",
"-+	c #665F80",
";+	c #676080",
">+	c #605B79",
",+	c #545454",
"'+	c #515151",
")+	c #4A4A4A",
"!+	c #2A3957",
"~+	c #2B3859",
"{+	c #3B3C3D",
"]+	c #5D5970",
"^+	c #5E5A74",
"/+	c #535353",
"(+	c #4E4E4E",
"_+	c #484848",
":+	c #393A3C",
"<+	c #2E3A5E",
"[+	c #334667",
"}+	c #374F69",
"|+	c #394D6A",
"1+	c #334B67",
"2+	c #2A3C55",
"3+	c #393B3F",
"4+	c #4C4C4C",
"5+	c #525252",
"6+	c #5D5972",
"7+	c #5F5B75",
"8+	c #5D5973",
"9+	c #3A3B40",
"0+	c #2D323C",
"a+	c #31425C",
"b+	c #3A526A",
"c+	c #344169",
"d+	c #344A68",
"e+	c #464E5D",
"f+	c #79797B",
"g+	c #6D6D6D",
"h+	c #4B4B4B",
"i+	c #454545",
"j+	c #6E6E6E",
"k+	c #636364",
"l+	c #414347",
"m+	c #2F3C55",
"n+	c #384D69",
"o+	c #38496A",
"p+	c #374E69",
"q+	c #474F5E",
"r+	c #CDCDCF",
"s+	c #FAFAFA",
"t+	c #969696",
"u+	c #848484",
"v+	c #717072",
"w+	c #413C3D",
"x+	c #898989",
"y+	c #FCFCFC",
"z+	c #D6D6D8",
"A+	c #545865",
"B+	c #364B69",
"C+	c #324767",
"D+	c #334A67",
"E+	c #354569",
"F+	c #364B6A",
"G+	c #36456A",
"H+	c #323F68",
"I+	c #454D5C",
"J+	c #FFFFFF",
"K+	c #ACA7AA",
"L+	c #534649",
"M+	c #545964",
"N+	c #36446A",
"O+	c #364D68",
"P+	c #394F6B",
"Q+	c #354D69",
"R+	c #324267",
"S+	c #464D5C",
"T+	c #524549",
"U+	c #38476A",
"V+	c #364969",
"W+	c #39506A",
"X+	c #3E5B6F",
"Y+	c #324168",
"Z+	c #384B69",
"`+	c #464B5D",
" @	c #4F290A",
".@	c #6E5036",
"+@	c #555C65",
"@@	c #364A6A",
"#@	c #3A4D6A",
"$@	c #384C6C",
"%@	c #3A556B",
"&@	c #3A516B",
"*@	c #474E5E",
"=@	c #E2DAD1",
"-@	c #E7E0DA",
";@	c #535765",
">@	c #364A69",
",@	c #354469",
"'@	c #334668",
")@	c #344269",
"!@	c #3A485D",
"~@	c #B1B1B4",
"{@	c #CFCFD1",
"]@	c #E4E4E6",
"^@	c #FCFCFD",
"/@	c #FEFEFE",
"(@	c #F0F0F1",
"_@	c #ECECEE",
":@	c #535664",
"<@	c #334767",
"[@	c #38536A",
"}@	c #354E67",
"|@	c #365068",
"1@	c #365067",
"2@	c #344E68",
"3@	c #3B4B5A",
"4@	c #BABABD",
"5@	c #AEAEB1",
"6@	c #FBFBFB",
"7@	c #A2A2A4",
"8@	c #FDFDFD",
"9@	c #E8E8EB",
"0@	c #C8C8CC",
"a@	c #3A496B",
"b@	c #3D546C",
"c@	c #40546F",
"d@	c #374869",
"e@	c #38465B",
"f@	c #A0A0A3",
"g@	c #A6A6A8",
"h@	c #D4D4D6",
"i@	c #F9F9FA",
"j@	c #9B9B9D",
"k@	c #F4F4F5",
"l@	c #C4C4C7",
"m@	c #BCBCBE",
"n@	c #EFEFF0",
"o@	c #EBEBED",
"p@	c #E3E3E5",
"q@	c #AFB0B2",
"r@	c #4A555F",
"s@	c #3B526B",
"t@	c #3A4F6B",
"u@	c #334868",
"v@	c #324B66",
"w@	c #394E6C",
"x@	c #40536E",
"y@	c #3A4D6B",
"z@	c #3A465B",
"A@	c #858687",
"B@	c #C6C6C9",
"C@	c #E4E4E7",
"D@	c #AEAEB0",
"E@	c #E4E4E5",
"F@	c #CECED0",
"G@	c #C2C2C4",
"H@	c #E6E6E8",
"I@	c #CCCCCF",
"J@	c #666A71",
"K@	c #364C65",
"L@	c #34415F",
"M@	c #333E5F",
"N@	c #34425F",
"O@	c #385368",
"P@	c #354C68",
"Q@	c #39566C",
"R@	c #3E546D",
"S@	c #3D516C",
"T@	c #354868",
"U@	c #384458",
"V@	c #9C9D9F",
"W@	c #CFCFD2",
"X@	c #B5B5B7",
"Y@	c #BFBFC1",
"Z@	c #E5E5E8",
"`@	c #D2D2D6",
" #	c #B3B3B5",
".#	c #787A7D",
"+#	c #535865",
"@#	c #A9A9AB",
"##	c #45505F",
"$#	c #395069",
"%#	c #384D6A",
"&#	c #39536A",
"*#	c #344668",
"=#	c #334169",
"-#	c #666971",
";#	c #D1D1D4",
">#	c #E3E3E6",
",#	c #D3D3D6",
"'#	c #C8C8CA",
")#	c #B8B8BA",
"!#	c #C9C9CB",
"~#	c #B2B2B4",
"{#	c #9D9D9F",
"]#	c #444A5E",
"^#	c #374969",
"/#	c #374A69",
"(#	c #354F68",
"_#	c #374A6A",
":#	c #39486A",
"<#	c #3A475F",
"[#	c #98999C",
"}#	c #D0D0D3",
"|#	c #D9D9DB",
"1#	c #E1E1E4",
"2#	c #DADADD",
"3#	c #C9C9CC",
"4#	c #62666F",
"5#	c #3D465B",
"6#	c #3A4559",
"7#	c #394459",
"8#	c #344568",
"9#	c #3F526E",
"0#	c #394860",
"a#	c #A1A2A4",
"b#	c #CACACC",
"c#	c #CECED1",
"d#	c #CACACD",
"e#	c #C1C1C3",
"f#	c #A7A7A9",
"g#	c #636770",
"h#	c #374564",
"i#	c #385169",
"j#	c #374C69",
"k#	c #38526A",
"l#	c #384E6A",
"m#	c #3A4B6A",
"n#	c #3B546C",
"o#	c #364A61",
"p#	c #777A7F",
"q#	c #31475D",
"r#	c #314962",
"s#	c #344868",
"t#	c #375069",
"u#	c #354E68",
"v#	c #364C69",
"w#	c #36466A",
"x#	c #334164",
"y#	c #313C5C",
"z#	c #9C9C9E",
"A#	c #959598",
"B#	c #384966",
"C#	c #374766",
"D#	c #334B66",
"      . + @ # $ % & *   = - ; > , ' ) ! ~ { ]     ^ / ( ",
"_ : < [ } | 1 2 3 _ 4 5 6 7 8 9 0 a b c d e f g 4 h i j ",
"_ k l m n o p q r s t u v v w w w w v x y z A B C C D E ",
"F G H I < ! J K L M w N O P Q Q Q Q R S T U V W X Y Z ` ",
" .E ..+.% @.l % #.$.%.&.*.=.=.=.-.;.;.%.>.,.'.).!.o ~.{.",
"].^./.(._.:.  <.[.%.}.|.=.=.=.1.2.%.3.4.5.6.m {.7.8.9.3 ",
"0.a.b.. @ c./.d.e.f.&.=.=.=.=.g.h.2.i.j.k.l.m.n.o.p.q.r.",
"s.t.u.v.w.<.x.y.z.A.B.C.D.D.D.D.E.F.G.H.I.x.J.+.. K.L.E ",
"M.M.N.O.P.Q.R.R.S.T.U.V.W.W.W.W.V.X.Y.Z.R.R.`. +.+++s.@+",
"@+2 #+$+%+%.*.&+*+=+-+;+;+;+;+;+;+-+=+>+,+'+)+%+$.!+- 4 ",
"< 2 4 ~+{+%+%.]+>+=.=.=.=.=.=.=.=.=.=.>+^+,+/+(+_+:+<+[+",
"}+|+c.1+2+3+>.4+5+6+7+7+7+7+7+7+7+7+8+5+(+4+>.9+0+a+% b+",
"J _ c+= d+e+f+g+)+3.h+h+h+h+h+h+h+h+i+>.j+k+l+m+E n+L o+",
"W ^ k X p+q+r+s+t+u+v+w+u+u+u+u+u+u+u+x+y+z+A+B+C+t.D+E+",
"F+G+= H+4 I+r+s+J+J+K+L+J+J+J+J+J+J+J+J+y+z+M+E N+G+O+P+",
"Q+s = H+R+S+r+s+J+J+T+L+J+J+J+J+J+J+J+J+y+z+A+U+^ V+W+X+",
"Y+1+0.Z+. `+r+s+J+J+ @.@J+J+J+J+J+J+J+J+y+z++@@@u.B #@$@",
"H+f _.%@&@*@r+s+J+J+=@-@J+J+J+J+J+J+J+J+y+z+;@>@n.f ,@( ",
"2 m '@)@!@~@{@]@^@J+/@(@J+J+J+J+J+J+J+/@_@z+:@@+<@[@* % ",
"}@|@1@2@3@4@5@z+y+6@7@J+8@y+/@J+J+J+J+/@9@0@A+# % a@; - ",
"b@c@' d@e@f@g@h@i@j@J+k@l@m@n@J+J+J+^@o@p@q@r@s@t@V+u@v@",
"w@! x@< y@z@A@B@C@D@E@F@G@s+s+s+s+s+_@H@I@J@K@L@M@N@O@P@",
"Q@R@S@_.T@[+U@V@W@C@X@Y@o@o@o@o@o@o@Z@`@ #.#+#@#@#@###$#",
"[+%#%@&#*#H+=#-#G@;#>#o@o@o@o@o@o@C@,#'#D@D@)#!#m@~#{#]#",
"^#/#(#_#:#W   <#[#'#}#|#1#1#1#1#2#;#3#!#!#!#!#m@4#5#6#7#",
",@8#- _ ^ :#' 9#0#a#!#b#c#c#c#c#d#!#!#!#!#e#f#g#h#N.i#j#",
"H+_ E k#l#  m#% n#o#7@@#!#!#!#!#!#!#!#'#7@p#q#r#; ^ A 9.",
"H+_ N.s#d+i#t#u#v#w#x#y#z#z#z#z#z#z#z#A#B#C#( <@D#C+- 2 "};
