/* XPM */
static char * enm_b2_xpm[] = {
"28 28 414 2",
"  	c #3A4A6B",
". 	c #364869",
"+ 	c #374D68",
"@ 	c #374769",
"# 	c #3B4C6B",
"$ 	c #3C4C6C",
"% 	c #3A4B6B",
"& 	c #3A576B",
"* 	c #3A566B",
"= 	c #38486A",
"- 	c #324667",
"; 	c #344768",
"> 	c #364F69",
", 	c #3B506B",
"' 	c #3E516D",
") 	c #435870",
"! 	c #3D506D",
"~ 	c #38496B",
"{ 	c #344468",
"] 	c #364768",
"^ 	c #354369",
"/ 	c #324966",
"( 	c #334268",
"_ 	c #334068",
": 	c #344268",
"< 	c #3C4E6C",
"[ 	c #3E556E",
"} 	c #405A6F",
"| 	c #40546E",
"1 	c #3F536D",
"2 	c #374667",
"3 	c #313F64",
"4 	c #353537",
"5 	c #373737",
"6 	c #383838",
"7 	c #364F60",
"8 	c #3B4E68",
"9 	c #40576F",
"0 	c #384A6A",
"a 	c #364E69",
"b 	c #394A6A",
"c 	c #364569",
"d 	c #324068",
"e 	c #324867",
"f 	c #324C66",
"g 	c #344368",
"h 	c #364469",
"i 	c #3B4D6C",
"j 	c #394E6B",
"k 	c #3C556C",
"l 	c #3D586E",
"m 	c #374F65",
"n 	c #313840",
"o 	c #3B3B3B",
"p 	c #4C4C4C",
"q 	c #4F4E55",
"r 	c #57565D",
"s 	c #525158",
"t 	c #4D4D4F",
"u 	c #3F3F3F",
"v 	c #3A3A3A",
"w 	c #364D63",
"x 	c #3A4F6A",
"y 	c #37506A",
"z 	c #344C67",
"A 	c #334867",
"B 	c #334567",
"C 	c #344D67",
"D 	c #384B6A",
"E 	c #354769",
"F 	c #3B4E6B",
"G 	c #3C516C",
"H 	c #39506B",
"I 	c #2F3C54",
"J 	c #3B3E41",
"K 	c #494949",
"L 	c #515151",
"M 	c #5D596F",
"N 	c #5E5A73",
"O 	c #615C7C",
"P 	c #5B5869",
"Q 	c #555456",
"R 	c #4E4E4E",
"S 	c #3A3A3C",
"T 	c #2C375A",
"U 	c #344169",
"V 	c #38476A",
"W 	c #37466A",
"X 	c #37486A",
"Y 	c #384B6B",
"Z 	c #3B536C",
"` 	c #365069",
" .	c #374D6A",
"..	c #3C526C",
"+.	c #3A4C6B",
"@.	c #3A4C6C",
"#.	c #2F3B54",
"$.	c #323538",
"%.	c #414141",
"&.	c #474747",
"*.	c #505050",
"=.	c #535257",
"-.	c #5E5A72",
";.	c #545455",
">.	c #38393E",
",.	c #2C3657",
"'.	c #37496A",
").	c #3D576D",
"!.	c #3B4F6C",
"~.	c #384E6B",
"{.	c #37456A",
"].	c #37476A",
"^.	c #384F6A",
"/.	c #3C536C",
"(.	c #3A4E6B",
"_.	c #3A4D6C",
":.	c #364969",
"<.	c #2E333A",
"[.	c #7B6C79",
"}.	c #7B6C78",
"|.	c #515053",
"1.	c #585566",
"2.	c #5D5A71",
"3.	c #555557",
"4.	c #8C7D89",
"5.	c #7C6E7A",
"6.	c #2D3641",
"7.	c #3A4F6C",
"8.	c #3B4E6C",
"9.	c #394A6B",
"0.	c #344369",
"a.	c #3A526B",
"b.	c #354B68",
"c.	c #344C68",
"d.	c #374B69",
"e.	c #2D3F54",
"f.	c #2A3345",
"g.	c #323336",
"h.	c #B89CB3",
"i.	c #D9AACF",
"j.	c #B791B1",
"k.	c #BE98BE",
"l.	c #C7A5C4",
"m.	c #BD96BE",
"n.	c #B791AF",
"o.	c #DBABD1",
"p.	c #AA91A5",
"q.	c #313439",
"r.	c #2D3847",
"s.	c #2F4057",
"t.	c #364D69",
"u.	c #384F69",
"v.	c #364C68",
"w.	c #344968",
"x.	c #344569",
"y.	c #324268",
"z.	c #324467",
"A.	c #334966",
"B.	c #2B3B57",
"C.	c #2C3240",
"D.	c #3A3C40",
"E.	c #454545",
"F.	c #6D666C",
"G.	c #82717E",
"H.	c #EFB6E2",
"I.	c #FCC8EA",
"J.	c #FFCDEC",
"K.	c #FBC7EA",
"L.	c #EEB3E1",
"M.	c #7A6B77",
"N.	c #686267",
"O.	c #383B41",
"P.	c #2E425B",
"Q.	c #384C69",
"R.	c #39486B",
"S.	c #39496A",
"T.	c #31405C",
"U.	c #383A3E",
"V.	c #535353",
"W.	c #5F5B75",
"X.	c #615C78",
"Y.	c #75698B",
"Z.	c #786C8C",
"`.	c #75698A",
" +	c #5F5B76",
".+	c #363A3D",
"++	c #2F3F60",
"@+	c #334168",
"#+	c #39496B",
"$+	c #2D385D",
"%+	c #4A4A4A",
"&+	c #4F4F4F",
"*+	c #545454",
"=+	c #38383A",
"-+	c #2F3D63",
";+	c #2B3859",
">+	c #313337",
",+	c #3E3E40",
"'+	c #484848",
")+	c #525252",
"!+	c #5F5B78",
"~+	c #605B79",
"{+	c #5F5A77",
"]+	c #3B3C3E",
"^+	c #2E3A5E",
"/+	c #334667",
"(+	c #374F69",
"_+	c #394D6A",
":+	c #334B67",
"<+	c #324967",
"[+	c #283750",
"}+	c #3C3D41",
"|+	c #595959",
"1+	c #464646",
"2+	c #585858",
"3+	c #505051",
"4+	c #3A3B40",
"5+	c #2B3B56",
"6+	c #384C6A",
"7+	c #3A526A",
"8+	c #3B4C6C",
"9+	c #344A68",
"0+	c #344868",
"a+	c #535765",
"b+	c #D6D6D8",
"c+	c #FCFCFC",
"d+	c #747474",
"e+	c #6F6F6F",
"f+	c #838383",
"g+	c #FAFAFA",
"h+	c #CDCDCF",
"i+	c #484E5E",
"j+	c #384D69",
"k+	c #385269",
"l+	c #38496A",
"m+	c #374E69",
"n+	c #545865",
"o+	c #FFFFFF",
"p+	c #474F5E",
"q+	c #324767",
"r+	c #334A67",
"s+	c #354569",
"t+	c #364B6A",
"u+	c #36456A",
"v+	c #323F68",
"w+	c #535864",
"x+	c #36446A",
"y+	c #364D68",
"z+	c #394F6B",
"A+	c #354D69",
"B+	c #334468",
"C+	c #324267",
"D+	c #334767",
"E+	c #535964",
"F+	c #474D5E",
"G+	c #39506A",
"H+	c #3E5B6F",
"I+	c #324168",
"J+	c #384B69",
"K+	c #334368",
"L+	c #535764",
"M+	c #FAFAFB",
"N+	c #474E5E",
"O+	c #3A4D6A",
"P+	c #384C6C",
"Q+	c #3A556B",
"R+	c #3A516B",
"S+	c #EEEEF0",
"T+	c #FEFEFE",
"U+	c #FDFDFD",
"V+	c #EEEEEF",
"W+	c #394E6A",
"X+	c #354469",
"Y+	c #334668",
"Z+	c #344269",
"`+	c #384E6C",
" @	c #3F5E71",
".@	c #565E67",
"+@	c #C9C9CD",
"@@	c #E9E9EB",
"#@	c #E7E7E9",
"$@	c #C2C2C5",
"%@	c #464B5D",
"&@	c #38536A",
"*@	c #354E67",
"=@	c #365068",
"-@	c #365067",
";@	c #344E68",
">@	c #365168",
",@	c #545A65",
"'@	c #B9B9BC",
")@	c #E5E5E7",
"!@	c #EBEBED",
"~@	c #E2E2E4",
"{@	c #B3B3B5",
"]@	c #454D5E",
"^@	c #3A496B",
"/@	c #3D546C",
"(@	c #40546F",
"_@	c #364667",
":@	c #354962",
"<@	c #3A4B66",
"[@	c #374764",
"}@	c #6D6F75",
"|@	c #CECED1",
"1@	c #E8E8EA",
"2@	c #FCFCFD",
"3@	c #FBFBFC",
"4@	c #E6E6E8",
"5@	c #C7C7CA",
"6@	c #555D66",
"7@	c #3B526B",
"8@	c #3A4F6B",
"9@	c #334868",
"0@	c #324B66",
"a@	c #394E6C",
"b@	c #3E516B",
"c@	c #464E60",
"d@	c #A5A5A7",
"e@	c #AAAAAC",
"f@	c #ACACAE",
"g@	c #9C9C9E",
"h@	c #B7B7B9",
"i@	c #D4D4D8",
"j@	c #FBFBFB",
"k@	c #D2D2D5",
"l@	c #A6A6A9",
"m@	c #414C5D",
"n@	c #354C68",
"o@	c #39566C",
"p@	c #3D526B",
"q@	c #444E5E",
"r@	c #A1A1A3",
"s@	c #BCBCBE",
"t@	c #D1D1D4",
"u@	c #C8C8C9",
"v@	c #BCBCBD",
"w@	c #DBDBDC",
"x@	c #E7E7EA",
"y@	c #F4F4F5",
"z@	c #F9F9FA",
"A@	c #E6E6E9",
"B@	c #D3D3D6",
"C@	c #C2C2C4",
"D@	c #676A71",
"E@	c #394B6B",
"F@	c #36486A",
"G@	c #344668",
"H@	c #374B67",
"I@	c #48535F",
"J@	c #48525E",
"K@	c #464D5D",
"L@	c #797A80",
"M@	c #CCCCCE",
"N@	c #F5F5F6",
"O@	c #F6F6F7",
"P@	c #F0F0F1",
"Q@	c #C8C8CA",
"R@	c #A0A0A3",
"S@	c #3D4C5D",
"T@	c #3D546D",
"U@	c #3A506B",
"V@	c #384E69",
"W@	c #374969",
"X@	c #374A69",
"Y@	c #354F68",
"Z@	c #374A6A",
"`@	c #39486A",
" #	c #33405F",
".#	c #7B7D83",
"+#	c #D6D6D9",
"@#	c #E0E0E3",
"##	c #EAEAEC",
"$#	c #E1E1E4",
"%#	c #D5D5D8",
"&#	c #D0D0D3",
"*#	c #C9C9CC",
"=#	c #A8A8AA",
"-#	c #3B495D",
";#	c #3E586F",
">#	c #3E5D70",
",#	c #3C4F6C",
"'#	c #344767",
")#	c #344568",
"!#	c #394A63",
"~#	c #808288",
"{#	c #A7A7A9",
"]#	c #CFCFD1",
"^#	c #D4D4D6",
"/#	c #D1D1D3",
"(#	c #CACACD",
"_#	c #ADADAF",
":#	c #343F5C",
"<#	c #3D516D",
"[#	c #3A546C",
"}#	c #385169",
"|#	c #374C69",
"1#	c #38526A",
"2#	c #384E6A",
"3#	c #3A4B6A",
"4#	c #364663",
"5#	c #364C61",
"6#	c #9B9C9E",
"7#	c #A2A2A4",
"8#	c #343E5B",
"9#	c #303C5E",
"0#	c #334768",
"a#	c #3B536B",
"b#	c #375069",
"c#	c #354E68",
"d#	c #364C69",
"e#	c #36466A",
"f#	c #3B4D6B",
"g#	c #334B66",
"      . + @ # $ % & *   = - ; > , ' ) ! ~ { ]     ^ / ( ",
"_ : < [ } | 1 2 3 4 5 6 6 6 6 6 5 7 8 9 0 a b c d e f g ",
"_ h i j k l m n o p q r r r r s t u v w x y z A B B C D ",
"E F G H < ! I J K L M M N O O O P Q R S T U V W X Y Z ` ",
" .D ..+.% @.i #.$.%.&.*.=.-.O O O P ;.R >.,._ '.).l !.~.",
"{.].^./.(._.  :.<.[.}.|.1.2.O O O O 3.4.5.6.j ~.7.8.9.0.",
"a.b.c.. @ d.e.f.g.h.i.j.k.l.l.l.l.m.n.o.p.q.r.s.t.u.v.w.",
"x.y.z.A.B.C.D.E.E.F.G.H.I.J.J.J.J.K.L.M.N.E.E.O.C.P.Q.D ",
"R.R.S.T.U.&.K *.V.W.X.Y.Z.Z.Z.Z.Z.Z.`. +2.V.*.K &..+++@+",
"@+#+$+S %+&+*+*+W.O O O O O O O O O O O O 2.*+*+R K =+-+",
"< #+d ;+>+,+'+&+)+V.!+~+~+~+~+~+~+~+~+{+V.)+R K ]+>+^+/+",
"(+_+d.:+<+[+}+)+|+&.&.R R R R R R R R 1+K 2+3+4+5+6+% 7+",
"8+_ U = 9+0+a+b+c+d+e+e+e+e+e+e+e+e+e+e+f+g+h+i+D j+k+l+",
"W ^ h X m+d.n+b+c+o+o+o+o+o+o+o+o+o+o+o+o+g+h+p+q+y.r+s+",
"t+u+= v+d - w+b+c+o+o+o+o+o+o+o+o+o+o+o+o+g+h+p+x+u+y+z+",
"A+B+= v+C+D+E+b+c+o+o+o+o+o+o+o+o+o+o+o+o+g+h+F+^ :.G+H+",
"I+:+a.J+. K+L+b+c+o+o+o+o+o+o+o+o+o+o+o+o+M+h+N+z.A O+P+",
"v+b (.Q+R+= n+b+S+T+o+o+o+o+o+o+o+o+o+o+U+V+h+N+W+b X+( ",
"#+j Y+Z+`+ @.@+@@@T+o+o+o+o+o+o+o+o+o+o+c+#@$@%@D+&@* % ",
"*@=@-@;@>@a.,@'@)@!@o+o+o+o+o+o+o+o+o+T+!@~@{@]@% ^@; - ",
"/@(@' _@:@<@[@}@|@1@2@o+o+o+o+o+o+o+o+3@4@5@6@7@8@:.9@0@",
"a@! b@c@d@e@f@g@h@i@1@j@o+o+o+o+o+o+M+4@k@l@m@V x+'.Q+n@",
"o@p@q@r@s@t@#@u@v@w@x@y@o+o+o+o+o+z@A@B@C@D@< E@F@G@G+a.",
"/+H@I@J@K@L@M@@@N@O@o+o+o+o+M+O@P@)@B@Q@R@S@T@U@^.V@@ u+",
"W@X@Y@Z@`@ #.#5@+#@###y@y@y@##$#%#&#*#=#-#;#>#).,#= '#- ",
"X+)#- _ ^ `@!#~#{#h+]#^#^#^#/#|@(#_#{#:#  <#[#z+  S.}#|#",
"v+_ D 1#2#  3#4#5#6#7#7#7#7#7#7#7#8#9#0#t.a#*@C ; ^ z 9.",
"v+_ S.0+9+}#b#c#d#e#X+@+d d c 9.+.y+*@*@f#b ( D+g#q+- #+"};
