/* XPM */
static char * grd_xpm[] = {
"28 28 308 2",
"  	c #3A4A6B",
". 	c #364869",
"+ 	c #374D68",
"@ 	c #374769",
"# 	c #3B4C6B",
"$ 	c #3C4C6C",
"% 	c #3A4B6B",
"& 	c #3A576B",
"* 	c #3A566B",
"= 	c #38486A",
"- 	c #324667",
"; 	c #344768",
"> 	c #364F69",
", 	c #3B506B",
"' 	c #3E516D",
") 	c #435870",
"! 	c #3D506D",
"~ 	c #38496B",
"{ 	c #344468",
"] 	c #364768",
"^ 	c #354369",
"/ 	c #324966",
"( 	c #334268",
"_ 	c #334068",
": 	c #344268",
"< 	c #3C4E6C",
"[ 	c #3E556E",
"} 	c #405A6F",
"| 	c #40546E",
"1 	c #3F536D",
"2 	c #39496B",
"3 	c #344369",
"4 	c #324068",
"5 	c #324B66",
"6 	c #344B67",
"7 	c #37476A",
"8 	c #37476B",
"9 	c #3B546D",
"0 	c #3E5B6F",
"a 	c #3E526E",
"b 	c #40576F",
"c 	c #384A6A",
"d 	c #364E69",
"e 	c #394A6A",
"f 	c #364569",
"g 	c #324867",
"h 	c #324C66",
"i 	c #344368",
"j 	c #364469",
"k 	c #3B4D6C",
"l 	c #394E6B",
"m 	c #3C556C",
"n 	c #3D586E",
"o 	c #3B556C",
"p 	c #3D536D",
"q 	c #364769",
"r 	c #334468",
"s 	c #324467",
"t 	c #344868",
"u 	c #384C6A",
"v 	c #39496A",
"w 	c #3F526D",
"x 	c #3F5C70",
"y 	c #3C566E",
"z 	c #3A4F6A",
"A 	c #37506A",
"B 	c #344C67",
"C 	c #334867",
"D 	c #334567",
"E 	c #344D67",
"F 	c #384B6A",
"G 	c #354769",
"H 	c #3B4E6B",
"I 	c #3C516C",
"J 	c #39506B",
"K 	c #3B4C6C",
"L 	c #3D556D",
"M 	c #385269",
"N 	c #354C68",
"O 	c #354768",
"P 	c #323F68",
"Q 	c #324368",
"R 	c #334767",
"S 	c #38496A",
"T 	c #3C516B",
"U 	c #394D6A",
"V 	c #354B68",
"W 	c #344169",
"X 	c #38476A",
"Y 	c #37466A",
"Z 	c #37486A",
"` 	c #384B6B",
" .	c #3B536C",
"..	c #365069",
"+.	c #374D6A",
"@.	c #3C526C",
"#.	c #3A4C6B",
"$.	c #3A4C6C",
"%.	c #38526A",
"&.	c #36456A",
"*.	c #374D69",
"=.	c #364A6A",
"-.	c #374B6A",
";.	c #3A546B",
">.	c #334168",
",.	c #344168",
"'.	c #37496A",
").	c #3D576D",
"!.	c #3B4F6C",
"~.	c #384E6B",
"{.	c #37456A",
"].	c #384F6A",
"^.	c #3C536C",
"/.	c #3A4E6B",
"(.	c #3A4D6C",
"_.	c #364969",
":.	c #334C67",
"<.	c #334467",
"[.	c #374C6A",
"}.	c #354569",
"|.	c #39536B",
"1.	c #384D6A",
"2.	c #344269",
"3.	c #3A516C",
"4.	c #3A4F6C",
"5.	c #3B4E6C",
"6.	c #394A6B",
"7.	c #3A526B",
"8.	c #344C68",
"9.	c #374B69",
"0.	c #354868",
"a.	c #324268",
"b.	c #324767",
"c.	c #354967",
"d.	c #3B4F6B",
"e.	c #354469",
"f.	c #3B536D",
"g.	c #3E546D",
"h.	c #3C536D",
"i.	c #3B506C",
"j.	c #394E6A",
"k.	c #364D69",
"l.	c #384F69",
"m.	c #364C68",
"n.	c #344968",
"o.	c #344569",
"p.	c #334966",
"q.	c #334768",
"r.	c #394C6B",
"s.	c #324468",
"t.	c #39536A",
"u.	c #38486C",
"v.	c #3D536C",
"w.	c #384C69",
"x.	c #39486B",
"y.	c #394F6A",
"z.	c #3A556B",
"A.	c #39486A",
"B.	c #334D67",
"C.	c #344B68",
"D.	c #3F536E",
"E.	c #40556F",
"F.	c #374F68",
"G.	c #374669",
"H.	c #364C6A",
"I.	c #39546A",
"J.	c #3A496B",
"K.	c #334667",
"L.	c #394C6A",
"M.	c #40536E",
"N.	c #3C576D",
"O.	c #394B6B",
"P.	c #36466A",
"Q.	c #354D67",
"R.	c #334568",
"S.	c #364968",
"T.	c #354669",
"U.	c #324967",
"V.	c #324A66",
"W.	c #38546A",
"X.	c #3F596E",
"Y.	c #425B70",
"Z.	c #415A6E",
"`.	c #3F5C6F",
" +	c #365067",
".+	c #334668",
"++	c #365068",
"@+	c #39566B",
"#+	c #374F69",
"$+	c #334B67",
"%+	c #324168",
"&+	c #334169",
"*+	c #354A69",
"=+	c #3D516C",
"-+	c #3A526A",
";+	c #344A68",
">+	c #3B4B6B",
",+	c #38516A",
"'+	c #3B4D6B",
")+	c #39476A",
"!+	c #384D69",
"~+	c #374E69",
"{+	c #3A4A6A",
"]+	c #374F6A",
"^+	c #3A516B",
"/+	c #334367",
"(+	c #354869",
"_+	c #364B69",
":+	c #334A67",
"<+	c #364B6A",
"[+	c #375068",
"}+	c #344A67",
"|+	c #39526A",
"1+	c #354968",
"2+	c #36446A",
"3+	c #364D68",
"4+	c #394F6B",
"5+	c #354D69",
"6+	c #324267",
"7+	c #334967",
"8+	c #3E586E",
"9+	c #3E526D",
"0+	c #3C506C",
"a+	c #3B526B",
"b+	c #3A4E6A",
"c+	c #39506A",
"d+	c #384B69",
"e+	c #334368",
"f+	c #415A70",
"g+	c #41566F",
"h+	c #3C4F6C",
"i+	c #3A4D6B",
"j+	c #38536A",
"k+	c #3A536B",
"l+	c #3A4D6A",
"m+	c #384C6C",
"n+	c #374569",
"o+	c #40556E",
"p+	c #415F72",
"q+	c #405D71",
"r+	c #3D596E",
"s+	c #374C69",
"t+	c #334868",
"u+	c #334369",
"v+	c #364A69",
"w+	c #384E6C",
"x+	c #3F5E71",
"y+	c #40596F",
"z+	c #3E556C",
"A+	c #395369",
"B+	c #394C6C",
"C+	c #384A6C",
"D+	c #354E67",
"E+	c #344E68",
"F+	c #365168",
"G+	c #3A4B6C",
"H+	c #3D546C",
"I+	c #40546F",
"J+	c #374869",
"K+	c #394E69",
"L+	c #3E506D",
"M+	c #3A4C6A",
"N+	c #3D4F6C",
"O+	c #3C546C",
"P+	c #3C576C",
"Q+	c #3A4F6B",
"R+	c #394E6C",
"S+	c #39566C",
"T+	c #334866",
"U+	c #3C506B",
"V+	c #36486A",
"W+	c #344668",
"X+	c #394D6B",
"Y+	c #3C566C",
"Z+	c #3B546B",
"`+	c #3A536A",
" @	c #3D546D",
".@	c #3A506B",
"+@	c #384E69",
"@@	c #374969",
"#@	c #374A69",
"$@	c #354F68",
"%@	c #374A6A",
"&@	c #3D4F6D",
"*@	c #40566E",
"=@	c #3E596E",
"-@	c #3D526C",
";@	c #3E586F",
">@	c #3E5D70",
",@	c #344767",
"'@	c #344568",
")@	c #3F526E",
"!@	c #3C5A6E",
"~@	c #375069",
"{@	c #3D516D",
"]@	c #3A546C",
"^@	c #385169",
"/@	c #384E6A",
"(@	c #3A4B6A",
"_@	c #3B546C",
":@	c #3B516B",
"<@	c #394D6C",
"[@	c #334968",
"}@	c #334766",
"|@	c #3B536B",
"1@	c #354E68",
"2@	c #364C69",
"3@	c #334B66",
"      . + @ # $ % & *   = - ; > , ' ) ! ~ { ]     ^ / ( ",
"_ : < [ } | 1 2 3 _ 4 5 6   7 8 9 0 a b c d e f 4 g h i ",
"_ j k l m n o p q r ( s t u v v % w x y z A B C D D E F ",
"G H I J < ! K L M N O P Q R _ S T U V W _ W X Y Z `  ...",
"+.F @.#.% $.k % %.Y &.j q *.=.-.+.;.: _ >.,._ '.).n !.~.",
"{.7 ].^./.(.  _.:.<.P Y #.U [.}.,.|.1.2.7 3.l ~.4.5.6.3 ",
"7.V 8.. @ 9.].0.r a.b.c.d.Z ^ ^ e.!.I f.g.h.i.j.k.l.m.n.",
"o.a.s p.q.. r.v X P s.t.H # = 8 u.2 v.r.< $.6.#.. 6 w.F ",
"x.x.v e y.z.. >._ A.S B.C.. # D.E.D.t.F.@ G.^ : H.I.o.>.",
">.2 P P 4 b.9.  J.K.- P P { L.M.D.N.O.P.Q.; R.S.T.s - 4 ",
"< 2 4 a.U.U.- V.W.* 5 / 4 ; I.X.Y.Z.`. +; .+5 ++@+G _ K.",
"#+U 9.$+U.- %+_ &+  : ; *+H =+< % t.@ $ 2.2.j Y q.u % -+",
"K _ W = ;+t 2.A.  >+A.e ,+y.  <   F.'.'+S X )+e F !+M S ",
"Y ^ j Z ~+9.7 X # {+f f t .+>.{.#.]+^+'./+s (+_+b.a.:+}.",
"<+&.= P 4 - R @ < c u ].[+}+- K.m.|+&.P %+V.1+F 2+&.3+4+",
"5+r = P 6+R 7+~+8+9+0+a+].O s s S.b+R b.- r X X ^ _.c+0 ",
"%+$+7.d+. e+{ q 4.f+g+h+H i+X X 2 J.c F j+,+k+=.s C l+m+",
"P e /.z.^+= n+G.h+o+p+q+r+s+2.W X V $+:.t+u+u+v+j.e e.( ",
"2 l .+2.w+x+y+z+M A+B+C+e @.j+g - w.R - _ _ _ >.R j+* % ",
"D+++ +E+F+7.D.9+&.*+P.2+^ P.G+>+      >.t+6 G.# % J.; - ",
"H+I+' J+K+L+# &.%   7.M+#.N+2 >.P _   % k O+P+a+Q+_.t+5 ",
"R+! M.< i+L.L.% = >.>.$+N l+Z >.P _ >+&.c |+y.X 2+'.z.N ",
"S+g.=+/.0.K.T+U 0.; ; t+q.e+1+_.(+(+U+*.i+h+< O.V+W+c+7.",
"K.1.z.t.W+P &+X+a+Y+Z+1+( P 6+~+^++.l `+/.L  @.@].+@@ &.",
"@@#@$@%@A.Y   &@9+*@=@'+7 {.{.j.#.2.2.#.-@;@>@).h+= ,@- ",
"e.'@- _ ^ A.' )@! 9+!@-+[.  i+~@T._ >.e.  {@]@4+  v ^@s+",
"P _ F %./@  (@% _@:@<@G [@}+@@T.}@( >.q.k.|@D+E ; ^ B 6.",
"P _ v t ;+^@~@1@2@P.e.>.4 4 f 6.#.3+D+D+'+e ( R 3@b.- 2 "};
