/* XPM */
static char * itm_xpm[] = {
"28 28 580 2",
"  	c #3A4A6B",
". 	c #364869",
"+ 	c #374D68",
"@ 	c #374769",
"# 	c #3B4C6B",
"$ 	c #3C4C6C",
"% 	c #3A4B6B",
"& 	c #3A576B",
"* 	c #3A566B",
"= 	c #38486A",
"- 	c #324667",
"; 	c #344768",
"> 	c #354E68",
", 	c #3B506B",
"' 	c #3E516D",
") 	c #435870",
"! 	c #3D506D",
"~ 	c #38496B",
"{ 	c #344468",
"] 	c #364768",
"^ 	c #354369",
"/ 	c #324966",
"( 	c #334268",
"_ 	c #334068",
": 	c #344268",
"< 	c #3C4E6C",
"[ 	c #3E556E",
"} 	c #405A6F",
"| 	c #40546E",
"1 	c #3F536D",
"2 	c #39496B",
"3 	c #344369",
"4 	c #324068",
"5 	c #324B66",
"6 	c #344B67",
"7 	c #3E4B69",
"8 	c #5D6478",
"9 	c #3A526B",
"0 	c #3E5B6F",
"a 	c #3D516C",
"b 	c #3F566E",
"c 	c #384A6A",
"d 	c #364E69",
"e 	c #394A6A",
"f 	c #364569",
"g 	c #324867",
"h 	c #324C66",
"i 	c #344368",
"j 	c #364469",
"k 	c #3B4D6C",
"l 	c #394E6B",
"m 	c #3C556C",
"n 	c #3D586E",
"o 	c #3B556C",
"p 	c #3D536D",
"q 	c #364769",
"r 	c #334468",
"s 	c #324467",
"t 	c #344767",
"u 	c #49566D",
"v 	c #8B8E96",
"w 	c #B4B5B8",
"x 	c #606777",
"y 	c #435269",
"z 	c #536370",
"A 	c #425669",
"B 	c #394E69",
"C 	c #37506A",
"D 	c #324963",
"E 	c #334867",
"F 	c #334567",
"G 	c #344D67",
"H 	c #384B6A",
"I 	c #354769",
"J 	c #3B4E6B",
"K 	c #3C516C",
"L 	c #39506B",
"M 	c #3B4C6C",
"N 	c #3D556D",
"O 	c #385269",
"P 	c #344A65",
"Q 	c #3C4160",
"R 	c #373B61",
"S 	c #374666",
"T 	c #7F828A",
"U 	c #E1E1E1",
"V 	c #F0F0F0",
"W 	c #B0B1B3",
"X 	c #83868C",
"Y 	c #A7A8AB",
"Z 	c #8C8E95",
"` 	c #464D69",
" .	c #444C6A",
"..	c #6E727F",
"+.	c #3B4868",
"@.	c #37486A",
"#.	c #384B6B",
"$.	c #3B536C",
"%.	c #365069",
"&.	c #374D6A",
"*.	c #3C526C",
"=.	c #3A4C6B",
"-.	c #3A4C6C",
";.	c #404E65",
">.	c #6A3753",
",.	c #942D41",
"'.	c #8A2D45",
").	c #665063",
"!.	c #ACAAAB",
"~.	c #FEFEFE",
"{.	c #FCFCFC",
"].	c #E3E3E3",
"^.	c #CDCDCD",
"/.	c #F1F1F1",
"(.	c #E2E2E2",
"_.	c #898A90",
":.	c #999B9F",
"<.	c #C9CACB",
"[.	c #787C86",
"}.	c #41576B",
"|.	c #3B4F6C",
"1.	c #384E6B",
"2.	c #37456A",
"3.	c #37476A",
"4.	c #384F6A",
"5.	c #3C536C",
"6.	c #3A4E6B",
"7.	c #3A4D6C",
"8.	c #354868",
"9.	c #5C4158",
"0.	c #B92831",
"a.	c #F13B3B",
"b.	c #E73638",
"c.	c #B43E44",
"d.	c #BA9A9B",
"e.	c #EEEDED",
"f.	c #EBEBEB",
"g.	c #D9D9D9",
"h.	c #D7D7D7",
"i.	c #F7F7F7",
"j.	c #C3C3C3",
"k.	c #EDEDED",
"l.	c #C6C7C8",
"m.	c #6B717B",
"n.	c #535E72",
"o.	c #384868",
"p.	c #354B68",
"q.	c #344C68",
"r.	c #374B69",
"s.	c #703957",
"t.	c #D92F30",
"u.	c #FE4F4F",
"v.	c #FE4D4D",
"w.	c #F33A3A",
"x.	c #CF4B4B",
"y.	c #BAA5A5",
"z.	c #C0BFBF",
"A.	c #C1C1C1",
"B.	c #D1D1D1",
"C.	c #ECECEC",
"D.	c #E6E6E6",
"E.	c #C2C2C2",
"F.	c #FDFDFD",
"G.	c #E4E4E4",
"H.	c #AFB0B0",
"I.	c #ABACAE",
"J.	c #727883",
"K.	c #394B68",
"L.	c #344569",
"M.	c #324268",
"N.	c #334966",
"O.	c #334768",
"P.	c #394C6B",
"Q.	c #703956",
"R.	c #D92425",
"S.	c #FF4747",
"T.	c #FF4E4E",
"U.	c #FF5D5D",
"V.	c #F43737",
"W.	c #C56969",
"X.	c #E5E3E3",
"Y.	c #D0D0D0",
"Z.	c #BBBBBB",
"`.	c #B9B9B9",
" +	c #DEDEDE",
".+	c #DADADA",
"++	c #F3F3F3",
"@+	c #C7C7C8",
"#+	c #707683",
"$+	c #39486B",
"%+	c #39496A",
"&+	c #394F6A",
"*+	c #3A556B",
"=+	c #414969",
"-+	c #8A5968",
";+	c #DB3131",
">+	c #FD4D4D",
",+	c #FF4A4A",
"'+	c #FF4848",
")+	c #F15A5A",
"!+	c #CE7878",
"~+	c #FDFCFC",
"{+	c #F4F4F4",
"]+	c #E9E9E9",
"^+	c #BFBFBF",
"/+	c #BEBEBE",
"(+	c #C8C8C8",
"_+	c #E1E1E2",
":+	c #E2E3E3",
"<+	c #A5A5A8",
"[+	c #334168",
"}+	c #323F68",
"|+	c #324666",
"1+	c #46556C",
"2+	c #908F97",
"3+	c #D4B6B7",
"4+	c #E16A6A",
"5+	c #F12F2F",
"6+	c #F92F2F",
"7+	c #F63E3E",
"8+	c #E74A4A",
"9+	c #E2A9A9",
"0+	c #FEFDFD",
"a+	c #FFFFFF",
"b+	c #FAFAFA",
"c+	c #DDDDDD",
"d+	c #D8D8D8",
"e+	c #D5D3D1",
"f+	c #CECAC4",
"g+	c #CDC9C2",
"h+	c #C2BEBA",
"i+	c #757680",
"j+	c #324866",
"k+	c #425168",
"l+	c #8F9299",
"m+	c #FCF8F8",
"n+	c #F2CDCD",
"o+	c #E26D6D",
"p+	c #E24444",
"q+	c #E25757",
"r+	c #E8AAAA",
"s+	c #FDFBFB",
"t+	c #FBFBFB",
"u+	c #E7E7E7",
"v+	c #DADADB",
"w+	c #D6D5D5",
"x+	c #CDC6BC",
"y+	c #D0C3AA",
"z+	c #D9BE8A",
"A+	c #D6BA84",
"B+	c #AE9368",
"C+	c #484E61",
"D+	c #374F69",
"E+	c #394D6A",
"F+	c #334A66",
"G+	c #8B8E95",
"H+	c #FDF7F7",
"I+	c #F3D2D2",
"J+	c #E8AEAE",
"K+	c #E8B9B9",
"L+	c #F7EEEE",
"M+	c #E8E8E8",
"N+	c #E2E2E3",
"O+	c #DCDCDD",
"P+	c #D5D5D4",
"Q+	c #CCC7BE",
"R+	c #C9C1B6",
"S+	c #CCC1AF",
"T+	c #E2C182",
"U+	c #ECC577",
"V+	c #FDCB68",
"W+	c #F8C662",
"X+	c #B68634",
"Y+	c #4C5360",
"Z+	c #344168",
"`+	c #46516B",
" @	c #8C8F95",
".@	c #FAF9F9",
"+@	c #F7F6F6",
"@@	c #EAE9E9",
"#@	c #DCDCDC",
"$@	c #D1CFCC",
"%@	c #C7BEB0",
"&@	c #C7BDAF",
"*@	c #CBBDAA",
"=@	c #E1C287",
"-@	c #EBC478",
";@	c #EEC576",
">@	c #FFCC66",
",@	c #FFCC64",
"'@	c #F9C660",
")@	c #B68731",
"!@	c #4B4C60",
"~@	c #37466A",
"{@	c #464F6B",
"]@	c #DCDDDD",
"^@	c #F9F9F9",
"/@	c #F8F8F8",
"(@	c #EEEEEF",
"_@	c #DDDDDE",
":@	c #D5D6D6",
"<@	c #D2D0CE",
"[@	c #C5B9A8",
"}@	c #D2BC99",
"|@	c #F3C772",
"1@	c #F4C870",
"2@	c #F5C86F",
"3@	c #FCCB69",
"4@	c #FECC66",
"5@	c #FFCC65",
"6@	c #FFCF73",
"7@	c #FFD692",
"8@	c #F9D18E",
"9@	c #B68A41",
"0@	c #494A5F",
"a@	c #364B6A",
"b@	c #434D6B",
"c@	c #91939B",
"d@	c #E0E0E0",
"e@	c #F1F1F0",
"f@	c #D8D7D5",
"g@	c #D7D7D5",
"h@	c #D4D3D0",
"i@	c #C8C2B9",
"j@	c #BFB3A3",
"k@	c #BEB2A2",
"l@	c #CCB799",
"m@	c #FCCB6A",
"n@	c #FECC68",
"o@	c #FFCD68",
"p@	c #FFCD69",
"q@	c #FFCE70",
"r@	c #FFD690",
"s@	c #FFD68F",
"t@	c #FFE3AF",
"u@	c #FFF8EC",
"v@	c #F9EEE1",
"w@	c #B69661",
"x@	c #4C5362",
"y@	c #41536A",
"z@	c #888B93",
"A@	c #D5D5D5",
"B@	c #EEEEED",
"C@	c #DDDCDA",
"D@	c #D4D2CF",
"E@	c #D1CBC3",
"F@	c #C6B69B",
"G@	c #CBB896",
"H@	c #E4C180",
"I@	c #FDCB69",
"J@	c #FFCE6E",
"K@	c #FFD073",
"L@	c #FFD689",
"M@	c #FFD992",
"N@	c #FFDDA2",
"O@	c #FFF8EE",
"P@	c #FFF1D9",
"Q@	c #FFEFD3",
"R@	c #FFE1A9",
"S@	c #F9C96F",
"T@	c #B68734",
"U@	c #4F5A64",
"V@	c #81838C",
"W@	c #C5C5C5",
"X@	c #CFC9C0",
"Y@	c #CEBFA4",
"Z@	c #CEB993",
"`@	c #DBBE8A",
" #	c #FECB67",
".#	c #FFCF71",
"+#	c #FFD075",
"@#	c #FFD483",
"##	c #FFDFA1",
"$#	c #FFE0A3",
"%#	c #FFEDCA",
"&#	c #FFEED0",
"*#	c #FFEAC6",
"=#	c #FFE8C0",
"-#	c #FFCF75",
";#	c #FFCD6D",
">#	c #F9C662",
",#	c #B68632",
"'#	c #4B4E62",
")#	c #ABAAA9",
"!#	c #C8C3B9",
"~#	c #D0C2A7",
"{#	c #DDBF86",
"]#	c #F1C773",
"^#	c #FECB68",
"/#	c #FFCE6D",
"(#	c #FFD179",
"_#	c #FFD586",
":#	c #FFE3AC",
"<#	c #FFE2A8",
"[#	c #FFE7B9",
"}#	c #FFF1D7",
"|#	c #FFE5B4",
"1#	c #FFE3AD",
"2#	c #FFD481",
"3#	c #FFCD6C",
"4#	c #48475E",
"5#	c #7F7266",
"6#	c #D0AF70",
"7#	c #EFC676",
"8#	c #FFD27E",
"9#	c #FFD383",
"0#	c #FFDD9D",
"a#	c #FFE8BB",
"b#	c #FFE6B5",
"c#	c #FFE9C1",
"d#	c #FFF2DC",
"e#	c #FFDE9F",
"f#	c #FFD98F",
"g#	c #FFCD6B",
"h#	c #FFCC67",
"i#	c #FECB65",
"j#	c #FAC762",
"k#	c #F5C25E",
"l#	c #AD8138",
"m#	c #4A4D62",
"n#	c #816E5B",
"o#	c #E0AE4C",
"p#	c #FECD69",
"q#	c #FFD382",
"r#	c #FFDB9E",
"s#	c #FFECC9",
"t#	c #FFE7BC",
"u#	c #FFDA90",
"v#	c #FFD88D",
"w#	c #FFCD6A",
"x#	c #FAC862",
"y#	c #F9C661",
"z#	c #EEBD5B",
"A#	c #D2A34B",
"B#	c #D0A04A",
"C#	c #C89B4A",
"D#	c #615451",
"E#	c #354564",
"F#	c #837467",
"G#	c #E0B56C",
"H#	c #FFD894",
"I#	c #FFE8BD",
"J#	c #FFF3DC",
"K#	c #FFF3E0",
"L#	c #FFF0DB",
"M#	c #FFD37F",
"N#	c #FFD074",
"O#	c #FDCA64",
"P#	c #F3C25E",
"Q#	c #D1A24A",
"R#	c #C79946",
"S#	c #A6844C",
"T#	c #555862",
"U#	c #4B5263",
"V#	c #474D62",
"W#	c #354765",
"X#	c #7C7E87",
"Y#	c #DAD2C8",
"Z#	c #FFF2DE",
"`#	c #FFDC9A",
" $	c #FFCF72",
".$	c #FFCE72",
"+$	c #FDCA65",
"@$	c #F6C562",
"#$	c #F4C260",
"$$	c #E1B153",
"%$	c #C69641",
"&$	c #C49641",
"*$	c #B98D46",
"=$	c #565462",
"-$	c #4B5868",
";$	c #445368",
">$	c #39476A",
",$	c #36446A",
"'$	c #37496A",
")$	c #354C68",
"!$	c #827463",
"~$	c #E1B15B",
"{$	c #FFD076",
"]$	c #FCC964",
"^$	c #EFBE5C",
"/$	c #E3B458",
"($	c #A68145",
"_$	c #9D7A46",
":$	c #6E5E52",
"<$	c #4C5066",
"[$	c #4E5669",
"}$	c #495367",
"|$	c #3B4D6B",
"1$	c #3C4F6C",
"2$	c #394B6B",
"3$	c #36486A",
"4$	c #344668",
"5$	c #39506A",
"6$	c #816B5B",
"7$	c #E1AF4A",
"8$	c #F8C561",
"9$	c #E7B757",
"0$	c #DEAF55",
"a$	c #B18C4C",
"b$	c #876C48",
"c$	c #866A48",
"d$	c #7C644F",
"e$	c #444964",
"f$	c #435167",
"g$	c #3E526A",
"h$	c #3A536A",
"i$	c #3D546D",
"j$	c #3A506B",
"k$	c #384E69",
"l$	c #36456A",
"m$	c #7D695D",
"n$	c #DBAA4A",
"o$	c #E8B757",
"p$	c #E0B052",
"q$	c #E2B152",
"r$	c #CCA152",
"s$	c #726151",
"t$	c #6B5F54",
"u$	c #4F5760",
"v$	c #434F69",
"w$	c #3F4968",
"x$	c #3E4768",
"y$	c #394E6A",
"z$	c #344269",
"A$	c #3D526C",
"B$	c #3E586F",
"C$	c #3E5D70",
"D$	c #3D576D",
"E$	c #434762",
"F$	c #95764E",
"G$	c #DCAC4D",
"H$	c #C89C4C",
"I$	c #7D654E",
"J$	c #5F5455",
"K$	c #615957",
"L$	c #5B585D",
"M$	c #41506B",
"N$	c #41526B",
"O$	c #3C596D",
"P$	c #3A526A",
"Q$	c #374C6A",
"R$	c #3A4D6B",
"S$	c #375069",
"T$	c #354669",
"U$	c #354469",
"V$	c #3D516D",
"W$	c #3A546C",
"X$	c #394F6B",
"Y$	c #385169",
"Z$	c #374C69",
"`$	c #323F67",
" %	c #414461",
".%	c #57535B",
"+%	c #51555D",
"@%	c #3D4D64",
"#%	c #3B4A69",
"$%	c #3B4B69",
"%%	c #3B4B6A",
"&%	c #3B546C",
"*%	c #3B516B",
"=%	c #394D6C",
"-%	c #334968",
";%	c #344A67",
">%	c #374969",
",%	c #334766",
"'%	c #364D69",
")%	c #3B536B",
"!%	c #354E67",
"~%	c #344C67",
"{%	c #394A6B",
"]%	c #394869",
"^%	c #344867",
"/%	c #344A68",
"(%	c #364C69",
"_%	c #36466A",
":%	c #364D68",
"<%	c #334767",
"[%	c #334B66",
"}%	c #324767",
"      . + @ # $ % & *   = - ; > , ' ) ! ~ { ]     ^ / ( ",
"_ : < [ } | 1 2 3 _ 4 5 6   7 8 9 0 a b c d e f 4 g h i ",
"_ j k l m n o p q r ( s t u v w x y z A B C D E F F G H ",
"I J K L < ! M N O P Q R S T U V W X Y Z `  ...+.@.#.$.%.",
"&.H *.=.% -.k % ;.>.,.'.).!.~.{.].^./.(._.:.<.[.}.n |.1.",
"2.3.4.5.6.7.  8.9.0.a.b.c.d.e.f.g.h.~.i.j.k.i.l.m.n.o.3 ",
"9 p.q.. @ r.4.t s.t.u.v.w.x.y.z.A.B.C.D.E.{.F.G.H.I.J.K.",
"L.M.s N.O.. P.o.Q.R.S.T.U.V.W.X.].Y.Z.`.A.k.k. +.+++@+#+",
"$+$+%+e &+*+. =+-+;+>+,+'+)+!+~+F.{+]+]+(.^+/+(+_+:+h.<+",
"[+2 }+}+4 |+1+2+3+4+5+6+7+8+9+0+a+F.{.b+V c+d+e+f+g+h+i+",
"< 2 4 M.j+k+l+(.m+n+o+p+q+r+s+t+b+{+C.u+v+w+x+y+z+A+B+C+",
"D+E+r.F+k+G+c+~.a+H+I+J+K+L+i.M+N+O+P+Q+R+S+T+U+V+W+X+Y+",
"M _ Z+`+ @v+F.a+a+F..@+@@@G.#@$@%@&@*@=@-@;@V+>@,@'@)@!@",
"~@^ {@l+]@F.~.^@/@(@_@g.:@<@[@}@|@1@2@3@4@5@>@6@7@8@9@0@",
"a@b@c@d@^@^@e@f@g@h@i@j@k@l@m@n@>@>@o@p@q@r@s@t@u@v@w@x@",
"y@z@A@B@C@D@E@F@F@G@H@I@I@V+>@o@J@K@L@M@N@O@P@Q@R@S@T@U@",
"V@W@h@X@Y@Z@`@I@V+V+ #5@o@.#+#@###$#%#&#*#=#-#;#p@>#,#'#",
")#!#~#{#]#V+^#5@>@/#(#(#_#:#<#[#}#|#1#2#/#3#>@>@>@>#,#4#",
"5#6#7# #4@5@3#8#9#0#a#b#c#d#$#e#f#/#g#h#>@>@i#j#j#k#l#m#",
"n#o#p#+#9#q#r#Q@s#&#t#u#u#v#g#w#o@>@>@i#x#y#z#A#B#C#D#E#",
"F#G#H#I#J#P@K#L#2#M#N#p@p@o@>@>@O#y#y#P#Q#R#S#T#U#V#W#5 ",
"X#Y#O@Z#`# $6@.$h#h#>@i#i#+$@$#$$$%$&$*$=$-$;$>$,$'$*+)$",
"!$~${$6@w#>@>@>@O#]$#$^$^$/$($_$:$<$[$}$|$1$< 2$3$4$5$9 ",
"6$7$>@>@+$O#O#8$9$0$a$b$c$d$e$f$g$&.l h$6.N i$j$4.k$@ l$",
"m$n$O#8$o$p$q$r$s$t$u$v$w$x$2.y$=.z$z$=.A$B$C$D$1$= t - ",
"E$F$G$H$I$J$K$L$M$N$O$P$Q$  R$S$T$_ [+U$  V$W$X$  %+Y$Z$",
"`$ %.%+%@%#%$%%%&%*%=%I -%;%>%T$,%( [+O.'%)%!%G ; ^ ~%{%",
"}+_ ]%^%/%Y$S$> (%_%U$[+4 4 f {%=.:%!%!%|$e ( <%[%}%- 2 "};
