/* XPM */
static char * itm2_xpm[] = {
"28 28 643 2",
"  	c #3A4A6B",
". 	c #364869",
"+ 	c #374D68",
"@ 	c #374769",
"# 	c #3B4C6B",
"$ 	c #3C4C6C",
"% 	c #3A4B6B",
"& 	c #3A576B",
"* 	c #3A566B",
"= 	c #39486A",
"- 	c #41506B",
"; 	c #6A717F",
"> 	c #8D9198",
", 	c #717884",
"' 	c #46556C",
") 	c #46586D",
"! 	c #44526B",
"~ 	c #394868",
"{ 	c #344367",
"] 	c #364768",
"^ 	c #394969",
"/ 	c #3A4A6A",
"( 	c #354369",
"_ 	c #324966",
": 	c #334268",
"< 	c #334068",
"[ 	c #344268",
"} 	c #3C4E6C",
"| 	c #3E556E",
"1 	c #405A6F",
"2 	c #40546E",
"3 	c #3F536D",
"4 	c #39496B",
"5 	c #344368",
"6 	c #323F66",
"7 	c #313E65",
"8 	c #314964",
"9 	c #3E5169",
"0 	c #6D7381",
"a 	c #B0B1B6",
"b 	c #CDCECF",
"c 	c #ABADB1",
"d 	c #767E86",
"e 	c #6F7681",
"f 	c #7B8189",
"g 	c #626979",
"h 	c #405369",
"i 	c #3D4C69",
"j 	c #4B546D",
"k 	c #3D4869",
"l 	c #324766",
"m 	c #324C66",
"n 	c #364469",
"o 	c #3B4D6C",
"p 	c #394E6B",
"q 	c #3C556C",
"r 	c #3D586E",
"s 	c #3B556C",
"t 	c #3E526C",
"u 	c #424363",
"v 	c #553B5B",
"w 	c #5F3757",
"x 	c #553D5A",
"y 	c #595B6E",
"z 	c #98999E",
"A 	c #E1E2E2",
"B 	c #F4F4F4",
"C 	c #D8D8D9",
"D 	c #B1B2B4",
"E 	c #B0B2B4",
"F 	c #BFC1C2",
"G 	c #A6A8AC",
"H 	c #6B737E",
"I 	c #69717C",
"J 	c #8B8E96",
"K 	c #6E7481",
"L 	c #414E69",
"M 	c #344C66",
"N 	c #384B6A",
"O 	c #354769",
"P 	c #3B4E6B",
"Q 	c #3C516C",
"R 	c #39506B",
"S 	c #3D506D",
"T 	c #3B4C6C",
"U 	c #475168",
"V 	c #6E4356",
"W 	c #9A3545",
"X 	c #AC303F",
"Y 	c #9A3348",
"Z 	c #86606C",
"` 	c #B4ABAC",
" .	c #F0EFF0",
"..	c #F9FAFA",
"+.	c #EAEAEA",
"@.	c #D7D7D7",
"#.	c #DFDFDF",
"$.	c #F1F1F1",
"%.	c #DBDBDC",
"&.	c #A2A3A6",
"*.	c #AFB0B3",
"=.	c #CDCDCF",
"-.	c #44576C",
";.	c #3A5269",
">.	c #374D6A",
",.	c #3C526C",
"'.	c #3A4C6B",
").	c #3A4C6C",
"!.	c #3C4C6B",
"~.	c #574360",
"{.	c #9E3846",
"].	c #D83438",
"^.	c #EE3C3D",
"/.	c #DD393D",
"(.	c #BE5357",
"_.	c #C09899",
":.	c #E3DCDC",
"<.	c #E7E7E7",
"[.	c #DCDCDC",
"}.	c #D5D5D5",
"|.	c #E6E6E6",
"1.	c #FAFAFA",
"2.	c #ECECEC",
"3.	c #CACACA",
"4.	c #E8E8E8",
"5.	c #D9DADA",
"6.	c #A1A4A7",
"7.	c #6D737F",
"8.	c #5B6677",
"9.	c #37456A",
"0.	c #37476A",
"a.	c #384F6A",
"b.	c #3C536C",
"c.	c #3A4E6B",
"d.	c #3A4D6C",
"e.	c #3B496A",
"f.	c #62405D",
"g.	c #B63541",
"h.	c #EB3F3F",
"i.	c #FD4D4D",
"j.	c #F94848",
"k.	c #EB4243",
"l.	c #D26060",
"m.	c #C3A2A2",
"n.	c #C6C1C1",
"o.	c #C7C7C7",
"p.	c #CBCBCB",
"q.	c #F3F3F3",
"r.	c #FBFBFB",
"s.	c #C7C7C8",
"t.	c #ACADAF",
"u.	c #9E9FA4",
"v.	c #3A526B",
"w.	c #354B68",
"x.	c #344C68",
"y.	c #374B69",
"z.	c #3A4E68",
"A.	c #643F5A",
"B.	c #B92D3D",
"C.	c #ED3A3A",
"D.	c #FF4B4B",
"E.	c #FF5151",
"F.	c #FB5353",
"G.	c #EC4545",
"H.	c #CC7575",
"I.	c #D8CACA",
"J.	c #D8D8D8",
"K.	c #CDCDCD",
"L.	c #C5C5C5",
"M.	c #C3C3C3",
"N.	c #E9E9E9",
"O.	c #EFEFEF",
"P.	c #E4E4E4",
"Q.	c #DDDDDD",
"R.	c #344569",
"S.	c #324268",
"T.	c #324467",
"U.	c #334966",
"V.	c #334768",
"W.	c #424F6A",
"X.	c #755266",
"Y.	c #BE3F48",
"Z.	c #ED3D3D",
"`.	c #FF4C4C",
" +	c #FD4F4F",
".+	c #F05555",
"++	c #D47676",
"@+	c #EDDEDE",
"#+	c #F7F8F8",
"$+	c #E5E5E5",
"%+	c #CFCFCF",
"&+	c #CCCCCC",
"*+	c #E2E3E3",
"=+	c #39486B",
"-+	c #39496A",
";+	c #394A6A",
">+	c #394F6A",
",+	c #455B6D",
"'+	c #717281",
")+	c #AC9197",
"!+	c #D17678",
"~+	c #EA4848",
"{+	c #F93B3B",
"]+	c #FB3C3C",
"^+	c #F84343",
"/+	c #EB5656",
"(+	c #DE9393",
"_+	c #F5E9E9",
":+	c #FFFFFF",
"<+	c #FDFDFD",
"[+	c #F8F8F8",
"}+	c #F5F5F5",
"|+	c #CECECE",
"1+	c #CFCECE",
"2+	c #D3D1D0",
"3+	c #D6D4D1",
"4+	c #D3D1CE",
"5+	c #334168",
"6+	c #323F68",
"7+	c #323F67",
"8+	c #414B6B",
"9+	c #727885",
"0+	c #B4B4B8",
"a+	c #DFD4D4",
"b+	c #EABCBC",
"c+	c #E98181",
"d+	c #EB4343",
"e+	c #EE3838",
"f+	c #EB5252",
"g+	c #E88888",
"h+	c #EFCECE",
"i+	c #FAF4F4",
"j+	c #F0F0F0",
"k+	c #E6E6E7",
"l+	c #DCDBDC",
"m+	c #D4D2D0",
"n+	c #D2CDC5",
"o+	c #D2C7B5",
"p+	c #D2C3A9",
"q+	c #CABBA3",
"r+	c #324067",
"s+	c #414C6B",
"t+	c #707683",
"u+	c #B0B2B5",
"v+	c #FAF8F8",
"w+	c #FAECEC",
"x+	c #EFC1C1",
"y+	c #E68E8E",
"z+	c #E47979",
"A+	c #E59191",
"B+	c #EEC8C8",
"C+	c #F9F4F4",
"D+	c #F7F7F7",
"E+	c #EFEFF0",
"F+	c #E2E2E1",
"G+	c #DBDAD8",
"H+	c #D4D1CF",
"I+	c #D2CEC8",
"J+	c #D4C6B1",
"K+	c #D8C39F",
"L+	c #E2C38B",
"M+	c #E6C17B",
"N+	c #D6B26F",
"O+	c #374F69",
"P+	c #394D69",
"Q+	c #45536C",
"R+	c #6F7782",
"S+	c #ACAEB2",
"T+	c #E2E2E3",
"U+	c #FEFCFC",
"V+	c #F9ECEC",
"W+	c #F2D4D4",
"X+	c #EBC4C4",
"Y+	c #EACDCD",
"Z+	c #F2E9E9",
"`+	c #F1F0F0",
" @	c #DEDDDB",
".@	c #D9D7D5",
"+@	c #D5D3D0",
"@@	c #D2CDC4",
"#@	c #D1C5B1",
"$@	c #D2C2A9",
"%@	c #D6C2A2",
"&@	c #E5C386",
"*@	c #EFC676",
"=@	c #F8C96C",
"-@	c #FCCA65",
";@	c #E6B655",
">@	c #424B6B",
",@	c #707483",
"'@	c #ADAEB2",
")@	c #E0E0E1",
"!@	c #F9F9F9",
"~@	c #FEFEFE",
"{@	c #FCFCFC",
"]@	c #F8F7F7",
"^@	c #F4F2F3",
"/@	c #EFEDED",
"(@	c #E7E5E5",
"_@	c #E2E1E1",
":@	c #DBD9D7",
"<@	c #D4D0CA",
"[@	c #D0C5B5",
"}@	c #D0C0A9",
"|@	c #D0C0A8",
"1@	c #D8C19C",
"2@	c #E6C484",
"3@	c #EDC579",
"4@	c #F0C676",
"5@	c #FACA6C",
"6@	c #FECC68",
"7@	c #FFCD6B",
"8@	c #FDCC6C",
"9@	c #E7B75B",
"0@	c #444F6D",
"a@	c #727685",
"b@	c #AFB0B4",
"c@	c #E1E1E2",
"d@	c #F6F6F6",
"e@	c #DCDCDB",
"f@	c #D9D8D7",
"g@	c #D5D4D3",
"h@	c #D3CFCA",
"i@	c #CEC1AF",
"j@	c #D4BF9E",
"k@	c #E8C486",
"l@	c #F2C776",
"m@	c #F5C872",
"n@	c #FACB6C",
"o@	c #FDCC69",
"p@	c #FECC6B",
"q@	c #FFCF74",
"r@	c #FFD58C",
"s@	c #FDD799",
"t@	c #E7C182",
"u@	c #B3B4B8",
"v@	c #E2E2E2",
"w@	c #F6F5F5",
"x@	c #F8F8F7",
"y@	c #F1F1F0",
"z@	c #E1E0DE",
"A@	c #DCDBD9",
"B@	c #DAD9D6",
"C@	c #CAC2B7",
"D@	c #C5BAAB",
"E@	c #C6BAA9",
"F@	c #D1BD9F",
"G@	c #EFC67E",
"H@	c #F7C972",
"I@	c #FBCB6B",
"J@	c #FDCB68",
"K@	c #FECD6A",
"L@	c #FFCD6C",
"M@	c #FFD58B",
"N@	c #FFD68E",
"O@	c #FFDD9F",
"P@	c #FFEBC9",
"Q@	c #FDF0DD",
"R@	c #E7D4B9",
"S@	c #ACAEB1",
"T@	c #D9D9DA",
"U@	c #E9E9E8",
"V@	c #E3E3E1",
"W@	c #DEDCDA",
"X@	c #D9D5CE",
"Y@	c #CDC3B3",
"Z@	c #CABEAB",
"`@	c #CCBFA9",
" #	c #D5C09D",
".#	c #E4C289",
"+#	c #EFC57A",
"@#	c #EFC579",
"##	c #F3C675",
"$#	c #FDCB69",
"%#	c #FFCD67",
"&#	c #FFCD6A",
"*#	c #FFCE6E",
"=#	c #FFD177",
"-#	c #FFD484",
";#	c #FFD78B",
">#	c #FFDC9F",
",#	c #FFEDD3",
"'#	c #FFECCE",
")#	c #FFECCA",
"!#	c #FFEAC5",
"~#	c #FDE0B0",
"{#	c #E7C185",
"]#	c #C8C8C8",
"^#	c #D8D7D4",
"/#	c #D8D3CB",
"(#	c #D2C8B7",
"_#	c #D0C2AB",
":#	c #D7C2A0",
"<#	c #E7C384",
"[#	c #EBC37C",
"}#	c #EBC37B",
"|#	c #F0C575",
"1#	c #F9C96B",
"2#	c #FFCC65",
"3#	c #FFCE6B",
"4#	c #FFCE6F",
"5#	c #FFD076",
"6#	c #FFD688",
"7#	c #FFD991",
"8#	c #FFDFA2",
"9#	c #FFE6B9",
"0#	c #FFE7BD",
"a#	c #FFE7BE",
"b#	c #FFEDD0",
"c#	c #FFE1B1",
"d#	c #FFDB9F",
"e#	c #FFD790",
"f#	c #FDCF77",
"g#	c #E7B656",
"h#	c #CDC9BF",
"i#	c #D3C7B3",
"j#	c #D9C39D",
"k#	c #E2C289",
"l#	c #E8C27D",
"m#	c #EFC577",
"n#	c #FCCB69",
"o#	c #FFCC67",
"p#	c #FFCF70",
"q#	c #FFD27B",
"r#	c #FFD990",
"s#	c #FFDA93",
"t#	c #FFE6B7",
"u#	c #FFE6B8",
"v#	c #FFE6B4",
"w#	c #FFE7BA",
"x#	c #FFE1AD",
"y#	c #FFDDA2",
"z#	c #FFDA9A",
"A#	c #FFD077",
"B#	c #FFCC66",
"C#	c #FDCA65",
"D#	c #E7B655",
"E#	c #D5C09B",
"F#	c #E3C389",
"G#	c #EFC575",
"H#	c #F8CA6B",
"I#	c #FECB66",
"J#	c #FFCC68",
"K#	c #FFD78D",
"L#	c #FFDA97",
"M#	c #FFDB98",
"N#	c #FFDFA7",
"O#	c #FFE8BE",
"P#	c #FFE3AD",
"Q#	c #FFE3AE",
"R#	c #FFE7BB",
"S#	c #FFE2B0",
"T#	c #FFDC9B",
"U#	c #FFD88E",
"V#	c #FFD074",
"W#	c #FFCD69",
"X#	c #FECB65",
"Y#	c #FCC964",
"Z#	c #E6B556",
"`#	c #E7BE6D",
" $	c #F9CA6E",
".$	c #FECD6B",
"+$	c #FECE6D",
"@$	c #FFD17D",
"#$	c #FFD997",
"$$	c #FFDB9C",
"%$	c #FFE5B6",
"&$	c #FFE9C5",
"*$	c #FFDEA0",
"=$	c #FFD78A",
"-$	c #FFD178",
";$	c #FFCC69",
">$	c #FBC963",
",$	c #F4C25E",
"'$	c #F1BE5B",
")$	c #EEBC5A",
"!$	c #D6A751",
"~$	c #F1C265",
"{$	c #FFD68C",
"]$	c #FFE0AD",
"^$	c #FFECCD",
"/$	c #FFEAC4",
"($	c #FFE8C1",
"_$	c #FFE6BC",
":$	c #FFDFA5",
"<$	c #FFD88B",
"[$	c #FFCF71",
"}$	c #FECC67",
"|$	c #F4C35E",
"1$	c #F2BF5C",
"2$	c #E7B759",
"3$	c #CFA353",
"4$	c #C29750",
"5$	c #BF954F",
"6$	c #A58350",
"7$	c #F2CC8E",
"8$	c #FFEED0",
"9$	c #FFEED3",
"0$	c #FFEDD2",
"a$	c #FFDCA0",
"b$	c #FFD483",
"c$	c #FFD380",
"d$	c #FFD075",
"e$	c #FFCE6C",
"f$	c #FCCA64",
"g$	c #F8C561",
"h$	c #F5C25F",
"i$	c #F3C25E",
"j$	c #EABA5A",
"k$	c #CEA14F",
"l$	c #C4984D",
"m$	c #AD874F",
"n$	c #7D675B",
"o$	c #5C5761",
"p$	c #5B5E63",
"q$	c #4F5462",
"r$	c #F0E3D2",
"s$	c #FFF2DE",
"t$	c #FFEAC7",
"u$	c #FFDD9E",
"v$	c #FFD588",
"w$	c #FFD488",
"x$	c #FFD386",
"y$	c #FFCF73",
"z$	c #FDCB65",
"A$	c #FBC865",
"B$	c #F6C462",
"C$	c #F3C260",
"D$	c #E8B85A",
"E$	c #D6A74F",
"F$	c #CA9C49",
"G$	c #C79A49",
"H$	c #B68E50",
"I$	c #796A60",
"J$	c #696165",
"K$	c #5C5966",
"L$	c #464D67",
"M$	c #374667",
"N$	c #3B5069",
"O$	c #3B526A",
"P$	c #F2CD92",
"Q$	c #FFDA9B",
"R$	c #FFCD68",
"S$	c #FDCA64",
"T$	c #F9C763",
"U$	c #F5C360",
"V$	c #F2C05E",
"W$	c #F1C05E",
"X$	c #E6B75A",
"Y$	c #C49A4F",
"Z$	c #B6904D",
"`$	c #A18251",
" %	c #846F5A",
".%	c #756761",
"+%	c #746961",
"@%	c #696163",
"#%	c #47576B",
"$%	c #3F556C",
"%%	c #3B506B",
"&%	c #384E69",
"*%	c #36456A",
"=%	c #F3C15E",
"-%	c #FCC963",
";%	c #F3C15D",
">%	c #ECBB5B",
",%	c #DBAE58",
"'%	c #C39B53",
")%	c #B48F50",
"!%	c #B18D50",
"~%	c #A68453",
"{%	c #7B665C",
"]%	c #6B605E",
"^%	c #595761",
"/%	c #404665",
"(%	c #374369",
"_%	c #3E586F",
":%	c #3E5D70",
"<%	c #3D576D",
"[%	c #3C4F6C",
"}%	c #38486A",
"|%	c #344767",
"1%	c #324667",
"2%	c #F2BF5A",
"3%	c #FAC761",
"4%	c #F2C05D",
"5%	c #F0BD5A",
"6%	c #E5B559",
"7%	c #C29B55",
"8%	c #AE8C53",
"9%	c #9A7E55",
"0%	c #796C5A",
"a%	c #645E5B",
"b%	c #625A5B",
"c%	c #5C5660",
"d%	c #445069",
"e%	c #395069",
"f%	c #364669",
"g%	c #354469",
"h%	c #3D516D",
"i%	c #3A546C",
"j%	c #394F6B",
"k%	c #385169",
"l%	c #374C69",
"m%	c #E0B055",
"n%	c #DCAE57",
"o%	c #C19A53",
"p%	c #B89252",
"q%	c #B79153",
"r%	c #A98854",
"s%	c #76655A",
"t%	c #56575D",
"u%	c #4D5260",
"v%	c #3E4C67",
"w%	c #374768",
"x%	c #364967",
"y%	c #364A66",
"z%	c #374969",
"A%	c #354669",
"B%	c #334766",
"C%	c #364D69",
"D%	c #3B536B",
"E%	c #354E67",
"F%	c #344D67",
"G%	c #344768",
"H%	c #344C67",
"I%	c #394A6B",
"J%	c #AA8652",
"K%	c #B99250",
"L%	c #9C7D53",
"M%	c #675B56",
"N%	c #525159",
"O%	c #52555B",
"P%	c #4E545E",
"Q%	c #3E4F64",
"R%	c #384C68",
"S%	c #374669",
"T%	c #324068",
"U%	c #364569",
"V%	c #364D68",
"W%	c #3B4D6B",
"X%	c #334767",
"Y%	c #334B66",
"Z%	c #324767",
"      . + @ # $ % & *   = - ; > , ' ) ! ~ { ] ^ / ( _ : ",
"< [ } | 1 2 3 4 5 6 7 8 9 0 a b c d e f g h i j k l m 5 ",
"< n o p q r s t u v w x y z A B C D E F G H I J K L M N ",
"O P Q R } S T U V W X Y Z `  ...+.@.#.$.%.&.*.=.c 0 -.;.",
">.N ,.'.% ).!.~.{.].^./.(._.:.<.[.}.|.1.2.3.4.B 5.6.7.8.",
"9.0.a.b.c.d.e.f.g.h.i.j.k.l.m.n.o.p.[.+.#.p.q.r.+.s.t.u.",
"v.w.x.. @ y.z.A.B.C.D.E.F.G.H.I.#.J.K.L.M.o.N.O.P.J.Q.Q.",
"R.S.T.U.V.. W.X.Y.Z.`.`. +.+++@+#+$.$+Q.[.J.%+&+K.J.P.*+",
"=+=+-+;+>+,+'+)+!+~+{+]+^+/+(+_+:+<+[+}+q.+.}.|+1+2+3+4+",
"5+4 6+7+8+9+0+a+b+c+d+e+f+g+h+i+<+r.[+B j+k+l+m+n+o+p+q+",
"} 4 r+s+t+u+$+v+w+x+y+z+A+B+C+D+q.E+N.F+G+H+I+J+K+L+M+N+",
"O+P+Q+R+S+T+r.:+U+V+W+X+Y+Z+`+|. @.@+@@@#@$@%@&@*@=@-@;@",
"T >@,@'@)@!@~@~@{@]@^@/@(@_@:@<@[@}@|@1@2@3@4@5@6@7@8@9@",
"0@a@b@c@!@{@[+d@$.|.e@f@g@h@i@j@k@l@l@m@n@o@p@7@q@r@s@t@",
"9+u@v@w@x@y@z@A@B@h@C@D@E@F@G@H@I@J@o@K@L@q@M@N@O@P@Q@R@",
"S@T@U@V@W@X@Y@Z@`@ #.#+#@###$#%#&#*#=#-#;#>#,#'#)#!#~#{#",
"]#^#/#(#_#:#<#[#}#|#1#2#%#3#4#5#6#7#8#9#0#a#b#c#d#e#f#g#",
"h#i#j#k#l#m#n#2#o#7@*#p#q#r#s#O@t#u#v#w#x#y#z#A#B#B#C#D#",
"E#F#G#H#I#J#L@4#q#K#L#M#N#O#P#Q#R#S#T#U#V#W#o#B#X#X#Y#Z#",
"`# $.$+$*#@$#$$$N#%$t#Q#9#&$*$s#=$-$&#;$B#X#X#>$,$'$)$!$",
"~$q#{$#$z#]$^$/$($_$:$<$<$6#[$7@W#}$X#X#>$|$1$2$3$4$5$6$",
"7$x#!#8$'#9$0$a$b$c$d$e$e$&#}$I#f$g$h$i$j$k$l$m$n$o$p$q$",
"r$s$t$u$v$w$x$y$&#W#}$X#z$A$B$C$D$E$F$G$H$I$J$K$L$M$N$O$",
"P$Q$r@y$R$o#o#X#S$T$U$V$W$X$Y$Z$`$ %.%+%@%#%$%%%a.&%@ *%",
"=%R$o#I#X#X#-%;%>%,%'%)%!%~%{%]%^%/%(%# t _%:%<%[%}%|%1%",
"2%X#3%4%5%5%6%7%8%9%0%a%b%c%d%e%f%< 5+g%  h%i%j%  -+k%l%",
"m%)$n%o%p%q%r%s%t%u%v%w%x%y%z%A%B%: 5+V.C%D%E%F%G%( H%I%",
"J%K%L%M%N%O%P%Q%R%S%g%5+T%T%U%I%'.V%E%E%W%;+: X%Y%Z%1%4 "};
