/* XPM */
static char * itm3_xpm[] = {
"28 28 667 2",
"  	c #3A4A6B",
". 	c #364869",
"+ 	c #374D68",
"@ 	c #374769",
"# 	c #3B4C6B",
"$ 	c #3C4C6C",
"% 	c #3A4B6B",
"& 	c #3A576B",
"* 	c #3A566B",
"= 	c #38486A",
"- 	c #324667",
"; 	c #344767",
"> 	c #3B5169",
", 	c #41546C",
"' 	c #3F526D",
") 	c #435870",
"! 	c #3D506D",
"~ 	c #38496B",
"{ 	c #344468",
"] 	c #364768",
"^ 	c #354369",
"/ 	c #324966",
"( 	c #334268",
"_ 	c #334068",
": 	c #344268",
"< 	c #3C4E6C",
"[ 	c #3E556E",
"} 	c #405A6F",
"| 	c #40546E",
"1 	c #3F536D",
"2 	c #39496B",
"3 	c #344369",
"4 	c #324068",
"5 	c #324B66",
"6 	c #344B67",
"7 	c #3C4B6B",
"8 	c #47536F",
"9 	c #646B7D",
"0 	c #6A7481",
"a 	c #4F6474",
"b 	c #3E516C",
"c 	c #41566D",
"d 	c #384968",
"e 	c #364D68",
"f 	c #394A6A",
"g 	c #364568",
"h 	c #324867",
"i 	c #324C66",
"j 	c #344368",
"k 	c #364469",
"l 	c #3B4D6C",
"m 	c #394E6B",
"n 	c #3C556C",
"o 	c #3D586E",
"p 	c #3B556C",
"q 	c #3D536D",
"r 	c #364769",
"s 	c #334468",
"t 	c #324167",
"u 	c #314366",
"v 	c #344867",
"w 	c #48576F",
"x 	c #787D8A",
"y 	c #A7A9AE",
"z 	c #A8AAAF",
"A 	c #7C828C",
"B 	c #5E6D79",
"C 	c #626D7A",
"D 	c #586373",
"E 	c #41556B",
"F 	c #364C66",
"G 	c #3D4D68",
"H 	c #394867",
"I 	c #334567",
"J 	c #344D67",
"K 	c #384B6A",
"L 	c #354769",
"M 	c #3B4E6B",
"N 	c #3C516C",
"O 	c #39506B",
"P 	c #3B4C6C",
"Q 	c #3D556D",
"R 	c #395168",
"S 	c #3E4964",
"T 	c #4B415F",
"U 	c #4D385E",
"V 	c #494463",
"W 	c #656A7A",
"X 	c #AAACB1",
"Y 	c #DCDDDE",
"Z 	c #D9DADB",
"` 	c #B2B3B6",
" .	c #9A9CA1",
"..	c #A4A6AB",
"+.	c #989AA1",
"@.	c #6C7080",
"#.	c #5B6276",
"$.	c #727785",
"%.	c #62697B",
"&.	c #43516D",
"*.	c #3B536C",
"=.	c #365069",
"-.	c #374D6A",
";.	c #3C526C",
">.	c #3A4C6B",
",.	c #3A4C6C",
"'.	c #3B4B6A",
").	c #464E65",
"!.	c #693B5A",
"~.	c #8B344D",
"{.	c #95334A",
"].	c #834558",
"^.	c #8C7D84",
"/.	c #C9C6C7",
"(.	c #F3F3F3",
"_.	c #EFF0F0",
":.	c #D7D8D8",
"<.	c #CFCFD0",
"[.	c #DEDEDF",
"}.	c #D3D4D5",
"|.	c #A3A4A9",
"1.	c #9A9BA1",
"2.	c #B5B7BA",
"3.	c #9EA2A6",
"4.	c #697480",
"5.	c #44546D",
"6.	c #3A4F6B",
"7.	c #37456A",
"8.	c #37476A",
"9.	c #384F6A",
"0.	c #3C536C",
"a.	c #3A4E6B",
"b.	c #3A4D6C",
"c.	c #3A4867",
"d.	c #5A445C",
"e.	c #9D3347",
"f.	c #CE333C",
"g.	c #DA393E",
"h.	c #C64249",
"i.	c #B47578",
"j.	c #CFBDBD",
"k.	c #EBE8E8",
"l.	c #E7E7E7",
"m.	c #DADADA",
"n.	c #DEDEDE",
"o.	c #F2F2F2",
"p.	c #EEEEEE",
"q.	c #CBCBCC",
"r.	c #D5D5D6",
"s.	c #E8E8E8",
"t.	c #D0D1D2",
"u.	c #9A9CA2",
"v.	c #676D7C",
"w.	c #505872",
"x.	c #3A526B",
"y.	c #354B68",
"z.	c #344C68",
"A.	c #374B69",
"B.	c #3C4666",
"C.	c #6C3B5A",
"D.	c #BA3342",
"E.	c #EB3F40",
"F.	c #F94848",
"G.	c #EE4546",
"H.	c #DB5657",
"I.	c #CD8E8E",
"J.	c #CCBEBE",
"K.	c #CDCCCC",
"L.	c #CCCDCD",
"M.	c #D8D8D8",
"N.	c #E9E9E9",
"O.	c #E6E6E6",
"P.	c #D1D1D1",
"Q.	c #EAEAEA",
"R.	c #F8F8F8",
"S.	c #C2C2C3",
"T.	c #A2A3A6",
"U.	c #8E9199",
"V.	c #344569",
"W.	c #324268",
"X.	c #324467",
"Y.	c #334966",
"Z.	c #334768",
"`.	c #394C6B",
" +	c #404767",
".+	c #733D5A",
"++	c #C1303E",
"@+	c #F03F3F",
"#+	c #FF4C4C",
"$+	c #FD5050",
"%+	c #F34D4D",
"&+	c #DC6161",
"*+	c #CEA5A5",
"=+	c #D8D3D3",
"-+	c #D9D9D9",
";+	c #D3D3D3",
">+	c #CECECE",
",+	c #CACACA",
"'+	c #C8C8C8",
")+	c #E4E4E4",
"!+	c #F0F0F0",
"~+	c #D7D7D7",
"{+	c #D5D5D5",
"]+	c #CECFD0",
"^+	c #39486B",
"/+	c #39496A",
"(+	c #394F6A",
"_+	c #3A556B",
":+	c #384969",
"<+	c #464768",
"[+	c #804C62",
"}+	c #C54048",
"|+	c #F04040",
"1+	c #FE4D4D",
"2+	c #F85050",
"3+	c #E45F5F",
"4+	c #DDADAD",
"5+	c #F0EAEA",
"6+	c #F1F2F2",
"7+	c #DDDDDD",
"8+	c #D4D4D4",
"9+	c #D2D2D2",
"0+	c #E2E2E2",
"a+	c #DFDFDF",
"b+	c #334168",
"c+	c #323F68",
"d+	c #49566E",
"e+	c #777684",
"f+	c #AE8D93",
"g+	c #D47274",
"h+	c #ED4A4A",
"i+	c #F93E3E",
"j+	c #FA4040",
"k+	c #F44C4C",
"l+	c #E67272",
"m+	c #E8C0C0",
"n+	c #FAF5F5",
"o+	c #FDFDFD",
"p+	c #F1F1F1",
"q+	c #CFCFCF",
"r+	c #CFCECE",
"s+	c #D3D1CF",
"t+	c #D7D5D1",
"u+	c #D2D0CC",
"v+	c #344A67",
"w+	c #47566D",
"x+	c #B5B5B8",
"y+	c #DDCECF",
"z+	c #E9B4B5",
"A+	c #EA7C7C",
"B+	c #ED4949",
"C+	c #EE4747",
"D+	c #EB6B6B",
"E+	c #EBA9A9",
"F+	c #F3E0E0",
"G+	c #FBF9F9",
"H+	c #FBFBFC",
"I+	c #F4F4F4",
"J+	c #E7E7E8",
"K+	c #DDDCDC",
"L+	c #D5D2CF",
"M+	c #D2CDC4",
"N+	c #D3C8B6",
"O+	c #D3C4AA",
"P+	c #C9BAA3",
"Q+	c #374F69",
"R+	c #394D6A",
"S+	c #354C67",
"T+	c #46556C",
"U+	c #767B87",
"V+	c #B3B4B8",
"W+	c #E4E4E5",
"X+	c #F9F5F5",
"Y+	c #F8E5E5",
"Z+	c #EEBBBB",
"`+	c #E79090",
" @	c #E58787",
".@	c #E9A9A9",
"+@	c #F2DBDB",
"@@	c #F7F4F4",
"#@	c #F4F3F3",
"$@	c #EFEFF0",
"%@	c #E4E3E2",
"&@	c #DDDCD9",
"*@	c #D7D3CF",
"=@	c #D3CEC7",
"-@	c #D6C8B3",
";@	c #DAC4A0",
">@	c #E3C48D",
",@	c #E6C17D",
"'@	c #D2AF70",
")@	c #364269",
"!@	c #4A556F",
"~@	c #767C87",
"{@	c #B0B2B6",
"]@	c #E1E2E3",
"^@	c #F9F9F9",
"/@	c #FEFEFE",
"(@	c #FDF9F9",
"_@	c #F7E8E8",
":@	c #F0D3D3",
"<@	c #EBCACA",
"[@	c #ECD7D7",
"}@	c #EAE9E9",
"|@	c #E1DFDD",
"1@	c #DBD8D4",
"2@	c #D7D3CE",
"3@	c #D4CEC5",
"4@	c #D4C8B3",
"5@	c #D6C4A7",
"6@	c #D9C3A0",
"7@	c #E5C48A",
"8@	c #EFC678",
"9@	c #F8C96E",
"0@	c #F9C866",
"a@	c #E1B156",
"b@	c #37466A",
"c@	c #374469",
"d@	c #4A536F",
"e@	c #787C89",
"f@	c #B1B3B6",
"g@	c #E0E1E1",
"h@	c #FCFCFC",
"i@	c #EFEDED",
"j@	c #E9E7E7",
"k@	c #E3E1E0",
"l@	c #DDDBD9",
"m@	c #D7D2CC",
"n@	c #D4CABA",
"o@	c #D6C3A8",
"p@	c #D6C2A2",
"q@	c #DBC29B",
"r@	c #E6C488",
"s@	c #EEC67A",
"t@	c #F2C776",
"u@	c #F9CA6E",
"v@	c #FDCC6B",
"w@	c #FFCE71",
"x@	c #FBCC73",
"y@	c #E2B460",
"z@	c #374B6A",
"A@	c #495370",
"B@	c #7A7F8C",
"C@	c #E0E0E1",
"D@	c #F7F7F7",
"E@	c #F4F4F3",
"F@	c #EBEBEA",
"G@	c #E0E0DE",
"H@	c #D8D6D3",
"I@	c #D4D1CE",
"J@	c #D2CEC9",
"K@	c #D4C8B8",
"L@	c #D8C29F",
"M@	c #E4C38C",
"N@	c #F1C77A",
"O@	c #F4C874",
"P@	c #F6C972",
"Q@	c #FACB6D",
"R@	c #FECD71",
"S@	c #FFCF73",
"T@	c #FFD27E",
"U@	c #FFD99A",
"V@	c #FBDBA8",
"W@	c #E2C08C",
"X@	c #45566D",
"Y@	c #767B89",
"Z@	c #DDDEDE",
"`@	c #EFEEEE",
" #	c #F1F1F0",
".#	c #EBEAE8",
"+#	c #DCDAD5",
"@#	c #D7D4CF",
"##	c #D6D1CA",
"$#	c #D3C9BC",
"%#	c #D1C1AA",
"&#	c #D1BDA0",
"*#	c #D4BE9C",
"=#	c #E4C28B",
"-#	c #F6C974",
";#	c #FBCB6D",
">#	c #FDCC6A",
",#	c #FECD6B",
"'#	c #FECE6F",
")#	c #FFDA9C",
"!#	c #FFDCA3",
"~#	c #FFE1AC",
"{#	c #FFEAC6",
"]#	c #FBEACF",
"^#	c #E2CAA9",
"/#	c #707484",
"(#	c #A8ABAE",
"_#	c #E2E1DF",
":#	c #DFDCD7",
"<#	c #DAD5CE",
"[#	c #D8CFC1",
"}#	c #D5C3A7",
"|#	c #D5BF9E",
"1#	c #D7C09B",
"2#	c #E0C28F",
"3#	c #EDC57D",
"4#	c #F4C773",
"5#	c #F5C872",
"6#	c #FACA6E",
"7#	c #FECD6A",
"8#	c #FFCF6F",
"9#	c #FFD077",
"0#	c #FFD481",
"a#	c #FFD891",
"b#	c #FFDC9B",
"c#	c #FFDFA7",
"d#	c #FFEBCB",
"e#	c #FFEAC9",
"f#	c #FFE7C0",
"g#	c #FFE4B7",
"h#	c #FBD9A0",
"i#	c #E2B977",
"j#	c #9D9EA3",
"k#	c #C2C2C0",
"l#	c #D3CFC8",
"m#	c #D7CEBF",
"n#	c #D7C6AB",
"o#	c #D9C29D",
"p#	c #E0C392",
"q#	c #EEC67B",
"r#	c #F3C674",
"s#	c #F3C673",
"t#	c #F7C86F",
"u#	c #FCCB6A",
"v#	c #FFCD69",
"w#	c #FFD071",
"x#	c #FFD27A",
"y#	c #FFD381",
"z#	c #FFDD9E",
"A#	c #FFE0A6",
"B#	c #FFE5B5",
"C#	c #FFE6BA",
"D#	c #FFE6BD",
"E#	c #FFDDA5",
"F#	c #FFD68F",
"G#	c #FFD382",
"H#	c #FBCC6F",
"I#	c #E2B154",
"J#	c #B0ADA7",
"K#	c #CBC2B1",
"L#	c #D7C5A7",
"M#	c #E0C492",
"N#	c #EAC57F",
"O#	c #F1C674",
"P#	c #F6C870",
"Q#	c #FDCC69",
"R#	c #FFCD68",
"S#	c #FFCF70",
"T#	c #FFD17A",
"U#	c #FFD380",
"V#	c #FFD585",
"W#	c #FFDA97",
"X#	c #FFDFA3",
"Y#	c #FFDFA2",
"Z#	c #FFE4B1",
"`#	c #FFE6B9",
" $	c #FFE3B0",
".$	c #FFE2AB",
"+$	c #FFDC9F",
"@$	c #FFD791",
"#$	c #FFD588",
"$$	c #FFCC66",
"%$	c #FFCB65",
"&$	c #FBC863",
"*$	c #AF9E84",
"=$	c #D6B987",
"-$	c #EAC47F",
";$	c #F5C871",
">$	c #FBCB6B",
",$	c #FECC69",
"'$	c #FFD280",
")$	c #FFD486",
"!$	c #FFD993",
"~$	c #FFDEA3",
"{$	c #FFE0A7",
"]$	c #FFE0A8",
"^$	c #FFE5B8",
"/$	c #FFDDA1",
"($	c #FFD78F",
"_$	c #FFCF72",
":$	c #FFCC67",
"<$	c #FFCC65",
"[$	c #FECB64",
"}$	c #FBC862",
"|$	c #F8C561",
"1$	c #F5C25F",
"2$	c #DBAB52",
"3$	c #B0905E",
"4$	c #E3B764",
"5$	c #F9CB70",
"6$	c #FED17A",
"7$	c #FFD998",
"8$	c #FFE2B3",
"9$	c #FFE3B4",
"0$	c #FFE5B7",
"a$	c #FFDEA0",
"b$	c #FFD37D",
"c$	c #FFD073",
"d$	c #FECB65",
"e$	c #FBC962",
"f$	c #F9C661",
"g$	c #F2C15E",
"h$	c #E6B559",
"i$	c #DCAD55",
"j$	c #D7A954",
"k$	c #BA9350",
"l$	c #B39366",
"m$	c #E8BE76",
"n$	c #FCD692",
"o$	c #FFE0AB",
"p$	c #FFE5B9",
"q$	c #FFE5BC",
"r$	c #FFE9C5",
"s$	c #FFECCE",
"t$	c #FFE3B2",
"u$	c #FFDDA3",
"v$	c #FFDB9B",
"w$	c #FFD688",
"x$	c #FFD279",
"y$	c #FFCC69",
"z$	c #FECC66",
"A$	c #FDCA65",
"B$	c #FAC762",
"C$	c #F5C35F",
"D$	c #E5B658",
"E$	c #DCAC53",
"F$	c #CBA053",
"G$	c #AB8857",
"H$	c #95795A",
"I$	c #90795B",
"J$	c #79695B",
"K$	c #B0A290",
"L$	c #E6D0B4",
"M$	c #FCE8CA",
"N$	c #FFEBC9",
"O$	c #FFDFAB",
"P$	c #FFDDA6",
"Q$	c #FFCD6B",
"R$	c #FECC67",
"S$	c #FBC966",
"T$	c #F9C763",
"U$	c #F5C360",
"V$	c #EAB95A",
"W$	c #E0B053",
"X$	c #DCAC51",
"Y$	c #D1A453",
"Z$	c #AD8B58",
"`$	c #967B5C",
" %	c #846F5D",
".%	c #615A62",
"+%	c #454C64",
"@%	c #455266",
"#%	c #415368",
"$%	c #B19B85",
"%%	c #E6CBA5",
"&%	c #FCE0B4",
"*%	c #FFDEA7",
"=%	c #FFD074",
"-%	c #FFCE72",
";%	c #FFCE70",
">%	c #FECB66",
",%	c #FCC964",
"'%	c #F8C662",
")%	c #F6C461",
"!%	c #F3C260",
"~%	c #E5B75B",
"{%	c #D3A855",
"]%	c #C79E54",
"^%	c #B08D55",
"/%	c #9D7F58",
"(%	c #977D59",
"_%	c #8D755C",
":%	c #686466",
"<%	c #505A6A",
"[%	c #475469",
"}%	c #3D5069",
"|%	c #384E69",
"1%	c #36456A",
"2%	c #B49160",
"3%	c #E9BB6B",
"4%	c #FCCE76",
"5%	c #FECC6B",
"6%	c #FDC963",
"7%	c #F6C45F",
"8%	c #F0BF5E",
"9%	c #E1B45A",
"0%	c #D1A656",
"a%	c #C89E54",
"b%	c #C39B55",
"c%	c #AD8B56",
"d%	c #8E7558",
"e%	c #7C6A5B",
"f%	c #64585F",
"g%	c #514E65",
"h%	c #4F5368",
"i%	c #4E586A",
"j%	c #43596E",
"k%	c #3E5D70",
"l%	c #3D576D",
"m%	c #3C4F6C",
"n%	c #B28C55",
"o%	c #E7B757",
"p%	c #FBC963",
"q%	c #FCC963",
"r%	c #F6C360",
"s%	c #F3C15D",
"t%	c #E8B85C",
"u%	c #CFA557",
"v%	c #BD9755",
"w%	c #A78957",
"x%	c #8A7457",
"y%	c #7B6958",
"z%	c #79665A",
"A%	c #685F61",
"B%	c #4D5765",
"C%	c #424A66",
"D%	c #394266",
"E%	c #344168",
"F%	c #354469",
"G%	c #3D516D",
"H%	c #3A546C",
"I%	c #394F6B",
"J%	c #385169",
"K%	c #374C69",
"L%	c #9D7D56",
"M%	c #EEBC5B",
"N%	c #E4B559",
"O%	c #CFA456",
"P%	c #C59C55",
"Q%	c #C29A54",
"R%	c #B39056",
"S%	c #88745A",
"T%	c #6D625B",
"U%	c #5E5960",
"V%	c #494D63",
"W%	c #404C65",
"X%	c #404D64",
"Y%	c #3E4B67",
"Z%	c #364669",
"`%	c #334766",
" &	c #364D69",
".&	c #3B536B",
"+&	c #354E67",
"@&	c #344768",
"#&	c #344C67",
"$&	c #394A6B",
"%&	c #6C5B5C",
"&&	c #A58354",
"*&	c #BE9753",
"=&	c #AC8A53",
"-&	c #836E55",
";&	c #6E6459",
">&	c #6A625A",
",&	c #615C5C",
"'&	c #4A5164",
")&	c #3C4767",
"!&	c #384467",
"~&	c #344167",
"{&	c #364569",
"]&	c #3B4D6B",
"^&	c #334767",
"/&	c #334B66",
"(&	c #324767",
"      . + @ # $ % & *   = - ; > , ' ) ! ~ { ]     ^ / ( ",
"_ : < [ } | 1 2 3 _ 4 5 6 7 8 9 0 a b c d e f g 4 h i j ",
"_ k l m n o p q r s t u v w x y z A B C D E F G H I J K ",
"L M N O < ! P Q R S T U V W X Y Z `  ...+.@.#.$.%.&.*.=.",
"-.K ;.>.% ,.l '.).!.~.{.].^./.(._.:.<.[.}.|.1.2.3.4.5.6.",
"7.8.9.0.a.b.  c.d.e.f.g.h.i.j.k.l.m.n.o.p.q.r.s.t.u.v.w.",
"x.y.z.. @ A.9.B.C.D.E.F.G.H.I.J.K.L.M.N.O.P.Q.R.s.S.T.U.",
"V.W.X.Y.Z.. `. +.+++@+#+$+%+&+*+=+-+;+>+,+'+)+!+O.~+{+]+",
"^+^+/+f (+_+:+<+[+}+|+#+1+2+3+4+5+6+l.7+m.~+8+9+P.M.0+a+",
"b+2 c+c+4 v d+e+f+g+h+i+j+k+l+m+n+o+R.(.p+Q.-+q+r+s+t+u+",
"< 2 4 W.v+w+x x+y+z+A+B+C+D+E+F+G+H+R.I+!+J+K+L+M+N+O+P+",
"Q+R+A.S+T+U+V+W+X+Y+Z+`+ @.@+@@@#@$@Q.%@&@*@=@-@;@>@,@'@",
"P _ )@!@~@{@]@^@/@(@_@:@<@[@5+}@|@1@2@3@4@5@6@7@8@9@0@a@",
"b@c@d@e@f@g@R.o+h@^@#@i@j@k@l@m@n@o@p@q@r@s@t@u@v@w@x@y@",
"z@A@B@V+C@D@^@E@!+F@G@H@I@J@K@L@M@N@O@P@Q@v@R@S@T@U@V@W@",
"X@Y@V+Z@`@ #.#+#@###$#%#&#*#=#-#;#>#,#'#S@T@)#!#~#{#]#^#",
"/#(#9+_#:#<#[#}#|#1#2#3#4#5#6#7#8#9#0#a#b#c#d#e#f#g#h#i#",
"j#k#l#m#n#o#p#q#r#s#t#u#v#w#x#y#a#z#A#B#C#g#D#E#F#G#H#I#",
"J#K#L#M#N#O#P#Q#R#S#T#U#V#W#X#Y#Z#`# $.$+$@$#$S@$$%$&$I#",
"*$=$-$;$>$,$w@'$)$!$~${$]$^$C#A#A#/$($y#_$:$<$[$}$|$1$2$",
"3$4$5$6$G#)$7$8$9$0$`#.$a${$+$V#b$c$v#$$d$e$f$g$h$i$j$k$",
"l$m$n$o$p$q$r$s$t$u$v$w$x#x$_$y$z$A$&$B$C$D$E$F$G$H$I$J$",
"K$L$M$N$^$o$O$P$)$S@S#Q$R$R$S$T$U$V$W$X$Y$Z$`$ %.%+%@%#%",
"$%%%&%*%#$=%-%;%,$>%,%'%)%!%~%{%]%^%/%(%_%:%<%[%}%|%@ 1%",
"2%3%4%S@5%z$d$6%7%8%9%0%a%b%c%d%e%f%g%h%i%j%k%l%m%= ; - ",
"n%o%p%q%r%s%s%t%u%v%w%x%y%z%A%B%C%D%E%F%  G%H%I%  /+J%K%",
"L%j$M%N%O%P%Q%R%S%T%U%V%W%X%Y%Z%`%( b+Z. &.&+&J @&^ #&$&",
"%&&&*&=&-&;&>&,&'&)&!&~&4 4 {&$&>.e +&+&]&f ( ^&/&(&- 2 "};
