/* XPM */
static char * ply_r1_xpm[] = {
"28 28 515 2",
"  	c #3A4A6B",
". 	c #364869",
"+ 	c #374D68",
"@ 	c #374769",
"# 	c #3B4C6B",
"$ 	c #3C4C6C",
"% 	c #3A4B6B",
"& 	c #3A576B",
"* 	c #3A566B",
"= 	c #38486A",
"- 	c #324667",
"; 	c #344768",
"> 	c #364F69",
", 	c #3B506B",
"' 	c #3E516D",
") 	c #435870",
"! 	c #3D506D",
"~ 	c #38496B",
"{ 	c #344468",
"] 	c #364768",
"^ 	c #354369",
"/ 	c #324966",
"( 	c #334268",
"_ 	c #334068",
": 	c #344268",
"< 	c #3C4E6C",
"[ 	c #3E556E",
"} 	c #405A6F",
"| 	c #40546E",
"1 	c #3F536D",
"2 	c #39496B",
"3 	c #344369",
"4 	c #334067",
"5 	c #313F66",
"6 	c #314A64",
"7 	c #334A65",
"8 	c #394969",
"9 	c #364668",
"0 	c #364669",
"a 	c #3A536B",
"b 	c #3D596D",
"c 	c #3E526D",
"d 	c #40576F",
"e 	c #384A6A",
"f 	c #364E69",
"g 	c #394A6A",
"h 	c #364569",
"i 	c #324068",
"j 	c #324867",
"k 	c #324C66",
"l 	c #344368",
"m 	c #364469",
"n 	c #3B4D6C",
"o 	c #394E6B",
"p 	c #3C556C",
"q 	c #3D586E",
"r 	c #3B556C",
"s 	c #3C526C",
"t 	c #344465",
"u 	c #2C3855",
"v 	c #503D3B",
"w 	c #503E3C",
"x 	c #523F3D",
"y 	c #354A59",
"z 	c #3A536A",
"A 	c #394E69",
"B 	c #37506A",
"C 	c #344C67",
"D 	c #334867",
"E 	c #334567",
"F 	c #344D67",
"G 	c #384B6A",
"H 	c #354769",
"I 	c #3B4E6B",
"J 	c #3C516C",
"K 	c #39506B",
"L 	c #34475B",
"M 	c #513E3C",
"N 	c #5C4745",
"O 	c #755B59",
"P 	c #816864",
"Q 	c #8F7772",
"R 	c #826965",
"S 	c #5D4846",
"T 	c #2C3555",
"U 	c #38476A",
"V 	c #37466A",
"W 	c #37486A",
"X 	c #384B6B",
"Y 	c #3B536C",
"Z 	c #365069",
"` 	c #374D6A",
" .	c #3A4C6B",
"..	c #394B6B",
"+.	c #33415A",
"@.	c #5B4644",
"#.	c #765C5A",
"$.	c #836A66",
"%.	c #9F8782",
"&.	c #A48C86",
"*.	c #A38B85",
"=.	c #A08883",
"-.	c #846B67",
";.	c #765D5A",
">.	c #2D3655",
",.	c #323F66",
"'.	c #37496A",
").	c #3D576D",
"!.	c #3B4F6C",
"~.	c #384E6B",
"{.	c #37456A",
"].	c #37476A",
"^.	c #384F6A",
"/.	c #3C536C",
"(.	c #394D6A",
"_.	c #32415A",
":.	c #7C6360",
"<.	c #98817B",
"[.	c #B29B94",
"}.	c #AB948E",
"|.	c #937B76",
"1.	c #AA938C",
"2.	c #B29B95",
"3.	c #9A827C",
"4.	c #7D6460",
"5.	c #314158",
"6.	c #374D69",
"7.	c #3A4F6C",
"8.	c #3B4E6C",
"9.	c #394A6B",
"0.	c #3A526B",
"a.	c #354B68",
"b.	c #344C68",
"c.	c #334262",
"d.	c #53403E",
"e.	c #775D5A",
"f.	c #99817C",
"g.	c #B19A94",
"h.	c #AB938D",
"i.	c #98807A",
"j.	c #AA928C",
"k.	c #9A837D",
"l.	c #564240",
"m.	c #344761",
"n.	c #364D69",
"o.	c #384F69",
"p.	c #364C68",
"q.	c #344968",
"r.	c #344569",
"s.	c #324268",
"t.	c #324467",
"u.	c #324865",
"v.	c #2C3B55",
"w.	c #AD968F",
"x.	c #9B837D",
"y.	c #624D4B",
"z.	c #323E56",
"A.	c #354767",
"B.	c #344B67",
"C.	c #384C69",
"D.	c #39486B",
"E.	c #39496A",
"F.	c #364665",
"G.	c #765C59",
"H.	c #8D7570",
"I.	c #88706C",
"J.	c #8C736F",
"K.	c #8A726D",
"L.	c #8B736E",
"M.	c #89716C",
"N.	c #8C7470",
"O.	c #324763",
"P.	c #39546A",
"Q.	c #334168",
"R.	c #323F68",
"S.	c #2F3C63",
"T.	c #785E5C",
"U.	c #7D6461",
"V.	c #7E6562",
"W.	c #89706C",
"X.	c #775D5B",
"Y.	c #866E69",
"Z.	c #314162",
"`.	c #2F3F63",
" +	c #89716D",
".+	c #917469",
"++	c #8F7269",
"@+	c #947569",
"#+	c #7E625B",
"$+	c #876E6A",
"%+	c #6A5351",
"&+	c #393A44",
"*+	c #365266",
"=+	c #334667",
"-+	c #374F69",
";+	c #374B69",
">+	c #304762",
",+	c #735A57",
"'+	c #816965",
")+	c #786159",
"!+	c #655040",
"~+	c #725B50",
"{+	c #927469",
"]+	c #AA8869",
"^+	c #856B50",
"/+	c #BD9775",
"(+	c #BA9379",
"_+	c #8C7068",
":+	c #393446",
"<+	c #344264",
"[+	c #334768",
"}+	c #384C6A",
"|+	c #3A526A",
"1+	c #3B4C6C",
"2+	c #344169",
"3+	c #354465",
"4+	c #705654",
"5+	c #786449",
"6+	c #9A8359",
"7+	c #806849",
"8+	c #70594E",
"9+	c #B99980",
"0+	c #BDA786",
"a+	c #635843",
"b+	c #706652",
"c+	c #D0B38F",
"d+	c #F0C397",
"e+	c #8B6F56",
"f+	c #393746",
"g+	c #354364",
"h+	c #384D69",
"i+	c #385269",
"j+	c #38496A",
"k+	c #745A57",
"l+	c #846C68",
"m+	c #675144",
"n+	c #907E54",
"o+	c #EAC597",
"p+	c #B58E66",
"q+	c #957B63",
"r+	c #C7AC90",
"s+	c #F1E3CC",
"t+	c #7C7375",
"u+	c #82797D",
"v+	c #E6D1B2",
"w+	c #F3C99C",
"x+	c #7F6942",
"y+	c #2C3C5A",
"z+	c #354869",
"A+	c #364B69",
"B+	c #324767",
"C+	c #334A67",
"D+	c #354569",
"E+	c #364B6A",
"F+	c #36456A",
"G+	c #313D65",
"H+	c #2F334A",
"I+	c #624B49",
"J+	c #8D784F",
"K+	c #D3AA80",
"L+	c #C39970",
"M+	c #E0BF99",
"N+	c #E3C6A0",
"O+	c #FCEED6",
"P+	c #928074",
"Q+	c #634731",
"R+	c #CEB189",
"S+	c #ECBA8F",
"T+	c #7C623C",
"U+	c #2C4159",
"V+	c #354968",
"W+	c #36446A",
"X+	c #364D68",
"Y+	c #394F6B",
"Z+	c #354D69",
"`+	c #334468",
" @	c #2F3D60",
".@	c #7A615E",
"+@	c #6C544C",
"@@	c #776045",
"#@	c #A87F59",
"$@	c #D5A27A",
"%@	c #FAD7A7",
"&@	c #FFE1AF",
"*@	c #FFE8C3",
"=@	c #B48B5B",
"-@	c #7B4000",
";@	c #D0A770",
">@	c #CF9E77",
",@	c #705732",
"'@	c #2D3C5B",
")@	c #364969",
"!@	c #39506A",
"~@	c #3E5B6F",
"{@	c #324168",
"]@	c #334B67",
"^@	c #384B69",
"/@	c #344666",
"(@	c #2F344C",
"_@	c #604A48",
":@	c #916951",
"<@	c #DB9875",
"[@	c #EAB78D",
"}@	c #E5BD84",
"|@	c #D2A264",
"1@	c #E0AD7C",
"2@	c #98764F",
"3@	c #394148",
"4@	c #354D65",
"5@	c #364A6A",
"6@	c #3A4D6A",
"7@	c #384C6C",
"8@	c #3A4E6B",
"9@	c #3A556B",
"0@	c #3A516B",
"a@	c #364566",
"b@	c #31364E",
"c@	c #6A514F",
"d@	c #8B6556",
"e@	c #C38562",
"f@	c #F5CC9E",
"g@	c #EDBC91",
"h@	c #D1A47B",
"i@	c #9D7852",
"j@	c #3C3F47",
"k@	c #304462",
"l@	c #334369",
"m@	c #364A69",
"n@	c #394E6A",
"o@	c #354469",
"p@	c #334668",
"q@	c #344269",
"r@	c #384E6C",
"s@	c #3F5E71",
"t@	c #3D566B",
"u@	c #354050",
"v@	c #453D42",
"w@	c #343D4B",
"x@	c #5A4543",
"y@	c #614B3B",
"z@	c #765B36",
"A@	c #82613D",
"B@	c #866943",
"C@	c #8A724A",
"D@	c #866842",
"E@	c #765A35",
"F@	c #373B46",
"G@	c #2F4261",
"H@	c #334767",
"I@	c #38536A",
"J@	c #354E67",
"K@	c #365068",
"L@	c #365067",
"M@	c #344E68",
"N@	c #365168",
"O@	c #3F536E",
"P@	c #3B4F69",
"Q@	c #303D5E",
"R@	c #304059",
"S@	c #797374",
"T@	c #96918E",
"U@	c #798B53",
"V@	c #628F0B",
"W@	c #64910B",
"X@	c #768A4F",
"Y@	c #979389",
"Z@	c #7C786E",
"`@	c #343F59",
" #	c #334868",
".#	c #374669",
"+#	c #3A496B",
"@#	c #3D546C",
"##	c #40546F",
"$#	c #374869",
"%#	c #3E506D",
"&#	c #354461",
"*#	c #6E6F76",
"=#	c #CDCDD0",
"-#	c #EAEAEC",
";#	c #C8D1C0",
">#	c #91BC48",
",#	c #7FC400",
"'#	c #72B01D",
")#	c #97AF82",
"!#	c #909092",
"~#	c #35415A",
"{#	c #3C546C",
"]#	c #3C576C",
"^#	c #3B526B",
"/#	c #3A4F6B",
"(#	c #324B66",
"_#	c #394E6C",
":#	c #40536E",
"<#	c #3A4D6B",
"[#	c #394C6A",
"}#	c #D1D1D4",
"|#	c #F9F9FA",
"1#	c #F4F4F5",
"2#	c #BBBBBE",
"3#	c #87A649",
"4#	c #87CB00",
"5#	c #80C500",
"6#	c #70AF1B",
"7#	c #447925",
"8#	c #304057",
"9#	c #39526A",
"0#	c #394F6A",
"a#	c #354C68",
"b#	c #39566C",
"c#	c #3E546D",
"d#	c #3D516C",
"e#	c #354868",
"f#	c #2F425E",
"g#	c #5C4C3D",
"h#	c #D1A385",
"i#	c #F9E9CF",
"j#	c #BFBFC2",
"k#	c #758F5C",
"l#	c #6EAD0E",
"m#	c #70B700",
"n#	c #408F00",
"o#	c #1C6500",
"p#	c #304357",
"q#	c #3C4F6C",
"r#	c #36486A",
"s#	c #344668",
"t#	c #384D6A",
"u#	c #39536A",
"v#	c #2E3A5E",
"w#	c #745934",
"x#	c #E2A781",
"y#	c #FFE3B4",
"z#	c #D4C5AB",
"A#	c #757267",
"B#	c #45621C",
"C#	c #5AA400",
"D#	c #4A6927",
"E#	c #31581B",
"F#	c #2E4257",
"G#	c #3D556D",
"H#	c #3D546D",
"I#	c #3A506B",
"J#	c #384E69",
"K#	c #374969",
"L#	c #374A69",
"M#	c #354F68",
"N#	c #374A6A",
"O#	c #39486A",
"P#	c #354259",
"Q#	c #886742",
"R#	c #DD9C77",
"S#	c #AD805D",
"T#	c #60503A",
"U#	c #5E5138",
"V#	c #67633D",
"W#	c #8F866B",
"X#	c #9D957C",
"Y#	c #A8978A",
"Z#	c #9B8C7E",
"`#	c #5E5542",
" $	c #33425C",
".$	c #3D526C",
"+$	c #3E586F",
"@$	c #3E5D70",
"#$	c #344767",
"$$	c #344568",
"%$	c #354359",
"&$	c #614F29",
"*$	c #685133",
"=$	c #745748",
"-$	c #675139",
";$	c #62503A",
">$	c #826966",
",$	c #927A75",
"'$	c #916F62",
")$	c #9E755C",
"!$	c #A17B5A",
"~$	c #615137",
"{$	c #33415D",
"]$	c #3D516D",
"^$	c #3A546C",
"/$	c #385169",
"($	c #374C69",
"_$	c #38526A",
":$	c #384E6A",
"<$	c #3A4B6A",
"[$	c #324356",
"}$	c #544722",
"|$	c #564824",
"1$	c #333945",
"2$	c #303A4B",
"3$	c #564926",
"4$	c #69533B",
"5$	c #926D55",
"6$	c #A67D5C",
"7$	c #A77E5D",
"8$	c #6E5934",
"9$	c #2F425A",
"0$	c #3B536B",
"a$	c #344868",
"b$	c #344A68",
"c$	c #375069",
"d$	c #354E68",
"e$	c #364C69",
"f$	c #344367",
"g$	c #324066",
"h$	c #313F67",
"i$	c #323F67",
"j$	c #354467",
"k$	c #343A4B",
"l$	c #554823",
"m$	c #564923",
"n$	c #2E4155",
"o$	c #3B4D6A",
"p$	c #334B66",
"      . + @ # $ % & *   = - ; > , ' ) ! ~ { ]     ^ / ( ",
"_ : < [ } | 1 2 3 4 5 6 7 8 9 0 a b c d e f g h i j k l ",
"_ m n o p q r s t u v w x x x x w v y z A B C D E E F G ",
"H I J K < ! % L M N O P Q Q Q Q R O S M T _ U V W X Y Z ",
"` G s  .% ..+.@.#.$.%.&.Q Q Q Q *.=.-.;.N >.,.'.).q !.~.",
"{.].^./.(._.@.:.<.[.}.|.Q Q Q Q |.1.2.3.4.N 5.6.7.8.9.3 ",
"0.a.b.. c.d.e.Q Q f.g.h.i.i.i.i.j.[.k.Q Q 4.l.m.n.o.p.q.",
"r.s.t.u.v.N 4.Q Q Q 3.w.w.w.w.w.w.x.Q Q Q Q y.z.A.B.C.G ",
"D.D.E.F.x G.H.I.Q Q Q J.K.Q Q K.L.Q Q M.N.Q e.d.O.P.r.Q.",
"Q.2 R.S.x G.I.T.Q Q Q $.U.Q Q V.R Q W.X.Y.Q e.d.Z.t.- i ",
"< 2 i `.x G.I.T.Q Q L.:.U.Q  +.+++-.@+#+Y.$+%+&+*+H _ =+",
"-+(.;+>+x ,+'+P Q L.)+!+~+$.{+]+^+!+/+(+_+%+:+<+[+}+% |+",
"1+_ 2+3+x 4+e.Q L.)+5+6+7+8+9+0+a+b+c+d+e+f+g+g G h+i+j+",
"V ^ m t x 4+k+l+Y.m+n+o+p+q+r+s+t+u+v+w+x+y+z+A+B+s.C+D+",
"E+F+= G+H+I+4+T.Y.m+J+K+L+M+N+O+P+Q+R+S+T+U+V+G W+F+X+Y+",
"Z+`+= R. @d.4+k+.@+@@@#@$@%@&@*@=@-@;@>@,@'@U U ^ )@!@~@",
"{@]@0.^@/@(@_@4+4+4++@:@<@[@%@&@}@|@1@2@3@4@a 5@t.D 6@7@",
"R.g 8@9@0@a@b@_@c@I+4+d@e@<@[@f@g@h@i@j@k@l@l@m@n@g o@( ",
"2 o p@q@r@s@t@u@v@w@x@y@z@A@B@C@D@E@F@G@_ _ _ Q.H@I@* % ",
"J@K@L@M@N@0.O@P@Q@R@S@T@U@V@W@X@Y@Z@`@Q. #B..## % +#; - ",
"@###' $#A %## F+&#*#=#-#;#>#,#'#)#!#~#% n {#]#^#/#)@ #(#",
"_#! :#< <#[#[#&#*#}#|#1#2#3#4#5#6#7#8#F+e 9#0#U W+'.9@a#",
"b#c#d#8@e#=+f#g#h#i#1#j#k#l#4#m#n#o#p#6.<#q#< ..r#s#!@0.",
"=+t#9@u#s#R.v#w#x#y#z#A#B#n#C#n#D#E#F#z 8@G#H#I#^.J#@ F+",
"K#L#M#N#O#V 8 P#Q#R#S#T#U#V#W#X#Y#Z#`# $.$+$@$).q#= #$- ",
"o@$$- _ ^ O#' ' %$&$*$=$-$;$>$,$'$)$!$~${$]$^$Y+  E./$($",
"R._ G _$:$  <$% a [$}$|$1$2$3$4$5$6$7$8$9$0$J@F ; ^ C 9.",
"R._ E.a$b$/$c$d$e$0 f$g$h$i$j$k$l$m$m$n$o$g ( H@p$B+- 2 "};
