/* XPM */
static char * ply_l2_xpm[] = {
"28 28 480 2",
"  	c #3A4A6B",
". 	c #364869",
"+ 	c #374D68",
"@ 	c #374769",
"# 	c #3B4C6B",
"$ 	c #3C4C6C",
"% 	c #3A4B6B",
"& 	c #3A576B",
"* 	c #3A566B",
"= 	c #38486A",
"- 	c #324667",
"; 	c #344768",
"> 	c #364F69",
", 	c #3B506B",
"' 	c #3E516D",
") 	c #435870",
"! 	c #3D506D",
"~ 	c #38496B",
"{ 	c #344468",
"] 	c #364768",
"^ 	c #354369",
"/ 	c #324966",
"( 	c #334268",
"_ 	c #334068",
": 	c #344268",
"< 	c #3C4E6C",
"[ 	c #3E556E",
"} 	c #405A6F",
"| 	c #40546E",
"1 	c #3F536D",
"2 	c #39496B",
"3 	c #334267",
"4 	c #313E64",
"5 	c #393343",
"6 	c #503D3B",
"7 	c #513F3D",
"8 	c #523F3D",
"9 	c #3C3A45",
"0 	c #3E546B",
"a 	c #374968",
"b 	c #364E69",
"c 	c #394A6A",
"d 	c #364569",
"e 	c #324068",
"f 	c #324867",
"g 	c #324C66",
"h 	c #344368",
"i 	c #364469",
"j 	c #3B4D6C",
"k 	c #394E6B",
"l 	c #3C556C",
"m 	c #3D586E",
"n 	c #3B556C",
"o 	c #3B5069",
"p 	c #353648",
"q 	c #6B5350",
"r 	c #795F5D",
"s 	c #8C746F",
"t 	c #8F7772",
"u 	c #363A48",
"v 	c #354D66",
"w 	c #344C67",
"x 	c #334867",
"y 	c #334567",
"z 	c #344D67",
"A 	c #384B6A",
"B 	c #354769",
"C 	c #3B4E6B",
"D 	c #3C516C",
"E 	c #39506B",
"F 	c #384967",
"G 	c #373E4C",
"H 	c #68514F",
"I 	c #7C6360",
"J 	c #917874",
"K 	c #AA928C",
"L 	c #937C76",
"M 	c #333349",
"N 	c #364465",
"O 	c #37466A",
"P 	c #37486A",
"Q 	c #384B6B",
"R 	c #3B536C",
"S 	c #365069",
"T 	c #374D6A",
"U 	c #3C526C",
"V 	c #3A4C6B",
"W 	c #374867",
"X 	c #363A4C",
"Y 	c #866D69",
"Z 	c #A18A84",
"` 	c #B49D96",
" .	c #A18983",
"..	c #917974",
"+.	c #344565",
"@.	c #3D576D",
"#.	c #3B4F6C",
"$.	c #384E6B",
"%.	c #37456A",
"&.	c #37476A",
"*.	c #384F6A",
"=.	c #3C536C",
"-.	c #3A4E6B",
";.	c #323F59",
">.	c #614C49",
",.	c #856C68",
"'.	c #A18984",
").	c #9D8680",
"!.	c #806663",
"~.	c #5C4745",
"{.	c #304058",
"].	c #3A4F6C",
"^.	c #3B4E6C",
"/.	c #394A6B",
"(.	c #344369",
"_.	c #3A526B",
":.	c #354B68",
"<.	c #344C68",
"[.	c #344363",
"}.	c #363848",
"|.	c #725B58",
"1.	c #A68E88",
"2.	c #866E69",
"3.	c #6A5351",
"4.	c #373A49",
"5.	c #334863",
"6.	c #384F69",
"7.	c #364C68",
"8.	c #344968",
"9.	c #344569",
"0.	c #324268",
"a.	c #324467",
"b.	c #334966",
"c.	c #2D3D59",
"d.	c #594543",
"e.	c #7D6461",
"f.	c #89716D",
"g.	c #826965",
"h.	c #8E7671",
"i.	c #88706C",
"j.	c #876F6A",
"k.	c #5A4543",
"l.	c #2F3E5A",
"m.	c #344B67",
"n.	c #384C69",
"o.	c #39486B",
"p.	c #39496A",
"q.	c #32445B",
"r.	c #795F5C",
"s.	c #8A726D",
"t.	c #745B58",
"u.	c #8D7570",
"v.	c #2F415B",
"w.	c #39546A",
"x.	c #334168",
"y.	c #323F68",
"z.	c #2F3D63",
"A.	c #313649",
"B.	c #A4816E",
"C.	c #8F7267",
"D.	c #7B625F",
"E.	c #B79178",
"F.	c #806661",
"G.	c #725856",
"H.	c #7F6663",
"I.	c #2E3C5A",
"J.	c #324967",
"K.	c #2F4562",
"L.	c #333649",
"M.	c #A78471",
"N.	c #E1B38D",
"O.	c #856C4C",
"P.	c #5B4B30",
"Q.	c #7A653F",
"R.	c #C59C7C",
"S.	c #775E59",
"T.	c #625039",
"U.	c #8B736E",
"V.	c #745A58",
"W.	c #324A5C",
"X.	c #334667",
"Y.	c #374F69",
"Z.	c #394D6A",
"`.	c #374B69",
" +	c #334B67",
".+	c #303E63",
"++	c #343446",
"@+	c #AE8C67",
"#+	c #F7D0A1",
"$+	c #CEC3B1",
"%+	c #534641",
"&+	c #A9A59D",
"*+	c #F7D7AA",
"=+	c #615132",
"-+	c #CFA87E",
";+	c #BFA77B",
">+	c #705654",
",+	c #384C6A",
"'+	c #3A526A",
")+	c #3B4C6C",
"!+	c #344169",
"~+	c #344A68",
"{+	c #344868",
"]+	c #344269",
"^+	c #32394D",
"/+	c #AC8B62",
"(+	c #F9D4A5",
"_+	c #B8AB9E",
":+	c #46383B",
"<+	c #D3D1D1",
"[+	c #FEE2B4",
"}+	c #D4A980",
"|+	c #B58A63",
"1+	c #DAC091",
"2+	c #846B67",
"3+	c #31405B",
"4+	c #384D69",
"5+	c #385269",
"6+	c #38496A",
"7+	c #374E69",
"8+	c #9F734F",
"9+	c #F1C599",
"0+	c #8D6639",
"a+	c #5A2F04",
"b+	c #E6E0DA",
"c+	c #FFE3B5",
"d+	c #F7D9AB",
"e+	c #F7D7A6",
"f+	c #A97B56",
"g+	c #CEA67C",
"h+	c #5D4846",
"i+	c #2E3C54",
"j+	c #314666",
"k+	c #334A67",
"l+	c #354569",
"m+	c #364B6A",
"n+	c #36456A",
"o+	c #334767",
"p+	c #31394C",
"q+	c #7D5E3A",
"r+	c #DCB98C",
"s+	c #B47932",
"t+	c #964F00",
"u+	c #F0CC96",
"v+	c #FFE1AF",
"w+	c #ECBB90",
"x+	c #C48663",
"y+	c #594A2C",
"z+	c #303E57",
"A+	c #36446A",
"B+	c #364D68",
"C+	c #394F6B",
"D+	c #354D69",
"E+	c #334468",
"F+	c #324267",
"G+	c #334967",
"H+	c #35434E",
"I+	c #9E704F",
"J+	c #ECC396",
"K+	c #FBDBAA",
"L+	c #FEDEAD",
"M+	c #FEDFAD",
"N+	c #D7906E",
"O+	c #C58668",
"P+	c #6F5553",
"Q+	c #6E5553",
"R+	c #5A4546",
"S+	c #303955",
"T+	c #38476A",
"U+	c #364969",
"V+	c #39506A",
"W+	c #3E5B6F",
"X+	c #324168",
"Y+	c #384B69",
"Z+	c #334368",
"`+	c #364769",
" @	c #37444E",
".@	c #7B5D3D",
"+@	c #B9805D",
"@@	c #D5A77E",
"#@	c #D8AD83",
"$@	c #C18461",
"%@	c #8D6747",
"&@	c #6B5250",
"*@	c #5E4949",
"=@	c #4F3F42",
"-@	c #574646",
";@	c #304053",
">@	c #3A536B",
",@	c #364A6A",
"'@	c #3A4D6A",
")@	c #384C6C",
"!@	c #3A556B",
"~@	c #3A516B",
"{@	c #374569",
"]@	c #374669",
"^@	c #3C4F6C",
"/@	c #40556E",
"(@	c #404646",
"_@	c #655C3F",
":@	c #685F42",
"<@	c #545A1D",
"[@	c #5E631A",
"}@	c #685E45",
"|@	c #615352",
"1@	c #3B3A46",
"2@	c #2D4159",
"3@	c #2D3951",
"4@	c #334369",
"5@	c #364A69",
"6@	c #394E6A",
"7@	c #354469",
"8@	c #334668",
"9@	c #384E6C",
"0@	c #3F5E71",
"a@	c #40596F",
"b@	c #3E556C",
"c@	c #395369",
"d@	c #4D525C",
"e@	c #A9A9AD",
"f@	c #9EB08D",
"g@	c #64AA0A",
"h@	c #87CB00",
"i@	c #74A740",
"j@	c #CCCCCE",
"k@	c #BDBDC0",
"l@	c #63656C",
"m@	c #2E405E",
"n@	c #38536A",
"o@	c #354E67",
"p@	c #365068",
"q@	c #365067",
"r@	c #344E68",
"s@	c #365168",
"t@	c #3F536E",
"u@	c #3E526D",
"v@	c #354A69",
"w@	c #3A4A4A",
"x@	c #859F6F",
"y@	c #6AAD11",
"z@	c #84C900",
"A@	c #A7A7AA",
"B@	c #FFFFFF",
"C@	c #F2F2F3",
"D@	c #ADADB1",
"E@	c #444858",
"F@	c #334868",
"G@	c #3A496B",
"H@	c #3D546C",
"I@	c #40546F",
"J@	c #374869",
"K@	c #394E69",
"L@	c #3E506D",
"M@	c #21443A",
"N@	c #338000",
"O@	c #68B100",
"P@	c #85CA00",
"Q@	c #7F7F81",
"R@	c #F1F1F3",
"S@	c #F7F7F8",
"T@	c #464C5A",
"U@	c #3C546C",
"V@	c #3C576C",
"W@	c #3B526B",
"X@	c #3A4F6B",
"Y@	c #324B66",
"Z@	c #394E6C",
"`@	c #40536E",
" #	c #3A4D6B",
".#	c #394C6A",
"+#	c #1D3F38",
"@#	c #3D6221",
"##	c #3B8406",
"$#	c #68B000",
"%#	c #6CB400",
"&#	c #6E6855",
"*#	c #EFE0C8",
"=#	c #F9E8D0",
"-#	c #BFAC99",
";#	c #3D404C",
">#	c #384A6A",
",#	c #39526A",
"'#	c #394F6A",
")#	c #37496A",
"!#	c #354C68",
"~#	c #39566C",
"{#	c #3E546D",
"]#	c #3D516C",
"^#	c #354868",
"/#	c #334866",
"(#	c #2B3D57",
"_#	c #4A4537",
":#	c #6A7B4A",
"<#	c #899C57",
"[#	c #80934D",
"}#	c #5F522B",
"|#	c #F9D4A4",
"1#	c #B88963",
"2#	c #363C43",
"3#	c #394B6B",
"4#	c #36486A",
"5#	c #344668",
"6#	c #384D6A",
"7#	c #39536A",
"8#	c #334169",
"9#	c #394D6B",
"0#	c #3C566C",
"a#	c #3B546B",
"b#	c #3F3C36",
"c#	c #8D776D",
"d#	c #B59E97",
"e#	c #A48D87",
"f#	c #887562",
"g#	c #907E54",
"h#	c #8D784F",
"i#	c #5F4D3F",
"j#	c #344A5E",
"k#	c #3D556D",
"l#	c #3D546D",
"m#	c #3A506B",
"n#	c #384E69",
"o#	c #374969",
"p#	c #374A69",
"q#	c #354F68",
"r#	c #374A6A",
"s#	c #39486A",
"t#	c #3D4F6D",
"u#	c #40566E",
"v#	c #3E596E",
"w#	c #35455F",
"x#	c #564C3A",
"y#	c #946F5E",
"z#	c #A68269",
"A#	c #8F6A59",
"B#	c #69513A",
"C#	c #443D32",
"D#	c #2F3B5E",
"E#	c #3D526C",
"F#	c #3E586F",
"G#	c #3E5D70",
"H#	c #344767",
"I#	c #344568",
"J#	c #3F526E",
"K#	c #3C5A6E",
"L#	c #453F31",
"M#	c #9B7455",
"N#	c #A77E5D",
"O#	c #8A5E4A",
"P#	c #725644",
"Q#	c #3E3A36",
"R#	c #3D516D",
"S#	c #3A546C",
"T#	c #385169",
"U#	c #374C69",
"V#	c #38526A",
"W#	c #384E6A",
"X#	c #3A4B6A",
"Y#	c #3B546C",
"Z#	c #3B516B",
"`#	c #394D6C",
" $	c #304562",
".$	c #574A2E",
"+$	c #5F4F2A",
"@$	c #5B4A27",
"#$	c #4A4131",
"$$	c #303E62",
"%$	c #334768",
"&$	c #364D69",
"*$	c #3B536B",
"=$	c #375069",
"-$	c #354E68",
";$	c #364C69",
">$	c #36466A",
",$	c #303E65",
"'$	c #344365",
")$	c #374767",
"!$	c #384A68",
"~$	c #3B4D6B",
"{$	c #334B66",
"]$	c #324767",
"      . + @ # $ % & *   = - ; > , ' ) ! ~ { ]     ^ / ( ",
"_ : < [ } | 1 2 3 4 5 6 7 8 8 8 7 6 9 0 a b c d e f g h ",
"_ i j k l m n o p 8 q r s t t t s r q 8 u v w x y y z A ",
"B C D E < ! F G H I J K L t t t L K J I H M N O P Q R S ",
"T A U V % W X H Y Z `  ...t t t .. .` Z Y H M +.@.m #.$.",
"%.&.*.=.-.;.>.,.t t Z ` '.).).).'.` Z t t !.~.{.].^./.(.",
"_.:.<.. [.}.|.t t t t '.1.1.1.1.1.'.t t t 2.3.4.5.6.7.8.",
"9.0.a.b.c.d.e.t 2.f.t t g.h.t h.g.t t t i.j.e.k.l.m.n.A ",
"o.o.p.c q.d.e.t e.r.s.t t.u.t u.t.t t t g.!.e.k.v.w.9.x.",
"x.2 y.y.z.A.H ,.e.B.C.D.E.F.t u.G.H.t t g.!.e.k.I.a.- e ",
"< 2 e 0.J.K.L.H M.N.O.P.Q.R.r S.P.T.H.t U.!.V.k.W.B _ X.",
"Y.Z.`. +J.- .+++@+#+$+%+&+*+i.=+-+;+T.H.t !.>+k.c.,+% '+",
")+_ !+= ~+{+]+^+/+(+_+:+<+[+t }+|+1+P.D.2+G.>+k.3+4+5+6+",
"O ^ i P 7+`.&.^+8+9+0+a+b+c+d+e+f+g+P.D.g.>+h+i+j+0.k+l+",
"m+n+= y.e - o+p+q+r+s+t+u+v+v+w+x+y+>+>+>+>+~.z+A+n+B+C+",
"D+E+= y.F+o+G+7+H+I+J+K+L+M+w+N+O+>+P+Q+P+R+S+T+^ U+V+W+",
"X+ +_.Y+. Z+{ `+]. @.@+@@@#@x+$@%@&@*@=@-@;@>@,@a.x '@)@",
"y.c -.!@~@= {@]@^@/@(@_@:@<@[@<@}@|@1@2@3@4@4@5@6@c 7@( ",
"2 k 8@]+9@0@a@b@5+c@d@e@f@g@h@i@j@k@l@m@_ _ _ x.o+n@* % ",
"o@p@q@r@s@_.t@u@n+v@w@x@y@z@h@A@B@C@D@E@F@m.]@# % G@; - ",
"H@I@' J@K@L@# n+%   M@N@O@P@h@Q@R@S@k@T@j U@V@W@X@U+F@Y@",
"Z@! `@<  #.#.#% = x.+#@###$#%#&#*#=#-#;#>#,#'#T+A+)#!@!#",
"~#{#]#-.^#X./#Z.^#; (#_#:#<#[#}#v+|#1#2# #^@< 3#4#5#V+_.",
"X.6#!@7#5#y.8#9#W@0#a#b#c#d#e#f#g#h#i#j#-.k#l#m#*.n#@ n+",
"o#p#q#r#s#O   t#u@u#v#w#x#y#z#A#B#C#D#V E#F#G#@.^@= H#- ",
"7@I#- _ ^ s#' J#! u@K#'+L#M#N#O#P#Q#x.7@  R#S#C+  p.T#U#",
"y._ A V#W#  X#% Y#Z#`#B  $.$+$@$#$$$x.%$&$*$o@z ; ^ w /.",
"y._ p.{+~+T#=$-$;$>$7@x.e ,$'$)$!$B+o@o@~$c ( o+{$]$- 2 "};
