/* XPM */
static char * ply_r3_xpm[] = {
"28 28 512 2",
"  	c #3A4A6B",
". 	c #364869",
"+ 	c #374D68",
"@ 	c #374769",
"# 	c #3B4C6B",
"$ 	c #3C4C6C",
"% 	c #3A4B6B",
"& 	c #3A576B",
"* 	c #3A566B",
"= 	c #38486A",
"- 	c #324667",
"; 	c #344768",
"> 	c #364F69",
", 	c #3B506B",
"' 	c #3E516D",
") 	c #435870",
"! 	c #3D506D",
"~ 	c #38496B",
"{ 	c #344468",
"] 	c #364768",
"^ 	c #354369",
"/ 	c #324966",
"( 	c #334268",
"_ 	c #334068",
": 	c #344268",
"< 	c #3C4E6C",
"[ 	c #3E556E",
"} 	c #405A6F",
"| 	c #40546E",
"1 	c #3F536D",
"2 	c #39496B",
"3 	c #344368",
"4 	c #323F66",
"5 	c #2B3554",
"6 	c #4E3C3A",
"7 	c #4F3C3A",
"8 	c #4F3D3B",
"9 	c #36485C",
"0 	c #374968",
"a 	c #364E69",
"b 	c #394A6A",
"c 	c #364569",
"d 	c #324068",
"e 	c #324867",
"f 	c #324C66",
"g 	c #364469",
"h 	c #3B4D6C",
"i 	c #394E6B",
"j 	c #3C556C",
"k 	c #3D586E",
"l 	c #3B556C",
"m 	c #3C526C",
"n 	c #2F3B57",
"o 	c #5C4745",
"p 	c #735A57",
"q 	c #806764",
"r 	c #8F7772",
"s 	c #7F6663",
"t 	c #735957",
"u 	c #5B4644",
"v 	c #30445A",
"w 	c #344B66",
"x 	c #334867",
"y 	c #334567",
"z 	c #344D67",
"A 	c #384B6A",
"B 	c #354769",
"C 	c #3B4E6B",
"D 	c #3C516C",
"E 	c #39506B",
"F 	c #34475B",
"G 	c #755B59",
"H 	c #816865",
"I 	c #A08882",
"J 	c #A38C86",
"K 	c #A58D87",
"L 	c #9F8781",
"M 	c #816764",
"N 	c #755B58",
"O 	c #594543",
"P 	c #313C5A",
"Q 	c #37486A",
"R 	c #384B6B",
"S 	c #3B536C",
"T 	c #365069",
"U 	c #374D6A",
"V 	c #3A4C6B",
"W 	c #394B6B",
"X 	c #33415A",
"Y 	c #7C6360",
"Z 	c #9A827D",
"` 	c #B39C95",
" .	c #AA928C",
"..	c #927A75",
"+.	c #927B75",
"@.	c #AB938D",
"#.	c #99817C",
"$.	c #7B625F",
"%.	c #303E5A",
"&.	c #3C566C",
"*.	c #3B4F6C",
"=.	c #384E6B",
"-.	c #37456A",
";.	c #37476A",
">.	c #384F6A",
",.	c #3C536C",
"'.	c #3A4E6B",
").	c #354663",
"!.	c #55413F",
"~.	c #785E5C",
"{.	c #9B837D",
"].	c #A9928B",
"^.	c #967E79",
"/.	c #AA938C",
"(.	c #B29B95",
"_.	c #9A827C",
":.	c #54413F",
"<.	c #364965",
"[.	c #3B4E6C",
"}.	c #394A6B",
"|.	c #344369",
"1.	c #3A526B",
"2.	c #354B68",
"3.	c #344C68",
"4.	c #364667",
"5.	c #2F3E56",
"6.	c #7D6460",
"7.	c #9B847E",
"8.	c #AE9791",
"9.	c #9A837D",
"0.	c #5F4A48",
"a.	c #2F4158",
"b.	c #374E68",
"c.	c #364C68",
"d.	c #344968",
"e.	c #344569",
"f.	c #324268",
"g.	c #324467",
"h.	c #334966",
"i.	c #304261",
"j.	c #53403E",
"k.	c #775D5A",
"l.	c #8D7570",
"m.	c #89716D",
"n.	c #8C736F",
"o.	c #8B736E",
"p.	c #8B726E",
"q.	c #8C746F",
"r.	c #765C59",
"s.	c #523F3D",
"t.	c #314762",
"u.	c #384C69",
"v.	c #39486B",
"w.	c #39496A",
"x.	c #354963",
"y.	c #876F6A",
"z.	c #795F5D",
"A.	c #826965",
"B.	c #7E6562",
"C.	c #7D6461",
"D.	c #836A66",
"E.	c #89716C",
"F.	c #765D5A",
"G.	c #365065",
"H.	c #334168",
"I.	c #323F68",
"J.	c #2F3B61",
"K.	c #8A716D",
"L.	c #907368",
"M.	c #8D7168",
"N.	c #856C68",
"O.	c #927468",
"P.	c #7C605A",
"Q.	c #6B5351",
"R.	c #393544",
"S.	c #304163",
"T.	c #2F4460",
"U.	c #745B58",
"V.	c #816864",
"W.	c #786159",
"X.	c #665142",
"Y.	c #745D53",
"Z.	c #846B67",
"`.	c #917469",
" +	c #AC896A",
".+	c #856B52",
"++	c #C29B79",
"@+	c #B48E76",
"#+	c #8A6F68",
"$+	c #6A5351",
"%+	c #393A44",
"&+	c #365266",
"*+	c #334667",
"=+	c #374F69",
"-+	c #394D6A",
";+	c #374B69",
">+	c #334B67",
",+	c #705654",
"'+	c #78644A",
")+	c #947E54",
"!+	c #7C6447",
"~+	c #705A50",
"{+	c #BD9B81",
"]+	c #B6A180",
"^+	c #5F543E",
"/+	c #706651",
"(+	c #D2B48E",
"_+	c #F0C296",
":+	c #876C55",
"<+	c #393545",
"[+	c #344264",
"}+	c #334768",
"|+	c #384C6A",
"1+	c #3A526A",
"2+	c #3B4C6C",
"3+	c #344169",
"4+	c #304561",
"5+	c #866D69",
"6+	c #978359",
"7+	c #E9C496",
"8+	c #B28D64",
"9+	c #927962",
"0+	c #CBB093",
"a+	c #EFE3CD",
"b+	c #756C6E",
"c+	c #888084",
"d+	c #E9D4B3",
"e+	c #F3C89B",
"f+	c #7A653D",
"g+	c #333F5F",
"h+	c #384D69",
"i+	c #385269",
"j+	c #38496A",
"k+	c #37466A",
"l+	c #354B65",
"m+	c #353849",
"n+	c #634C4A",
"o+	c #937D54",
"p+	c #D0A77D",
"q+	c #C69C73",
"r+	c #DCBB97",
"s+	c #E3C7A0",
"t+	c #FBEED9",
"u+	c #8A786D",
"v+	c #664B37",
"w+	c #D4B78F",
"x+	c #EBB98F",
"y+	c #775F39",
"z+	c #30405E",
"A+	c #364B69",
"B+	c #324767",
"C+	c #334A67",
"D+	c #354569",
"E+	c #364B6A",
"F+	c #36456A",
"G+	c #2E405E",
"H+	c #7B615E",
"I+	c #6B534B",
"J+	c #7A6347",
"K+	c #AB815B",
"L+	c #D6A57D",
"M+	c #FBD8A8",
"N+	c #FFE1AF",
"O+	c #FFEAC6",
"P+	c #AE8454",
"Q+	c #793E00",
"R+	c #D4AD77",
"S+	c #CE9C74",
"T+	c #6D5530",
"U+	c #30415D",
"V+	c #36446A",
"W+	c #364D68",
"X+	c #394F6B",
"Y+	c #354D69",
"Z+	c #334468",
"`+	c #324267",
" @	c #314463",
".@	c #313749",
"+@	c #624B49",
"@@	c #946B52",
"#@	c #DC9A76",
"$@	c #ECBA90",
"%@	c #E1B87E",
"&@	c #CE9D5E",
"*@	c #E1AE7D",
"=@	c #97744E",
"-@	c #373846",
";@	c #354465",
">@	c #38476A",
",@	c #364969",
"'@	c #39506A",
")@	c #3E5B6F",
"!@	c #324168",
"~@	c #384B69",
"{@	c #334368",
"]@	c #324163",
"^@	c #32364B",
"/@	c #6A514F",
"(@	c #8E6757",
"_@	c #C58664",
":@	c #F5CD9F",
"<@	c #EDBD92",
"[@	c #D3A77D",
"}@	c #9F7953",
"|@	c #3D4249",
"1@	c #354D65",
"2@	c #3A536B",
"3@	c #364A6A",
"4@	c #3A4D6A",
"5@	c #384C6C",
"6@	c #3A556B",
"7@	c #3A516B",
"8@	c #374569",
"9@	c #344364",
"0@	c #363B4D",
"a@	c #463E45",
"b@	c #3A444F",
"c@	c #644D3C",
"d@	c #7B5D38",
"e@	c #87643F",
"f@	c #8C6D47",
"g@	c #90764E",
"h@	c #8A6B45",
"i@	c #785C37",
"j@	c #373D46",
"k@	c #304462",
"l@	c #334369",
"m@	c #364A69",
"n@	c #394E6A",
"o@	c #354469",
"p@	c #334668",
"q@	c #344269",
"r@	c #384E6C",
"s@	c #3F5E71",
"t@	c #40596F",
"u@	c #3E556C",
"v@	c #354E64",
"w@	c #33495C",
"x@	c #2F4058",
"y@	c #405433",
"z@	c #7A7570",
"A@	c #75874C",
"B@	c #638D0C",
"C@	c #618C0C",
"D@	c #778850",
"E@	c #938F84",
"F@	c #787468",
"G@	c #2E3D57",
"H@	c #334767",
"I@	c #38536A",
"J@	c #354E67",
"K@	c #365068",
"L@	c #365067",
"M@	c #344E68",
"N@	c #365168",
"O@	c #3F536E",
"P@	c #3E526D",
"Q@	c #354A69",
"R@	c #2F3D58",
"S@	c #748172",
"T@	c #C0C0C2",
"U@	c #C2CDB8",
"V@	c #8EBD3F",
"W@	c #7EC300",
"X@	c #73AF22",
"Y@	c #9CB089",
"Z@	c #8D8D90",
"`@	c #2F3A59",
" #	c #334868",
".#	c #344B67",
"+#	c #374669",
"@#	c #3A496B",
"##	c #3D546C",
"$#	c #40546F",
"%#	c #374869",
"&#	c #394E69",
"*#	c #3E506D",
"=#	c #35475A",
"-#	c #99999C",
";#	c #E4E4E6",
">#	c #F5F5F6",
",#	c #B3BCA1",
"'#	c #81AF28",
")#	c #71AE20",
"!#	c #457829",
"~#	c #314159",
"{#	c #3C546C",
"]#	c #3C576C",
"^#	c #3B526B",
"/#	c #3A4F6B",
"(#	c #324B66",
"_#	c #394E6C",
":#	c #40536E",
"<#	c #3A4D6B",
"[#	c #394C6A",
"}#	c #303A58",
"|#	c #939396",
"1#	c #DBDBDD",
"2#	c #FFFFFF",
"3#	c #E0E0E1",
"4#	c #8D9168",
"5#	c #5F8C0B",
"6#	c #408F00",
"7#	c #1C6500",
"8#	c #2C3B58",
"9#	c #384A6A",
"0#	c #39526A",
"a#	c #394F6A",
"b#	c #37496A",
"c#	c #354C68",
"d#	c #39566C",
"e#	c #3E546D",
"f#	c #3D516C",
"g#	c #354868",
"h#	c #334866",
"i#	c #2E3F5B",
"j#	c #474233",
"k#	c #6B6554",
"l#	c #A0A0A3",
"m#	c #E1D6C5",
"n#	c #FBE3BD",
"o#	c #E0C097",
"p#	c #877943",
"q#	c #5A5B32",
"r#	c #4E5128",
"s#	c #3C4F6C",
"t#	c #36486A",
"u#	c #344668",
"v#	c #384D6A",
"w#	c #39536A",
"x#	c #334169",
"y#	c #394D6B",
"z#	c #34495A",
"A#	c #5C4B30",
"B#	c #7E6861",
"C#	c #847566",
"D#	c #9D7A59",
"E#	c #E8B189",
"F#	c #E5AD85",
"G#	c #8D6A45",
"H#	c #74614F",
"I#	c #795F52",
"J#	c #504535",
"K#	c #33455E",
"L#	c #3D556D",
"M#	c #3D546D",
"N#	c #3A506B",
"O#	c #384E69",
"P#	c #374969",
"Q#	c #374A69",
"R#	c #354F68",
"S#	c #374A6A",
"T#	c #39486A",
"U#	c #3D4F6D",
"V#	c #374860",
"W#	c #584835",
"X#	c #8D654D",
"Y#	c #A27B5F",
"Z#	c #8D6D59",
"`#	c #69533E",
" $	c #67552F",
".$	c #67542E",
"+$	c #6D543A",
"@$	c #775A4B",
"#$	c #785A4C",
"$$	c #5F4C2E",
"%$	c #35475C",
"&$	c #3E586F",
"*$	c #3E5D70",
"=$	c #3D576D",
"-$	c #344767",
";$	c #344568",
">$	c #3F526E",
",$	c #35455D",
"'$	c #654E2E",
")$	c #956951",
"!$	c #A77E5D",
"~$	c #A47C5D",
"{$	c #7D6241",
"]$	c #333C4A",
"^$	c #344C64",
"/$	c #363845",
"($	c #574925",
"_$	c #2E3853",
":$	c #394969",
"<$	c #3D516D",
"[$	c #3A546C",
"}$	c #385169",
"|$	c #374C69",
"1$	c #38526A",
"2$	c #384E6A",
"3$	c #3A4B6A",
"4$	c #334357",
"5$	c #584924",
"6$	c #594B25",
"7$	c #323A47",
"8$	c #364867",
"9$	c #354669",
"0$	c #324664",
"a$	c #314064",
"b$	c #313F64",
"c$	c #364D69",
"d$	c #3B536B",
"e$	c #344C67",
"f$	c #344868",
"g$	c #344A68",
"h$	c #375069",
"i$	c #354E68",
"j$	c #364C69",
"k$	c #36466A",
"l$	c #3B4D6B",
"m$	c #334B66",
"      . + @ # $ % & *   = - ; > , ' ) ! ~ { ]     ^ / ( ",
"_ : < [ } | 1 2 3 4 5 6 7 8 8 8 8 7 6 9 0 a b c d e f 3 ",
"_ g h i j k l m n 8 o p q r r r r s t u 8 v w x y y z A ",
"B C D E < ! % F u G H I J r r r r K L M N O P c Q R S T ",
"U A m V % W X u Y Z `  ...r r r r +.@.` #.$.O %.&.k *.=.",
"-.;.>.,.'.).!.~.r r {.` ].^.^.^.^./.(._.r r $.:.<.[.}.|.",
"1.2.3.. 4.5.o 6.r r r 7.8.8.8.8.8.8.9.r r r r 0.a.b.c.d.",
"e.f.g.h.i.j.k.l.m.r r r n.o.r r p.q.r r m.l.r r.s.t.u.A ",
"v.v.w.b x.j.k.y.z.r r r A.B.r r C.D.r E.F.y.r r.s.G.e.H.",
"H.2 I.I.J.j.k.y.z.r r o.Y B.r K.L.M.N.O.P.y.y.Q.R.S.- d ",
"< 2 d f.T.j.U.A.V.r o.W.X.Y.Z.`. +.+X.++@+#+$+%+&+B _ *+",
"=+-+;+>+T.j.,+~.r o.W.'+)+!+~+{+]+^+/+(+_+:+<+[+}+|+% 1+",
"2+_ 3+= 4+j.,+U.5+N.X.6+7+8+9+0+a+b+c+d+e+f+g+b A h+i+j+",
"k+^ g Q l+m+n+,+z.N.X.o+p+q+r+s+t+u+v+w+x+y+z+A+B+f.C+D+",
"E+F+= I.d G+:.,+U.H+I+J+K+L+M+N+O+P+Q+R+S+T+U+A V+F+W+X+",
"Y+Z+= I.`+ @.@+@,+,+,+I+@@#@$@M+N+%@&@*@=@-@;@>@^ ,@'@)@",
"!@>+1.~@. {@]@^@+@/@n+,+(@_@#@$@:@<@[@}@|@1@2@3@g.x 4@5@",
"I.b '.6@7@= 8@9@0@a@b@u c@d@e@f@g@h@i@j@k@l@l@m@n@b o@( ",
"2 i p@q@r@s@t@u@v@w@x@y@z@A@B@C@D@E@F@G@_ _ _ H.H@I@* % ",
"J@K@L@M@N@1.O@P@F+Q@R@S@T@U@V@W@X@Y@Z@`@ #.#+## % @#; - ",
"##$#' %#&#*## F+%   =#-#;#>#,#'#W@)#!#~#h {#]#^#/#,@ #(#",
"_#! :#< <#[#[#% = H.}#|#1#2#3#4#5#6#7#8#9#0#a#>@V+b#6@c#",
"d#e#f#'.g#*+h#-+g#i#j#k#l#m#n#o#p#q#r#a.<#s#< W t#u#'@1.",
"*+v#6@w#u#I.x#y#^#z#A#B#C#D#E#F#G#H#I#J#K#L#M#N#>.O#@ F+",
"P#Q#R#S#T#k+  U#V#W#X#Y#Z#`# $.$+$@$#$$$%$&$*$=$s#= -$- ",
"o@;$- _ ^ T#' >$,$'$)$!$~${$]$^$/$($($_$:$<$[$X+  w.}$|$",
"I._ A 1$2$  3$% 2@4$5$6$6$7$8$9$0$a$b$- c$d$J@z ; ^ e$}.",
"I._ w.f$g$}$h$i$j$k$o@H.d d c }.V W+J@J@l$b ( H@m$B+- 2 "};
