/* XPM */
static char * ply_h2_xpm[] = {
"28 28 457 2",
"  	c #3A4A6B",
". 	c #364869",
"+ 	c #374D68",
"@ 	c #374769",
"# 	c #3B4C6B",
"$ 	c #3C4C6C",
"% 	c #3A4B6B",
"& 	c #3A576B",
"* 	c #3A566B",
"= 	c #38486A",
"- 	c #324667",
"; 	c #344768",
"> 	c #364F69",
", 	c #3B506B",
"' 	c #3E516D",
") 	c #435870",
"! 	c #3D506D",
"~ 	c #38496B",
"{ 	c #344468",
"] 	c #364768",
"^ 	c #354369",
"/ 	c #324966",
"( 	c #334268",
"_ 	c #334068",
": 	c #344268",
"< 	c #3C4E6C",
"[ 	c #3E556E",
"} 	c #405A6F",
"| 	c #40546E",
"1 	c #3F536D",
"2 	c #39496B",
"3 	c #344369",
"4 	c #313E65",
"5 	c #304863",
"6 	c #324863",
"7 	c #384767",
"8 	c #354466",
"9 	c #354467",
"0 	c #395169",
"a 	c #3C586B",
"b 	c #3C506B",
"c 	c #40576F",
"d 	c #384A6A",
"e 	c #364E69",
"f 	c #394A6A",
"g 	c #364569",
"h 	c #324068",
"i 	c #324867",
"j 	c #324C66",
"k 	c #344368",
"l 	c #364469",
"m 	c #3B4D6C",
"n 	c #394E6B",
"o 	c #3C556C",
"p 	c #3D586E",
"q 	c #3B556C",
"r 	c #3D536D",
"s 	c #344465",
"t 	c #303F61",
"u 	c #3C3542",
"v 	c #523F3D",
"w 	c #564341",
"x 	c #564441",
"y 	c #3E3E45",
"z 	c #385066",
"A 	c #374C66",
"B 	c #37506A",
"C 	c #344C67",
"D 	c #334867",
"E 	c #334567",
"F 	c #344D67",
"G 	c #384B6A",
"H 	c #354769",
"I 	c #3B4E6B",
"J 	c #3C516C",
"K 	c #39506B",
"L 	c #3B4C6C",
"M 	c #3A5167",
"N 	c #373B47",
"O 	c #54413F",
"P 	c #6D5553",
"Q 	c #7D6461",
"R 	c #8D7570",
"S 	c #8F7772",
"T 	c #353346",
"U 	c #313E64",
"V 	c #38476A",
"W 	c #37466A",
"X 	c #37486A",
"Y 	c #384B6B",
"Z 	c #3B536C",
"` 	c #365069",
" .	c #374D6A",
"..	c #3C526C",
"+.	c #3A4C6B",
"@.	c #3A4C6C",
"#.	c #374866",
"$.	c #373849",
"%.	c #6A5351",
"&.	c #806764",
"*.	c #947C77",
"=.	c #A8918A",
"-.	c #937B76",
";.	c #353447",
">.	c #303C62",
",.	c #37496A",
"'.	c #3D576D",
").	c #3B4F6C",
"!.	c #384E6B",
"~.	c #37456A",
"{.	c #37476A",
"].	c #384F6A",
"^.	c #3C536C",
"/.	c #3A4E6B",
"(.	c #364865",
"_.	c #38384A",
":.	c #866E6A",
"<.	c #A08882",
"[.	c #B39C95",
"}.	c #A38B85",
"|.	c #917974",
"1.	c #373A4A",
"2.	c #344964",
"3.	c #3A4F6C",
"4.	c #3B4E6C",
"5.	c #394A6B",
"6.	c #3A526B",
"7.	c #354B68",
"8.	c #344C68",
"9.	c #2F3E56",
"0.	c #5C4745",
"a.	c #806663",
"b.	c #9F8882",
"c.	c #A38C86",
"d.	c #A08983",
"e.	c #314057",
"f.	c #364D69",
"g.	c #384F69",
"h.	c #364C68",
"i.	c #344968",
"j.	c #344569",
"k.	c #324268",
"l.	c #324467",
"m.	c #334966",
"n.	c #304261",
"o.	c #383846",
"p.	c #876F6A",
"q.	c #866E69",
"r.	c #89716D",
"s.	c #9F8781",
"t.	c #3B3A48",
"u.	c #324362",
"v.	c #344B67",
"w.	c #384C69",
"x.	c #39486B",
"y.	c #39496A",
"z.	c #32445B",
"A.	c #594543",
"B.	c #806763",
"C.	c #8A726D",
"D.	c #7F6562",
"E.	c #8B736E",
"F.	c #826A66",
"G.	c #5A4543",
"H.	c #2F415B",
"I.	c #39546A",
"J.	c #334168",
"K.	c #323F68",
"L.	c #2C3759",
"M.	c #755B59",
"N.	c #765C59",
"O.	c #826965",
"P.	c #816864",
"Q.	c #8B726E",
"R.	c #7E6561",
"S.	c #715755",
"T.	c #725856",
"U.	c #8C746F",
"V.	c #795F5C",
"W.	c #795F5D",
"X.	c #2E3C5A",
"Y.	c #2C3F58",
"Z.	c #705654",
"`.	c #B38E77",
" +	c #8A6D64",
".+	c #C49B7E",
"++	c #C49C7E",
"@+	c #785E5B",
"#+	c #83665E",
"$+	c #324A5C",
"%+	c #334667",
"&+	c #374F69",
"*+	c #394D6A",
"=+	c #374B69",
"-+	c #334B67",
";+	c #745A58",
">+	c #B28D76",
",+	c #8F754F",
"'+	c #5F4F2F",
")+	c #594A2C",
"!+	c #F0CFA0",
"~+	c #E0C39B",
"{+	c #2D3D59",
"]+	c #384C6A",
"^+	c #3A526A",
"/+	c #344169",
"(+	c #2E3A50",
"_+	c #886445",
":+	c #9C6F5F",
"<+	c #A27261",
"[+	c #E1AB84",
"}+	c #D1C2B2",
"|+	c #534643",
"1+	c #B1ADAB",
"2+	c #FBDFB0",
"3+	c #FFE1AF",
"4+	c #313B51",
"5+	c #374A68",
"6+	c #384D69",
"7+	c #385269",
"8+	c #38496A",
"9+	c #374E69",
"0+	c #303E56",
"a+	c #8C6642",
"b+	c #966C49",
"c+	c #9F714F",
"d+	c #E6AE86",
"e+	c #F0E2D6",
"f+	c #584B4E",
"g+	c #887F82",
"h+	c #F8DBAD",
"i+	c #324767",
"j+	c #334A67",
"k+	c #354569",
"l+	c #364B6A",
"m+	c #36456A",
"n+	c #2D3A50",
"o+	c #534721",
"p+	c #9E714D",
"q+	c #FAECE0",
"r+	c #7F5B37",
"s+	c #5C2E00",
"t+	c #F3D4A3",
"u+	c #2E3B50",
"v+	c #36446A",
"w+	c #364D68",
"x+	c #394F6B",
"y+	c #354D69",
"z+	c #334468",
"A+	c #324267",
"B+	c #334767",
"C+	c #334967",
"D+	c #303E4F",
"E+	c #775B3A",
"F+	c #CE9F77",
"G+	c #F9D4A5",
"H+	c #B2762F",
"I+	c #9D590C",
"J+	c #F8D7A3",
"K+	c #775A39",
"L+	c #2E374E",
"M+	c #364969",
"N+	c #39506A",
"O+	c #3E5B6F",
"P+	c #324168",
"Q+	c #384B69",
"R+	c #334368",
"S+	c #364769",
"T+	c #363E4B",
"U+	c #9E7250",
"V+	c #DAA67E",
"W+	c #F4CEA0",
"X+	c #FCDBAA",
"Y+	c #FDDCAB",
"Z+	c #354049",
"`+	c #38516A",
" @	c #3A536B",
".@	c #364A6A",
"+@	c #3A4D6A",
"@@	c #384C6C",
"#@	c #3A556B",
"$@	c #3A516B",
"%@	c #374569",
"&@	c #344264",
"*@	c #525762",
"=@	c #676B43",
"-@	c #7C6337",
";@	c #B17B58",
">@	c #CA9F76",
",@	c #CDA47B",
"'@	c #505560",
")@	c #303F64",
"!@	c #334369",
"~@	c #364A69",
"{@	c #394E6A",
"]@	c #354469",
"^@	c #334668",
"/@	c #344269",
"(@	c #384E6C",
"_@	c #3F5E71",
":@	c #3C5469",
"<@	c #515862",
"[@	c #C1C1C4",
"}@	c #85B652",
"|@	c #527111",
"1@	c #525F18",
"2@	c #475618",
"3@	c #6D6649",
"4@	c #5D543A",
"5@	c #4F5260",
"6@	c #38536A",
"7@	c #354E67",
"8@	c #365068",
"9@	c #365067",
"0@	c #344E68",
"a@	c #365168",
"b@	c #364D64",
"c@	c #46474F",
"d@	c #B5ADA9",
"e@	c #EDEDEF",
"f@	c #7FB257",
"g@	c #4B9800",
"h@	c #5FA900",
"i@	c #4A9700",
"j@	c #AFB4AE",
"k@	c #99999C",
"l@	c #43424C",
"m@	c #374764",
"n@	c #3A496B",
"o@	c #3D546C",
"p@	c #40546F",
"q@	c #374869",
"r@	c #394E69",
"s@	c #354259",
"t@	c #856D46",
"u@	c #E3C9AA",
"v@	c #E1DBD5",
"w@	c #598B4A",
"x@	c #418D00",
"y@	c #7BC100",
"z@	c #87CB00",
"A@	c #8BAE63",
"B@	c #8AAE7E",
"C@	c #334457",
"D@	c #3A4F6B",
"E@	c #334868",
"F@	c #324B66",
"G@	c #394E6C",
"H@	c #40536E",
"I@	c #3A4D6B",
"J@	c #313F56",
"K@	c #9D895E",
"L@	c #FBD8A8",
"M@	c #B6A284",
"N@	c #3B6527",
"O@	c #2D7A00",
"P@	c #61AA00",
"Q@	c #83C800",
"R@	c #3E8D00",
"S@	c #1A6600",
"T@	c #2E7A00",
"U@	c #B6A184",
"V@	c #313B56",
"W@	c #354C68",
"X@	c #39566C",
"Y@	c #3E546D",
"Z@	c #3D516C",
"`@	c #354868",
" #	c #2F415F",
".#	c #4D4B47",
"+#	c #998258",
"@#	c #4C4746",
"##	c #314033",
"$#	c #546B34",
"%#	c #3E820E",
"&#	c #499700",
"*#	c #6A8448",
"=#	c #65754D",
"-#	c #324133",
";#	c #4D4848",
">#	c #4F4D4A",
",#	c #354563",
"'#	c #36486A",
")#	c #344668",
"!#	c #384D6A",
"~#	c #39536A",
"{#	c #2F3C61",
"]#	c #374C63",
"^#	c #384045",
"/#	c #7E695B",
"(#	c #848B66",
"_#	c #778658",
":#	c #947F77",
"<#	c #967F7A",
"[#	c #373F43",
"}#	c #364863",
"|#	c #344659",
"1#	c #384E65",
"2#	c #3A506B",
"3#	c #384E69",
"4#	c #374969",
"5#	c #374A69",
"6#	c #354F68",
"7#	c #374A6A",
"8#	c #39486A",
"9#	c #3D4F6D",
"0#	c #3E526D",
"a#	c #394046",
"b#	c #6E584C",
"c#	c #AA928C",
"d#	c #A7908A",
"e#	c #7C6360",
"f#	c #373B44",
"g#	c #3D526C",
"h#	c #3E586F",
"i#	c #3E5D70",
"j#	c #3C4F6C",
"k#	c #344767",
"l#	c #344568",
"m#	c #3F526E",
"n#	c #3A4C66",
"o#	c #44423D",
"p#	c #886551",
"q#	c #916958",
"r#	c #5D4C2F",
"s#	c #423B3A",
"t#	c #323F62",
"u#	c #3D516D",
"v#	c #3A546C",
"w#	c #385169",
"x#	c #374C69",
"y#	c #38526A",
"z#	c #384E6A",
"A#	c #3A4B6A",
"B#	c #3B546C",
"C#	c #3B516B",
"D#	c #3A3B3F",
"E#	c #926F4E",
"F#	c #A3795A",
"G#	c #594B25",
"H#	c #334462",
"I#	c #39373D",
"J#	c #334768",
"K#	c #3B536B",
"L#	c #344868",
"M#	c #344A68",
"N#	c #375069",
"O#	c #354E68",
"P#	c #364C69",
"Q#	c #36466A",
"R#	c #344266",
"S#	c #443D37",
"T#	c #354564",
"U#	c #444037",
"V#	c #344C64",
"W#	c #3B4D6B",
"X#	c #334B66",
"      . + @ # $ % & *   = - ; > , ' ) ! ~ { ]     ^ / ( ",
"_ : < [ } | 1 2 3 _ 4 5 6 7 8 9 0 a b c d e f g h i j k ",
"_ l m n o p q r s t u v w x x x w v y z A B C D E E F G ",
"H I J K < ! L M N O P Q R S S S R Q P O T U V W X Y Z ` ",
" .G ..+.% @.#.$.%.&.*.=.-.S S S -.=.*.&.%.;.>.,.'.p ).!.",
"~.{.].^./.(._.%.:.<.[.}.|.S S S |.}.[.<.:.%.1.2.3.4.5.3 ",
"6.7.8.. @ 9.0.a.S S b.[.c.d.d.d.c.[.b.S S a.0.e.f.g.h.i.",
"j.k.l.m.n.o.P p.q.r.S s.c.c.c.c.c.s.S r.q.p.P t.u.v.w.G ",
"x.x.y.f z.A.Q q.B.C.S S S D.S D.S E.F.C.B.q.Q G.H.I.j.J.",
"J.2 K.K.L.A.M.N.O.S P.Q.R.S.S T.U.V.W.S O.N.M.G.X.l.- h ",
"< 2 h k.Y.A.Z.Z.O.P.`. +S..+W.++@+#+`.P.O.Z.Z.G.$+H _ %+",
"&+*+=+-+Y.A.Z.Z.;+>+,+'+)+!+~+!+)+'+,+>+;+Z.Z.G.{+]+% ^+",
"L _ /+= m.(+_+:+<+[+}+|+1+2+3+2+1+|+}+[+<+:+_+4+5+6+7+8+",
"W ^ l X 9+0+a+b+c+d+e+f+g+h+3+h+g+f+e+d+c+b+a+9.i+k.j+k+",
"l+m+= K.h - n+o+p+d+q+r+s+t+3+t+s+r+q+d+p+o+u+G v+m+w+x+",
"y+z+= K.A+B+C+D+E+F+G+H+I+J+3+J+I+H+G+F+K+L+V V ^ M+N+O+",
"P+-+6.Q+. R+{ S+T+U+V+W+X+Y+Y+Y+X+W+V+U+Z+`+ @.@l.D +@@@",
"K.f /.#@$@= %@&@*@=@-@;@>@,@,@,@>@;@-@=@'@)@!@~@{@f ]@( ",
"2 n ^@/@(@_@:@<@[@}@|@1@2@3@4@3@2@1@|@}@[@5@>.J.B+6@* % ",
"7@8@9@0@a@b@c@d@e@f@g@h@i@j@k@j@i@h@g@f@e@d@l@m@% n@; - ",
"o@p@' q@r@s@t@u@v@w@x@y@z@A@B@A@z@y@x@w@v@u@t@C@D@M+E@F@",
"G@! H@< I@J@K@L@M@N@O@P@Q@R@S@R@Q@P@T@N@U@L@K@V@v+,.#@W@",
"X@Y@Z@/.`@ #.#+#@###$#%#&#*#=#*#&#%#$#-#;#+#>#,#'#)#N+6.",
"%+!##@~#)#K.{#e.]#^#/#(#_#:#<#:#_#(#/#[#}#|#1#2#].3#@ m+",
"4#5#6#7#8#W   9#0#a#b#c#d#e#W.e#d#c#b#f#g#h#i#'.j#= k#- ",
"]@l#- _ ^ 8#' m#! n#o#p#q#r#)+r#q#p#s#t#  u#v#x+  y.w#x#",
"K._ G y#z#  A#% B#C#D#E#F#G#H#G#F#E#I#J#f.K#7@F ; ^ C 5.",
"K._ y.L#M#w#N#O#P#Q#R#S#G#{#g T#G#U#V#7@W#f ( B+X#i+- 2 "};
