/* XPM */
static char * ply_l1_xpm[] = {
"28 28 514 2",
"  	c #3A4A6B",
". 	c #364869",
"+ 	c #374D68",
"@ 	c #374769",
"# 	c #3B4C6B",
"$ 	c #3C4C6C",
"% 	c #3A4B6B",
"& 	c #3A576B",
"* 	c #3A566B",
"= 	c #38486A",
"- 	c #324667",
"; 	c #344768",
"> 	c #364F69",
", 	c #3B506B",
"' 	c #3E516D",
") 	c #435870",
"! 	c #3D506D",
"~ 	c #38496B",
"{ 	c #344468",
"] 	c #364768",
"^ 	c #354369",
"/ 	c #324966",
"( 	c #334268",
"_ 	c #334068",
": 	c #344268",
"< 	c #3C4E6C",
"[ 	c #3E556E",
"} 	c #405A6F",
"| 	c #40546E",
"1 	c #3F536D",
"2 	c #39496B",
"3 	c #344369",
"4 	c #334067",
"5 	c #313F66",
"6 	c #314A64",
"7 	c #334A65",
"8 	c #394969",
"9 	c #364668",
"0 	c #364669",
"a 	c #3A536B",
"b 	c #3D596D",
"c 	c #3E526D",
"d 	c #40576F",
"e 	c #384A6A",
"f 	c #364E69",
"g 	c #394A6A",
"h 	c #364569",
"i 	c #324068",
"j 	c #324867",
"k 	c #324C66",
"l 	c #344368",
"m 	c #364469",
"n 	c #3B4D6C",
"o 	c #394E6B",
"p 	c #3C556C",
"q 	c #3D586E",
"r 	c #3B556C",
"s 	c #3C526C",
"t 	c #344465",
"u 	c #2C3855",
"v 	c #503D3B",
"w 	c #503E3C",
"x 	c #523F3D",
"y 	c #354A59",
"z 	c #3A536A",
"A 	c #394E69",
"B 	c #37506A",
"C 	c #344C67",
"D 	c #334867",
"E 	c #334567",
"F 	c #344D67",
"G 	c #384B6A",
"H 	c #354769",
"I 	c #3B4E6B",
"J 	c #3C516C",
"K 	c #39506B",
"L 	c #34475B",
"M 	c #513E3C",
"N 	c #5C4745",
"O 	c #755B59",
"P 	c #816864",
"Q 	c #8F7772",
"R 	c #826965",
"S 	c #5D4846",
"T 	c #2C3555",
"U 	c #38476A",
"V 	c #37466A",
"W 	c #37486A",
"X 	c #384B6B",
"Y 	c #3B536C",
"Z 	c #365069",
"` 	c #374D6A",
" .	c #3A4C6B",
"..	c #394B6B",
"+.	c #33415A",
"@.	c #5B4644",
"#.	c #765C5A",
"$.	c #836A66",
"%.	c #9F8782",
"&.	c #A48C86",
"*.	c #A38B85",
"=.	c #A08883",
"-.	c #846B67",
";.	c #765D5A",
">.	c #2D3655",
",.	c #323F66",
"'.	c #37496A",
").	c #3D576D",
"!.	c #3B4F6C",
"~.	c #384E6B",
"{.	c #37456A",
"].	c #37476A",
"^.	c #384F6A",
"/.	c #3C536C",
"(.	c #394D6A",
"_.	c #32415A",
":.	c #7C6360",
"<.	c #98817B",
"[.	c #B29B94",
"}.	c #AB948E",
"|.	c #937B76",
"1.	c #AA938C",
"2.	c #B29B95",
"3.	c #9A827C",
"4.	c #7D6460",
"5.	c #314158",
"6.	c #374D69",
"7.	c #3A4F6C",
"8.	c #3B4E6C",
"9.	c #394A6B",
"0.	c #3A526B",
"a.	c #354B68",
"b.	c #344C68",
"c.	c #334262",
"d.	c #54413F",
"e.	c #7C635F",
"f.	c #99817C",
"g.	c #B19A94",
"h.	c #AB938D",
"i.	c #98807A",
"j.	c #AA928C",
"k.	c #9A837D",
"l.	c #785E5C",
"m.	c #55413F",
"n.	c #344761",
"o.	c #364D69",
"p.	c #384F69",
"q.	c #364C68",
"r.	c #344968",
"s.	c #344569",
"t.	c #324268",
"u.	c #324467",
"v.	c #324865",
"w.	c #2C3B55",
"x.	c #604B49",
"y.	c #AD968F",
"z.	c #9B837D",
"A.	c #7E6461",
"B.	c #323E56",
"C.	c #354767",
"D.	c #344B67",
"E.	c #384C69",
"F.	c #39486B",
"G.	c #39496A",
"H.	c #364665",
"I.	c #765C59",
"J.	c #8D7570",
"K.	c #89706C",
"L.	c #8C736F",
"M.	c #8A726D",
"N.	c #8B736E",
"O.	c #775D5A",
"P.	c #53403E",
"Q.	c #324763",
"R.	c #39546A",
"S.	c #334168",
"T.	c #323F68",
"U.	c #2F3C63",
"V.	c #876F6A",
"W.	c #88706B",
"X.	c #7D6461",
"Y.	c #7E6562",
"Z.	c #795F5D",
"`.	c #314162",
" +	c #304064",
".+	c #383644",
"++	c #695250",
"@+	c #866E6A",
"#+	c #7D615A",
"$+	c #957669",
"%+	c #8E7169",
"&+	c #927469",
"*+	c #89716C",
"=+	c #7B625F",
"-+	c #8B726E",
";+	c #355064",
">+	c #334667",
",+	c #374F69",
"'+	c #374B69",
")+	c #334B67",
"!+	c #304663",
"~+	c #363545",
"{+	c #8A6F68",
"]+	c #B79178",
"^+	c #C29B78",
"/+	c #655040",
"(+	c #83694F",
"_+	c #AA8869",
":+	c #93756A",
"<+	c #735C52",
"[+	c #776057",
"}+	c #816865",
"|+	c #745A58",
"1+	c #304261",
"2+	c #384C6A",
"3+	c #3A526A",
"4+	c #3B4C6C",
"5+	c #344169",
"6+	c #344A68",
"7+	c #314463",
"8+	c #373546",
"9+	c #866B53",
"0+	c #F0C296",
"a+	c #D4B690",
"b+	c #726955",
"c+	c #605540",
"d+	c #B9A484",
"e+	c #BE9C82",
"f+	c #705A4F",
"g+	c #7E6649",
"h+	c #9A8359",
"i+	c #7A664B",
"j+	c #705654",
"k+	c #344663",
"l+	c #384D69",
"m+	c #385269",
"n+	c #38496A",
"o+	c #374E69",
"p+	c #323F5F",
"q+	c #7A653E",
"r+	c #F3C89B",
"s+	c #E8D3B2",
"t+	c #877F82",
"u+	c #766C6E",
"v+	c #F0E3CE",
"w+	c #CBB093",
"x+	c #957B64",
"y+	c #B38D65",
"z+	c #E8C295",
"A+	c #978359",
"B+	c #665142",
"C+	c #856C68",
"D+	c #2F4260",
"E+	c #334A67",
"F+	c #354569",
"G+	c #364B6A",
"H+	c #36456A",
"I+	c #2E3F5C",
"J+	c #775F39",
"K+	c #EBB88E",
"L+	c #D3B68D",
"M+	c #654933",
"N+	c #8C796C",
"O+	c #FBEED9",
"P+	c #E5C8A1",
"Q+	c #DFBE99",
"R+	c #C79C73",
"S+	c #D0A77D",
"T+	c #937D53",
"U+	c #624B49",
"V+	c #34384B",
"W+	c #344266",
"X+	c #364D68",
"Y+	c #394F6B",
"Z+	c #354D69",
"`+	c #334468",
" @	c #324267",
".@	c #334767",
"+@	c #2E415C",
"@@	c #6C5530",
"#@	c #CC9B74",
"$@	c #D5AD77",
"%@	c #7B4000",
"&@	c #AF8553",
"*@	c #FFE9C4",
"=@	c #FFE1AF",
"-@	c #FAD8A8",
";@	c #D7A57D",
">@	c #A97F59",
",@	c #796246",
"'@	c #6B544C",
")@	c #7A605D",
"!@	c #334161",
"~@	c #364969",
"{@	c #39506A",
"]@	c #3E5B6F",
"^@	c #324168",
"/@	c #384B69",
"(@	c #334368",
"_@	c #324163",
":@	c #363A48",
"<@	c #94724C",
"[@	c #E1AD7E",
"}@	c #D2A264",
"|@	c #E4BB81",
"1@	c #DC9975",
"2@	c #956B53",
"3@	c #6B534B",
"4@	c #614A48",
"5@	c #333E4D",
"6@	c #344766",
"7@	c #3A4D6A",
"8@	c #384C6C",
"9@	c #3A4E6B",
"0@	c #3A556B",
"a@	c #3A516B",
"b@	c #374569",
"c@	c #344364",
"d@	c #3D404C",
"e@	c #9A7650",
"f@	c #D0A37A",
"g@	c #ECBB90",
"h@	c #F5CC9E",
"i@	c #C48663",
"j@	c #8D6756",
"k@	c #69514F",
"l@	c #30344D",
"m@	c #314065",
"n@	c #364A69",
"o@	c #394E6A",
"p@	c #354469",
"q@	c #334668",
"r@	c #344269",
"s@	c #384E6C",
"t@	c #3F5E71",
"u@	c #40596F",
"v@	c #3E556C",
"w@	c #354E64",
"x@	c #384049",
"y@	c #755A35",
"z@	c #856842",
"A@	c #8A724A",
"B@	c #876A44",
"C@	c #82613D",
"D@	c #775B36",
"E@	c #624C3B",
"F@	c #5A4543",
"G@	c #323649",
"H@	c #423943",
"I@	c #2F334C",
"J@	c #313D63",
"K@	c #38536A",
"L@	c #354E67",
"M@	c #365068",
"N@	c #365067",
"O@	c #344E68",
"P@	c #365168",
"Q@	c #3F536E",
"R@	c #304059",
"S@	c #7B776C",
"T@	c #979389",
"U@	c #798B53",
"V@	c #628F0B",
"W@	c #64910B",
"X@	c #768A4F",
"Y@	c #7D7874",
"Z@	c #405632",
"`@	c #2F3E57",
" #	c #2E3A5D",
".#	c #314563",
"+#	c #374669",
"@#	c #3A496B",
"##	c #3D546C",
"$#	c #40546F",
"%#	c #374869",
"&#	c #3E506D",
"*#	c #34415C",
"=#	c #8D8D90",
"-#	c #9AAF87",
";#	c #72AF1F",
">#	c #7FC400",
",#	c #90BD43",
"'#	c #C5CFBC",
")#	c #C2C2C5",
"!#	c #778376",
"~#	c #324059",
"{#	c #3C546C",
"]#	c #3C576C",
"^#	c #3B526B",
"/#	c #3A4F6B",
"(#	c #334868",
"_#	c #324B66",
":#	c #394E6C",
"<#	c #40536E",
"[#	c #3A4D6B",
"}#	c #394C6A",
"|#	c #2B3957",
"1#	c #417724",
"2#	c #70AE1C",
"3#	c #81AD2A",
"4#	c #B4BCA4",
"5#	c #F7F7F7",
"6#	c #E4E4E7",
"7#	c #9A9A9C",
"8#	c #36415A",
"9#	c #39526A",
"0#	c #394F6A",
"a#	c #36446A",
"b#	c #354C68",
"c#	c #39566C",
"d#	c #3E546D",
"e#	c #3D516C",
"f#	c #354868",
"g#	c #334866",
"h#	c #2B3D56",
"i#	c #1B6400",
"j#	c #3E8D00",
"k#	c #5D890B",
"l#	c #8D906A",
"m#	c #E1E1E3",
"n#	c #FFFFFF",
"o#	c #DADADC",
"p#	c #929295",
"q#	c #36455A",
"r#	c #3C4F6C",
"s#	c #36486A",
"t#	c #344668",
"u#	c #384D6A",
"v#	c #39536A",
"w#	c #334169",
"x#	c #394D6B",
"y#	c #33495A",
"z#	c #51502A",
"A#	c #5C5935",
"B#	c #897A46",
"C#	c #E4C299",
"D#	c #FCE3BA",
"E#	c #DFD4C3",
"F#	c #9E9EA1",
"G#	c #696351",
"H#	c #4A4332",
"I#	c #33485C",
"J#	c #3D556D",
"K#	c #3D546D",
"L#	c #3A506B",
"M#	c #384E69",
"N#	c #374969",
"O#	c #374A69",
"P#	c #354F68",
"Q#	c #374A6A",
"R#	c #39486A",
"S#	c #3D4F6D",
"T#	c #374860",
"U#	c #534735",
"V#	c #7B6053",
"W#	c #756150",
"X#	c #8D6944",
"Y#	c #E5AB84",
"Z#	c #E7AF87",
"`#	c #9B7755",
" $	c #847463",
".$	c #7F6963",
"+$	c #5C4C31",
"@$	c #3D526C",
"#$	c #3E586F",
"$$	c #3E5D70",
"%$	c #344767",
"&$	c #344568",
"*$	c #3F526E",
"=$	c #35455D",
"-$	c #5F4C2E",
";$	c #78594C",
">$	c #77594B",
",$	c #6B5339",
"'$	c #62512B",
")$	c #67523D",
"!$	c #8E6D59",
"~$	c #A37C5E",
"{$	c #8F664E",
"]$	c #5B4832",
"^$	c #33415D",
"/$	c #3D516D",
"($	c #3A546C",
"_$	c #385169",
":$	c #374C69",
"<$	c #38526A",
"[$	c #384E6A",
"}$	c #3A4B6A",
"|$	c #334357",
"1$	c #564824",
"2$	c #333945",
"3$	c #32394A",
"4$	c #7E6341",
"5$	c #A57D5D",
"6$	c #A77E5D",
"7$	c #956951",
"8$	c #654E2E",
"9$	c #2F425A",
"0$	c #3B536B",
"a$	c #344868",
"b$	c #375069",
"c$	c #354E68",
"d$	c #364C69",
"e$	c #344367",
"f$	c #324066",
"g$	c #313F67",
"h$	c #354468",
"i$	c #343A4B",
"j$	c #564923",
"k$	c #554823",
"l$	c #2E4155",
"m$	c #3B4D6A",
"n$	c #334B66",
"o$	c #324767",
"      . + @ # $ % & *   = - ; > , ' ) ! ~ { ]     ^ / ( ",
"_ : < [ } | 1 2 3 4 5 6 7 8 9 0 a b c d e f g h i j k l ",
"_ m n o p q r s t u v w x x x x w v y z A B C D E E F G ",
"H I J K < ! % L M N O P Q Q Q Q R O S M T _ U V W X Y Z ",
"` G s  .% ..+.@.#.$.%.&.Q Q Q Q *.=.-.;.N >.,.'.).q !.~.",
"{.].^./.(._.@.:.<.[.}.|.Q Q Q Q |.1.2.3.4.N 5.6.7.8.9.3 ",
"0.a.b.. c.d.e.Q Q f.g.h.i.i.i.i.j.[.k.Q Q l.m.n.o.p.q.r.",
"s.t.u.v.w.x.Q Q Q Q 3.y.y.y.y.y.y.z.Q Q Q A.S B.C.D.E.G ",
"F.F.G.H.x I.Q J.K.Q Q L.M.Q Q M.N.Q Q Q K.J.O.P.Q.R.s.S.",
"S.2 T.U.x I.Q V.#.W.Q $.X.Q Q Y.R Q Q Q Z.V.O.P.`.u.- i ",
"< 2 i  +.+++@+V.#+$+-.%+&+*+Q Y.=+-+Q Q Z.V.O.P.;+H _ >+",
",+(.'+)+!+~+++{+]+^+/+(+_+:+$.<+/+[+-+Q R }+|+P.1+2+% 3+",
"4+_ 5+= 6+7+8+9+0+a+b+c+d+e+f+g+h+i+[+-+Q l.j+P.k+l+m+n+",
"V ^ m W o+'+p+q+r+s+t+u+v+w+x+y+z+A+B+C+C+|+j+P.D+t.E+F+",
"G+H+= T.i - I+J+K+L+M+N+O+P+Q+R+S+T+B+C+Z.j+U+V+W+H+X+Y+",
"Z+`+= T. @.@+@@@#@$@%@&@*@=@-@;@>@,@'@)@|+j+m.!@^ ~@{@]@",
"^@)+0./@. (@_@:@<@[@}@|@=@-@K+1@2@3@j+j+j+4@5@6@u.D 7@8@",
"T.g 9@0@a@= b@c@d@e@f@g@h@K+1@i@j@j+U+k@4@l@m@n@o@g p@( ",
"2 o q@r@s@t@u@v@w@x@y@z@A@B@C@D@E@F@G@H@I@J@_ S..@K@* % ",
"L@M@N@O@P@0.Q@c H+R@S@T@U@V@W@X@Y@Z@`@ #.#D.+## % @#; - ",
"##$#' %#A &## H+% *#=#-#;#>#,#'#)#!#~#% n {#]#^#/#~@(#_#",
":#! <#< [#}#}#% = |#1#2#>#3#4#5#6#7#8#H+e 9#0#U a#'.0@b#",
"c#d#e#9@f#>+g#(.f#h#i#j#k#l#m#n#o#p#q#6.[#r#< ..s#t#{@0.",
">+u#0@v#t#T.w#x#^#y#z#A#B#C#D#E#F#G#H#I#9@J#K#L#^.M#@ H+",
"N#O#P#Q#R#V   S#T#U#V#W#X#Y#Z#`# $.$+$~#@$#$$$).r#= %$- ",
"p@&$- _ ^ R#' *$=$-$;$>$,$'$'$)$!$~${$]$^$/$($Y+  G._$:$",
"T._ G <$[$  }$% a |$1$1$2$Q.3$4$5$6$7$8$9$0$L@F ; ^ C 9.",
"T._ G.a$6+_$b$c$d$0 e$f$g$i h$i$j$j$k$l$m$g ( .@n$o$- 2 "};
