/* XPM */
static char * ply_l3_xpm[] = {
"28 28 516 2",
"  	c #3A4A6B",
". 	c #364869",
"+ 	c #374D68",
"@ 	c #374769",
"# 	c #3B4C6B",
"$ 	c #3C4C6C",
"% 	c #3A4B6B",
"& 	c #3A576B",
"* 	c #3A566B",
"= 	c #38486A",
"- 	c #324667",
"; 	c #344768",
"> 	c #364F69",
", 	c #3B506B",
"' 	c #3E516D",
") 	c #435870",
"! 	c #3D506D",
"~ 	c #38496B",
"{ 	c #344468",
"] 	c #364768",
"^ 	c #354369",
"/ 	c #324966",
"( 	c #334268",
"_ 	c #334068",
": 	c #344268",
"< 	c #3C4E6C",
"[ 	c #3E556E",
"} 	c #405A6F",
"| 	c #40546E",
"1 	c #3F536D",
"2 	c #39496B",
"3 	c #344369",
"4 	c #324067",
"5 	c #314A64",
"6 	c #334A65",
"7 	c #394969",
"8 	c #364668",
"9 	c #364669",
"0 	c #3A536B",
"a 	c #3D596D",
"b 	c #3D516C",
"c 	c #40566E",
"d 	c #384A6A",
"e 	c #364E69",
"f 	c #394A6A",
"g 	c #364569",
"h 	c #324068",
"i 	c #324867",
"j 	c #324C66",
"k 	c #344368",
"l 	c #364469",
"m 	c #3B4D6C",
"n 	c #394E6B",
"o 	c #3C556C",
"p 	c #3D586E",
"q 	c #3B556C",
"r 	c #3D536D",
"s 	c #354668",
"t 	c #314264",
"u 	c #2C3653",
"v 	c #503D3B",
"w 	c #503E3C",
"x 	c #523F3D",
"y 	c #4F3D3B",
"z 	c #33465A",
"A 	c #384C66",
"B 	c #344C67",
"C 	c #334867",
"D 	c #334567",
"E 	c #344D67",
"F 	c #384B6A",
"G 	c #354769",
"H 	c #3B4E6B",
"I 	c #3C516C",
"J 	c #39506B",
"K 	c #3B4C6C",
"L 	c #3C546C",
"M 	c #304356",
"N 	c #513E3C",
"O 	c #5D4846",
"P 	c #755B59",
"Q 	c #826965",
"R 	c #8F7772",
"S 	c #816864",
"T 	c #5C4745",
"U 	c #2D3758",
"V 	c #374669",
"W 	c #37466A",
"X 	c #37486A",
"Y 	c #384B6B",
"Z 	c #3B536C",
"` 	c #365069",
" .	c #374D6A",
"..	c #3C526C",
"+.	c #3A4C6B",
"@.	c #3A4C6C",
"#.	c #3A4C6A",
"$.	c #323E58",
"%.	c #765D5A",
"&.	c #846B67",
"*.	c #A08883",
"=.	c #A38B85",
"-.	c #A48C86",
";.	c #9F8782",
">.	c #836A66",
",.	c #765C5A",
"'.	c #5B4644",
").	c #2C3657",
"!.	c #3D576D",
"~.	c #3B4F6C",
"{.	c #384E6B",
"].	c #37456A",
"^.	c #37476A",
"/.	c #384F6A",
"(.	c #3C536C",
"_.	c #3A4E6B",
":.	c #394C6A",
"<.	c #323D58",
"[.	c #7D6460",
"}.	c #9A827C",
"|.	c #B29B95",
"1.	c #AA938C",
"2.	c #937B76",
"3.	c #AB948E",
"4.	c #B29B94",
"5.	c #98817B",
"6.	c #7C6360",
"7.	c #30425A",
"8.	c #3B4E6C",
"9.	c #394A6B",
"0.	c #3A526B",
"a.	c #354B68",
"b.	c #344C68",
"c.	c #324460",
"d.	c #564240",
"e.	c #9A837D",
"f.	c #AA928C",
"g.	c #98807A",
"h.	c #AB938D",
"i.	c #B19A94",
"j.	c #99817C",
"k.	c #775D5A",
"l.	c #53403E",
"m.	c #324862",
"n.	c #384F69",
"o.	c #364C68",
"p.	c #344968",
"q.	c #344569",
"r.	c #324268",
"s.	c #324467",
"t.	c #334966",
"u.	c #324666",
"v.	c #2F3B55",
"w.	c #624D4B",
"x.	c #9B837D",
"y.	c #AD968F",
"z.	c #2E3C56",
"A.	c #334A66",
"B.	c #384C69",
"C.	c #39486B",
"D.	c #39496A",
"E.	c #354963",
"F.	c #8C7470",
"G.	c #89716C",
"H.	c #8B736E",
"I.	c #8A726D",
"J.	c #8C736F",
"K.	c #88706C",
"L.	c #8D7570",
"M.	c #765C59",
"N.	c #365065",
"O.	c #334168",
"P.	c #323F68",
"Q.	c #2F3B61",
"R.	c #866E69",
"S.	c #775D5B",
"T.	c #89706C",
"U.	c #7E6562",
"V.	c #7D6461",
"W.	c #785E5C",
"X.	c #2F4062",
"Y.	c #304662",
"Z.	c #383743",
"`.	c #6A5351",
" +	c #876E6A",
".+	c #7E625B",
"++	c #947569",
"@+	c #8F7269",
"#+	c #917469",
"$+	c #89716D",
"%+	c #324364",
"&+	c #334667",
"*+	c #374F69",
"=+	c #394D6A",
"-+	c #374B69",
";+	c #334B67",
">+	c #324967",
",+	c #2F4262",
"'+	c #383345",
")+	c #8C7068",
"!+	c #BA9379",
"~+	c #BD9775",
"{+	c #655040",
"]+	c #856B50",
"^+	c #AA8869",
"/+	c #927469",
"(+	c #725B50",
"_+	c #786159",
":+	c #816965",
"<+	c #735A57",
"[+	c #354865",
"}+	c #3A526A",
"|+	c #344169",
"1+	c #344A68",
"2+	c #344868",
"3+	c #313E63",
"4+	c #393846",
"5+	c #8B6F56",
"6+	c #F0C397",
"7+	c #D0B38F",
"8+	c #706652",
"9+	c #635843",
"0+	c #BDA786",
"a+	c #B99980",
"b+	c #70594E",
"c+	c #806849",
"d+	c #9A8359",
"e+	c #786449",
"f+	c #705654",
"g+	c #354964",
"h+	c #385269",
"i+	c #38496A",
"j+	c #374E69",
"k+	c #323F5D",
"l+	c #7F6942",
"m+	c #F3C99C",
"n+	c #E6D1B2",
"o+	c #82797D",
"p+	c #7C7375",
"q+	c #F1E3CC",
"r+	c #C7AC90",
"s+	c #957B63",
"t+	c #B58E66",
"u+	c #EAC597",
"v+	c #907E54",
"w+	c #675144",
"x+	c #846C68",
"y+	c #745A57",
"z+	c #2F3F63",
"A+	c #334A67",
"B+	c #354569",
"C+	c #364B6A",
"D+	c #36456A",
"E+	c #334767",
"F+	c #313F5C",
"G+	c #7C623C",
"H+	c #ECBA8F",
"I+	c #CEB28A",
"J+	c #634731",
"K+	c #928074",
"L+	c #FCEED6",
"M+	c #E3C6A0",
"N+	c #E0BF99",
"O+	c #C39970",
"P+	c #D3AA80",
"Q+	c #8D784F",
"R+	c #624B49",
"S+	c #31354B",
"T+	c #344367",
"U+	c #364D68",
"V+	c #394F6B",
"W+	c #354D69",
"X+	c #334468",
"Y+	c #324267",
"Z+	c #334967",
"`+	c #31455C",
" @	c #705732",
".@	c #CF9E77",
"+@	c #D0A771",
"@@	c #7B4000",
"#@	c #B48B5B",
"$@	c #FFE8C3",
"%@	c #FFE1AF",
"&@	c #FAD7A7",
"*@	c #D5A27A",
"=@	c #A87F59",
"-@	c #776045",
";@	c #6C544C",
">@	c #7A615E",
",@	c #313E62",
"'@	c #364969",
")@	c #39506A",
"!@	c #3E5B6F",
"~@	c #324168",
"{@	c #384B69",
"]@	c #334368",
"^@	c #334364",
"/@	c #393E49",
"(@	c #98764F",
"_@	c #E0AD7C",
":@	c #D2A264",
"<@	c #E5BD84",
"[@	c #EAB78D",
"}@	c #DB9875",
"|@	c #916951",
"1@	c #604A48",
"2@	c #31384E",
"3@	c #304264",
"4@	c #3A4D6A",
"5@	c #384C6C",
"6@	c #3A556B",
"7@	c #3A516B",
"8@	c #374569",
"9@	c #394B66",
"0@	c #41434C",
"a@	c #9D7852",
"b@	c #D1A47B",
"c@	c #EDBC91",
"d@	c #F5CC9E",
"e@	c #C38562",
"f@	c #8B6556",
"g@	c #6A514F",
"h@	c #2F344E",
"i@	c #344765",
"j@	c #394E6A",
"k@	c #354469",
"l@	c #334668",
"m@	c #344269",
"n@	c #384E6C",
"o@	c #3F5E71",
"p@	c #40596F",
"q@	c #3E556C",
"r@	c #364E63",
"s@	c #3A3D4A",
"t@	c #765A35",
"u@	c #866842",
"v@	c #8A724A",
"w@	c #866943",
"x@	c #82613D",
"y@	c #765B36",
"z@	c #614B3B",
"A@	c #5A4543",
"B@	c #31354A",
"C@	c #453942",
"D@	c #2F334D",
"E@	c #313D64",
"F@	c #38536A",
"G@	c #354E67",
"H@	c #365068",
"I@	c #365067",
"J@	c #344E68",
"K@	c #365168",
"L@	c #3F536E",
"M@	c #3E526D",
"N@	c #354A69",
"O@	c #313C58",
"P@	c #7C786E",
"Q@	c #979389",
"R@	c #768A4F",
"S@	c #64910B",
"T@	c #628F0B",
"U@	c #798B53",
"V@	c #96918E",
"W@	c #797374",
"X@	c #2E3958",
"Y@	c #2D405C",
"Z@	c #324863",
"`@	c #3A496B",
" #	c #3D546C",
".#	c #40546F",
"+#	c #374869",
"@#	c #394E69",
"##	c #3E506D",
"$#	c #35475A",
"%#	c #909092",
"&#	c #97AF82",
"*#	c #72B01D",
"=#	c #7FC400",
"-#	c #91BC48",
";#	c #C8D1C0",
">#	c #EAEAEC",
",#	c #CDCDD0",
"'#	c #6E6F76",
")#	c #364662",
"!#	c #3C576C",
"~#	c #3B526B",
"{#	c #3A4F6B",
"]#	c #334868",
"^#	c #324B66",
"/#	c #394E6C",
"(#	c #40536E",
"_#	c #3A4D6B",
":#	c #2A3855",
"<#	c #447925",
"[#	c #70AF1B",
"}#	c #80C500",
"|#	c #87CB00",
"1#	c #87A649",
"2#	c #BBBBBE",
"3#	c #F4F4F5",
"4#	c #F9F9FA",
"5#	c #D1D1D4",
"6#	c #6E7076",
"7#	c #344B61",
"8#	c #394F6A",
"9#	c #38476A",
"0#	c #36446A",
"a#	c #37496A",
"b#	c #354C68",
"c#	c #39566C",
"d#	c #3E546D",
"e#	c #354868",
"f#	c #334866",
"g#	c #2A3C54",
"h#	c #1C6500",
"i#	c #408F00",
"j#	c #70B700",
"k#	c #6EAD0E",
"l#	c #758F5C",
"m#	c #BFBFC2",
"n#	c #F9E9CF",
"o#	c #D1A385",
"p#	c #5C4C3D",
"q#	c #374863",
"r#	c #394B6B",
"s#	c #36486A",
"t#	c #344668",
"u#	c #384D6A",
"v#	c #39536A",
"w#	c #334169",
"x#	c #394D6B",
"y#	c #3C566C",
"z#	c #2F4657",
"A#	c #31581B",
"B#	c #4A6927",
"C#	c #5AA400",
"D#	c #45621C",
"E#	c #757267",
"F#	c #D4C5AB",
"G#	c #FFE3B4",
"H#	c #E2A781",
"I#	c #745934",
"J#	c #374B61",
"K#	c #3A506B",
"L#	c #384E69",
"M#	c #374969",
"N#	c #374A69",
"O#	c #354F68",
"P#	c #374A6A",
"Q#	c #39486A",
"R#	c #3D4F6D",
"S#	c #384A5F",
"T#	c #5E5742",
"U#	c #9B8C7E",
"V#	c #A8978A",
"W#	c #9D957C",
"X#	c #8F866B",
"Y#	c #67633D",
"Z#	c #5E5138",
"`#	c #60503A",
" $	c #AD805D",
".$	c #DD9C77",
"+$	c #886742",
"@$	c #36495B",
"#$	c #3D5C6E",
"$$	c #3C4F6C",
"%$	c #344767",
"&$	c #344568",
"*$	c #3F526E",
"=$	c #36465F",
"-$	c #625237",
";$	c #A17B5A",
">$	c #9E755C",
",$	c #916F62",
"'$	c #927A75",
")$	c #826966",
"!$	c #62503A",
"~$	c #675139",
"{$	c #745748",
"]$	c #685133",
"^$	c #614F29",
"/$	c #333E57",
"($	c #3C506C",
"_$	c #3A546C",
":$	c #385169",
"<$	c #374C69",
"[$	c #38526A",
"}$	c #384E6A",
"|$	c #3A4B6A",
"1$	c #34485C",
"2$	c #6E5934",
"3$	c #A77E5D",
"4$	c #A67D5C",
"5$	c #926D55",
"6$	c #69533B",
"7$	c #564926",
"8$	c #31384D",
"9$	c #333844",
"0$	c #564824",
"a$	c #544722",
"b$	c #2C3B54",
"c$	c #3B536B",
"d$	c #375069",
"e$	c #354E68",
"f$	c #2F3B57",
"g$	c #564923",
"h$	c #554823",
"i$	c #303449",
"j$	c #354467",
"k$	c #394B6A",
"l$	c #354C66",
"m$	c #344D65",
"n$	c #354E66",
"o$	c #3B4D6B",
"p$	c #334B66",
"q$	c #324767",
"      . + @ # $ % & *   = - ; > , ' ) ! ~ { ]     ^ / ( ",
"_ : < [ } | 1 2 3 _ 4 5 6 7 8 9 0 a b c d e f g h i j k ",
"_ l m n o p q r s t u v w x x x x w y z A > B C D D E F ",
"G H I J < ! K L M N O P Q R R R R S P T N U V W X Y Z ` ",
" .F ..+.% @.#.$.T %.&.*.=.R R R R -.;.>.,.'.).. !.p ~.{.",
"].^./.(._.:.<.T [.}.|.1.2.R R R R 2.3.4.5.6.'.7.n 8.9.3 ",
"0.a.b.. @ c.d.[.R R e.4.f.g.g.g.g.h.i.j.R R k.l.m.n.o.p.",
"q.r.s.t.u.v.w.R R R R x.y.y.y.y.y.y.}.R R R [.T z.A.B.F ",
"C.C.D.f E.l.k.R F.G.R R H.I.R R I.J.R R R K.L.M.x N.q.O.",
"O.2 P.P.Q.l.k.R R.S.T.R Q U.R R V.>.R R R W.K.M.x X.- h ",
"< 2 h r.Y.Z.`. +R..+++&.@+#+$+R V.6.H.R R W.K.M.x %+_ &+",
"*+=+-+;+>+,+'+`.)+!+~+{+]+^+/+>.(+{+_+H.R S :+<+x [+% }+",
"K _ |+= 1+2+3+4+5+6+7+8+9+0+a+b+c+d+e+_+H.R k.f+x g+h+i+",
"W ^ l X j+-+^.k+l+m+n+o+p+q+r+s+t+u+v+w+R.x+y+f+x z+A+B+",
"C+D+= P.h - E+F+G+H+I+J+K+L+M+N+O+P+Q+w+R.W.f+R+S+T+U+V+",
"W+X+= P.Y+E+Z+`+ @.@+@@@#@$@%@&@*@=@-@;@>@y+f+l.,@'@)@!@",
"~@;+0.{@. ]@{ ^@/@(@_@:@<@%@&@[@}@|@;@f+f+f+1@2@3@C 4@5@",
"P.f _.6@7@= 8@V 9@0@a@b@c@d@[@}@e@f@f+R+g@1@h@i@j@f k@( ",
"2 n l@m@n@o@p@q@h+r@s@t@u@v@w@x@y@z@A@B@C@D@E@O.E+F@* % ",
"G@H@I@J@K@0.L@M@D+N@O@P@Q@R@S@T@U@V@W@X@Y@Z@V # % `@; - ",
" #.#' +#@#### D+%   $#%#&#*#=#-#;#>#,#'#)#L !#~#{#'@]#^#",
"/#! (#< _#:.:.% = O.:#<#[#}#|#1#2#3#4#5#6#7#8#9#0#a#6@b#",
"c#d#b _.e#&+f#=+e#; g#h#i#j#|#k#l#m#3#n#o#p#q#r#s#t#)@0.",
"&+u#6@v#t#P.w#x#~#y#z#A#B#i#C#i#D#E#F#G#H#I#J#K#/.L#@ D+",
"M#N#O#P#Q#W   R#M@S#T#U#V#W#X#Y#Z#`# $.$+$@$#$!.$$= %$- ",
"k@&$- _ ^ Q#' *$=$-$;$>$,$'$)$!$~${$]$^$/$($_$V+  D.:$<$",
"P._ F [$}$  |$% 1$2$3$4$5$6$7$8$9$0$a$b$b#c$G@E ; ^ B 9.",
"P._ D.2+1+:$d$e$o.f$g$g$h$i$j$D.k$l$m$n$o$f ( E+p$q$- 2 "};
