/* XPM */
static char * ply_h3_xpm[] = {
"28 28 242 2",
"  	c #3A4A6B",
". 	c #364869",
"+ 	c #374D68",
"@ 	c #374769",
"# 	c #3B4C6B",
"$ 	c #3C4C6C",
"% 	c #3A4B6B",
"& 	c #3A576B",
"* 	c #3A566B",
"= 	c #38486A",
"- 	c #324667",
"; 	c #344768",
"> 	c #364F69",
", 	c #3B506B",
"' 	c #3E516D",
") 	c #435870",
"! 	c #3D506D",
"~ 	c #38496B",
"{ 	c #344468",
"] 	c #364768",
"^ 	c #354369",
"/ 	c #324966",
"( 	c #334268",
"_ 	c #334068",
": 	c #344268",
"< 	c #3C4E6C",
"[ 	c #3E556E",
"} 	c #405A6F",
"| 	c #40546E",
"1 	c #3F536D",
"2 	c #39496B",
"3 	c #344369",
"4 	c #4D3B39",
"5 	c #40576F",
"6 	c #384A6A",
"7 	c #364E69",
"8 	c #394A6A",
"9 	c #364569",
"0 	c #324068",
"a 	c #324867",
"b 	c #324C66",
"c 	c #344368",
"d 	c #364469",
"e 	c #3B4D6C",
"f 	c #394E6B",
"g 	c #3C556C",
"h 	c #3D586E",
"i 	c #3B556C",
"j 	c #3D536D",
"k 	c #705654",
"l 	c #8F7772",
"m 	c #37506A",
"n 	c #344C67",
"o 	c #334867",
"p 	c #334567",
"q 	c #344D67",
"r 	c #384B6A",
"s 	c #354769",
"t 	c #3B4E6B",
"u 	c #3C516C",
"v 	c #39506B",
"w 	c #3B4C6C",
"x 	c #B7A099",
"y 	c #38476A",
"z 	c #37466A",
"A 	c #37486A",
"B 	c #384B6B",
"C 	c #3B536C",
"D 	c #365069",
"E 	c #374D6A",
"F 	c #3C526C",
"G 	c #3A4C6B",
"H 	c #3A4C6C",
"I 	c #37496A",
"J 	c #3D576D",
"K 	c #3B4F6C",
"L 	c #384E6B",
"M 	c #37456A",
"N 	c #37476A",
"O 	c #384F6A",
"P 	c #3C536C",
"Q 	c #3A4E6B",
"R 	c #3A4F6C",
"S 	c #3B4E6C",
"T 	c #394A6B",
"U 	c #3A526B",
"V 	c #354B68",
"W 	c #344C68",
"X 	c #364D69",
"Y 	c #384F69",
"Z 	c #364C68",
"` 	c #344968",
" .	c #344569",
"..	c #324268",
"+.	c #324467",
"@.	c #334966",
"#.	c #344B67",
"$.	c #384C69",
"%.	c #39486B",
"&.	c #39496A",
"*.	c #39546A",
"=.	c #334168",
"-.	c #323F68",
";.	c #EEBE93",
">.	c #334667",
",.	c #374F69",
"'.	c #394D6A",
").	c #374B69",
"!.	c #334B67",
"~.	c #534721",
"{.	c #FFE1AF",
"].	c #384C6A",
"^.	c #3A526A",
"/.	c #344169",
"(.	c #344A68",
"_.	c #D7906E",
":.	c #D9D9D9",
"<.	c #2E1E22",
"[.	c #D9D9DD",
"}.	c #384D69",
"|.	c #385269",
"1.	c #38496A",
"2.	c #374E69",
"3.	c #F2F2F2",
"4.	c #928A8C",
"5.	c #324767",
"6.	c #334A67",
"7.	c #354569",
"8.	c #364B6A",
"9.	c #36456A",
"0.	c #FFFFFF",
"a.	c #5C2E00",
"b.	c #36446A",
"c.	c #364D68",
"d.	c #394F6B",
"e.	c #354D69",
"f.	c #334468",
"g.	c #324267",
"h.	c #334767",
"i.	c #334967",
"j.	c #9D704C",
"k.	c #964F00",
"l.	c #364969",
"m.	c #39506A",
"n.	c #3E5B6F",
"o.	c #324168",
"p.	c #384B69",
"q.	c #334368",
"r.	c #364769",
"s.	c #38516A",
"t.	c #3A536B",
"u.	c #364A6A",
"v.	c #3A4D6A",
"w.	c #384C6C",
"x.	c #3A556B",
"y.	c #3A516B",
"z.	c #374569",
"A.	c #374669",
"B.	c #767678",
"C.	c #334369",
"D.	c #364A69",
"E.	c #394E6A",
"F.	c #354469",
"G.	c #334668",
"H.	c #344269",
"I.	c #384E6C",
"J.	c #3F5E71",
"K.	c #40596F",
"L.	c #509C00",
"M.	c #B7B7BB",
"N.	c #38536A",
"O.	c #354E67",
"P.	c #365068",
"Q.	c #365067",
"R.	c #344E68",
"S.	c #365168",
"T.	c #217500",
"U.	c #3A496B",
"V.	c #3D546C",
"W.	c #40546F",
"X.	c #374869",
"Y.	c #394E69",
"Z.	c #87CB00",
"`.	c #3A4F6B",
" +	c #334868",
".+	c #324B66",
"++	c #394E6C",
"@+	c #40536E",
"#+	c #3A4D6B",
"$+	c #125600",
"%+	c #354C68",
"&+	c #39566C",
"*+	c #3E546D",
"=+	c #3D516C",
"-+	c #354868",
";+	c #3C4F6C",
">+	c #394B6B",
",+	c #36486A",
"'+	c #344668",
")+	c #384D6A",
"!+	c #39536A",
"~+	c #A48D87",
"{+	c #3D556D",
"]+	c #3D546D",
"^+	c #3A506B",
"/+	c #384E69",
"(+	c #374969",
"_+	c #374A69",
":+	c #354F68",
"<+	c #374A6A",
"[+	c #39486A",
"}+	c #3D4F6D",
"|+	c #3E526D",
"1+	c #3D526C",
"2+	c #3E586F",
"3+	c #3E5D70",
"4+	c #344767",
"5+	c #344568",
"6+	c #3F526E",
"7+	c #8B5E4A",
"8+	c #3D516D",
"9+	c #3A546C",
"0+	c #385169",
"a+	c #374C69",
"b+	c #38526A",
"c+	c #384E6A",
"d+	c #3A4B6A",
"e+	c #3B546C",
"f+	c #3B516B",
"g+	c #394D6C",
"h+	c #344A67",
"i+	c #77584A",
"j+	c #A77E5D",
"k+	c #334768",
"l+	c #3B536B",
"m+	c #344868",
"n+	c #375069",
"o+	c #354E68",
"p+	c #364C69",
"q+	c #36466A",
"r+	c #3B4D6B",
"s+	c #334B66",
"      . + @ # $ % & *   = - ; > , ' ) ! ~ { ]     ^ / ( ",
"_ : < [ } | 1 2 3 _ 4 4 4 4 4 4 4 4 4 5 6 7 8 9 0 a b c ",
"_ d e f g h i j 4 4 k k l l l l l k k 4 4 m n o p p q r ",
"s t u v < ! w 4 k k l x l l l l l x l k k 4 y z A B C D ",
"E r F G % H 4 k l x x l l l l l l l x x l k 4 I J h K L ",
"M N O P Q 4 k l l l x x l l l l l x x l l l k 4 R S T 3 ",
"U V W . @ 4 k l l l l x x x x x x x l l l l k 4 X Y Z ` ",
" ...+.@.4 k l l k l l l l l l l l l l l k l l k 4 #.$.r ",
"%.%.&.8 4 k l k l l l l l k l k l l k l l k l k 4 *. .=.",
"=.2 -.-.4 k k k l l k l k k l k l k k l l k k k 4 +.- 0 ",
"< 2 0 ..4 k k k l k ;.k k ;.k ;.k k ;.k l k k k 4 s _ >.",
",.'.).!.4 k k k k ;.~.~.~.{.{.{.~.~.~.;.k k k k 4 ].% ^.",
"w _ /.= (.~._.k _.;.:.<.[.{.{.{.[.<.:.;._.k _.~.r }.|.1.",
"z ^ d A 2.~._.~._.;.3.<.4.{.{.{.4.<.3.;._.~._.~.5...6.7.",
"8.9.= -.0 - ~.~._.;.0.a.a.{.{.{.a.a.0.;._.~.~.r b.9.c.d.",
"e.f.= -.g.h.i.~.j.;.{.k.k.{.{.{.k.k.{.;.j.~.y y ^ l.m.n.",
"o.!.U p.. q.{ r.~._.;.{.{.{.{.{.{.{.;._.~.s.t.u.+.o v.w.",
"-.8 Q x.y.= z.A.B.~.j._.;.;.;.;.;._.j.~.B.B.C.D.E.8 F.( ",
"2 f G.H.I.J.K.B.[.L.~.~.~.~.~.~.~.~.~.L.[.M.B.=.h.N.* % ",
"O.P.Q.R.S.U B.[.0.[.L.L.T.M.B.M.T.L.L.L.[.[.j.~.% U.; - ",
"V.W.' X.Y.~._.0.0.M.L.Z.Z.M.[.M.Z.Z.L.T.M._.j.~.`.l. +.+",
"++! @+< #+~.;.{.{.B.L.Z.Z.L.T.L.Z.Z.L.$+B.~.~.y b.I x.%+",
"&+*+=+Q -+~._._.;.~.T.L.Z.T.$+T.Z.L.T.$+#+;+< >+,+'+m.U ",
">.)+x.!+'+-.~.~.~.~.l T.T.~+~+~+T.T.~+~.Q {+]+^+O /+@ 9.",
"(+_+:+<+[+z   }+|+~.k l l k k l x x ~+~.1+2+3+J ;+= 4+- ",
"F.5+- _ ^ [+' 6+! |+~.7+7+~.~.~.x x l ~.  8+9+d.  &.0+a+",
"-._ r b+c+  d+% e+f+g+~.~.h+(+i+j+j+7+k+X l+O.q ; ^ n T ",
"-._ &.m+(.0+n+o+p+q+F.=.0 0 9 i+j+j+~.O.r+8 ( h.s+5.- 2 "};
