/* XPM */
static char * ply_r2_xpm[] = {
"28 28 478 2",
"  	c #3A4A6B",
". 	c #364869",
"+ 	c #374D68",
"@ 	c #374769",
"# 	c #3B4C6B",
"$ 	c #3C4C6C",
"% 	c #3A4B6B",
"& 	c #3A576B",
"* 	c #3A566B",
"= 	c #38486A",
"- 	c #324667",
"; 	c #344768",
"> 	c #364F69",
", 	c #3B506B",
"' 	c #3E516D",
") 	c #435870",
"! 	c #3D506D",
"~ 	c #38496B",
"{ 	c #344468",
"] 	c #364768",
"^ 	c #354369",
"/ 	c #324966",
"( 	c #334268",
"_ 	c #334068",
": 	c #344268",
"< 	c #3C4E6C",
"[ 	c #3E556E",
"} 	c #405A6F",
"| 	c #40546E",
"1 	c #3F536D",
"2 	c #39496B",
"3 	c #334267",
"4 	c #313E64",
"5 	c #393343",
"6 	c #503D3B",
"7 	c #513F3D",
"8 	c #523F3D",
"9 	c #3C3A45",
"0 	c #3E546B",
"a 	c #374968",
"b 	c #364E69",
"c 	c #394A6A",
"d 	c #364569",
"e 	c #324068",
"f 	c #324867",
"g 	c #324C66",
"h 	c #344368",
"i 	c #364469",
"j 	c #3B4D6C",
"k 	c #394E6B",
"l 	c #3C556C",
"m 	c #3D586E",
"n 	c #3B556C",
"o 	c #3B5069",
"p 	c #353648",
"q 	c #6B5350",
"r 	c #795F5D",
"s 	c #8C746F",
"t 	c #8F7772",
"u 	c #363A48",
"v 	c #354D66",
"w 	c #344C67",
"x 	c #334867",
"y 	c #334567",
"z 	c #344D67",
"A 	c #384B6A",
"B 	c #354769",
"C 	c #3B4E6B",
"D 	c #3C516C",
"E 	c #39506B",
"F 	c #384967",
"G 	c #373E4C",
"H 	c #68514F",
"I 	c #7C6360",
"J 	c #917874",
"K 	c #AA928C",
"L 	c #937C76",
"M 	c #333349",
"N 	c #364465",
"O 	c #37466A",
"P 	c #37486A",
"Q 	c #384B6B",
"R 	c #3B536C",
"S 	c #365069",
"T 	c #374D6A",
"U 	c #3C526C",
"V 	c #3A4C6B",
"W 	c #374867",
"X 	c #363A4C",
"Y 	c #866D69",
"Z 	c #A18A84",
"` 	c #B49D96",
" .	c #A18983",
"..	c #917974",
"+.	c #344565",
"@.	c #3D576D",
"#.	c #3B4F6C",
"$.	c #384E6B",
"%.	c #37456A",
"&.	c #37476A",
"*.	c #384F6A",
"=.	c #3C536C",
"-.	c #3A4E6B",
";.	c #323F59",
">.	c #5C4745",
",.	c #806663",
"'.	c #A18984",
").	c #9D8680",
"!.	c #856C68",
"~.	c #614C49",
"{.	c #304058",
"].	c #3A4F6C",
"^.	c #3B4E6C",
"/.	c #394A6B",
"(.	c #344369",
"_.	c #3A526B",
":.	c #354B68",
"<.	c #344C68",
"[.	c #344363",
"}.	c #363848",
"|.	c #6A5351",
"1.	c #866E69",
"2.	c #A68E88",
"3.	c #725B58",
"4.	c #373A49",
"5.	c #334863",
"6.	c #384F69",
"7.	c #364C68",
"8.	c #344968",
"9.	c #344569",
"0.	c #324268",
"a.	c #324467",
"b.	c #334966",
"c.	c #2D3D59",
"d.	c #594543",
"e.	c #7D6461",
"f.	c #876F6A",
"g.	c #88706C",
"h.	c #826965",
"i.	c #8E7671",
"j.	c #89716D",
"k.	c #5A4543",
"l.	c #2F3E5A",
"m.	c #344B67",
"n.	c #384C69",
"o.	c #39486B",
"p.	c #39496A",
"q.	c #32445B",
"r.	c #745B58",
"s.	c #8D7570",
"t.	c #8A726D",
"u.	c #795F5C",
"v.	c #2F415B",
"w.	c #39546A",
"x.	c #334168",
"y.	c #323F68",
"z.	c #2C3759",
"A.	c #7F6663",
"B.	c #725856",
"C.	c #806661",
"D.	c #B79178",
"E.	c #7B625F",
"F.	c #8F7267",
"G.	c #A4816E",
"H.	c #33374A",
"I.	c #324364",
"J.	c #2C3F58",
"K.	c #745A58",
"L.	c #8B736E",
"M.	c #625039",
"N.	c #5B4B30",
"O.	c #775E59",
"P.	c #C59C7C",
"Q.	c #7A653F",
"R.	c #856C4C",
"S.	c #E1B38D",
"T.	c #A78471",
"U.	c #333948",
"V.	c #334C63",
"W.	c #39566B",
"X.	c #334667",
"Y.	c #374F69",
"Z.	c #394D6A",
"`.	c #374B69",
" +	c #334B67",
".+	c #705654",
"++	c #BFA77B",
"@+	c #CFA87E",
"#+	c #615132",
"$+	c #F7D7AA",
"%+	c #A9A59D",
"&+	c #534641",
"*+	c #CEC3B1",
"=+	c #F7D0A1",
"-+	c #AE8C67",
";+	c #353547",
">+	c #344164",
",+	c #334768",
"'+	c #384C6A",
")+	c #3A526A",
"!+	c #3B4C6C",
"~+	c #344169",
"{+	c #2D3F59",
"]+	c #846B67",
"^+	c #DAC091",
"/+	c #B58A63",
"(+	c #D4A980",
"_+	c #FEE2B4",
":+	c #D3D1D1",
"<+	c #46383B",
"[+	c #B8AB9E",
"}+	c #F9D4A5",
"|+	c #AC8B62",
"1+	c #32394D",
"2+	c #39476A",
"3+	c #384D69",
"4+	c #385269",
"5+	c #38496A",
"6+	c #364D68",
"7+	c #2F3C54",
"8+	c #5D4846",
"9+	c #CEA67C",
"0+	c #A97B56",
"a+	c #F7D7A6",
"b+	c #F7D9AB",
"c+	c #FFE3B5",
"d+	c #E6E0DA",
"e+	c #5A2F04",
"f+	c #8D6639",
"g+	c #F1C599",
"h+	c #9F734F",
"i+	c #2E374B",
"j+	c #354869",
"k+	c #364B69",
"l+	c #324767",
"m+	c #334A67",
"n+	c #354569",
"o+	c #364B6A",
"p+	c #36456A",
"q+	c #2B3A54",
"r+	c #594A2C",
"s+	c #C48663",
"t+	c #ECBB90",
"u+	c #FFE1AF",
"v+	c #F0CC96",
"w+	c #964F00",
"x+	c #B47932",
"y+	c #DCB98C",
"z+	c #7D5E3A",
"A+	c #2E3A4A",
"B+	c #354968",
"C+	c #36446A",
"D+	c #394F6B",
"E+	c #354D69",
"F+	c #334468",
"G+	c #324267",
"H+	c #334767",
"I+	c #2C3B52",
"J+	c #5A4546",
"K+	c #6F5553",
"L+	c #6E5553",
"M+	c #C58668",
"N+	c #D7906E",
"O+	c #FEDFAD",
"P+	c #FEDEAD",
"Q+	c #FBDBAA",
"R+	c #ECC396",
"S+	c #9E704F",
"T+	c #2E3849",
"U+	c #38476A",
"V+	c #364969",
"W+	c #39506A",
"X+	c #3E5B6F",
"Y+	c #324168",
"Z+	c #384B69",
"`+	c #334368",
" @	c #2E3952",
".@	c #574646",
"+@	c #504143",
"@@	c #5E4A49",
"#@	c #6B5250",
"$@	c #8D6747",
"%@	c #C18461",
"&@	c #D8AD83",
"*@	c #D5A77E",
"=@	c #B9805D",
"-@	c #7B5C3D",
";@	c #323B4A",
">@	c #38536A",
",@	c #38516A",
"'@	c #3A536B",
")@	c #364A6A",
"!@	c #3A4D6A",
"~@	c #384C6C",
"{@	c #3A556B",
"]@	c #3A516B",
"^@	c #374569",
"/@	c #374669",
"(@	c #333E54",
"_@	c #38495F",
":@	c #3F434B",
"<@	c #615352",
"[@	c #685E45",
"}@	c #545A1D",
"|@	c #5E631A",
"1@	c #685F42",
"2@	c #655C3F",
"3@	c #3D3F40",
"4@	c #334C67",
"5@	c #334868",
"6@	c #334369",
"7@	c #364A69",
"8@	c #394E6A",
"9@	c #354469",
"0@	c #334668",
"a@	c #344269",
"b@	c #384E6C",
"c@	c #3F5E71",
"d@	c #40596F",
"e@	c #3E556C",
"f@	c #344C60",
"g@	c #63666D",
"h@	c #BDBDC0",
"i@	c #CCCCCE",
"j@	c #74A740",
"k@	c #87CB00",
"l@	c #64AA0A",
"m@	c #9EB08D",
"n@	c #A9A9AD",
"o@	c #4C515B",
"p@	c #354E67",
"q@	c #365068",
"r@	c #365067",
"s@	c #344E68",
"t@	c #365168",
"u@	c #3F536E",
"v@	c #3E526D",
"w@	c #454B59",
"x@	c #ADADB1",
"y@	c #F2F2F3",
"z@	c #FFFFFF",
"A@	c #A7A7AA",
"B@	c #84C900",
"C@	c #6AAD11",
"D@	c #859F6F",
"E@	c #3B4B4A",
"F@	c #3A496B",
"G@	c #3D546C",
"H@	c #40546F",
"I@	c #374869",
"J@	c #394E69",
"K@	c #3E506D",
"L@	c #464B5A",
"M@	c #F7F7F8",
"N@	c #F1F1F3",
"O@	c #7F7F81",
"P@	c #85CA00",
"Q@	c #68B100",
"R@	c #338000",
"S@	c #21423A",
"T@	c #3C546C",
"U@	c #3C576C",
"V@	c #3B526B",
"W@	c #3A4F6B",
"X@	c #324B66",
"Y@	c #394E6C",
"Z@	c #40536E",
"`@	c #3A4D6B",
" #	c #394C6A",
".#	c #3C3E4B",
"+#	c #BFAC99",
"@#	c #F9E8D0",
"##	c #EFE0C8",
"$#	c #6E6855",
"%#	c #6CB400",
"&#	c #68B000",
"*#	c #3B8406",
"=#	c #3D6221",
"-#	c #384A6A",
";#	c #39526A",
">#	c #394F6A",
",#	c #37496A",
"'#	c #354C68",
")#	c #39566C",
"!#	c #3E546D",
"~#	c #3D516C",
"{#	c #354868",
"]#	c #334866",
"^#	c #353942",
"/#	c #B88963",
"(#	c #F9D4A4",
"_#	c #5F522B",
":#	c #80934D",
"<#	c #899C57",
"[#	c #6A7B4A",
"}#	c #4B4537",
"|#	c #32455A",
"1#	c #374D69",
"2#	c #3C4F6C",
"3#	c #394B6B",
"4#	c #36486A",
"5#	c #344668",
"6#	c #384D6A",
"7#	c #39536A",
"8#	c #334169",
"9#	c #394D6B",
"0#	c #354C60",
"a#	c #5F4E3F",
"b#	c #8D784F",
"c#	c #907E54",
"d#	c #887562",
"e#	c #A48D87",
"f#	c #B59E97",
"g#	c #8D776D",
"h#	c #3F3D37",
"i#	c #3A536A",
"j#	c #3D556D",
"k#	c #3D546D",
"l#	c #3A506B",
"m#	c #384E69",
"n#	c #374969",
"o#	c #374A69",
"p#	c #354F68",
"q#	c #374A6A",
"r#	c #39486A",
"s#	c #3D4F6D",
"t#	c #40566E",
"u#	c #385063",
"v#	c #443F32",
"w#	c #69513A",
"x#	c #8F6A59",
"y#	c #A68269",
"z#	c #946F5E",
"A#	c #564C3A",
"B#	c #2F3B5D",
"C#	c #3D526C",
"D#	c #3E586F",
"E#	c #3E5D70",
"F#	c #344767",
"G#	c #344568",
"H#	c #3F526E",
"I#	c #3C5A6E",
"J#	c #403F37",
"K#	c #725644",
"L#	c #8A5E4A",
"M#	c #A77E5D",
"N#	c #9B7455",
"O#	c #453E30",
"P#	c #3D516D",
"Q#	c #3A546C",
"R#	c #385169",
"S#	c #374C69",
"T#	c #38526A",
"U#	c #384E6A",
"V#	c #3A4B6A",
"W#	c #3B546C",
"X#	c #3B516B",
"Y#	c #394D6C",
"Z#	c #324363",
"`#	c #4A4131",
" $	c #5B4A27",
".$	c #5F4F2A",
"+$	c #574A2F",
"@$	c #304360",
"#$	c #364D69",
"$$	c #3B536B",
"%$	c #344868",
"&$	c #344A68",
"*$	c #375069",
"=$	c #354E68",
"-$	c #364C69",
";$	c #36466A",
">$	c #303E65",
",$	c #303E64",
"'$	c #344365",
")$	c #374868",
"!$	c #3B4D6B",
"~$	c #334B66",
"      . + @ # $ % & *   = - ; > , ' ) ! ~ { ]     ^ / ( ",
"_ : < [ } | 1 2 3 4 5 6 7 8 8 8 7 6 9 0 a b c d e f g h ",
"_ i j k l m n o p 8 q r s t t t s r q 8 u v w x y y z A ",
"B C D E < ! F G H I J K L t t t L K J I H M N O P Q R S ",
"T A U V % W X H Y Z `  ...t t t .. .` Z Y H M +.@.m #.$.",
"%.&.*.=.-.;.>.,.t t Z ` '.).).).'.` Z t t !.~.{.].^./.(.",
"_.:.<.. [.}.|.1.t t t '.2.2.2.2.2.'.t t t t 3.4.5.6.7.8.",
"9.0.a.b.c.d.e.f.g.t t t h.i.t i.h.t t j.1.t e.k.l.m.n.A ",
"o.o.p.c q.d.e.,.h.t t t r.s.t s.r.t t.u.e.t e.k.v.w.9.x.",
"x.2 y.y.z.d.e.,.h.t t A.B.s.t C.D.E.F.G.e.!.H H.I.a.- e ",
"< 2 e 0.J.d.K.,.L.t A.M.N.O.r P.Q.N.R.S.T.H U.V.W.B _ X.",
"Y.Z.`. +J.d..+,.t A.M.++@+#+g.$+%+&+*+=+-+;+>+O ,+'+% )+",
"!+_ ~+= {+k..+B.]+E.N.^+/+(+t _+:+<+[+}+|+1+2+c A 3+4+5+",
"O ^ i P 6+7+8+.+h.E.N.9+0+a+b+c+d+e+f+g+h+i+j+k+l+0.m+n+",
"o+p+= y.e q+>..+.+.+.+r+s+t+u+u+v+w+x+y+z+A+B+A C+p+6+D+",
"E+F+= y.G+H+I+J+K+L+K+.+M+N+t+O+P+Q+R+S+T+F+U+U+^ V+W+X+",
"Y+ +_.Z+. `+{  @.@+@@@#@$@%@s+&@*@=@-@;@>@,@'@)@a.x !@~@",
"y.c -.{@]@= ^@/@(@_@:@<@[@}@|@}@1@2@3@4@5@6@6@7@8@c 9@( ",
"2 k 0@a@b@c@d@e@4+f@g@h@i@j@k@l@m@n@o@- _ _ _ x.H+>@* % ",
"p@q@r@s@t@_.u@v@p+w@x@y@z@A@k@B@C@D@E@x.5@m./@# % F@; - ",
"G@H@' I@J@K@# p+% L@h@M@N@O@k@P@Q@R@S@% j T@U@V@W@V+5@X@",
"Y@! Z@< `@ # #% = .#+#@###$#%#&#*#=#S@p+-#;#>#U+C+,#{@'#",
")#!#~#-.{#X.]#Z.{#^#/#(#u+_#:#<#[#}#|#1#`@2#< 3#4#5#W+_.",
"X.6#{@7#5#y.8#9#V@0#a#b#c#d#e#f#g#h#k i#-.j#k#l#*.m#@ p+",
"n#o#p#q#r#O   s#v@t#u#v#w#x#y#z#A#B#a@V C#D#E#@.2#= F#- ",
"9@G#- _ ^ r#' H#! v@I#J#K#L#M#N#O#_ x.9@  P#Q#D+  p.R#S#",
"y._ A T#U#  V#% W#X#Y#Z#`# $.$+$@$( x.,+#$$$p@z ; ^ w /.",
"y._ p.%$&$R#*$=$-$;$9@x.>$,$'$)$V 6+p@p@!$c ( H+~$l+- 2 "};
