/* XPM */
static char * ply_b3_xpm[] = {
"28 28 235 2",
"  	c #3A4A6B",
". 	c #364869",
"+ 	c #374D68",
"@ 	c #374769",
"# 	c #3B4C6B",
"$ 	c #3C4C6C",
"% 	c #3A4B6B",
"& 	c #3A576B",
"* 	c #3A566B",
"= 	c #38486A",
"- 	c #324667",
"; 	c #344768",
"> 	c #364F69",
", 	c #3B506B",
"' 	c #3E516D",
") 	c #435870",
"! 	c #3D506D",
"~ 	c #38496B",
"{ 	c #344468",
"] 	c #364768",
"^ 	c #354369",
"/ 	c #324966",
"( 	c #334268",
"_ 	c #334068",
": 	c #344268",
"< 	c #3C4E6C",
"[ 	c #3E556E",
"} 	c #405A6F",
"| 	c #40546E",
"1 	c #3F536D",
"2 	c #39496B",
"3 	c #344369",
"4 	c #4D3B39",
"5 	c #40576F",
"6 	c #384A6A",
"7 	c #364E69",
"8 	c #394A6A",
"9 	c #364569",
"0 	c #324068",
"a 	c #324867",
"b 	c #324C66",
"c 	c #344368",
"d 	c #364469",
"e 	c #3B4D6C",
"f 	c #394E6B",
"g 	c #3C556C",
"h 	c #3D586E",
"i 	c #3B556C",
"j 	c #3D536D",
"k 	c #705654",
"l 	c #37506A",
"m 	c #344C67",
"n 	c #334867",
"o 	c #334567",
"p 	c #344D67",
"q 	c #384B6A",
"r 	c #354769",
"s 	c #3B4E6B",
"t 	c #3C516C",
"u 	c #39506B",
"v 	c #3B4C6C",
"w 	c #8F7772",
"x 	c #B7A099",
"y 	c #38476A",
"z 	c #37466A",
"A 	c #37486A",
"B 	c #384B6B",
"C 	c #3B536C",
"D 	c #365069",
"E 	c #374D6A",
"F 	c #3C526C",
"G 	c #3A4C6B",
"H 	c #3A4C6C",
"I 	c #37496A",
"J 	c #3D576D",
"K 	c #3B4F6C",
"L 	c #384E6B",
"M 	c #37456A",
"N 	c #37476A",
"O 	c #384F6A",
"P 	c #3C536C",
"Q 	c #3A4E6B",
"R 	c #3A4F6C",
"S 	c #3B4E6C",
"T 	c #394A6B",
"U 	c #3A526B",
"V 	c #354B68",
"W 	c #344C68",
"X 	c #364D69",
"Y 	c #384F69",
"Z 	c #364C68",
"` 	c #344968",
" .	c #344569",
"..	c #324268",
"+.	c #324467",
"@.	c #334966",
"#.	c #344B67",
"$.	c #384C69",
"%.	c #39486B",
"&.	c #39496A",
"*.	c #39546A",
"=.	c #334168",
"-.	c #323F68",
";.	c #334667",
">.	c #374F69",
",.	c #394D6A",
"'.	c #374B69",
").	c #334B67",
"!.	c #384C6A",
"~.	c #3A526A",
"{.	c #344169",
"].	c #344A68",
"^.	c #534721",
"/.	c #D7906E",
"(.	c #384D69",
"_.	c #385269",
":.	c #38496A",
"<.	c #374E69",
"[.	c #324767",
"}.	c #334A67",
"|.	c #354569",
"1.	c #364B6A",
"2.	c #36456A",
"3.	c #36446A",
"4.	c #364D68",
"5.	c #394F6B",
"6.	c #354D69",
"7.	c #334468",
"8.	c #324267",
"9.	c #334767",
"0.	c #334967",
"a.	c #364969",
"b.	c #39506A",
"c.	c #3E5B6F",
"d.	c #324168",
"e.	c #384B69",
"f.	c #334368",
"g.	c #364769",
"h.	c #38516A",
"i.	c #3A536B",
"j.	c #364A6A",
"k.	c #3A4D6A",
"l.	c #384C6C",
"m.	c #3A556B",
"n.	c #3A516B",
"o.	c #374569",
"p.	c #374669",
"q.	c #767678",
"r.	c #334369",
"s.	c #364A69",
"t.	c #394E6A",
"u.	c #354469",
"v.	c #334668",
"w.	c #344269",
"x.	c #384E6C",
"y.	c #3F5E71",
"z.	c #40596F",
"A.	c #B7B7BB",
"B.	c #217500",
"C.	c #509C00",
"D.	c #38536A",
"E.	c #354E67",
"F.	c #365068",
"G.	c #365067",
"H.	c #344E68",
"I.	c #365168",
"J.	c #D9D9DD",
"K.	c #FFFFFF",
"L.	c #87CB00",
"M.	c #3A496B",
"N.	c #3D546C",
"O.	c #40546F",
"P.	c #374869",
"Q.	c #394E69",
"R.	c #3B526B",
"S.	c #3A4F6B",
"T.	c #334868",
"U.	c #324B66",
"V.	c #394E6C",
"W.	c #40536E",
"X.	c #EEBE93",
"Y.	c #FFE1AF",
"Z.	c #125600",
"`.	c #9D704C",
" +	c #354C68",
".+	c #39566C",
"++	c #3E546D",
"@+	c #3D516C",
"#+	c #394B6B",
"$+	c #36486A",
"%+	c #344668",
"&+	c #384D6A",
"*+	c #39536A",
"=+	c #3D556D",
"-+	c #3D546D",
";+	c #3A506B",
">+	c #384E69",
",+	c #374969",
"'+	c #374A69",
")+	c #354F68",
"!+	c #374A6A",
"~+	c #39486A",
"{+	c #3D4F6D",
"]+	c #3E526D",
"^+	c #A48D87",
"/+	c #3D526C",
"(+	c #3E586F",
"_+	c #3E5D70",
":+	c #3C4F6C",
"<+	c #344767",
"[+	c #344568",
"}+	c #3F526E",
"|+	c #8B5E4A",
"1+	c #3D516D",
"2+	c #3A546C",
"3+	c #385169",
"4+	c #374C69",
"5+	c #38526A",
"6+	c #384E6A",
"7+	c #3A4B6A",
"8+	c #3B546C",
"9+	c #3B516B",
"0+	c #394D6C",
"a+	c #344A67",
"b+	c #77584A",
"c+	c #A77E5D",
"d+	c #334768",
"e+	c #3B536B",
"f+	c #344868",
"g+	c #375069",
"h+	c #354E68",
"i+	c #364C69",
"j+	c #36466A",
"k+	c #3B4D6B",
"l+	c #334B66",
"      . + @ # $ % & *   = - ; > , ' ) ! ~ { ]     ^ / ( ",
"_ : < [ } | 1 2 3 _ 4 4 4 4 4 4 4 4 4 5 6 7 8 9 0 a b c ",
"_ d e f g h i j 4 4 k k k k k k k k k 4 4 l m n o o p q ",
"r s t u < ! v 4 k w w x w w w w w x w w k 4 y z A B C D ",
"E q F G % H 4 k w w x w w w w w w w x w w k 4 I J h K L ",
"M N O P Q 4 k w w x x w w w w w w w x x w w k 4 R S T 3 ",
"U V W . @ 4 k w w x x x w w w w w x x x w w k 4 X Y Z ` ",
" ...+.@.4 k w w w w x x x x x x x x x w w w w k 4 #.$.q ",
"%.%.&.8 4 k w w w w w x x x x x x x w w w w w k 4 *. .=.",
"=.2 -.-.4 k w k w w w w w w w w w w w w w k w k 4 +.- 0 ",
"< 2 0 ..4 k w k w w w w w w w w w w w w w k w k 4 r _ ;.",
">.,.'.).4 k k k w w w w w w w w w w w w w k k k 4 !.% ~.",
"v _ {.= ].^./.k k w w w w w w w w w w w k k /.^.q (._.:.",
"z ^ d A <.^./.k k w w k w w w w w k w w k k /.^.[...}.|.",
"1.2.= -.0 - ^.4 k k w k w w k w w k w k k 4 ^.q 3.2.4.5.",
"6.7.= -.8.9.0.4 k k k k k w k w k k k k k 4 y y ^ a.b.c.",
"d.).U e.. f.{ g.4 k k k k k k k k k k k 4 h.i.j.+.n k.l.",
"-.8 Q m.n.= o.p.q.4 k 4 k k k k k 4 k 4 q.r.r.s.t.8 u.( ",
"2 f v.w.x.y.z.q.A.A.4 B.4 k 4 k 4 B.4 C.A.q._ =.9.D.* % ",
"E.F.G.H.I.U q.J.K.J.C.C.L.4 L.4 L.C.C.C.J.A.q.# % M.; - ",
"N.O.' P.Q.q.J.K.J.q.C.L.L.L.L.L.L.L.C.B.A.A.q.R.S.a.T.U.",
"V.! W.< ^.X.Y.K.A.Z.C.L.L.L.L.L.L.L.C.Z.`.`.^.y 3.I m. +",
".+++@+Q ^./.Y.Y.^.Z.B.C.L.L.L.L.L.C.B.Z.^.^.< #+$+%+b.U ",
";.&+m.*+%+^.^.^.R.^.k B.B.C.C.C.B.B.w ^.Q =+-+;+O >+@ 2.",
",+'+)+!+~+z   {+]+^.k ^+w k k k w ^+k ^./+(+_+J :+= <+- ",
"u.[+- _ ^ ~+' }+! ]+^.|+|+^.^.^.x x k ^.  1+2+5.  &.3+4+",
"-._ q 5+6+  7+% 8+9+0+^.^.a+,+b+c+c+^.d+X e+E.p ; ^ m T ",
"-._ &.f+].3+g+h+i+j+u.=.0 0 9 b+c+c+^.E.k+8 ( 9.l+[.- 2 "};
