/* XPM */
static char * ply_b2_xpm[] = {
"28 28 476 2",
"  	c #3A4A6B",
". 	c #364869",
"+ 	c #374D68",
"@ 	c #374769",
"# 	c #3B4C6B",
"$ 	c #3C4C6C",
"% 	c #3A4B6B",
"& 	c #3A576B",
"* 	c #3A566B",
"= 	c #38486A",
"- 	c #324667",
"; 	c #344768",
"> 	c #364F69",
", 	c #3B506B",
"' 	c #3E516D",
") 	c #435870",
"! 	c #3D506D",
"~ 	c #38496B",
"{ 	c #344468",
"] 	c #364768",
"^ 	c #354369",
"/ 	c #324966",
"( 	c #334268",
"_ 	c #334068",
": 	c #344268",
"< 	c #3C4E6C",
"[ 	c #3E556E",
"} 	c #405A6F",
"| 	c #40546E",
"1 	c #3F536D",
"2 	c #39496B",
"3 	c #344369",
"4 	c #324067",
"5 	c #314A64",
"6 	c #334A65",
"7 	c #394969",
"8 	c #364668",
"9 	c #364669",
"0 	c #3A536B",
"a 	c #3D596D",
"b 	c #3D516C",
"c 	c #40566E",
"d 	c #384A6A",
"e 	c #364E69",
"f 	c #394A6A",
"g 	c #364569",
"h 	c #324068",
"i 	c #324867",
"j 	c #324C66",
"k 	c #344368",
"l 	c #364469",
"m 	c #3B4D6C",
"n 	c #394E6B",
"o 	c #3C556C",
"p 	c #3D586E",
"q 	c #3B556C",
"r 	c #3D536D",
"s 	c #354668",
"t 	c #314264",
"u 	c #2C3653",
"v 	c #503D3B",
"w 	c #4F3D3B",
"x 	c #33465A",
"y 	c #384C66",
"z 	c #344C67",
"A 	c #334867",
"B 	c #334567",
"C 	c #344D67",
"D 	c #384B6A",
"E 	c #354769",
"F 	c #3B4E6B",
"G 	c #3C516C",
"H 	c #39506B",
"I 	c #3B4C6C",
"J 	c #3C546C",
"K 	c #304356",
"L 	c #523F3D",
"M 	c #5F4A48",
"N 	c #755B59",
"O 	c #765C5A",
"P 	c #735A57",
"Q 	c #5E4947",
"R 	c #2D3758",
"S 	c #374669",
"T 	c #37466A",
"U 	c #37486A",
"V 	c #384B6B",
"W 	c #3B536C",
"X 	c #365069",
"Y 	c #374D6A",
"Z 	c #3C526C",
"` 	c #3A4C6B",
" .	c #3A4C6C",
"..	c #3A4C6A",
"+.	c #323E58",
"@.	c #5C4745",
"#.	c #7D6461",
"$.	c #917974",
"%.	c #A08883",
"&.	c #A38B85",
"*.	c #8F7772",
"=.	c #A48C86",
"-.	c #9F8782",
";.	c #7C6360",
">.	c #5B4644",
",.	c #2C3657",
"'.	c #3D576D",
").	c #3B4F6C",
"!.	c #384E6B",
"~.	c #37456A",
"{.	c #37476A",
"].	c #384F6A",
"^.	c #3C536C",
"/.	c #3A4E6B",
"(.	c #394C6A",
"_.	c #323D58",
":.	c #7D6460",
"<.	c #A28A84",
"[.	c #A7908A",
"}.	c #A9918B",
"|.	c #A18983",
"1.	c #30425A",
"2.	c #3B4E6C",
"3.	c #394A6B",
"4.	c #3A526B",
"5.	c #354B68",
"6.	c #344C68",
"7.	c #324460",
"8.	c #55413F",
"9.	c #785E5C",
"0.	c #9C847F",
"a.	c #B7A099",
"b.	c #AB938D",
"c.	c #947C77",
"d.	c #AC948E",
"e.	c #9A837D",
"f.	c #775D5A",
"g.	c #53403E",
"h.	c #324862",
"i.	c #384F69",
"j.	c #364C68",
"k.	c #344968",
"l.	c #344569",
"m.	c #324268",
"n.	c #324467",
"o.	c #334966",
"p.	c #324666",
"q.	c #2F3B55",
"r.	c #5D4846",
"s.	c #7E6461",
"t.	c #99817B",
"u.	c #B19993",
"v.	c #AA938C",
"w.	c #99817C",
"x.	c #AB948E",
"y.	c #B09992",
"z.	c #98807A",
"A.	c #2E3C56",
"B.	c #334A66",
"C.	c #384C69",
"D.	c #39486B",
"E.	c #39496A",
"F.	c #354963",
"G.	c #B09892",
"H.	c #98807B",
"I.	c #765C59",
"J.	c #365065",
"K.	c #334168",
"L.	c #323F68",
"M.	c #2F3B61",
"N.	c #8D7470",
"O.	c #886F6B",
"P.	c #9A827C",
"Q.	c #8D7570",
"R.	c #2F4062",
"S.	c #2F4460",
"T.	c #876F6A",
"U.	c #795F5D",
"V.	c #88706C",
"W.	c #324364",
"X.	c #334667",
"Y.	c #374F69",
"Z.	c #394D6A",
"`.	c #374B69",
" +	c #334B67",
".+	c #745A58",
"++	c #7E6562",
"@+	c #7F6662",
"#+	c #354865",
"$+	c #3A526A",
"%+	c #344169",
"&+	c #324764",
"*+	c #353746",
"=+	c #705645",
"-+	c #91695C",
";+	c #866D69",
">+	c #745B58",
",+	c #936A5D",
"'+	c #6E5544",
")+	c #363848",
"!+	c #364B66",
"~+	c #385269",
"{+	c #38496A",
"]+	c #374E69",
"^+	c #6F5732",
"/+	c #BD8268",
"(+	c #705654",
"_+	c #7A615E",
":+	c #89716D",
"<+	c #876E6A",
"[+	c #866E6A",
"}+	c #8A726D",
"|+	c #C18468",
"1+	c #6B542F",
"2+	c #2F4260",
"3+	c #334A67",
"4+	c #354569",
"5+	c #364B6A",
"6+	c #36456A",
"7+	c #304362",
"8+	c #3D3C45",
"9+	c #876347",
"0+	c #634C4A",
"a+	c #856C68",
"b+	c #836A66",
"c+	c #846B67",
"d+	c #846C68",
"e+	c #896447",
"f+	c #3B3D48",
"g+	c #344266",
"h+	c #364D68",
"i+	c #394F6B",
"j+	c #354D69",
"k+	c #334468",
"l+	c #324267",
"m+	c #334767",
"n+	c #314662",
"o+	c #333A47",
"p+	c #574341",
"q+	c #795F5C",
"r+	c #765D5A",
"s+	c #866E69",
"t+	c #806663",
"u+	c #816864",
"v+	c #79605D",
"w+	c #755B58",
"x+	c #564240",
"y+	c #333749",
"z+	c #364466",
"A+	c #364969",
"B+	c #39506A",
"C+	c #3E5B6F",
"D+	c #324168",
"E+	c #384B69",
"F+	c #334368",
"G+	c #334364",
"H+	c #363B4C",
"I+	c #624C4A",
"J+	c #775E5B",
"K+	c #624B49",
"L+	c #333C4B",
"M+	c #374F66",
"N+	c #364A6A",
"O+	c #3A4D6A",
"P+	c #384C6C",
"Q+	c #3A556B",
"R+	c #3A516B",
"S+	c #374569",
"T+	c #35455D",
"U+	c #625756",
"V+	c #68504E",
"W+	c #644D4B",
"X+	c #635857",
"Y+	c #2E3B5C",
"Z+	c #334369",
"`+	c #364A69",
" @	c #394E6A",
".@	c #354469",
"+@	c #334668",
"@@	c #344269",
"#@	c #384E6C",
"$@	c #3F5E71",
"%@	c #40596F",
"&@	c #394F64",
"*@	c #60656A",
"=@	c #95A284",
"-@	c #536725",
";@	c #495030",
">@	c #425428",
",@	c #654D4B",
"'@	c #664E4C",
")@	c #415527",
"!@	c #4B4F32",
"~@	c #526823",
"{@	c #98A48A",
"]@	c #5C5E68",
"^@	c #303C61",
"/@	c #38536A",
"(@	c #354E67",
"_@	c #365068",
":@	c #365067",
"<@	c #344E68",
"[@	c #365168",
"}@	c #3B4D66",
"|@	c #62656C",
"1@	c #CACACC",
"2@	c #BED7A6",
"3@	c #509107",
"4@	c #49840B",
"5@	c #579508",
"6@	c #677328",
"7@	c #66702A",
"8@	c #656D2C",
"9@	c #687727",
"0@	c #559507",
"a@	c #4A830C",
"b@	c #509206",
"c@	c #C4DAAE",
"d@	c #C8C8CA",
"e@	c #5E6068",
"f@	c #384865",
"g@	c #3A496B",
"h@	c #3D546C",
"i@	c #40546F",
"j@	c #374869",
"k@	c #394E69",
"l@	c #3A4B66",
"m@	c #4B433D",
"n@	c #AA9280",
"o@	c #EFEFF1",
"p@	c #AAC49D",
"q@	c #3A8A00",
"r@	c #5FA900",
"s@	c #7EC300",
"t@	c #7FB808",
"u@	c #7FB608",
"v@	c #7EB509",
"w@	c #80B907",
"x@	c #7DC300",
"y@	c #5EA800",
"z@	c #398900",
"A@	c #B0C7A5",
"B@	c #F0F0F2",
"C@	c #A78E7A",
"D@	c #48433E",
"E@	c #374B66",
"F@	c #334868",
"G@	c #324B66",
"H@	c #394E6C",
"I@	c #40536E",
"J@	c #3A4D6B",
"K@	c #344561",
"L@	c #73623A",
"M@	c #EDCEA1",
"N@	c #EDDDC3",
"O@	c #89A085",
"P@	c #2B7400",
"Q@	c #66AE00",
"R@	c #87CB00",
"S@	c #64AD00",
"T@	c #287200",
"U@	c #8FA48C",
"V@	c #EFDEC3",
"W@	c #ECCCA0",
"X@	c #6D5D36",
"Y@	c #323F63",
"Z@	c #37496A",
"`@	c #354C68",
" #	c #39566C",
".#	c #3E546D",
"+#	c #354868",
"@#	c #2F405E",
"##	c #78683F",
"$#	c #FCDAAA",
"%#	c #CAA880",
"&#	c #4D5C2D",
"*#	c #1B6400",
"=#	c #3E8D00",
"-#	c #6EB600",
";#	c #6DB500",
">#	c #3C8C00",
",#	c #1A6300",
"'#	c #505C2F",
")#	c #CFAC83",
"!#	c #FCDBAA",
"~#	c #72633A",
"{#	c #324363",
"]#	c #344668",
"^#	c #384D6A",
"/#	c #39536A",
"(#	c #313E66",
"_#	c #2F3856",
":#	c #716139",
"<#	c #4D4A40",
"[#	c #324453",
"}#	c #5A5A33",
"|#	c #5B7939",
"1#	c #2E8000",
"2#	c #459300",
"3#	c #5AA400",
"4#	c #449200",
"5#	c #2D7F00",
"6#	c #5E793C",
"7#	c #585830",
"8#	c #313F54",
"9#	c #524B3E",
"0#	c #334459",
"a#	c #384E69",
"b#	c #374969",
"c#	c #374A69",
"d#	c #354F68",
"e#	c #374A6A",
"f#	c #39486A",
"g#	c #394966",
"h#	c #3B4E68",
"i#	c #37495C",
"j#	c #68583E",
"k#	c #907E73",
"l#	c #8A816C",
"m#	c #827962",
"n#	c #867C62",
"o#	c #8A826D",
"p#	c #66563B",
"q#	c #35475C",
"r#	c #3B5369",
"s#	c #3A5768",
"t#	c #3C566C",
"u#	c #3C4F6C",
"v#	c #344767",
"w#	c #344568",
"x#	c #3F526E",
"y#	c #36455B",
"z#	c #5F4E34",
"A#	c #AD968F",
"B#	c #8C7470",
"C#	c #8E7671",
"D#	c #AD9690",
"E#	c #8B726E",
"F#	c #5D4D32",
"G#	c #33405B",
"H#	c #3D516D",
"I#	c #3A546C",
"J#	c #385169",
"K#	c #374C69",
"L#	c #38526A",
"M#	c #384E6A",
"N#	c #3A4B6A",
"O#	c #3B546C",
"P#	c #3A506A",
"Q#	c #313F55",
"R#	c #6B5336",
"S#	c #8E624F",
"T#	c #73563B",
"U#	c #554825",
"V#	c #75573C",
"W#	c #695234",
"X#	c #2C3B54",
"Y#	c #3B536B",
"Z#	c #344868",
"`#	c #344A68",
" $	c #375069",
".$	c #354E68",
"+$	c #364C69",
"@$	c #36466A",
"#$	c #2E3956",
"$$	c #745C38",
"%$	c #A67D5C",
"&$	c #7F6441",
"*$	c #31374B",
"=$	c #333A4A",
"-$	c #826643",
";$	c #715A36",
">$	c #2F4256",
",$	c #3B4D6B",
"'$	c #334B66",
")$	c #324767",
"      . + @ # $ % & *   = - ; > , ' ) ! ~ { ]     ^ / ( ",
"_ : < [ } | 1 2 3 _ 4 5 6 7 8 9 0 a b c d e f g h i j k ",
"_ l m n o p q r s t u v w v w v v v w x y > z A B B C D ",
"E F G H < ! I J K L M N O P P P P O N Q L R S T U V W X ",
"Y D Z ` %  ...+.@.#.$.%.&.*.*.*.*.=.-.$.;.>.,.. '.p ).!.",
"~.{.].^./.(._.@.:.$.<.[.*.*.*.*.*.*.}.|.$.;.>.1.n 2.3.3 ",
"4.5.6.. @ 7.8.9.*.0.a.b.c.*.*.*.*.c.d.a.e.*.f.g.h.i.j.k.",
"l.m.n.o.p.q.r.s.*.t.u.a.v.w.w.w.w.x.a.y.z.*.:.@.A.B.C.D ",
"D.D.E.f F.g.f.*.*.*.w.y.a.a.a.a.a.a.G.H.*.*.*.I.L J.l.K.",
"K.2 L.L.M.g.f.N.O.*.*.P.v.v.v.v.v.v.t.*.*.O.Q.I.L R.- h ",
"< 2 h m.S.g.f.T.U.*.*.*.*.*.*.*.*.*.*.*.*.9.V.I.L W._ X.",
"Y.Z.`. +S.g..+++U.*.*.*.*.*.*.*.*.*.*.*.*.9.@+P L #+% $+",
"I _ %+= &+*+=+-+N ;+*.*.*.*.*.*.*.*.*.*.;+>+,+'+)+!+~+{+",
"T ^ l U ]+7.^+/+(+_+*.:+<+*.*.*.*.[+}+*.U.(+|+1+2+m.3+4+",
"5+6+= L.h 7+8+9+0+N a+b+#.*.T.O.*.;.c+d+>+0+e+f+g+6+h+i+",
"j+k+= L.l+m+n+o+p+(+N q+r+s+t+u+;+I.v+w+(+x+y+z+^ A+B+C+",
"D+ +4.E+. F+{ G+H+I+(+(+(+r+f.J+O (+(+(+K+L+M+N+n.A O+P+",
"L.f /.Q+R+= S+S T+U+K+V+W+(+(+(+(+0+V+K+X+Y+Z+`+ @f .@( ",
"2 n +@@@#@$@%@&@*@=@-@;@>@W+,@'@0+)@!@~@{@]@^@K.m+/@* % ",
"(@_@:@<@[@4.}@|@1@2@3@4@5@6@7@8@9@0@a@b@c@d@e@f@% g@; - ",
"h@i@' j@k@l@m@n@o@p@q@r@s@t@u@v@w@x@y@z@A@B@C@D@E@A+F@G@",
"H@! I@< J@K@L@M@N@O@P@Q@R@R@R@R@R@R@S@T@U@V@W@X@Y@Z@Q+`@",
" #.#b /.+#@###$#%#&#*#=#-#R@R@R@R@;#>#,#'#)#!#~#{#]#B+4.",
"X.^#Q+/#]#(#_#:#<#[#}#|#1#2#3#3#4#5#6#7#8#9#:#0#]+a#@ 6+",
"b#c#d#e#f#T 7 g#h#i#j#k#l#m#n#n#m#o#k#p#q#r#s#t#u#= v#- ",
".@w#- _ ^ f#' x#! y#z#N.A#B#P P C#D#E#F#G#H#I#i+  E.J#K#",
"L._ D L#M#  N#% O#P#Q#R#S#T#U#U#V#S#W#X#`@Y#(@C ; ^ z 3.",
"L._ E.Z#`#J# $.$+$@$#$$$%$&$*$=$-$%$;$>$,$f ( m+'$)$- 2 "};
