/* XPM */
static char * ply_h1_xpm[] = {
"28 28 541 2",
"  	c #3A4A6B",
". 	c #364869",
"+ 	c #374D68",
"@ 	c #374769",
"# 	c #3B4C6B",
"$ 	c #3C4C6C",
"% 	c #3A4B6B",
"& 	c #3A576B",
"* 	c #3A566B",
"= 	c #38486A",
"- 	c #324667",
"; 	c #344768",
"> 	c #364F69",
", 	c #3B506B",
"' 	c #3E516D",
") 	c #435870",
"! 	c #3D506D",
"~ 	c #38496B",
"{ 	c #344468",
"] 	c #364768",
"^ 	c #354369",
"/ 	c #324966",
"( 	c #334268",
"_ 	c #334068",
": 	c #344268",
"< 	c #3C4E6C",
"[ 	c #3E556E",
"} 	c #405A6F",
"| 	c #40546E",
"1 	c #3F536D",
"2 	c #39496B",
"3 	c #334267",
"4 	c #2C3556",
"5 	c #4E3C3A",
"6 	c #4F3C3A",
"7 	c #4F3D3B",
"8 	c #344359",
"9 	c #3F566D",
"0 	c #384A69",
"a 	c #364E69",
"b 	c #394A6A",
"c 	c #364569",
"d 	c #324068",
"e 	c #324867",
"f 	c #324C66",
"g 	c #344368",
"h 	c #364469",
"i 	c #3B4D6C",
"j 	c #394E6B",
"k 	c #3C556C",
"l 	c #3D586E",
"m 	c #3B546B",
"n 	c #35465D",
"o 	c #5B4644",
"p 	c #735957",
"q 	c #7F6663",
"r 	c #8F7772",
"s 	c #806764",
"t 	c #735A57",
"u 	c #5C4745",
"v 	c #503D3B",
"w 	c #324258",
"x 	c #344C67",
"y 	c #334867",
"z 	c #334567",
"A 	c #344D67",
"B 	c #384B6A",
"C 	c #354769",
"D 	c #3B4E6B",
"E 	c #3C516C",
"F 	c #39506B",
"G 	c #3C4F6C",
"H 	c #33415C",
"I 	c #594543",
"J 	c #755B58",
"K 	c #816764",
"L 	c #9F8781",
"M 	c #A58D87",
"N 	c #A38C86",
"O 	c #A08882",
"P 	c #816865",
"Q 	c #755B59",
"R 	c #2D3758",
"S 	c #374669",
"T 	c #37466A",
"U 	c #37486A",
"V 	c #384B6B",
"W 	c #3B536C",
"X 	c #365069",
"Y 	c #374D6A",
"Z 	c #3C526C",
"` 	c #3A4C6B",
" .	c #7B625F",
"..	c #99817C",
"+.	c #B39C95",
"@.	c #AB938D",
"#.	c #927B75",
"$.	c #927A75",
"%.	c #AA928C",
"&.	c #9A827D",
"*.	c #7C6360",
"=.	c #2C3657",
"-.	c #3D576D",
";.	c #3B4F6C",
">.	c #384E6B",
",.	c #37456A",
"'.	c #37476A",
").	c #384F6A",
"!.	c #3C536C",
"~.	c #364964",
"{.	c #53403E",
"].	c #775D5A",
"^.	c #9A827C",
"/.	c #B29B95",
"(.	c #AA938C",
"_.	c #967E79",
":.	c #A9928B",
"<.	c #9B837D",
"[.	c #785E5C",
"}.	c #55413F",
"|.	c #334762",
"1.	c #3A4F6C",
"2.	c #3B4E6C",
"3.	c #394A6B",
"4.	c #344369",
"5.	c #3A526B",
"6.	c #354B68",
"7.	c #344C68",
"8.	c #354768",
"9.	c #2F3C58",
"0.	c #7C635F",
"a.	c #8D7570",
"b.	c #8A726D",
"c.	c #9A837D",
"d.	c #AE9791",
"e.	c #9B847E",
"f.	c #8A726E",
"g.	c #7D6460",
"h.	c #314157",
"i.	c #354C67",
"j.	c #384F69",
"k.	c #364C68",
"l.	c #344968",
"m.	c #344569",
"n.	c #324268",
"o.	c #324467",
"p.	c #304561",
"q.	c #523F3D",
"r.	c #765C59",
"s.	c #836B67",
"t.	c #7E6562",
"u.	c #8C736F",
"v.	c #8B736E",
"w.	c #8B736F",
"x.	c #8C746F",
"y.	c #836A66",
"z.	c #324362",
"A.	c #344B67",
"B.	c #384C69",
"C.	c #39486B",
"D.	c #39496A",
"E.	c #364665",
"F.	c #745A58",
"G.	c #816965",
"H.	c #89716C",
"I.	c #7D6360",
"J.	c #806663",
"K.	c #816864",
"L.	c #795F5C",
"M.	c #846B67",
"N.	c #795F5D",
"O.	c #324763",
"P.	c #39546A",
"Q.	c #334168",
"R.	c #323F68",
"S.	c #2F3C63",
"T.	c #705654",
"U.	c #8B7068",
"V.	c #927368",
"W.	c #81645D",
"X.	c #8F7268",
"Y.	c #8E7268",
"Z.	c #79605D",
"`.	c #896A60",
" +	c #8C7068",
".+	c #314162",
"++	c #2F3F63",
"@+	c #A5836A",
"#+	c #9A7C5C",
"$+	c #665142",
"%+	c #A38569",
"&+	c #CEAB8A",
"*+	c #CCA989",
"=+	c #A8896C",
"-+	c #97795A",
";+	c #A6846A",
">+	c #765C5A",
",+	c #355064",
"'+	c #334667",
")+	c #374F69",
"!+	c #394D6A",
"~+	c #374B69",
"{+	c #314864",
"]+	c #353745",
"^+	c #6E5545",
"/+	c #90685C",
"(+	c #7A5C57",
"_+	c #B1846D",
":+	c #CDAA86",
"<+	c #706650",
"[+	c #5F543E",
"}+	c #BBAA88",
"|+	c #FFE1AF",
"1+	c #BFAD8A",
"2+	c #615641",
"3+	c #6D634D",
"4+	c #C9A884",
"5+	c #B4876F",
"6+	c #7C5D57",
"7+	c #8E675C",
"8+	c #705646",
"9+	c #383646",
"0+	c #314464",
"a+	c #384C6A",
"b+	c #3A526A",
"c+	c #3B4C6C",
"d+	c #344169",
"e+	c #6B542F",
"f+	c #BE8264",
"g+	c #80604A",
"h+	c #DE9D79",
"i+	c #EBCAAD",
"j+	c #A39D9F",
"k+	c #655A5E",
"l+	c #D8C9B5",
"m+	c #DACBB5",
"n+	c #6A6063",
"o+	c #9C9698",
"p+	c #EACBB0",
"q+	c #DE9F7A",
"r+	c #85624C",
"s+	c #BA8062",
"t+	c #6F5732",
"u+	c #344361",
"v+	c #384D69",
"w+	c #385269",
"x+	c #38496A",
"y+	c #354B65",
"z+	c #3D3E46",
"A+	c #8B6641",
"B+	c #745934",
"C+	c #F1D1B3",
"D+	c #B8ADA6",
"E+	c #583C29",
"F+	c #B29776",
"G+	c #B79C79",
"H+	c #5A3E2B",
"I+	c #B1A59E",
"J+	c #F2D3B7",
"K+	c #795C37",
"L+	c #886440",
"M+	c #3F3D45",
"N+	c #344864",
"O+	c #324767",
"P+	c #334A67",
"Q+	c #354569",
"R+	c #364B6A",
"S+	c #36456A",
"T+	c #304362",
"U+	c #323844",
"V+	c #6D5530",
"W+	c #C9926C",
"X+	c #F3CEA9",
"Y+	c #CFB18A",
"Z+	c #793E00",
"`+	c #B2844B",
" @	c #B78A51",
".@	c #CAAA83",
"+@	c #F4D0AB",
"@@	c #CB946E",
"#@	c #705732",
"$@	c #333942",
"%@	c #324563",
"&@	c #36446A",
"*@	c #364D68",
"=@	c #394F6B",
"-@	c #354D69",
";@	c #334468",
">@	c #324267",
",@	c #334767",
"'@	c #314662",
")@	c #393E47",
"!@	c #94704A",
"~@	c #E8B38A",
"{@	c #E8BD88",
"]@	c #CE9D5E",
"^@	c #E3BA81",
"/@	c #E5BD83",
"(@	c #E6BB86",
"_@	c #E9B48B",
":@	c #98724D",
"<@	c #3A3A44",
"[@	c #304062",
"}@	c #38476A",
"|@	c #364969",
"1@	c #39506A",
"2@	c #3E5B6F",
"3@	c #324168",
"4@	c #334B67",
"5@	c #384B69",
"6@	c #334368",
"7@	c #314062",
"8@	c #474A54",
"9@	c #71634E",
"0@	c #9C744F",
"a@	c #CE9D76",
"b@	c #EDBD92",
"c@	c #F5CD9F",
"d@	c #EEBE93",
"e@	c #D09F77",
"f@	c #9E7650",
"g@	c #73634D",
"h@	c #32485B",
"i@	c #38516A",
"j@	c #3A536B",
"k@	c #364A6A",
"l@	c #3A4D6A",
"m@	c #384C6C",
"n@	c #3A4E6B",
"o@	c #3A556B",
"p@	c #3A516B",
"q@	c #354464",
"r@	c #515460",
"s@	c #A3A3A6",
"t@	c #96A285",
"u@	c #5B6F19",
"v@	c #785C37",
"w@	c #8A6B45",
"x@	c #90764E",
"y@	c #8B6B45",
"z@	c #5C6E1A",
"A@	c #93A07F",
"B@	c #5B5F69",
"C@	c #303E61",
"D@	c #334369",
"E@	c #364A69",
"F@	c #394E6A",
"G@	c #354469",
"H@	c #334668",
"I@	c #344269",
"J@	c #364B67",
"K@	c #434745",
"L@	c #9C8675",
"M@	c #D0D0D4",
"N@	c #B2C89E",
"O@	c #509204",
"P@	c #517E0C",
"Q@	c #45740C",
"R@	c #5C773F",
"S@	c #807C70",
"T@	c #7E7A6E",
"U@	c #607844",
"V@	c #44730C",
"W@	c #89AA60",
"X@	c #DAE3D2",
"Y@	c #C7C7C9",
"Z@	c #5C5E68",
"`@	c #303C61",
" #	c #38536A",
".#	c #354E67",
"+#	c #365068",
"@#	c #365067",
"##	c #344E68",
"$#	c #324B61",
"%#	c #604E29",
"&#	c #AA7C5B",
"*#	c #D2AE9F",
"=#	c #98B08D",
"-#	c #3A8A00",
";#	c #5DA700",
">#	c #6FB700",
",#	c #89B350",
"'#	c #B8B8BC",
")#	c #8CB357",
"!#	c #5FA900",
"~#	c #99B47F",
"{#	c #EBEBED",
"]#	c #F6F6F7",
"^#	c #C7A292",
"/#	c #4E4441",
"(#	c #374765",
"_#	c #3A496B",
":#	c #3D546C",
"<#	c #40546F",
"[#	c #374869",
"}#	c #384C67",
"|#	c #364156",
"1#	c #6C552F",
"2#	c #7D674C",
"3#	c #687D63",
"4#	c #297300",
"5#	c #64AD00",
"6#	c #87CB00",
"7#	c #7CBA17",
"8#	c #629B3A",
"9#	c #7BB919",
"0#	c #66AE00",
"a#	c #749059",
"b#	c #D9CAB3",
"c#	c #FFEAC6",
"d#	c #EDBF98",
"e#	c #735E37",
"f#	c #364B62",
"g#	c #3A4F6B",
"h#	c #334868",
"i#	c #324B66",
"j#	c #394E6C",
"k#	c #40536E",
"l#	c #3A4D6B",
"m#	c #384A68",
"n#	c #32435D",
"o#	c #34425E",
"p#	c #2D3D50",
"q#	c #1B6300",
"r#	c #3E8D00",
"s#	c #6EB600",
"t#	c #60AA00",
"u#	c #226F00",
"v#	c #216E00",
"w#	c #5DA800",
"x#	c #408F00",
"y#	c #4B6223",
"z#	c #C2A17A",
"A#	c #E6AE86",
"B#	c #DE9E79",
"C#	c #715933",
"D#	c #334161",
"E#	c #37496A",
"F#	c #354C68",
"G#	c #39566C",
"H#	c #3E546D",
"I#	c #3D516C",
"J#	c #354868",
"K#	c #334866",
"L#	c #2E3E59",
"M#	c #5B5E34",
"N#	c #678444",
"O#	c #308100",
"P#	c #5A882D",
"Q#	c #86856A",
"R#	c #5C8831",
"S#	c #308200",
"T#	c #597936",
"U#	c #605835",
"V#	c #6A5832",
"W#	c #715934",
"X#	c #354157",
"Y#	c #36486A",
"Z#	c #344668",
"`#	c #384D6A",
" $	c #39536A",
".$	c #334169",
"+$	c #394D6B",
"@$	c #34475B",
"#$	c #6D5D42",
"$$	c #A19184",
"%$	c #9C987E",
"&$	c #988C7A",
"*$	c #876E6A",
"=$	c #7A6C5D",
"-$	c #7B775E",
";$	c #78665B",
">$	c #5F4E35",
",$	c #324251",
"'$	c #354762",
")$	c #384D63",
"!$	c #3C526B",
"~$	c #3A506B",
"{$	c #384E69",
"]$	c #374969",
"^$	c #374A69",
"/$	c #354F68",
"($	c #374A6A",
"_$	c #39486A",
":$	c #3D4F6D",
"<$	c #36475D",
"[$	c #67573C",
"}$	c #9F8882",
"|$	c #B7A099",
"1$	c #907D6B",
"2$	c #5A4C2B",
"3$	c #574928",
"4$	c #73563D",
"5$	c #8C6250",
"6$	c #6C5338",
"7$	c #2E3650",
"8$	c #394A69",
"9$	c #3D526C",
"0$	c #3E586F",
"a$	c #3E5D70",
"b$	c #344767",
"c$	c #344568",
"d$	c #3F526E",
"e$	c #3C4F6B",
"f$	c #3A4458",
"g$	c #966C56",
"h$	c #A98263",
"i$	c #926F57",
"j$	c #3F3D4C",
"k$	c #374965",
"l$	c #353E47",
"m$	c #594925",
"n$	c #2E344F",
"o$	c #324066",
"p$	c #3D516D",
"q$	c #3A546C",
"r$	c #385169",
"s$	c #374C69",
"t$	c #38526A",
"u$	c #384E6A",
"v$	c #3A4B6A",
"w$	c #3B546C",
"x$	c #334459",
"y$	c #745C38",
"z$	c #A77E5D",
"A$	c #926E55",
"B$	c #3A3D4D",
"C$	c #344567",
"D$	c #314463",
"E$	c #324167",
"F$	c #334768",
"G$	c #364D69",
"H$	c #3B536B",
"I$	c #344868",
"J$	c #344A68",
"K$	c #375069",
"L$	c #354E68",
"M$	c #364C69",
"N$	c #36466A",
"O$	c #3B4D6B",
"P$	c #334B66",
"      . + @ # $ % & *   = - ; > , ' ) ! ~ { ]     ^ / ( ",
"_ : < [ } | 1 2 3 4 5 6 7 7 7 7 6 5 8 9 0 a b c d e f g ",
"_ h i j k l m n 7 o p q r r r r s t u v w > x y z z A B ",
"C D E F < G H I J K L M r r r r N O P Q o R S T U V W X ",
"Y B Z ` b H I  ...+.@.#.r r r r $.%.+.&.*.o =.. -.l ;.>.",
",.'.).!.~.{.].r r ^./.(._._._._.:.+.<.r r [.}.|.1.2.3.4.",
"5.6.7.8.9.o 0.a.b.r c.d.d.d.d.d.d.e.r f.a.g.u h.i.j.k.l.",
"m.n.o.p.q.r.a.s.t.r r r u.v.v.w.r b.x.q y.a.].{.z.A.B.B ",
"C.C.D.E.q.F.G.[.r x.H.u.I.t.J.K.b.L.M.r N.K.Q {.O.P.m.Q.",
"Q.2 R.S.q.T.T.[.x.U.V.g.W.X.X.Y.Z.`. +x.N.T.T.{..+o.- d ",
"< 2 d ++q.T.T.Q U.@+#+$+%+&+*+=+$+-+;+ +>+T.T.{.,+C _ '+",
")+!+~+{+]+^+/+(+_+:+<+[+}+|+|+1+2+3+4+5+6+7+8+9+0+a+% b+",
"c+_ d+= p.e+f+g+h+i+j+k+l+|+|+m+n+o+p+q+r+s+t+u+B v+w+x+",
"T ^ h U y+z+A+B+h+C+D+E+F+|+|+G+H+I+J+q+K+L+M+N+O+n.P+Q+",
"R+S+= R.d T+U+V+W+X+Y+Z+`+|+|+ @Z+.@+@@@#@$@%@B &@S+*@=@",
"-@;@= R.>@,@'@)@!@~@{@]@^@|+|+/@]@(@_@:@<@[@}@}@^ |@1@2@",
"3@4@5.5@. 6@7@8@9@0@a@b@c@c@c@c@d@e@f@g@h@i@j@k@o.y l@m@",
"R.b n@o@p@q@r@s@t@u@v@w@x@x@x@x@y@K+z@A@B@C@D@E@F@b G@( ",
"2 j H@I@J@K@L@M@N@O@P@Q@R@S@T@U@V@P@W@X@Y@Z@`@Q.,@ #* % ",
".#+#@###$#%#&#*#=#-#;#>#,#'#'#)#>#!#~#{#]#^#/#(#% _#; - ",
":#<#' [#}#|#1#2#3#4#5#6#7#8#8#9#6#0#a#b#c#d#e#f#g#|@h#i#",
"j#! k#< l#m#n#o#p#q#r#s#t#u#v#w#>#x#y#z#A#B#C#D#&@E#o@F#",
"G#H#I#n@J#'+K#!+L#M#N#O#P#Q#Q#R#S#T#U#V#W#t+X#0 Y#Z#1@5.",
"'+`#o@ $Z#R..$+$@$#$$$%$&$*$Z.=$-$;$>$,$'$)$!$~$).{$@ S+",
"]$^$/$($_$T   :$<$[$}$|$1$2$3$4$5$6$7$8$9$0$a$-.G = b$- ",
"G@c$- _ ^ _$' d$e$f$g$h$i$j$k$l$m$n$o$G@  p$q$=@  D.r$s$",
"R._ B t$u$  v$% w$x$y$z$A$B$]$C$D$E$Q.F$G$H$.#A ; ^ x 3.",
"R._ D.I$J$r$K$L$M$N$G@Q.d d c 3.` *@.#.#O$b ( ,@P$O+- 2 "};
