/* XPM */
static char * grd1_xpm[] = {
"28 28 430 2",
"  	c #3A4A6B",
". 	c #364869",
"+ 	c #374D68",
"@ 	c #374769",
"# 	c #3B4C6B",
"$ 	c #3C4C6C",
"% 	c #3A4B6B",
"& 	c #3A576B",
"* 	c #3A566B",
"= 	c #38486A",
"- 	c #324667",
"; 	c #344768",
"> 	c #364F69",
", 	c #3B506B",
"' 	c #3E516D",
") 	c #435870",
"! 	c #3D506D",
"~ 	c #38496B",
"{ 	c #344468",
"] 	c #364768",
"^ 	c #354369",
"/ 	c #324966",
"( 	c #334268",
"_ 	c #334068",
": 	c #344268",
"< 	c #3C4E6C",
"[ 	c #3E556E",
"} 	c #405A6F",
"| 	c #40546E",
"1 	c #3F536D",
"2 	c #39496B",
"3 	c #2F3C61",
"4 	c #2E3C61",
"5 	c #273D46",
"6 	c #32543F",
"7 	c #31523E",
"8 	c #2D4E3A",
"9 	c #2C4236",
"0 	c #2A4636",
"a 	c #2C414A",
"b 	c #3A4C66",
"c 	c #3B5167",
"d 	c #374969",
"e 	c #364E69",
"f 	c #394A6A",
"g 	c #364569",
"h 	c #324068",
"i 	c #324867",
"j 	c #324C66",
"k 	c #344368",
"l 	c #364469",
"m 	c #3B4D6C",
"n 	c #394E6B",
"o 	c #3C556C",
"p 	c #3D586E",
"q 	c #3B556C",
"r 	c #34475D",
"s 	c #2C3B55",
"t 	c #375944",
"u 	c #3E624C",
"v 	c #496D56",
"w 	c #51765E",
"x 	c #5B8068",
"y 	c #4C7159",
"z 	c #335640",
"A 	c #2A4B37",
"B 	c #294A37",
"C 	c #2B4335",
"D 	c #2F4055",
"E 	c #37506A",
"F 	c #344C67",
"G 	c #334867",
"H 	c #334567",
"I 	c #344D67",
"J 	c #384B6A",
"K 	c #354769",
"L 	c #3B4E6B",
"M 	c #3C516C",
"N 	c #39506B",
"O 	c #303E58",
"P 	c #2B4C38",
"Q 	c #3D614A",
"R 	c #587D65",
"S 	c #51755E",
"T 	c #456953",
"U 	c #436750",
"V 	c #486C55",
"W 	c #3B5E48",
"X 	c #385B45",
"Y 	c #335641",
"Z 	c #2C4E39",
"` 	c #2E4B3B",
" .	c #2C4436",
"..	c #293552",
"+.	c #2E3A56",
"@.	c #37466A",
"#.	c #37486A",
"$.	c #384B6B",
"%.	c #3B536C",
"&.	c #365069",
"*.	c #374D6A",
"=.	c #3C526C",
"-.	c #3A4C6B",
";.	c #2E3E56",
">.	c #294138",
",.	c #3B5F49",
"'.	c #476B54",
").	c #537860",
"!.	c #537760",
"~.	c #40644D",
"{.	c #395C46",
"].	c #365843",
"^.	c #3C5F49",
"/.	c #41654F",
"(.	c #2E4C3C",
"_.	c #2C4D39",
":.	c #2D4838",
"<.	c #2C3636",
"[.	c #2C3A54",
"}.	c #3D576D",
"|.	c #3B4F6C",
"1.	c #384E6B",
"2.	c #37456A",
"3.	c #37476A",
"4.	c #384F6A",
"5.	c #3C536C",
"6.	c #2E3F55",
"7.	c #355345",
"8.	c #4B6F58",
"9.	c #466A53",
"0.	c #4A6E57",
"a.	c #40634D",
"b.	c #567A63",
"c.	c #52775F",
"d.	c #41654E",
"e.	c #436650",
"f.	c #2D503B",
"g.	c #2C4637",
"h.	c #303F3E",
"i.	c #2E3F56",
"j.	c #3B4E6C",
"k.	c #394A6B",
"l.	c #344369",
"m.	c #3A526B",
"n.	c #354B68",
"o.	c #344C68",
"p.	c #2C3C55",
"q.	c #3F5F4E",
"r.	c #587C65",
"s.	c #4B7058",
"t.	c #597E66",
"u.	c #5C8169",
"v.	c #4F735C",
"w.	c #5A7F67",
"x.	c #3F624C",
"y.	c #2E4A3A",
"z.	c #2B3B37",
"A.	c #2E4155",
"B.	c #364C68",
"C.	c #344968",
"D.	c #344569",
"E.	c #324268",
"F.	c #324467",
"G.	c #293C50",
"H.	c #426650",
"I.	c #2D4B39",
"J.	c #2F3934",
"K.	c #2A3B50",
"L.	c #384C69",
"M.	c #39486B",
"N.	c #303F5B",
"O.	c #2B4B38",
"P.	c #50745D",
"Q.	c #2E513C",
"R.	c #3D614B",
"S.	c #2F513D",
"T.	c #2D4F3B",
"U.	c #345742",
"V.	c #30523D",
"W.	c #2D4A3A",
"X.	c #32443D",
"Y.	c #303634",
"Z.	c #2D3B5A",
"`.	c #334168",
" +	c #2D395E",
".+	c #283A3D",
"++	c #2C4C3A",
"@+	c #395D47",
"#+	c #365943",
"$+	c #3F634C",
"%+	c #2C4E3A",
"&+	c #365944",
"*+	c #4F745C",
"=+	c #4A6F57",
"-+	c #375B45",
";+	c #42664F",
">+	c #3F634D",
",+	c #4E725B",
"'+	c #3C604A",
")+	c #2D4C39",
"!+	c #2E3C35",
"~+	c #313333",
"{+	c #2B3C58",
"]+	c #2F3C62",
"^+	c #273846",
"/+	c #2E4D3C",
"(+	c #2B4D39",
"_+	c #304D3E",
":+	c #557962",
"<+	c #52765F",
"[+	c #577B64",
"}+	c #3A5C47",
"|+	c #314F3F",
"1+	c #2B4235",
"2+	c #29323F",
"3+	c #2F3B60",
"4+	c #334667",
"5+	c #374F69",
"6+	c #374A66",
"7+	c #273C43",
"8+	c #385A45",
"9+	c #41644E",
"0+	c #3E5D4C",
"a+	c #50755D",
"b+	c #2E4B3C",
"c+	c #2B4937",
"d+	c #2F4239",
"e+	c #2B3642",
"f+	c #354562",
"g+	c #3A526A",
"h+	c #3B4C6C",
"i+	c #547961",
"j+	c #456952",
"k+	c #3E614B",
"l+	c #446851",
"m+	c #466A54",
"n+	c #31543E",
"o+	c #2C4C39",
"p+	c #2E4338",
"q+	c #34423D",
"r+	c #303A36",
"s+	c #30465A",
"t+	c #38496A",
"u+	c #2A443D",
"v+	c #567B63",
"w+	c #3A5D47",
"x+	c #2C4035",
"y+	c #2A4A37",
"z+	c #2A4837",
"A+	c #2C4437",
"B+	c #2F3734",
"C+	c #303E40",
"D+	c #324163",
"E+	c #364B6A",
"F+	c #364D44",
"G+	c #294936",
"H+	c #2C4F3A",
"I+	c #2D3E35",
"J+	c #354964",
"K+	c #354D69",
"L+	c #334B41",
"M+	c #2B4A38",
"N+	c #2E4F3C",
"O+	c #30513D",
"P+	c #30533D",
"Q+	c #2F523C",
"R+	c #3D604A",
"S+	c #436751",
"T+	c #294A36",
"U+	c #304A3D",
"V+	c #323937",
"W+	c #3A5567",
"X+	c #324168",
"Y+	c #243C3F",
"Z+	c #2F483C",
"`+	c #4D725A",
" @	c #2D4F3A",
".@	c #2C4135",
"+@	c #2B333D",
"@@	c #354867",
"#@	c #323F68",
"$@	c #374766",
"%@	c #283C44",
"&@	c #2B4737",
"*@	c #2C4838",
"=@	c #31543F",
"-@	c #2E503C",
";@	c #2F4D3D",
">@	c #2A4535",
",@	c #293540",
"'@	c #303E61",
")@	c #374B67",
"!@	c #253A42",
"~@	c #32553F",
"{@	c #3E624B",
"]@	c #2B4C39",
"^@	c #2E483A",
"/@	c #2A3B42",
"(@	c #354F62",
"_@	c #354E67",
":@	c #324B61",
"<@	c #365244",
"[@	c #2B4837",
"}@	c #2A4B38",
"|@	c #2E503B",
"1@	c #30533E",
"2@	c #2C4537",
"3@	c #324A3F",
"4@	c #30483C",
"5@	c #333F3B",
"6@	c #2D3D59",
"7@	c #3D546C",
"8@	c #3B4E67",
"9@	c #354E43",
"0@	c #345741",
"a@	c #42654F",
"b@	c #3F604B",
"c@	c #33473F",
"d@	c #2D4036",
"e@	c #303835",
"f@	c #2C3E59",
"g@	c #324B66",
"h@	c #394E6C",
"i@	c #36475E",
"j@	c #364842",
"k@	c #303534",
"l@	c #2C3953",
"m@	c #3A556B",
"n@	c #354C68",
"o@	c #39566C",
"p@	c #3E546D",
"q@	c #3D516C",
"r@	c #2F4057",
"s@	c #284137",
"t@	c #33483F",
"u@	c #2E3F37",
"v@	c #365A44",
"w@	c #2A4936",
"x@	c #2D4D3A",
"y@	c #2E3B34",
"z@	c #2F3135",
"A@	c #2A364F",
"B@	c #344668",
"C@	c #39506A",
"D@	c #384D6A",
"E@	c #39536A",
"F@	c #293952",
"G@	c #272F41",
"H@	c #2D3735",
"I@	c #2C4B39",
"J@	c #2D4B3A",
"K@	c #2D4C3A",
"L@	c #2C3743",
"M@	c #2D3C4F",
"N@	c #384E69",
"O@	c #36456A",
"P@	c #374A69",
"Q@	c #354F68",
"R@	c #374A6A",
"S@	c #39486A",
"T@	c #2D3850",
"U@	c #2D3B4C",
"V@	c #2B4436",
"W@	c #2D4638",
"X@	c #2D4739",
"Y@	c #32423B",
"Z@	c #303A35",
"`@	c #313233",
" #	c #34423E",
".#	c #31403A",
"+#	c #303B37",
"@#	c #2D3948",
"##	c #2E3F4E",
"$#	c #3E5D70",
"%#	c #3C4F6C",
"&#	c #344767",
"*#	c #354469",
"=#	c #344568",
"-#	c #3F526E",
";#	c #304055",
">#	c #314256",
",#	c #304857",
"'#	c #2B3942",
")#	c #413837",
"!#	c #573E36",
"~#	c #483839",
"{#	c #323435",
"]#	c #2E3840",
"^#	c #293452",
"/#	c #293351",
"(#	c #2A3652",
"_#	c #384868",
":#	c #3D516D",
"<#	c #3A546C",
"[#	c #394F6B",
"}#	c #39496A",
"|#	c #385169",
"1#	c #374C69",
"2#	c #38526A",
"3#	c #384E6A",
"4#	c #3A4B6A",
"5#	c #3B546C",
"6#	c #3B516B",
"7#	c #394D6C",
"8#	c #30354A",
"9#	c #654139",
"0#	c #8D6C49",
"a#	c #6F4539",
"b#	c #493839",
"c#	c #293140",
"d#	c #334768",
"e#	c #364D69",
"f#	c #3B536B",
"g#	c #344868",
"h#	c #344A68",
"i#	c #375069",
"j#	c #354E68",
"k#	c #364C69",
"l#	c #36466A",
"m#	c #313E64",
"n#	c #645549",
"o#	c #9B8353",
"p#	c #784838",
"q#	c #4A373E",
"r#	c #374866",
"s#	c #364D68",
"t#	c #3B4D6B",
"u#	c #334767",
"v#	c #334B66",
"w#	c #324767",
"      . + @ # $ % & *   = - ; > , ' ) ! ~ { ]     ^ / ( ",
"_ : < [ } | 1 2 ( 3 4 5 6 7 8 9 0 a b c d e f g h i j k ",
"_ l m n o p q r s t u v w x y z A A B C D E F G H H I J ",
"K L M N < ! O P Q R S T U S V W X Y Z `  ...+.@.#.$.%.&.",
"*.J =.-.% ;.>.,.'.).!.~.{.].,.W ^./.Y (._.:.<.[.}.p |.1.",
"2.3.4.5.6.7.8.9.).V 0.^.'.a.b.c.d.9.8.e.8 f.g.h.i.j.k.l.",
"m.n.o.p.q.r.s.t.u.).9.v.w.t.u.t.s.S V X A f.x.y.z.A.B.C.",
"D.E.F.G.V u.u.u.9.9.,.V u.u.u.v b.,.f.f.H.9.f.I.J.K.L.J ",
"M.M.N.O.{.c.9.t.P.Q.,.'.).9.f.H.R.S.T.d.U.t.V.W.X.Y.Z.`.",
"`.2  +.+++@+#+$+%+&+).*+=+X f.U.-+;+>+,+;+9.'+)+!+~+{+h ",
"< 2 ]+^+/+(+{.X _+;+u.:+<+V X *+v ;+[+).,.}+|+%+1+2+3+4+",
"5+6+7+8+9+V.{.X 0+u :+:+<+V !.w.a+w [+).,.(+b+c+d+e+f+g+",
"h+3 #+i+R T c.f.j+d.v v k+l+y x r.t.m+U n+A o+p+q+r+s+t+",
"@.u+0.u.w i+s.f.v+s.S w+R.Y 9.v v v j+#+O.x+y+z+A+B+C+D+",
"E+F+U.9.X $+n+u.v b.*+*+9.n+f.H.U.,.P G+H+f.H+A (+C I+J+",
"K+L+M+N+{.Y >+u.u.x c.c.V ;+9.O+P+Q+R+S+Y 8 >+Z T+U+V+W+",
"X+Y+p+Z+M+I.%+b.[+r.`+0.6 z y w.T u v @+S+$+ @P P .@+@@@",
"#@$@%@&@*@ .O.}+x.!.'.w+=@H.u.x <+S s.9.R+X -@;@>@,@'@( ",
"2 )@!@8+9+V.{.(+%+].X ~@(+#+*+;+j+S+{@X 8 X ]@^@d+/@(@% ",
"_@:@<@j+v d.j+f.%+(+[@[@(+}@7 |@V.1@-@2@.@A 3@1+4@5@6@- ",
"7@8@9@w+w+~.0@y+Y P.a@].f.x.H+A z H.#+y+b@G+W.c@d@e@f@g@",
"h@! i@G+G+%+y+f.v u.!.!.y n+f.n+9.9.9.U.y+f.j@k@J.l@m@n@",
"o@p@q@r@s@t@u@G+V.;+;+v@ @w@x@x.Y {.P Z w@I+y@z@A@B@C@m.",
"4+D@m@E@F@G@H@0 w@I@P %+J@d@y@W._.M+K@*@!+y@L@M@4.N@@ O@",
"d P@Q@R@S@@.T@U@V@W@_+X@Y@Z@`@ #4@d+.#+#@###$#}.%#= &#- ",
"*#=#- _ ^ S@' -#;#>#,#'#)#!#~#{#]#^#/#(#_#:#<#[#  }#|#1#",
"#@_ J 2#3#  4#% 5#6#7#8#9#0#a#b#c#( `.d#e#f#_@I ; ^ F k.",
"#@_ }#g#h#|#i#j#k#l#*#m#n#o#p#q#r#s#_@_@t#f ( u#v#w#- 2 "};
