/* XPM */
static char * grd2_xpm[] = {
"28 28 448 2",
"  	c #3A4A6B",
". 	c #354667",
"+ 	c #32485F",
"@ 	c #2F4353",
"# 	c #334F49",
"$ 	c #3D5D4F",
"% 	c #4C6E59",
"& 	c #4E725B",
"* 	c #4A6E57",
"= 	c #466A53",
"- 	c #486D56",
"; 	c #4C7159",
"> 	c #4A6E56",
", 	c #3F634C",
"' 	c #375A44",
") 	c #355842",
"! 	c #335540",
"~ 	c #2E4F3B",
"{ 	c #2D4A39",
"] 	c #2C463C",
"^ 	c #2D424A",
"/ 	c #314055",
"( 	c #34425D",
"_ 	c #323F63",
": 	c #324865",
"< 	c #334268",
"[ 	c #334068",
"} 	c #344268",
"| 	c #3B4C6A",
"1 	c #394F64",
"2 	c #354E57",
"3 	c #334E49",
"4 	c #3A5C47",
"5 	c #456952",
"6 	c #50755D",
"7 	c #52775F",
"8 	c #4B6E58",
"9 	c #42654F",
"0 	c #3F624C",
"a 	c #41634E",
"b 	c #40644D",
"c 	c #3D604A",
"d 	c #3C5F49",
"e 	c #3B5F49",
"f 	c #365743",
"g 	c #32513F",
"h 	c #2E4C3B",
"i 	c #2C483D",
"j 	c #2C4040",
"k 	c #2B3848",
"l 	c #2D3F56",
"m 	c #304860",
"n 	c #344267",
"o 	c #354367",
"p 	c #374A63",
"q 	c #344C56",
"r 	c #39564D",
"s 	c #3F604C",
"t 	c #456851",
"u 	c #4C7059",
"v 	c #476B54",
"w 	c #40634D",
"x 	c #41644E",
"y 	c #41654E",
"z 	c #436751",
"A 	c #3B5D48",
"B 	c #32533F",
"C 	c #2D4E3A",
"D 	c #2D4838",
"E 	c #2D413C",
"F 	c #2D3D48",
"G 	c #2F4456",
"H 	c #354764",
"I 	c #344667",
"J 	c #384B63",
"K 	c #39515A",
"L 	c #405D53",
"M 	c #486A56",
"N 	c #50745C",
"O 	c #547860",
"P 	c #4F735C",
"Q 	c #496C56",
"R 	c #547861",
"S 	c #567B63",
"T 	c #476C54",
"U 	c #496D56",
"V 	c #486C55",
"W 	c #355642",
"X 	c #2E503C",
"Y 	c #30513D",
"Z 	c #324F3E",
"` 	c #304640",
" .	c #2F4349",
"..	c #2F4558",
"+.	c #344965",
"@.	c #34485A",
"#.	c #3F5C55",
"$.	c #4F705B",
"%.	c #557962",
"&.	c #587D65",
"*.	c #557A62",
"=.	c #486D55",
"-.	c #51755E",
";.	c #587C65",
">.	c #5A7F67",
",.	c #577C64",
"'.	c #52765F",
").	c #4D715A",
"!.	c #4A6D57",
"~.	c #436650",
"{.	c #395C47",
"].	c #345641",
"^.	c #345742",
"/.	c #375A45",
"(.	c #314D3D",
"_.	c #2E413C",
":.	c #2E3E4C",
"<.	c #334162",
"[.	c #324856",
"}.	c #406053",
"|.	c #51755D",
"1.	c #3F634D",
"2.	c #436750",
"3.	c #597D65",
"4.	c #50745D",
"5.	c #335641",
"6.	c #3A5D47",
"7.	c #2E4A39",
"8.	c #2E413A",
"9.	c #2E3945",
"0.	c #324A5A",
"a.	c #2E4A47",
"b.	c #395A47",
"c.	c #486B55",
"d.	c #4E735B",
"e.	c #537860",
"f.	c #4C6F59",
"g.	c #3C5F4A",
"h.	c #426650",
"i.	c #3E614B",
"j.	c #3E614C",
"k.	c #3B5F48",
"l.	c #476A54",
"m.	c #385A45",
"n.	c #2E4B3A",
"o.	c #2F433A",
"p.	c #303B3C",
"q.	c #2E3F59",
"r.	c #2A4145",
"s.	c #304F3E",
"t.	c #446751",
"u.	c #3C5D49",
"v.	c #456852",
"w.	c #355843",
"x.	c #3A5D48",
"y.	c #466953",
"z.	c #304E3C",
"A.	c #2E4238",
"B.	c #2F3A39",
"C.	c #33415D",
"D.	c #2D404B",
"E.	c #2C483E",
"F.	c #30523E",
"G.	c #345842",
"H.	c #395B46",
"I.	c #395C46",
"J.	c #345441",
"K.	c #3C5E49",
"L.	c #4F725C",
"M.	c #547961",
"N.	c #446750",
"O.	c #3E624B",
"P.	c #446951",
"Q.	c #446851",
"R.	c #355643",
"S.	c #2F4D3C",
"T.	c #2C4437",
"U.	c #2C393A",
"V.	c #2D3F54",
"W.	c #324B49",
"X.	c #345344",
"Y.	c #385B45",
"Z.	c #385845",
"`.	c #3F614C",
" +	c #50735D",
".+	c #567A63",
"++	c #4B7058",
"@+	c #537760",
"#+	c #466A54",
"$+	c #335441",
"%+	c #304F3D",
"&+	c #2D4B3A",
"*+	c #2C4438",
"=+	c #2B3A3E",
"-+	c #375150",
";+	c #40604F",
">+	c #3D5F4A",
",+	c #3E5F4B",
"'+	c #40634E",
")+	c #4B6F58",
"!+	c #41664F",
"~+	c #345642",
"{+	c #2D4E3B",
"]+	c #2D4739",
"^+	c #2E4339",
"/+	c #2F3C3E",
"(+	c #406152",
"_+	c #2F503C",
":+	c #2B4A38",
"<+	c #2B4938",
"[+	c #2D4639",
"}+	c #2F4339",
"|+	c #313E3B",
"1+	c #476855",
"2+	c #3B5E48",
"3+	c #31533E",
"4+	c #2D4B39",
"5+	c #2B4837",
"6+	c #2B4937",
"7+	c #2B4838",
"8+	c #2D4538",
"9+	c #2E4038",
"0+	c #40614D",
"a+	c #4E715B",
"b+	c #51765E",
"c+	c #3D614A",
"d+	c #32543F",
"e+	c #2E503B",
"f+	c #2C4C39",
"g+	c #2D4D3A",
"h+	c #2B4C38",
"i+	c #2A4937",
"j+	c #2C4537",
"k+	c #335241",
"l+	c #385944",
"m+	c #577B64",
"n+	c #385B46",
"o+	c #365843",
"p+	c #375944",
"q+	c #30533E",
"r+	c #31543F",
"s+	c #325540",
"t+	c #2A4B38",
"u+	c #2C4838",
"v+	c #2D483A",
"w+	c #32523F",
"x+	c #355742",
"y+	c #446651",
"z+	c #577A64",
"A+	c #597E66",
"B+	c #3C604A",
"C+	c #2F513C",
"D+	c #2A4B37",
"E+	c #2C413E",
"F+	c #2D473A",
"G+	c #2D4A3A",
"H+	c #2C4A38",
"I+	c #2E4D3A",
"J+	c #3A5B47",
"K+	c #4D705A",
"L+	c #456953",
"M+	c #3E624C",
"N+	c #2C4D39",
"O+	c #2B4A37",
"P+	c #2B4339",
"Q+	c #293E45",
"R+	c #2D483C",
"S+	c #2F4B3B",
"T+	c #4B6D58",
"U+	c #40644E",
"V+	c #30513E",
"W+	c #2D4C3B",
"X+	c #2C4639",
"Y+	c #2A3D3C",
"Z+	c #30474A",
"`+	c #365645",
" @	c #395A45",
".@	c #345541",
"+@	c #30523D",
"@@	c #31533F",
"#@	c #395A46",
"$@	c #3B5C48",
"%@	c #4A6F57",
"&@	c #335440",
"*@	c #2F4E3C",
"=@	c #2D493A",
"-@	c #2D443A",
";@	c #2E3E40",
">@	c #37534B",
",@	c #2F513D",
"'@	c #2D503B",
")@	c #31513E",
"!@	c #31523E",
"~@	c #314F3D",
"{@	c #2E4939",
"]@	c #2E4C39",
"^@	c #2F4D3B",
"/@	c #2F4A3B",
"(@	c #2E4639",
"_@	c #2E4439",
":@	c #2F413E",
"<@	c #38544C",
"[@	c #3D5E4A",
"}@	c #325440",
"|@	c #375844",
"1@	c #2F4E3B",
"2@	c #34513F",
"3@	c #2E493B",
"4@	c #2F463B",
"5@	c #2F3F3A",
"6@	c #344D51",
"7@	c #345345",
"8@	c #31543E",
"9@	c #355741",
"0@	c #3F614B",
"a@	c #335340",
"b@	c #2F4C3C",
"c@	c #31473C",
"d@	c #31413A",
"e@	c #2F3E38",
"f@	c #2E3C3F",
"g@	c #334F5D",
"h@	c #304A4B",
"i@	c #2D493D",
"j@	c #2E4F3C",
"k@	c #2F483A",
"l@	c #31423A",
"m@	c #303A38",
"n@	c #2F3A3F",
"o@	c #314250",
"p@	c #314362",
"q@	c #304559",
"r@	c #2D4548",
"s@	c #2D423D",
"t@	c #2E413B",
"u@	c #2D4336",
"v@	c #2D4C39",
"w@	c #2E4C3A",
"x@	c #2E4B39",
"y@	c #345340",
"z@	c #365944",
"A@	c #2F4F3B",
"B@	c #2C4436",
"C@	c #2D3F36",
"D@	c #2F3B38",
"E@	c #2E383E",
"F@	c #2F394E",
"G@	c #323F5F",
"H@	c #374868",
"I@	c #344663",
"J@	c #2E3E4D",
"K@	c #2E3B44",
"L@	c #2C3C3A",
"M@	c #2A4439",
"N@	c #2E4E3B",
"O@	c #2D4939",
"P@	c #2C4336",
"Q@	c #2E4136",
"R@	c #31493B",
"S@	c #31503E",
"T@	c #2D4338",
"U@	c #2D3E38",
"V@	c #2E3D3E",
"W@	c #2F3B48",
"X@	c #303A51",
"Y@	c #30405B",
"Z@	c #314465",
"`@	c #354469",
" #	c #334467",
".#	c #304363",
"+#	c #2F3A5E",
"@#	c #2F3A56",
"##	c #2E3B4B",
"$#	c #2E4247",
"%#	c #2C453D",
"&#	c #2C463B",
"*#	c #2D493E",
"=#	c #2D4A3C",
"-#	c #2E473A",
";#	c #314339",
">#	c #333D36",
",#	c #323935",
"'#	c #313D38",
")#	c #30453C",
"!#	c #2E473B",
"~#	c #2D443C",
"{#	c #2E433C",
"]#	c #2F413C",
"^#	c #2E3E42",
"/#	c #2E3E47",
"(#	c #304051",
"_#	c #34415C",
":#	c #354462",
"<#	c #374F66",
"[#	c #374C69",
"}#	c #323F68",
"|#	c #384B6A",
"1#	c #385269",
"2#	c #364B66",
"3#	c #34425F",
"4#	c #324259",
"5#	c #2E414E",
"6#	c #2E454B",
"7#	c #30474C",
"8#	c #2D4347",
"9#	c #323E3E",
"0#	c #3F3D38",
"a#	c #473D37",
"b#	c #453A37",
"c#	c #3B3938",
"d#	c #323D3C",
"e#	c #2E3F41",
"f#	c #2D3C47",
"g#	c #2D3C49",
"h#	c #2E3D4A",
"i#	c #324454",
"j#	c #2F4358",
"k#	c #31475F",
"l#	c #334666",
"m#	c #354369",
"n#	c #344C67",
"o#	c #394A6B",
"p#	c #39496A",
"q#	c #344868",
"r#	c #344A68",
"s#	c #385169",
"t#	c #364E66",
"u#	c #30475D",
"v#	c #30445C",
"w#	c #303F5D",
"x#	c #2D3953",
"y#	c #3B3743",
"z#	c #57433C",
"A#	c #674D3D",
"B#	c #62473B",
"C#	c #4C3938",
"D#	c #38373D",
"E#	c #2E3C49",
"F#	c #2F4458",
"G#	c #2F455A",
"H#	c #34445E",
"I#	c #364664",
"J#	c #324166",
"K#	c #334767",
"L#	c #334B66",
"M#	c #324767",
"N#	c #324667",
"O#	c #39496B",
"      . + @ # $ % & * = - ; > , ' ) ! ~ { ] ^ / ( _ : < ",
"[ } | 1 2 3 4 5 6 7 8 9 0 a 9 b c d e f g h i j k l m n ",
"[ o p q r s t u & & v 9 w x = * 5 y z x A B C D E F G H ",
"I J K L M u N O P * = Q u P R S P T U V x W X Y Z `  ...",
"+.@.#.$.%.O &.*.6 =.V -.;.>.>.,.'.).!.~.{.].^./.f (._.:.",
"<.[.}.|.&.;.;.).5 1.2.P ,.3.%.4.u 8 c 5.5.6.~., ].7.8.9.",
"0.a.b.c.d.& e.f.g.e h.u 4.> w i.9 j.) ! k.d c.l.m.n.o.p.",
"q.r.s.{.0 0 t.u.m.v.; d.* , ) w.x.e c i.= 2.y.t.4 z.A.B.",
"C.D.E.F.G.H.I.J.K.L.M.7 ).N.k.O.P.2.Q.u P = w K.R.S.T.U.",
"V.W.X.! ! Y.m.Z.`. +.+R 4.!.c.).6 ++; R @+#+4 $+%+&+*+=+",
"-+;+v.x >+0 Y.,+'+)+-.P )+U ).%.,.e.7 '.d.!+~+{+&+]+^+/+",
"(+& @+& U 5 Y.v.5 !.* y.9 ~.* 7 .+R 7 )+Q.I._+:+<+[+}+|+",
"1+'.@+P u 5 0 u u ).Q 9 c 2+x U u 8 * 9 I.3+4+5+6+7+8+9+",
"0+c.l.t.2.t.a+4.7 b+).V b I.Y.i.1.c c+m.d+e+f+g+C h+i+j+",
"k+l+H.m.4 v.;..+m+M.b+).5 c+2+K.n+^.) o+p+].q+r+s+e+t+u+",
"v+S.w+d+x+y+z+A+A+M.6 * y w v.l.w 6.I.b w B+m.' x+C+D+u+",
"E+F+G+H+I+J+K+-.R 4.* b ' K.8 %.7 V L+v y 1.M+Y.F.N+O+P+",
"Q+R+S.S+n.B A w T+Q y Y.) U+6 ,.e.& u U t.i.6.x+V+W+X+Y+",
"Z+`+A  @.@w.+@@@#@$@p+3++@4 v %@= 5 z 1.2+].].&@*@=@-@;@",
">@s 2.y O.K.,@'@F.)@*@g+C !@p+Y.o+' /.~+~@{@]@^@/@(@_@:@",
"<@[@w w i.p+X }@`.,+|@!@!@].}@e+C+) 6.W 1@2@~@n.3@4@}+5@",
"6@7@].w.^.Y F.`.P & V ~.i.Y.8@e+9@0@9 i.].a@Y b@c@d@e@f@",
"g@h@i@&+b@{ Y 0 & P 8 y.i.].C+! 6.0 x d ].j@4+k@l@m@n@o@",
"p@q@r@s@t@u@v@].`.x i.H.&@w@x@y@m.z@p+B A@H+B@C@D@E@F@G@",
"H@I@..J@K@L@M@:+%+w+V+N@O@P@Q@R@S@*@^@{ D T@U@V@W@X@Y@Z@",
"`@ #.#+#@###$#%#&#*#=#-#;#>#,#'#)#!#~#{#]#^#/#(#_#:#<#[#",
"}#[ |#1#2#3#4#5#6#7#8#9#0#a#b#c#d#e#f#g#h#i#j#k#l#m#n#o#",
"}#[ p#q#r#s#t#u#v#w#x#y#z#A#B#C#D#E#F#G#H#I#J#K#L#M#N#O#"};
