/* XPM */
static char * grd3_xpm[] = {
"28 28 522 2",
"  	c #3A4A6B",
". 	c #364869",
"+ 	c #374D68",
"@ 	c #374769",
"# 	c #3A4B6A",
"$ 	c #3A4A69",
"% 	c #374964",
"& 	c #375561",
"* 	c #37545D",
"= 	c #385157",
"- 	c #3B5854",
"; 	c #3A5953",
"> 	c #37544F",
", 	c #324E4B",
"' 	c #30484A",
") 	c #324751",
"! 	c #394F5E",
"~ 	c #374B60",
"{ 	c #354664",
"] 	c #334366",
"^ 	c #364768",
"/ 	c #354369",
"( 	c #324966",
"_ 	c #334268",
": 	c #334068",
"< 	c #344268",
"[ 	c #3C4E6C",
"} 	c #3E556E",
"| 	c #405A6F",
"1 	c #3F536C",
"2 	c #3A4E64",
"3 	c #34475C",
"4 	c #364F57",
"5 	c #3C5955",
"6 	c #3F5E54",
"7 	c #426453",
"8 	c #486C57",
"9 	c #4B6E59",
"0 	c #446652",
"a 	c #375844",
"b 	c #2E4E3C",
"c 	c #2C4C3F",
"d 	c #2E4A46",
"e 	c #304A4A",
"f 	c #2F4452",
"g 	c #32485E",
"h 	c #374766",
"i 	c #354467",
"j 	c #324068",
"k 	c #324867",
"l 	c #324C66",
"m 	c #344368",
"n 	c #364469",
"o 	c #3B4D6C",
"p 	c #394E6B",
"q 	c #3A5369",
"r 	c #375163",
"s 	c #324D54",
"t 	c #37554E",
"u 	c #436454",
"v 	c #4B6E5A",
"w 	c #4A6D57",
"x 	c #466A54",
"y 	c #496E57",
"z 	c #4C7159",
"A 	c #476B53",
"B 	c #3B5F48",
"C 	c #355742",
"D 	c #335541",
"E 	c #2F503E",
"F 	c #2D4A3B",
"G 	c #2E4741",
"H 	c #2E464F",
"I 	c #2E4356",
"J 	c #2F425D",
"K 	c #324364",
"L 	c #334567",
"M 	c #344D67",
"N 	c #384B6A",
"O 	c #354769",
"P 	c #3B4E6B",
"Q 	c #3C516C",
"R 	c #384E68",
"S 	c #374A61",
"T 	c #344A54",
"U 	c #355249",
"V 	c #3F624C",
"W 	c #4B6F58",
"X 	c #51765E",
"Y 	c #4C7059",
"Z 	c #436750",
"` 	c #40644E",
" .	c #42654F",
"..	c #42664F",
"+.	c #3F634C",
"@.	c #3C5F49",
"#.	c #3B5F49",
"$.	c #375945",
"%.	c #335240",
"&.	c #2E4C3C",
"*.	c #2C463F",
"=.	c #2D4045",
"-.	c #2F3C50",
";.	c #32425E",
">.	c #374968",
",.	c #3B536C",
"'.	c #365069",
").	c #374D6A",
"!.	c #3B516A",
"~.	c #374E56",
"{.	c #3C594E",
"].	c #42644F",
"^.	c #496D55",
"/.	c #4E725B",
"(.	c #496D56",
"_.	c #446751",
":.	c #446851",
"<.	c #3C5E49",
"[.	c #335440",
"}.	c #2D4D3A",
"|.	c #2D483A",
"1.	c #2E4242",
"2.	c #334752",
"3.	c #375062",
"4.	c #3A4D69",
"5.	c #384E6B",
"6.	c #37456A",
"7.	c #364668",
"8.	c #354C62",
"9.	c #3A555A",
"0.	c #436256",
"a.	c #4F735C",
"b.	c #53775F",
"c.	c #52765E",
"d.	c #476B54",
"e.	c #4A6E57",
"f.	c #52765F",
"g.	c #567A63",
"h.	c #547861",
"i.	c #486B55",
"j.	c #40634E",
"k.	c #30523E",
"l.	c #32523F",
"m.	c #324E40",
"n.	c #2F4543",
"o.	c #314251",
"p.	c #344461",
"q.	c #3A526B",
"r.	c #334864",
"s.	c #314A5A",
"t.	c #3E5C54",
"u.	c #4F725C",
"v.	c #567B63",
"w.	c #4F745C",
"x.	c #486C55",
"y.	c #466A53",
"z.	c #50745D",
"A.	c #587C65",
"B.	c #5A7E66",
"C.	c #587D65",
"D.	c #537860",
"E.	c #496C56",
"F.	c #385B46",
"G.	c #365943",
"H.	c #395C47",
"I.	c #395C46",
"J.	c #345340",
"K.	c #2E473B",
"L.	c #2E3F43",
"M.	c #2F4156",
"N.	c #324765",
"O.	c #334468",
"P.	c #2E3F60",
"Q.	c #2F4751",
"R.	c #3D5D4E",
"S.	c #4E715A",
"T.	c #547961",
"U.	c #557962",
"V.	c #3E624C",
"W.	c #41654F",
"X.	c #4D715A",
"Y.	c #547860",
"Z.	c #4C6F59",
"`.	c #476A54",
" +	c #3E614B",
".+	c #345742",
"++	c #3B5E48",
"@+	c #456852",
"#+	c #40634D",
"$+	c #33533F",
"%+	c #2E463A",
"&+	c #2F3E3D",
"*+	c #313E4E",
"=+	c #344661",
"-+	c #384769",
";+	c #33435E",
">+	c #2E464B",
",+	c #345444",
"'+	c #3E604B",
")+	c #3A5D48",
"!+	c #3D604B",
"~+	c #40644D",
"{+	c #41644E",
"]+	c #436650",
"^+	c #365742",
"/+	c #2F483A",
"(+	c #2F3E39",
"_+	c #303945",
":+	c #2F3A5A",
"<+	c #324067",
"[+	c #344360",
"}+	c #2A3E4C",
"|+	c #2D493F",
"1+	c #385C46",
"2+	c #3A5C47",
"3+	c #385945",
"4+	c #476954",
"5+	c #50755D",
"6+	c #41644D",
"7+	c #395D46",
"8+	c #3D614A",
"9+	c #41654E",
"0+	c #466953",
"a+	c #3D5F4A",
"b+	c #345542",
"c+	c #2E493A",
"d+	c #2D3D38",
"e+	c #2C3845",
"f+	c #2E3A5B",
"g+	c #3A4C68",
"h+	c #33445C",
"i+	c #2F464B",
"j+	c #325043",
"k+	c #385B45",
"l+	c #3B5C48",
"m+	c #4B6D58",
"n+	c #4A6F57",
"o+	c #3B5D48",
"p+	c #304F3D",
"q+	c #2D4839",
"r+	c #2C3F3B",
"s+	c #2C3649",
"t+	c #2F405C",
"u+	c #344C61",
"v+	c #354E54",
"w+	c #3D5C4F",
"x+	c #436651",
"y+	c #40624D",
"z+	c #3F614C",
"A+	c #426650",
"B+	c #345642",
"C+	c #2E4E3B",
"D+	c #2D4A3A",
"E+	c #2D4639",
"F+	c #2F403C",
"G+	c #303D4A",
"H+	c #344A5E",
"I+	c #374C5D",
"J+	c #3C5953",
"K+	c #51755E",
"L+	c #456953",
"M+	c #52775F",
"N+	c #456952",
"O+	c #2F503C",
"P+	c #2B4A38",
"Q+	c #2C4838",
"R+	c #2E4539",
"S+	c #2F403A",
"T+	c #303F42",
"U+	c #324057",
"V+	c #354D53",
"W+	c #416152",
"X+	c #4F725B",
"Y+	c #4D725A",
"Z+	c #4B6E58",
"`+	c #31533E",
" @	c #2D4B39",
".@	c #2B4938",
"+@	c #2C4738",
"@@	c #2D4337",
"#@	c #2E3E3B",
"$@	c #303E4B",
"%@	c #354E4F",
"&@	c #3B5A49",
"*@	c #436550",
"=@	c #537760",
"-@	c #3A5D47",
";@	c #345641",
">@	c #30523D",
",@	c #2D4E3B",
"'@	c #2E4F3B",
")@	c #2B4C38",
"!@	c #2B4737",
"~@	c #2D4238",
"{@	c #304145",
"]@	c #324B4D",
"^@	c #304D40",
"/@	c #365743",
"(@	c #365843",
"_@	c #4C6E59",
":@	c #557A62",
"<@	c #375A45",
"[@	c #335641",
"}@	c #32543F",
"|@	c #2C4E3A",
"1@	c #2D443A",
"2@	c #324447",
"3@	c #2D414F",
"4@	c #2C453E",
"5@	c #2E493B",
"6@	c #2F4D3C",
"7@	c #2F4F3C",
"8@	c #355541",
"9@	c #466853",
"0@	c #4E735B",
"a@	c #3D604A",
"b@	c #375944",
"c@	c #2C4D39",
"d@	c #2B4838",
"e@	c #2E413D",
"f@	c #303E4D",
"g@	c #2D3C59",
"h@	c #2D4149",
"i@	c #2D473D",
"j@	c #2E4B3B",
"k@	c #2E4A3A",
"l@	c #2F4E3B",
"m@	c #3A5B46",
"n@	c #4D705A",
"o@	c #3C6049",
"p@	c #375A44",
"q@	c #2F503D",
"r@	c #2C4A39",
"s@	c #2B433A",
"t@	c #2B3B45",
"u@	c #2E3B57",
"v@	c #30474F",
"w@	c #325044",
"x@	c #385844",
"y@	c #365642",
"z@	c #335340",
"A@	c #3A5C48",
"B@	c #3F604C",
"C@	c #335540",
"D@	c #436751",
"E@	c #2E4D3C",
"F@	c #2D473B",
"G@	c #2C423D",
"H@	c #2E434B",
"I@	c #354460",
"J@	c #324A5E",
"K@	c #355050",
"L@	c #3D5C4B",
"M@	c #2E513C",
"N@	c #31513E",
"O@	c #345541",
"P@	c #395D47",
"Q@	c #304C3B",
"R@	c #304D3C",
"S@	c #2F493A",
"T@	c #2F423C",
"U@	c #2E3F48",
"V@	c #2E3F5A",
"W@	c #395062",
"X@	c #385252",
"Y@	c #3C5C4B",
"Z@	c #395A46",
"`@	c #32533F",
" #	c #31543F",
".#	c #2F513C",
"+#	c #335640",
"@#	c #31503D",
"##	c #33503E",
"$#	c #304E3C",
"%#	c #2E4B3A",
"&#	c #2F483B",
"*#	c #2F443A",
"=#	c #2F3D45",
"-#	c #2E4358",
";#	c #374C66",
">#	c #374D58",
",#	c #345149",
"'#	c #30513D",
")#	c #365844",
"!#	c #30533D",
"~#	c #41634D",
"{#	c #30503C",
"]#	c #2F4A3C",
"^#	c #31443B",
"/#	c #303E39",
"(#	c #2E3C3E",
"_#	c #314450",
":#	c #32475F",
"<#	c #38556A",
"[#	c #394F63",
"}#	c #324A52",
"|#	c #2D4742",
"1#	c #2D493B",
"2#	c #2E4B39",
"3#	c #446651",
"4#	c #3B5E49",
"5#	c #2D4939",
"6#	c #2F4539",
"7#	c #2F393E",
"8#	c #2E3A4C",
"9#	c #34485E",
"0#	c #395068",
"a#	c #334667",
"b#	c #374B68",
"c#	c #344E5F",
"d#	c #2F464F",
"e#	c #2C3F42",
"f#	c #2D3E3C",
"g#	c #2C4337",
"h#	c #2E4D3B",
"i#	c #3C5D49",
"j#	c #2F4A3A",
"k#	c #355642",
"l#	c #2E4D3A",
"m#	c #2C4137",
"n#	c #2E3D3A",
"o#	c #2F3A40",
"p#	c #303D4C",
"q#	c #33455C",
"r#	c #364566",
"s#	c #36456A",
"t#	c #374969",
"u#	c #374A69",
"v#	c #344D65",
"w#	c #324460",
"x#	c #313F55",
"y#	c #2E3B4B",
"z#	c #2C3E41",
"A#	c #2C453D",
"B#	c #2D493A",
"C#	c #2F4C3D",
"D#	c #2E4D3D",
"E#	c #2E4639",
"F#	c #2F4036",
"G#	c #303F37",
"H#	c #31473B",
"I#	c #2F4B3D",
"J#	c #2E4A3B",
"K#	c #2D453A",
"L#	c #2D403C",
"M#	c #2E3E41",
"N#	c #31454C",
"O#	c #344756",
"P#	c #374760",
"Q#	c #364667",
"R#	c #344767",
"S#	c #324667",
"T#	c #354469",
"U#	c #344568",
"V#	c #323F66",
"W#	c #334064",
"X#	c #34415E",
"Y#	c #344557",
"Z#	c #31454F",
"`#	c #2E4445",
" $	c #2F4646",
".$	c #2D4844",
"+$	c #31433D",
"@$	c #393F39",
"#$	c #3E3C36",
"$$	c #3B3937",
"%$	c #343D3A",
"&$	c #2F413D",
"*$	c #2D4041",
"=$	c #2E3E43",
"-$	c #2E3C44",
";$	c #303D4D",
">$	c #334356",
",$	c #354B5F",
"'$	c #374B66",
")$	c #394969",
"!$	c #39496A",
"~$	c #385169",
"{$	c #374C69",
"]$	c #323F68",
"^$	c #38526A",
"/$	c #384E6A",
"($	c #384866",
"_$	c #354661",
":$	c #33495A",
"<$	c #334759",
"[$	c #304253",
"}$	c #393B44",
"|$	c #51413B",
"1$	c #5E473B",
"2$	c #564139",
"3$	c #41393A",
"4$	c #313A41",
"5$	c #2D3A4F",
"6$	c #2D3A56",
"7$	c #2D3E56",
"8$	c #32465E",
"9$	c #384F66",
"0$	c #344768",
"a$	c #344C67",
"b$	c #394A6B",
"c$	c #344868",
"d$	c #344A68",
"e$	c #375069",
"f$	c #354A66",
"g$	c #344467",
"h$	c #323E5F",
"i$	c #433C4E",
"j$	c #695044",
"k$	c #7B5D44",
"l$	c #6E4F3E",
"m$	c #503B3E",
"n$	c #383C4C",
"o$	c #32465D",
"p$	c #334B63",
"q$	c #344C64",
"r$	c #3A4C69",
"s$	c #394A6A",
"t$	c #334767",
"u$	c #334B66",
"v$	c #324767",
"w$	c #39496B",
"      . + @ # $ % & * = - ; > , ' ) ! ~ { ] ^     / ( _ ",
": < [ } | 1 2 3 4 5 6 7 8 9 0 a b c d e f g h i j k l m ",
": n o p q r s t u v w x y z A B C D E F G H I J K L M N ",
"O P Q R S T U V W X Y Z `  ...+.@.#.$.%.&.*.=.-.;.>.,.'.",
").N !.S ~.{.].^././.(.Z  ._.(.(.:.Z  .<.[.}.|.1.2.3.4.5.",
"6.7.8.9.0.9 a.b.c.Y d.e.a.f.g.h.Y (.i.j.C k.l.m.n.o.p._ ",
"q.r.s.t.u.g.v.v.w.x.y.z.A.B.C.D./.E.j.F.G.H.I.J.K.L.M.N.",
"O.P.Q.R.S.T.U.f.x V.W.X.Y.c.Z.x.`. +.+G.++@+#+$+%+&+*+=+",
"-+;+>+,+j.y.i.i.'+ +y.z Y ..I.)+!+)+I.~+{+`.]+^+/+(+_+:+",
"<+[+}+|+D 1+++2+3+4+5+X W 6+7+8+9+9+y.W 0+ .a+b+c+d+e+f+",
"g+h+i+j+[..+k+3+l+m+h.h.a.i.`.Y Y n+5+f.x o+b+p+q+r+s+t+",
"u+v+w+x+y+a+@.2+z+x.z.a.W w /.U.T.X f.a.A+B+C+D+E+F+G+H+",
"I+J+9 K+X.x.{+ +L+E.e.`.]+_.Y D.h.M+z N+I.O+P+Q+R+S+T+U+",
"V+W+X+K+X.(._.`.X.Y+Z+_. +@. .(.w E.]+I.`+ @.@P++@@@#@$@",
"%@&@*@]+{+9+E.K+=@M+a.e.9+-@-@!+@.++k+;@>@,@'@'@)@!@~@{@",
"]@^@J./@(@o+_@A.A.:@X z :.V V  +F.G.I.o+<@[@[@}@|@.@1@2@",
"3@4@5@6@7@8@9@h.v.h.0@y.a@y+w X.0+#+]+9+V.++b@`+c@d@e@f@",
"g@h@i@j@k@l@m@_.Z+n@y.o@p@W.K+g.z.W (._.V ++C q@r@s@t@u@",
"p.v@w@x@y@z@;@;@A@B@o+;@C@ +W z (.x D@ +p@C z@E@F@G@H@I@",
"J@K@L@9++.@.$.M@k.[.N@C+'@O@-@-@I.P@$.z@Q@l@R@S@R+T@U@V@",
"W@X@Y@V V @.;@k.2+B@Z@[.`@;@ #.#+#I.b@@###$#%#&#*#S+=#-#",
";#>#,#D .+D '#)#i./.(.]+a@G.!#`+-@~#V C `@{#]#^#/#(#_#:#",
"<#[#}#|#1#5@2#C @+Y E.3#++`@'#(@4# +++;@C+5#6#/#7#8#9#0#",
"a#b#c#d#e#f#g#h#/@i#2+/@@#5#j#J.k#O@N@l#+@m#n#o#p#q#r#s#",
"t#u#v#w#x#y#z#A#B#C#D#j@E#F#G#H#I#J#K.K#L#M#N#O#P#Q#R#S#",
"T#U#S#V#W#X#Y#Z#`# $.$+$@$#$$$%$&$*$=$-$;$>$,$'$)$!$~${$",
"]$: N ^$/$)$($_$:$<$[$}$|$1$2$3$4$5$6$7$8$9$v#M 0$/ a$b$",
"]$: !$c$d$~$e$M f$g$h$i$j$k$l$m$n$o$p$q$r$s$_ t$u$v$S#w$"};
