/* XPM */
static char * new_chara_xpm[] = {
"25 25 488 2",
"  	c #384D6A",
". 	c #374C6A",
"+ 	c #3B516C",
"@ 	c #3E566F",
"# 	c #415970",
"$ 	c #3B4C6B",
"% 	c #364769",
"& 	c #354B68",
"* 	c #344B63",
"= 	c #2C384F",
"- 	c #2A3147",
"; 	c #2B3347",
"> 	c #2B3546",
", 	c #2E3A49",
"' 	c #303B4A",
") 	c #2D3A4A",
"! 	c #314157",
"~ 	c #324564",
"{ 	c #344866",
"] 	c #384C69",
"^ 	c #334668",
"/ 	c #334667",
"( 	c #374769",
"_ 	c #37466A",
": 	c #364869",
"< 	c #39486A",
"[ 	c #38486A",
"} 	c #3B516B",
"| 	c #3C566D",
"1 	c #3B546D",
"2 	c #374C69",
"3 	c #354966",
"4 	c #2F3B56",
"5 	c #2C2F3B",
"6 	c #343639",
"7 	c #404041",
"8 	c #505051",
"9 	c #484849",
"0 	c #4B4B4C",
"a 	c #4E4E4F",
"b 	c #3A3B3D",
"c 	c #32353A",
"d 	c #2D3345",
"e 	c #334060",
"f 	c #384A69",
"g 	c #364B68",
"h 	c #364D69",
"i 	c #354969",
"j 	c #354868",
"k 	c #374B69",
"l 	c #344768",
"m 	c #334767",
"n 	c #334567",
"o 	c #364569",
"p 	c #374667",
"q 	c #324259",
"r 	c #36383C",
"s 	c #4C4C4C",
"t 	c #4B4B4B",
"u 	c #585858",
"v 	c #5F5F5F",
"w 	c #505050",
"x 	c #555555",
"y 	c #525252",
"z 	c #474748",
"A 	c #303542",
"B 	c #334460",
"C 	c #334666",
"D 	c #334368",
"E 	c #334168",
"F 	c #384E6A",
"G 	c #394A6B",
"H 	c #364469",
"I 	c #364669",
"J 	c #374E68",
"K 	c #314057",
"L 	c #34363B",
"M 	c #4F4F4F",
"N 	c #616161",
"O 	c #626262",
"P 	c #727272",
"Q 	c #606060",
"R 	c #737373",
"S 	c #5D5D5D",
"T 	c #5C5C5C",
"U 	c #454546",
"V 	c #2E3341",
"W 	c #334160",
"X 	c #384C6A",
"Y 	c #39506B",
"Z 	c #3A4D6B",
"` 	c #384A6A",
" .	c #38496B",
"..	c #37476A",
"+.	c #334268",
"@.	c #314361",
"#.	c #2A2F3C",
"$.	c #424243",
"%.	c #646363",
"&.	c #6B6B6B",
"*.	c #5E5E5E",
"=.	c #646464",
"-.	c #666666",
";.	c #616060",
">.	c #6A6A6A",
",.	c #515151",
"'.	c #37383C",
").	c #2D374C",
"!.	c #3A506B",
"~.	c #384F6A",
"{.	c #364B69",
"].	c #334867",
"^.	c #344766",
"/.	c #2E3B51",
"(.	c #36383B",
"_.	c #4E4E4E",
":.	c #504E4D",
"<.	c #685D56",
"[.	c #75685C",
"}.	c #71675B",
"|.	c #5A5956",
"1.	c #514F4E",
"2.	c #555351",
"3.	c #625E59",
"4.	c #75695C",
"5.	c #72655A",
"6.	c #5F5853",
"7.	c #4D4C4C",
"8.	c #494949",
"9.	c #2F363F",
"0.	c #34465E",
"a.	c #3D536D",
"b.	c #394E6B",
"c.	c #364A69",
"d.	c #344468",
"e.	c #3A4C68",
"f.	c #303E4D",
"g.	c #3A3B3C",
"h.	c #565655",
"i.	c #75675C",
"j.	c #C29D7B",
"k.	c #E8C096",
"l.	c #E1C59A",
"m.	c #908169",
"n.	c #8B7C65",
"o.	c #8B7D66",
"p.	c #AA9778",
"q.	c #EECDA0",
"r.	c #DEB58D",
"s.	c #A6886E",
"t.	c #5E5A57",
"u.	c #30333B",
"v.	c #33435A",
"w.	c #3D596E",
"x.	c #3B526C",
"y.	c #39496B",
"z.	c #394B6A",
"A.	c #384D67",
"B.	c #2B3849",
"C.	c #383939",
"D.	c #5B5652",
"E.	c #A58A73",
"F.	c #F0C69A",
"G.	c #FCDBAA",
"H.	c #FEE0AE",
"I.	c #FBDEAD",
"J.	c #FBDEAC",
"K.	c #FCDEAD",
"L.	c #FDDEAD",
"M.	c #F9D5A6",
"N.	c #DEB58E",
"O.	c #7E6E63",
"P.	c #484847",
"Q.	c #30323A",
"R.	c #2F4057",
"S.	c #374E69",
"T.	c #354A68",
"U.	c #354669",
"V.	c #3B4D6B",
"W.	c #3D556E",
"X.	c #3D576E",
"Y.	c #394C69",
"Z.	c #333749",
"`.	c #554436",
" +	c #594D46",
".+	c #AE9076",
"++	c #F7D2A3",
"@+	c #FFE1AF",
"#+	c #FCDBAB",
"$+	c #FAD8A8",
"%+	c #FEDEAD",
"&+	c #E5BF96",
"*+	c #877061",
"=+	c #49403A",
"-+	c #4E423B",
";+	c #313E57",
">+	c #364868",
",+	c #3E586E",
"'+	c #3D526D",
")+	c #3A4B68",
"!+	c #564C4E",
"~+	c #A27053",
"{+	c #785A4B",
"]+	c #C89978",
"^+	c #EECA9D",
"/+	c #F0D4A4",
"(+	c #F3D6A6",
"_+	c #FDDDAC",
":+	c #F7D3A4",
"<+	c #EDC69A",
"[+	c #EAC99C",
"}+	c #F0D2A2",
"|+	c #E5BC92",
"1+	c #AD7F65",
"2+	c #795848",
"3+	c #956A54",
"4+	c #394457",
"5+	c #374869",
"6+	c #38476A",
"7+	c #3C4F6C",
"8+	c #3C556D",
"9+	c #3A4E69",
"0+	c #585054",
"a+	c #A57259",
"b+	c #634E3F",
"c+	c #907157",
"d+	c #A88A69",
"e+	c #7E7157",
"f+	c #9E8C6E",
"g+	c #E3C89D",
"h+	c #DFBF95",
"i+	c #D5AE88",
"j+	c #CAAB87",
"k+	c #817259",
"l+	c #8B785B",
"m+	c #AC8A69",
"n+	c #785C48",
"o+	c #785846",
"p+	c #986E5B",
"q+	c #3B4B5C",
"r+	c #364C69",
"s+	c #344568",
"t+	c #394C6A",
"u+	c #354369",
"v+	c #3B4667",
"w+	c #504D50",
"x+	c #544832",
"y+	c #594332",
"z+	c #4D433F",
"A+	c #6A6968",
"B+	c #625A51",
"C+	c #7D6953",
"D+	c #746451",
"E+	c #5E5B58",
"F+	c #5B5958",
"G+	c #4F3E35",
"H+	c #594531",
"I+	c #51493A",
"J+	c #474758",
"K+	c #384A6B",
"L+	c #3A526D",
"M+	c #374A6A",
"N+	c #364969",
"O+	c #344868",
"P+	c #3A4B66",
"Q+	c #564F51",
"R+	c #825E43",
"S+	c #7A5746",
"T+	c #67574E",
"U+	c #6F6255",
"V+	c #937E65",
"W+	c #D7B78F",
"X+	c #C9AF89",
"Y+	c #7A6E5A",
"Z+	c #6D6357",
"`+	c #6D574B",
" @	c #815A45",
".@	c #765946",
"+@	c #464D5A",
"@@	c #36486A",
"#@	c #384D6B",
"$@	c #394F6B",
"%@	c #354869",
"&@	c #37486A",
"*@	c #334367",
"=@	c #3E485C",
"-@	c #695141",
";@	c #9E6F52",
">@	c #BA8C6C",
",@	c #CEA883",
"'@	c #E4C599",
")@	c #FAD9A9",
"!@	c #F6D7A8",
"~@	c #DDBF94",
"{@	c #CDAB84",
"]@	c #B38666",
"^@	c #8C6349",
"/@	c #534848",
"(@	c #3B4A66",
"_@	c #3C526C",
":@	c #3C516C",
"<@	c #3B4D6C",
"[@	c #384B6A",
"}@	c #364D68",
"|@	c #36456A",
"1@	c #344268",
"2@	c #324567",
"3@	c #324467",
"4@	c #354468",
"5@	c #394460",
"6@	c #43474D",
"7@	c #514E4C",
"8@	c #665240",
"9@	c #9B7252",
"0@	c #C79571",
"a@	c #D9B188",
"b@	c #DAB38B",
"c@	c #D5AB83",
"d@	c #BB8B68",
"e@	c #866648",
"f@	c #554B41",
"g@	c #4C4D4F",
"h@	c #404854",
"i@	c #394C66",
"j@	c #374969",
"k@	c #354569",
"l@	c #354768",
"m@	c #324767",
"n@	c #324565",
"o@	c #35455E",
"p@	c #43464D",
"q@	c #565656",
"r@	c #504F4D",
"s@	c #534A3B",
"t@	c #665B4B",
"u@	c #6C6352",
"v@	c #736A5C",
"w@	c #746B5C",
"x@	c #685E4D",
"y@	c #605646",
"z@	c #4D473C",
"A@	c #525353",
"B@	c #636363",
"C@	c #535456",
"D@	c #3F4A59",
"E@	c #344767",
"F@	c #334068",
"G@	c #354769",
"H@	c #374968",
"I@	c #34405C",
"J@	c #343843",
"K@	c #545454",
"L@	c #646465",
"M@	c #767677",
"N@	c #797878",
"O@	c #5B5B5B",
"P@	c #484848",
"Q@	c #5A5A5A",
"R@	c #727374",
"S@	c #666769",
"T@	c #4B505A",
"U@	c #374463",
"V@	c #37496A",
"W@	c #374D69",
"X@	c #34455D",
"Y@	c #323742",
"Z@	c #313131",
"`@	c #3D3C39",
" #	c #404349",
".#	c #404247",
"+#	c #4F4F50",
"@#	c #5E5B57",
"##	c #938B7F",
"$#	c #8C857B",
"%#	c #4F5256",
"&#	c #35405A",
"*#	c #364A65",
"=#	c #2F3640",
"-#	c #33363C",
";#	c #343C44",
">#	c #424245",
",#	c #37425F",
"'#	c #384456",
")#	c #4D4D4E",
"!#	c #777777",
"~#	c #6F6F6F",
"{#	c #757575",
"]#	c #616262",
"^#	c #7C705D",
"/#	c #DEC49B",
"(#	c #D4BB96",
"_#	c #72655E",
":#	c #354158",
"<#	c #374766",
"[#	c #323E4E",
"}#	c #37495A",
"|#	c #3C546A",
"1#	c #384B67",
"2#	c #374A67",
"3#	c #37435A",
"4#	c #49494A",
"5#	c #787878",
"6#	c #6C6C6C",
"7#	c #535353",
"8#	c #6E6E6E",
"9#	c #7A7A7A",
"0#	c #757676",
"a#	c #5E5F5E",
"b#	c #7E6D54",
"c#	c #E0BD91",
"d#	c #E2C094",
"e#	c #A08165",
"f#	c #3A4957",
"g#	c #374A69",
"h#	c #344668",
"i#	c #344967",
"j#	c #38496A",
"k#	c #37455D",
"l#	c #424347",
"m#	c #676767",
"n#	c #656565",
"o#	c #47484A",
"p#	c #5E4E4A",
"q#	c #A0765E",
"r#	c #A48266",
"s#	c #66544C",
"t#	c #39445F",
"u#	c #394B6B",
"v#	c #354469",
"w#	c #364762",
"x#	c #464C55",
"y#	c #3F4144",
"z#	c #3B3C3F",
"A#	c #464646",
"B#	c #474747",
"C#	c #414349",
"D#	c #3A465B",
"E#	c #3A4459",
"F#	c #3B4358",
"G#	c #3C4761",
"H#	c #3A4C6B",
"I#	c #38486B",
"J#	c #344269",
"K#	c #344968",
"L#	c #354668",
"M#	c #354A66",
"N#	c #444D5B",
"O#	c #6D6D6D",
"P#	c #717171",
"Q#	c #555557",
"R#	c #3C4452",
"S#	c #3C4353",
"T#	c #494A4C",
"U#	c #4A4A4B",
"V#	c #434750",
"W#	c #384661",
"X#	c #39496A",
"Y#	c #394D6A",
"Z#	c #3A516B",
"`#	c #36476A",
" $	c #394F6A",
".$	c #3A4F6C",
"+$	c #404959",
"@$	c #656667",
"#$	c #5F6062",
"$$	c #4A4B50",
"%$	c #364057",
"&$	c #394B65",
"*$	c #3B4554",
"=$	c #3A4351",
"-$	c #37415C",
";$	c #3C516D",
">$	c #394C6B",
",$	c #3B4F6B",
"'$	c #3F5A6F",
")$	c #405D71",
"!$	c #3B4F6C",
"~$	c #39465E",
"{$	c #4B5361",
"]$	c #4E5663",
"^$	c #42495C",
"/$	c #394561",
"($	c #3D516D",
"_$	c #3F576E",
":$	c #394E6A",
"<$	c #3E5B6F",
"[$	c #3C546C",
"}$	c #394A6A",
"  . + @ # $ % & * = - ; > , ' ) ! ~ { ] ^ / ( _ : ",
"< [ } | 1 2 3 4 5 6 7 8 9 0 a b c d e f g h . i j ",
"k l m n o p q r s t u v w x v y t z A B C D E % F ",
"G [ H I J K L M N v O P u Q R S N T U V W X Y Z ` ",
" ...+.D @.#.$.u %.&.*.=.y u -.;.>.*.,.'.).] !.[ % ",
"~.{.].^./.(._.:.<.[.}.|.1.2.3.4.5.6.7.8.9.0.a.b.2 ",
"c.d...e.f.g.h.i.j.k.l.m.n.o.p.q.r.s.t._.u.v.w.x.y.",
"j : z.A.B.C.D.E.F.G.H.I.J.I.K.L.M.N.O.P.Q.R.S.T.U.",
"V.W.X.Y.Z.`. +.+++@+@+@+@+H.#+$+%+&+*+=+-+;+I l >+",
"  ,+'+)+!+~+{+]+^+/+(+H._+:+<+[+}+|+1+2+3+4+5+_ U.",
"6+7+8+9+0+a+b+c+d+e+f+g+h+i+j+k+l+m+n+o+p+q+r+s+n ",
"t+T.l u+v+w+x+y+z+=.A+B+C+D+E+&.F+G+H+I+J+E u+K+L+",
"M+N+O+o c.P+Q+R+S+T+U+V+W+X+Y+Z+`+ @.@+@@@K+#@$@+ ",
"_ [ %@l &@*@=@-@;@>@,@'@)@!@~@{@]@^@/@(@_@:@<@[@}@",
"|@1@2@3@4@5@6@7@8@9@0@a@b@b@c@d@e@f@g@h@i@j@k@I h ",
"N+l@m@n@o@p@q@S r@s@t@u@v@w@x@y@z@A@B@C@D@E@m h i ",
"F@G@H@I@J@8.x K@s ,.L@P M@N@&.O@P@Q@R@S@T@U@_ V@W@",
"_ f X@Y@Z@`@ #.#t B@T =.q@Q@=.K@+#@###$#%#&#%@c.s+",
"F *#=#-#;#>#,#'#)#P !#~#N >.{#{#]#^#/#(#_#:#%@..I ",
"y.<#[#}#|#1#2#3#4#&.5#6#7#8#9#0#a#b#c#d#e#f#  %@O+",
"g#h#i#l I j#k k#l#x m#*.w v n#*.o#p#q#r#s#t#E %@F ",
"u#[ v#I F [@h#w#x#Q@=.w y#z#A#B#C#D#E#F#G#c.  H#[@",
"I#..J#d.K#L#5+M#N#O#P#Q#R#S#T#U#V#W#F@J#X#Y#Z#j#`#",
" $k m l @@K+.$2#+$@$#$$$%$&$*$=$-$n 2    $.$;$>${.",
"g#d.( ,$'$)$!$>+~${$]$^$/$($_$:@_ o :$o V@a.<$[$}$"};
