/* XPM */
static char *result[] = {
/* columns rows colors chars-per-pixel */
"25 25 51 1 ",
"  c #010102",
". c #2D2D2D",
"X c #353536",
"o c #363638",
"O c #393939",
"+ c #454145",
"@ c #484347",
"# c #464349",
"$ c #4A454B",
"% c #4D494D",
"& c #504C4F",
"* c #4F4D52",
"= c #514D52",
"- c #545155",
"; c #585456",
": c #565459",
"> c #5A565B",
", c #5B595D",
"< c #5E5C62",
"1 c #625D63",
"2 c #636065",
"3 c #666369",
"4 c #69656B",
"5 c #6C696E",
"6 c #6D6B71",
"7 c #716D73",
"8 c #747176",
"9 c #77747A",
"0 c #79767C",
"q c #7B797E",
"w c #7E7B80",
"e c #817D84",
"r c #838186",
"t c #86858A",
"y c #89858B",
"u c #8B898D",
"i c #8E8B91",
"p c #938E94",
"a c #939196",
"s c #949398",
"d c #9C989E",
"f c #A19CA2",
"g c #A6A5A6",
"h c #A7A6A9",
"j c #AAA9AA",
"k c #B0B0B1",
"l c #C9C7CB",
"z c #CCCACD",
"x c #CECED1",
"c c #D3D2D4",
"v c #E6E6E6",
/* pixels */
"                         ",
"XOOOXOOOXXXX.+OOoXOOOOoXX",
"ukjjghjggggg2cjjhghjhgggg",
"accccxczzxzz4vcccczcxzxzl",
"7utttttuwqw8#juttrtwy9w05",
"7<3555556522#s,4465546411",
"322:,,:,:<35#u<<:>>><<113",
":6:%#*-#*,t6#d5-***=$*401",
"+7>$&&$&*:i5@p5=&&&&&-7q:",
"$7>$&&&&-:p6$f6=&&&&&-70,",
"$7>&&;;&:1p5#a5*;;;;;>90>",
"$7>$&&$&%-p5#y5*&;&&&=6q1",
"15>=&>>&>ei6#i5w1>,,;,9q2",
"1519ppppfp>1$e$3ppppppde4",
"1754444414%1$e#<444444444",
"171>1>>>>4=1$y:71>>,,,144",
"17>%$%&$*>57#e41$%&&@&193",
"14>$$%&%*>w6#p4*$=&&&&7e3",
"+7;&>>=>::i6#ew-:>;;;>80>",
"$7;$@&&$*<i5#e4-%$&&&&70,",
"$7>=>>=><*i5#e5*>>>:>>9q,",
"@7>$@==$*<i6#w5*%%==&&7q:",
"14144we77wi6#e3<700090y03",
"<114e9eewww3#w:48qqq0qe12",
"-11111111313#w<12222222,<"
};
