/* XPM */
static char *result[] = {
/* columns rows colors chars-per-pixel */
"25 25 214 2 ",
"   c #384D6A",
".  c #374C6A",
"X  c #3B516C",
"o  c #3E566F",
"O  c #415970",
"+  c #3B4C6B",
"@  c #364769",
"#  c #364C69",
"$  c #364F69",
"%  c #354769",
"&  c #344269",
"*  c #324367",
"=  c #334967",
"-  c #3A516B",
";  c #3D536D",
":  c #3B516B",
">  c #384D69",
",  c #334767",
"<  c #344867",
"1  c #384C69",
"2  c #334668",
"3  c #334667",
"4  c #374769",
"5  c #37466A",
"6  c #364869",
"7  c #39486A",
"8  c #38486A",
"9  c #3C566D",
"0  c #3B546D",
"q  c #374C69",
"w  c #364B69",
"e  c #344568",
"r  c #324168",
"t  c #394F6A",
"y  c #374969",
"u  c #354469",
"i  c #384B6A",
"p  c #40576F",
"a  c #3F566F",
"s  c #384A6A",
"d  c #364B68",
"f  c #364D69",
"g  c #354969",
"h  c #354868",
"j  c #374B69",
"k  c #344768",
"l  c #334567",
"z  c #364569",
"x  c #354A69",
"c  c #354669",
"v  c #374B6A",
"b  c #3A526C",
"n  c #3D546D",
"m  c #3B506B",
"M  c #3A506B",
"N  c #3A4F6D",
"B  c #394D6B",
"V  c #374D6A",
"C  c #354768",
"Z  c #364A69",
"A  c #334368",
"S  c #334168",
"D  c #384E6A",
"F  c #394A6B",
"G  c #364469",
"H  c #364669",
"J  c #384F6A",
"K  c #384C6A",
"L  c #384F69",
"P  c #3C526B",
"I  c #3A506A",
"U  c #3D506D",
"Y  c #394A6A",
"T  c #3A4B6B",
"R  c #39506B",
"E  c #3A4D6B",
"W  c #38496B",
"Q  c #37476A",
"!  c #334268",
"~  c #344468",
"^  c #38496A",
"/  c #364D68",
"(  c #3E526E",
")  c #3C4F6C",
"_  c #384B69",
"`  c #344868",
"'  c #37496A",
"]  c #344369",
"[  c #394D6A",
"{  c #334867",
"}  c #354968",
"|  c #394E6C",
" . c #3A506C",
".. c #36496A",
"X. c #354869",
"o. c #3A526B",
"O. c #394E6A",
"+. c #334468",
"@. c #39506A",
"#. c #3B506C",
"$. c #394E6B",
"%. c #3B4E6B",
"&. c #3F586F",
"*. c #415D71",
"=. c #354A68",
"-. c #3B4B6B",
";. c #3E516D",
":. c #3F566E",
">. c #3C536C",
",. c #354369",
"<. c #36466A",
"1. c #3C506D",
"2. c #3D596E",
"3. c #3B526C",
"4. c #39496B",
"5. c #394B6A",
"6. c #374E69",
"7. c #3A536B",
"8. c #3C526C",
"9. c #3C546D",
"0. c #344268",
"q. c #374A6A",
"w. c #3B4D6B",
"e. c #3B4F6B",
"r. c #344968",
"t. c #374A69",
"y. c #334467",
"u. c #334568",
"i. c #3D556E",
"p. c #3D576E",
"a. c #3A4E6C",
"s. c #394F6B",
"d. c #344869",
"f. c #354569",
"g. c #394B6B",
"h. c #3B546C",
"j. c #3A516A",
"k. c #364868",
"l. c #3E586E",
"z. c #3D526D",
"x. c #3A4C6B",
"c. c #394C6A",
"v. c #354B68",
"b. c #3A4E6B",
"n. c #364A6A",
"m. c #384D6B",
"M. c #3F576E",
"N. c #3F546E",
"B. c #374869",
"V. c #38476A",
"C. c #3C556D",
"Z. c #364C68",
"A. c #354C68",
"S. c #3D566D",
"D. c #324467",
"F. c #3E566E",
"G. c #3A4F6B",
"H. c #3B4D6C",
"J. c #3B4E6C",
"K. c #354668",
"L. c #384A6B",
"P. c #3A526D",
"I. c #364969",
"U. c #344368",
"Y. c #344469",
"T. c #36486A",
"R. c #37486A",
"E. c #344A68",
"W. c #364B6A",
"Q. c #36456A",
"!. c #3C516C",
"~. c #324567",
"^. c #36446A",
"/. c #3F526E",
"(. c #324767",
"). c #324667",
"_. c #394C6B",
"`. c #324268",
"'. c #40566E",
"]. c #334068",
"[. c #3E576E",
"{. c #3C526D",
"}. c #3C4E6C",
"|. c #374D69",
" X c #384B6B",
".X c #3B516D",
"XX c #344668",
"oX c #39496A",
"OX c #3D536E",
"+X c #415A70",
"@X c #324267",
"#X c #324368",
"$X c #3E556E",
"%X c #364E69",
"&X c #344967",
"*X c #3A516C",
"=X c #3C516D",
"-X c #3C526E",
";X c #334868",
":X c #384E69",
">X c #39516A",
",X c #3E526D",
"<X c #38486B",
"1X c #384F6B",
"2X c #36476A",
"3X c #3A4F6C",
"4X c #3F5A6F",
"5X c #405D71",
"6X c #3B4F6C",
"7X c #39486B",
"8X c #3D516D",
"9X c #3E5B6F",
"0X c #3C546C",
"qX c white",
/* pixels */
"  . X o O + @ # $ % & * = - ; : > , < 1 2 3 4 5 6 ",
"7 8 : 9 0 q w e r w t y u i p a : 5 5 s d f . g h ",
"j k , l z 8 . x c v x b n m M N B V C Z , A S @ D ",
"F 8 G H J K e , L P q I U F s s Y T G z 8 K R E s ",
"W Q ! A , ~ ^ / R ( ) i _ ^ u ` w ' S ] Y [ M 8 @ ",
"J w { } i |  ...X.R o.e A O.- # ! +.D   @.#.; $.q ",
"Z ~ Q %.&.*.U   X.=.X.5 -.;.:.>.8 8   ,.<.1.2.3.4.",
"h 6 5.t 6.7.8.9.] 0.Z q.w.e.#.v r.t.h y.u.  6.=.c ",
"w.i.p.a.u 6 K s.d.% Z X.K j c & f.@ g.h.j.Y H k k.",
"  l.z.x.c.H 0.v.y 8 B b.+ 4.n.Z y 6 m.M.N.^ B.5 c ",
"V.) C.s.Z.X.q.A.! 5 #.S.n B A D.} 8 F n i.D # e l ",
"c.=.k ,.5 ) F.V # b.G.H.J.: j ] k K.[ t ~ S ,.L.P.",
"q.I.` z Z w w U.f.q.M E g.=.u.u c.v Y.D T.L.m.s.X ",
"5 8 X.k R.A E.v.W.` ` X.K H A v.E 5 Q.x.8.!.H.i / ",
"Q.0.~.D.u H } g Q.5 H # v ^.H } X.T /.z.D y f.H f ",
"I.C (.).x f =._.B 8 `.)., Z f ).! t '.M.R k , f g ",
"].% t.H 8 Q m [.{.@ h = A z ^ 6   ) }.J 5.5 5 ' |.",
"5 i q  X.XI.XX} H ,.<.w H oXoX@ x u ^ D i e X.Z e ",
"D V $.OX+XE u E.f @ & @X= b.#.M |.3 < > +.~.X.Q H ",
"4.^ 8.l.S.j j k #Xx   % ~ K p $Xm H 5 s d %X  X.` ",
"t.XX&Xk H ^ . g u i w *X=Xe.3.-XG.v K.Z { +.S X.D ",
"g.8 u H D i XX;X:X- w >X,Xx.i ^ 8 x.H 5 Q Z   x.i ",
"<XQ & ~ r.K.B.v.1X( }.c.c.^ u r.q ^ ].& oX[ - ^ 2X",
"t j , k T.L.3Xv Z : o.e +.  D v.A u.q   t 3X=X_.w ",
"t.~ 4 e.4X5X6XI.k # q Q 7X8XM.!.5 z O.z ' ; 9X0XY "
};
