/* XPM */
static char * new_item_xpm[] = {
"25 25 395 2",
"  	c #384D6A",
". 	c #374C6A",
"+ 	c #3B516C",
"@ 	c #3E566F",
"# 	c #415970",
"$ 	c #3B4C6B",
"% 	c #364769",
"& 	c #364C69",
"* 	c #364F69",
"= 	c #354769",
"- 	c #344269",
"; 	c #324367",
"> 	c #334967",
", 	c #3A516B",
"' 	c #3D536D",
") 	c #3B516B",
"! 	c #384D69",
"~ 	c #334767",
"{ 	c #344867",
"] 	c #384C69",
"^ 	c #334668",
"/ 	c #334667",
"( 	c #374769",
"_ 	c #37466A",
": 	c #364869",
"< 	c #39486A",
"[ 	c #38486A",
"} 	c #3C566D",
"| 	c #3B546D",
"1 	c #374C69",
"2 	c #364B69",
"3 	c #344568",
"4 	c #324168",
"5 	c #394F6A",
"6 	c #374969",
"7 	c #354469",
"8 	c #384B6A",
"9 	c #40576F",
"0 	c #3F566F",
"a 	c #384A6A",
"b 	c #364B68",
"c 	c #364D69",
"d 	c #354969",
"e 	c #354868",
"f 	c #374B69",
"g 	c #344768",
"h 	c #334567",
"i 	c #364569",
"j 	c #354A69",
"k 	c #354669",
"l 	c #374B6A",
"m 	c #3A526C",
"n 	c #3D546D",
"o 	c #3B506B",
"p 	c #3D3D31",
"q 	c #75755E",
"r 	c #060605",
"s 	c #374D6A",
"t 	c #354768",
"u 	c #364A69",
"v 	c #334368",
"w 	c #334168",
"x 	c #384E6A",
"y 	c #394A6B",
"z 	c #364469",
"A 	c #364669",
"B 	c #384F6A",
"C 	c #384C6A",
"D 	c #384F69",
"E 	c #3C526B",
"F 	c #3A506A",
"G 	c #3D506D",
"H 	c #333329",
"I 	c #BBBB93",
"J 	c #C3C393",
"K 	c #ADA884",
"L 	c #474536",
"M 	c #26261F",
"N 	c #39506B",
"O 	c #3A4D6B",
"P 	c #38496B",
"Q 	c #37476A",
"R 	c #334268",
"S 	c #344468",
"T 	c #38496A",
"U 	c #364D68",
"V 	c #3E526E",
"W 	c #3C4F6C",
"X 	c #3A3A2F",
"Y 	c #BABA93",
"Z 	c #A8A874",
"` 	c #646431",
" .	c #C1B08E",
"..	c #C3BD92",
"+.	c #A3A57B",
"@.	c #51513F",
"#.	c #202018",
"$.	c #394D6A",
"%.	c #3A506B",
"&.	c #334867",
"*.	c #354968",
"=.	c #394E6C",
"-.	c #3A506C",
";.	c #36496A",
">.	c #354869",
",.	c #3A526B",
"'.	c #39392E",
").	c #B7B790",
"!.	c #ABAB77",
"~.	c #5F5F2C",
"{.	c #B8B985",
"].	c #E7C9A5",
"^.	c #BFAB82",
"/.	c #B3906E",
"(.	c #B3B37F",
"_.	c #848461",
":.	c #73735C",
"<.	c #070706",
"[.	c #394E6B",
"}.	c #3B4E6B",
"|.	c #3F586F",
"1.	c #415D71",
"2.	c #354A68",
"3.	c #35352A",
"4.	c #B9B991",
"5.	c #C1C18D",
"6.	c #A6A673",
"7.	c #848451",
"8.	c #9B9C69",
"9.	c #C4B389",
"0.	c #ECE1B3",
"a.	c #DFBFA2",
"b.	c #CBB898",
"c.	c #9C9D68",
"d.	c #CFCF9D",
"e.	c #AAAA85",
"f.	c #484835",
"g.	c #39496B",
"h.	c #394B6A",
"i.	c #374E69",
"j.	c #3A536B",
"k.	c #3C526C",
"l.	c #3C546D",
"m.	c #344369",
"n.	c #343433",
"o.	c #A4A487",
"p.	c #AAAA7E",
"q.	c #A3A36E",
"r.	c #A0A06C",
"s.	c #81814E",
"t.	c #B1B17E",
"u.	c #BBBC89",
"v.	c #BDB98A",
"w.	c #DFC7AC",
"x.	c #CAC797",
"y.	c #D9D9A6",
"z.	c #AFAF79",
"A.	c #373720",
"B.	c #3B4D6B",
"C.	c #3D556E",
"D.	c #3D576E",
"E.	c #3A4E6C",
"F.	c #394F6B",
"G.	c #3A3A3A",
"H.	c #C2C2C2",
"I.	c #B3B3B3",
"J.	c #9A9A91",
"K.	c #88886A",
"L.	c #7B7B4D",
"M.	c #8B8B56",
"N.	c #CACA97",
"O.	c #CCCC99",
"P.	c #8C8B59",
"Q.	c #9A9A67",
"R.	c #868653",
"S.	c #C4C491",
"T.	c #A9A976",
"U.	c #83834E",
"V.	c #3A3A23",
"W.	c #364868",
"X.	c #3E586E",
"Y.	c #3D526D",
"Z.	c #3A4C6B",
"`.	c #394C6A",
" +	c #344268",
".+	c #363636",
"++	c #C5C5C5",
"@+	c #FFFFFF",
"#+	c #EEEEEE",
"$+	c #BCBCBE",
"%+	c #87877A",
"&+	c #707056",
"*+	c #A2A271",
"=+	c #91915E",
"-+	c #878753",
";+	c #A2A26F",
">+	c #B4B481",
",+	c #81814D",
"'+	c #38476A",
")+	c #3C556D",
"!+	c #364C68",
"~+	c #30302A",
"{+	c #B4B4B4",
"]+	c #F7F7F7",
"^+	c #EAEAEB",
"/+	c #CDCDCC",
"(+	c #797971",
"_+	c #7F7F60",
":+	c #9E9E6F",
"<+	c #999966",
"[+	c #9C9C69",
"}+	c #82824F",
"|+	c #7E7E4A",
"1+	c #5D5D3B",
"2+	c #354369",
"3+	c #B1B18C",
"4+	c #777764",
"5+	c #9F9E96",
"6+	c #CCCCCE",
"7+	c #F9F9F9",
"8+	c #F8F8F9",
"9+	c #B7B7B5",
"0+	c #8F8F89",
"a+	c #979771",
"b+	c #80804D",
"c+	c #7F7F4C",
"d+	c #5D5D3C",
"e+	c #384A6B",
"f+	c #3A526D",
"g+	c #374A6A",
"h+	c #364969",
"i+	c #344868",
"j+	c #E4E4B0",
"k+	c #A7AD73",
"l+	c #A3B27B",
"m+	c #9F9E86",
"n+	c #A8A8A3",
"o+	c #C3C3C3",
"p+	c #CBCBCC",
"q+	c #67675A",
"r+	c #5B5B3A",
"s+	c #384D6B",
"t+	c #82814F",
"u+	c #D9DEA7",
"v+	c #B5CF81",
"w+	c #CAD796",
"x+	c #C8C7A0",
"y+	c #9DA083",
"z+	c #8A8A87",
"A+	c #D4D4D4",
"B+	c #FAFAFA",
"C+	c #D2D2D2",
"D+	c #949495",
"E+	c #676759",
"F+	c #3C516C",
"G+	c #3B4D6C",
"H+	c #36456A",
"I+	c #35352B",
"J+	c #A6A672",
"K+	c #60602D",
"L+	c #B9B785",
"M+	c #CFC895",
"N+	c #879D54",
"O+	c #999C66",
"P+	c #C2CE8E",
"Q+	c #AFC77D",
"R+	c #87875A",
"S+	c #767662",
"T+	c #95958E",
"U+	c #C8C8C7",
"V+	c #9C9C9C",
"W+	c #939393",
"X+	c #3F3F3D",
"Y+	c #354569",
"Z+	c #414135",
"`+	c #BBBB94",
" @	c #DCDCA9",
".@	c #7C7C49",
"+@	c #A3A370",
"@@	c #EBD9B6",
"#@	c #BF9377",
"$@	c #62622E",
"%@	c #B4A881",
"&@	c #B8C985",
"*@	c #949761",
"=@	c #92925F",
"-@	c #C2C28F",
";@	c #97976F",
">@	c #727271",
",@	c #9B9B9B",
"'@	c #646464",
")@	c #40566E",
"!@	c #3F576E",
"~@	c #334068",
"{@	c #4B4B34",
"]@	c #A0A06B",
"^@	c #D5D5A2",
"/@	c #DADAA7",
"(@	c #D3D3A0",
"_@	c #A0926D",
":@	c #72713F",
"<@	c #CEC19B",
"[@	c #E9CFB6",
"}@	c #DED9AB",
"|@	c #B5B582",
"1@	c #D2D29F",
"2@	c #A1A16E",
"3@	c #78784E",
"4@	c #717170",
"5@	c #3C4E6C",
"6@	c #37496A",
"7@	c #374D69",
"8@	c #3A3A24",
"9@	c #888854",
"0@	c #AAAA77",
"a@	c #C8CA95",
"b@	c #C2BA8F",
"c@	c #E0C7AD",
"d@	c #D6BEA3",
"e@	c #B2AB7F",
"f@	c #E5E6B2",
"g@	c #A8A875",
"h@	c #82824E",
"i@	c #74744A",
"j@	c #3E3E3D",
"k@	c #36361F",
"l@	c #80804A",
"m@	c #848450",
"n@	c #838350",
"o@	c #7D7D4A",
"p@	c #D7D6A4",
"q@	c #BEBC8B",
"r@	c #949261",
"s@	c #D5D4A2",
"t@	c #7F7F4B",
"u@	c #5C5C3B",
"v@	c #334468",
"w@	c #324567",
"x@	c #303020",
"y@	c #535337",
"z@	c #787848",
"A@	c #7E7E4B",
"B@	c #8B8B58",
"C@	c #C9C996",
"D@	c #3E556E",
"E@	c #364E69",
"F@	c #374A69",
"G@	c #344668",
"H@	c #344967",
"I@	c #2F2F20",
"J@	c #4E4E32",
"K@	c #818150",
"L@	c #7C7C4A",
"M@	c #7D7D49",
"N@	c #858552",
"O@	c #3B4F6B",
"P@	c #3B526C",
"Q@	c #3C526E",
"R@	c #3A4F6B",
"S@	c #354668",
"T@	c #394B6B",
"U@	c #1B1B13",
"V@	c #60603E",
"W@	c #77774B",
"X@	c #7B7B47",
"Y@	c #6D6D39",
"Z@	c #777743",
"`@	c #5E5E3C",
" #	c #3E526D",
".#	c #38486B",
"+#	c #344968",
"@#	c #374869",
"##	c #212116",
"$#	c #5E5E3E",
"%#	c #656539",
"&#	c #595937",
"*#	c #39496A",
"=#	c #36476A",
"-#	c #36486A",
";#	c #3A4F6C",
">#	c #212110",
",#	c #101007",
"'#	c #354B68",
")#	c #334568",
"!#	c #3C516D",
"~#	c #394C6B",
"{#	c #3F5A6F",
"]#	c #405D71",
"^#	c #3B4F6C",
"/#	c #39486B",
"(#	c #3D516D",
"_#	c #394E6A",
":#	c #3E5B6F",
"<#	c #3C546C",
"[#	c #394A6A",
"  . + @ # $ % & * = - ; > , ' ) ! ~ { ] ^ / ( _ : ",
"< [ ) } | 1 2 3 4 2 5 6 7 8 9 0 ) _ _ a b c . d e ",
"f g ~ h i [ . j k l j m n o p q r s t u ~ v w % x ",
"y [ z A B C 3 ~ D E 1 F G H I J K L M i [ C N O a ",
"P Q R v ~ S T U N V W 8 X Y Z `  ...+.@.#.$.%.[ % ",
"B 2 &.*.8 =.-.;.>.N ,.'.).!.~.{.].^./.(._.:.<.[.1 ",
"u S Q }.|.1.G   >.2.3.4.5.6.7.8.9.0.a.b.c.d.e.f.g.",
"e : h.5 i.j.k.l.m.n.o.p.q.r.s.t.u.v.w.x.6.y.z.A.k ",
"B.C.D.E.7 : C F.G.H.I.J.K.L.M.N.O.P.Q.R.S.T.U.V.W.",
"  X.Y.Z.`.A  +.+++@+@+#+$+%+&+*+=+-+;+>+Q.s.,+V.k ",
"'+W )+F.!+>.~+{+]+@+@+@+@+^+/+(+_+:+<+[+}+|+1+3 h ",
"`.2.g 2+_ '.3+4+5+6+7+@+@+@+@+8+9+0+a+b+c+d+2+e+f+",
"g+h+i+i X ).j+k+l+m+n+o+@+@+@+@+@+p+q+b+r+e+s+F.+ ",
"_ [ >.H Y !.t+u+v+w+x+y+z+A+B+@+C+D+E+r+k.F+G+8 U ",
"H+ +I+4.J+K+L+M+N+O+P+Q+R+S+T+U+V+W+X+Y.x 6 Y+A c ",
"h+Z+`+ @.@+@@@#@$@%@&@*@=@-@;@>@,@'@)@!@N g ~ c d ",
"~@{@]@^@/@(@_@:@<@[@}@|@1@2@3@4@'@W 5@B h._ _ 6@7@",
"_ 8@9@s.0@/@a@b@c@d@e@f@g@h@i@j@j 7 T x 8 3 >.u 3 ",
"x k@l@m@n@o@g@p@q@r@s@6.b+t@u@%.7@/ { ! v@w@>.Q A ",
"g.x@y@z@b+b+A@B@T.C@g@b+b+r+9 D@o A _ a b E@  >.i+",
"F@G@H@I@J@K@L@M@}+N@n@c+r+O@P@Q@R@l S@u &.v@w >.x ",
"T@[ 7 A x U@V@W@X@Y@Z@`@ #Z.8 T [ Z.A _ Q u   Z.8 ",
".#Q - S +#S@@###$#%#&#`.`.T 7 +#1 T ~@- *#$., T =#",
"5 f ~ g -#e+;#l u >#,#3 v@  x '#v )#1   5 ;#!#~#2 ",
"F@S ( O@{#]#^#h+g & 1 Q /#(#!@F+_ i _#i 6@' :#<#[#"};
