/* XPM */
static char *result[] = {
/* columns rows colors chars-per-pixel */
"24 25 32 1 ",
"  c #4F4F4B",
". c #52524F",
"X c #555451",
"o c #595955",
"O c #62615E",
"+ c #83847D",
"@ c #858680",
"# c #878882",
"$ c #8A8B84",
"% c #8E8F89",
"& c #8F908A",
"* c #93948D",
"= c #959691",
"- c #979892",
"; c #9A9B95",
": c #9D9E99",
"> c #9FA19B",
", c #A2A39D",
"< c #A5A6A1",
"1 c #A7A8A3",
"2 c #A9ABA5",
"3 c #ADAEA9",
"4 c #AFB0AB",
"5 c #B1B3AE",
"6 c #B4B6B1",
"7 c #B6B8B3",
"8 c #B9BAB6",
"9 c #BDBEB9",
"0 c #BFC1BC",
"q c #C1C3BE",
"w c #C3C6C1",
"e c #C8CAC4",
/* pixels */
"X.X..XX. . XXXXXXX XoOXX",
"3:634672,422234<42<<4454",
":*768004,832266<52226499",
"##;;:>=#>0523q720878==::",
"qqq,556<:qqqqe4;43<,*556",
"66q58343$:222<$+$@$:<2<<",
"5305q553<22222234<,82<,<",
"78q596522322433366,72,,<",
"93,*,1542,,22<<235,62322",
"3-<,,;45<<<222<<<5>85755",
":=770<253324696697*25577",
"*3440,;252<222242>#**=::",
"53129,*,42>$&,<<,*%25566",
"1<<30,786573285661$,3533",
"2238q:352,56332,*&#+*212",
"980ww-653155232=3q93@676",
",11,-#63<>55455=4054%>>>",
"4665,*741,84277>432216,+",
"94266,75466**=&$741118e>",
"6<>35,65466>003&041114q,",
"61,16,8q0q6>473$7721450>",
"05135,=$$%%>483$5944480=",
"3653136,>446352+;21,152+",
"&>84,155>633232+>1,1121>",
",>0,,144,81,144-95357755"
};
